<?xml version="1.0" encoding="UTF-8" standalone="no"?>
<!-- Created with Inkscape (http://www.inkscape.org/) -->

<svg
   width="196.24173mm"
   height="196.27814mm"
   viewBox="0 0 196.24173 196.27814"
   version="1.1"
   id="svg5"
   xml:space="preserve"
   inkscape:version="1.3 (0e150ed6c4, 2023-07-21)"
   sodipodi:docname="quantum-moon_wip.svg"
   inkscape:export-filename="quantum-moon.png"
   inkscape:export-xdpi="517.72882"
   inkscape:export-ydpi="517.72882"
   xmlns:inkscape="http://www.inkscape.org/namespaces/inkscape"
   xmlns:sodipodi="http://sodipodi.sourceforge.net/DTD/sodipodi-0.dtd"
   xmlns="http://www.w3.org/2000/svg"
   xmlns:svg="http://www.w3.org/2000/svg"><sodipodi:namedview
     id="namedview7"
     pagecolor="#505050"
     bordercolor="#ffffff"
     borderopacity="1"
     inkscape:showpageshadow="0"
     inkscape:pageopacity="0"
     inkscape:pagecheckerboard="1"
     inkscape:deskcolor="#505050"
     inkscape:document-units="mm"
     showgrid="false"
     inkscape:zoom="1"
     inkscape:cx="383.49999"
     inkscape:cy="352.99999"
     inkscape:window-width="1280"
     inkscape:window-height="1366"
     inkscape:window-x="0"
     inkscape:window-y="0"
     inkscape:window-maximized="0"
     inkscape:current-layer="g44030" /><defs
     id="defs2"><inkscape:path-effect
       effect="fillet_chamfer"
       id="path-effect1841"
       is_visible="true"
       lpeversion="1"
       nodesatellites_param="F,0,0,1,0,0.26458333,0,1 @ F,0,0,1,0,0.26458333,0,1 @ F,0,0,1,0,0.26458333,0,1 @ F,0,0,1,0,0.26458333,0,1 @ F,0,0,1,0,0.26458333,0,1 @ F,0,0,1,0,0.26458333,0,1 @ F,0,0,1,0,0.26458333,0,1 @ F,0,0,1,0,0.26458333,0,1 @ F,0,0,1,0,0.26458333,0,1 @ F,0,0,1,0,0.26458333,0,1 @ F,0,0,1,0,0.26458333,0,1 @ F,0,0,1,0,0.26458333,0,1 @ F,0,0,1,0,0.26458333,0,1 @ F,0,0,1,0,0.26458333,0,1 | F,0,0,1,0,0.26458333,0,1 @ F,0,0,1,0,0.26458333,0,1 @ F,0,0,1,0,0.26458333,0,1 | F,0,0,1,0,0.26458333,0,1 @ F,0,0,1,0,0.26458333,0,1 @ F,0,0,1,0,0.26458333,0,1 @ F,0,0,1,0,0.26458333,0,1 @ F,0,0,1,0,0.26458333,0,1 @ F,0,0,1,0,0.26458333,0,1 | F,0,0,1,0,0.26458333,0,1 @ F,0,0,1,0,0.26458333,0,1 @ F,0,0,1,0,0.26458333,0,1 @ F,0,0,1,0,0.26458333,0,1 | F,0,0,1,0,0.26458333,0,1 @ F,0,0,1,0,0.26458333,0,1 @ F,0,0,1,0,0.26458333,0,1 @ F,0,0,1,0,0.26458333,0,1 | F,0,0,1,0,0.26458333,0,1 @ F,0,0,1,0,0.26458333,0,1 @ F,0,0,1,0,0.26458333,0,1 @ F,0,0,1,0,0.26458333,0,1 @ F,0,0,1,0,0.26458333,0,1 | F,0,0,1,0,0.26458333,0,1 @ F,0,0,1,0,0.26458333,0,1 @ F,0,0,1,0,0.26458333,0,1 @ F,0,0,1,0,0.26458333,0,1 @ F,0,0,1,0,0.26458333,0,1 | F,0,0,1,0,0.26458333,0,1 @ F,0,0,1,0,0.26458333,0,1 @ F,0,0,1,0,0.26458333,0,1 @ F,0,0,1,0,0.26458333,0,1 @ F,0,0,1,0,0.26458333,0,1 | F,0,0,1,0,0.26458333,0,1 @ F,0,0,1,0,0.26458333,0,1 @ F,0,0,1,0,0.26458333,0,1 | F,0,0,1,0,0.26458333,0,1 @ F,0,0,1,0,0.26458333,0,1 @ F,0,0,1,0,0.26458333,0,1 @ F,0,0,1,0,0.26458333,0,1 @ F,0,0,1,0,0.26458333,0,1 @ F,0,0,1,0,0.26458333,0,1 @ F,0,0,1,0,0.26458333,0,1 @ F,0,0,1,0,0.26458333,0,1 @ F,0,0,1,0,0.26458333,0,1 @ F,0,0,1,0,0.26458333,0,1 @ F,0,0,1,0,0.26458333,0,1 | F,0,0,1,0,0.26458333,0,1 @ F,0,0,1,0,0.26458333,0,1 @ F,0,0,1,0,0.26458333,0,1 | F,0,0,1,0,0.26458333,0,1 @ F,0,0,1,0,0.26458333,0,1 @ F,0,0,1,0,0.26458333,0,1 @ F,0,0,1,0,0.26458333,0,1 @ F,0,0,1,0,0.26458333,0,1 @ F,0,0,1,0,0.26458333,0,1 @ F,0,0,1,0,0.26458333,0,1 @ F,0,0,1,0,0.26458333,0,1 @ F,0,0,1,0,0.26458333,0,1 @ F,0,0,1,0,0.26458333,0,1 @ F,0,0,1,0,0.26458333,0,1 | F,0,0,1,0,0.26458333,0,1 @ F,0,0,1,0,0.26458333,0,1 @ F,0,0,1,0,0.26458333,0,1 @ F,0,0,1,0,0.26458333,0,1 @ F,0,0,1,0,0.26458333,0,1 | F,0,0,1,0,0.26458333,0,1 @ F,0,0,1,0,0.26458333,0,1 @ F,0,0,1,0,0.26458333,0,1 | F,0,0,1,0,0.26458333,0,1 @ F,0,0,1,0,0.26458333,0,1 @ F,0,0,1,0,0.26458333,0,1 @ F,0,0,1,0,0.26458333,0,1 | F,0,0,1,0,0.26458333,0,1 @ F,0,0,1,0,0.26458333,0,1 @ F,0,0,1,0,0.26458333,0,1 @ F,0,0,1,0,0.26458333,0,1 @ F,0,0,1,0,0.26458333,0,1 | F,0,0,1,0,0.26458333,0,1 @ F,0,0,1,0,0.26458333,0,1 @ F,0,0,1,0,0.26458333,0,1"
       unit="px"
       method="auto"
       mode="F"
       radius="1"
       chamfer_steps="1"
       flexible="false"
       use_knot_distance="true"
       apply_no_radius="true"
       apply_with_radius="true"
       only_selected="false"
       hide_knots="false" /><inkscape:path-effect
       effect="fillet_chamfer"
       id="path-effect8"
       is_visible="true"
       lpeversion="1"
       nodesatellites_param="F,1,0,1,0,0.26,0,1 @ F,1,0,1,0,0,0,1 @ F,1,0,1,0,0,0,1 @ F,1,0,1,0,0,0,1 @ F,1,0,1,0,0,0,1 @ F,1,0,1,0,0,0,1 @ F,1,0,1,0,0.26,0,1 @ F,1,0,1,0,0,0,1 @ F,1,0,1,0,0,0,1 @ F,1,0,1,0,0,0,1 @ F,1,0,1,0,0,0,1 @ F,1,0,1,0,0,0,1 | F,1,0,1,0,0,0,1 @ F,1,0,1,0,0,0,1 @ F,1,0,1,0,0,0,1 @ F,1,0,1,0,0,0,1 @ F,1,0,1,0,0,0,1 @ F,1,0,1,0,0.26,0,1 @ F,1,0,1,0,0,0,1 @ F,1,0,1,0,0,0,1 @ F,1,0,1,0,0,0,1 @ F,1,0,1,0,0,0,1 @ F,1,0,1,0,0,0,1 @ F,1,0,1,0,0.26,0,1 | F,1,0,1,0,0.26,0,1 @ F,1,0,1,0,0,0,1 @ F,1,0,1,0,0,0,1 @ F,1,0,1,0,0,0,1 @ F,1,0,1,0,0,0,1 @ F,1,0,1,0,0.26,0,1 @ F,1,0,1,0,0,0,1 @ F,1,0,1,0,0,0,1 @ F,1,0,1,0,0,0,1 @ F,1,0,1,0,0,0,1 | F,1,0,1,0,0,0,1 @ F,1,0,1,0,0,0,1 @ F,1,0,1,0,0,0,1 @ F,1,0,1,0,0,0,1 @ F,1,0,1,0,0.26,0,1 @ F,1,0,1,0,0,0,1 @ F,1,0,1,0,0,0,1 @ F,1,0,1,0,0,0,1 @ F,1,0,1,0,0,0,1 @ F,1,0,1,0,0.26,0,1 | F,1,0,1,0,0.26,0,1 @ F,1,0,1,0,0,0,1 @ F,1,0,1,0,0,0,1 @ F,1,0,1,0,0,0,1 @ F,1,0,1,0,0,0,1 @ F,1,0,1,0,0.26,0,1 @ F,1,0,1,0,0,0,1 @ F,1,0,1,0,0,0,1 @ F,1,0,1,0,0,0,1 @ F,1,0,1,0,0,0,1 | F,1,0,1,0,0,0,1 @ F,1,0,1,0,0,0,1 @ F,1,0,1,0,0,0,1 @ F,1,0,1,0,0,0,1 @ F,1,0,1,0,0.26,0,1 @ F,1,0,1,0,0,0,1 @ F,1,0,1,0,0,0,1 @ F,1,0,1,0,0,0,1 @ F,1,0,1,0,0,0,1 @ F,1,0,1,0,0.26,0,1 | F,1,0,1,0,0,0,1 @ F,1,0,1,0,0,0,1 @ F,1,0,1,0,0,0,1 @ F,1,0,1,0,0,0,1 @ F,1,0,1,0,0.26,0,1 @ F,1,0,1,0,0,0,1 @ F,1,0,1,0,0,0,1 @ F,1,0,1,0,0,0,1 @ F,1,0,1,0,0,0,1 @ F,1,0,1,0,0.26,0,1 | F,1,0,1,0,0.26,0,1 @ F,1,0,1,0,0,0,1 @ F,1,0,1,0,0,0,1 @ F,1,0,1,0,0,0,1 @ F,1,0,1,0,0,0,1 @ F,1,0,1,0,0.26,0,1 @ F,1,0,1,0,0,0,1 @ F,1,0,1,0,0,0,1 @ F,1,0,1,0,0,0,1 @ F,1,0,1,0,0,0,1 @ F,1,0,1,0,0,0,1 | F,1,0,1,0,0,0,1 @ F,1,0,1,0,0,0,1 @ F,1,0,1,0,0,0,1 @ F,1,0,1,0,0,0,1 @ F,1,0,1,0,0,0,1 @ F,1,0,1,0,0.26,0,1 @ F,1,0,1,0,0,0,1 @ F,1,0,1,0,0,0,1 @ F,1,0,1,0,0,0,1 @ F,1,0,1,0,0,0,1 @ F,1,0,1,0,0.26,0,1 | F,1,0,1,0,0.26,0,1 @ F,1,0,1,0,0,0,1 @ F,1,0,1,0,0,0,1 @ F,1,0,1,0,0,0,1 @ F,1,0,1,0,0,0,1 @ F,1,0,1,0,0.26,0,1 @ F,1,0,1,0,0,0,1 @ F,1,0,1,0,0,0,1 @ F,1,0,1,0,0,0,1 @ F,1,0,1,0,0,0,1 | F,1,0,1,0,0,0,1 @ F,1,0,1,0,0,0,1 @ F,1,0,1,0,0,0,1 @ F,1,0,1,0,0,0,1 @ F,1,0,1,0,0.26,0,1 @ F,1,0,1,0,0,0,1 @ F,1,0,1,0,0,0,1 @ F,1,0,1,0,0,0,1 @ F,1,0,1,0,0,0,1 @ F,1,0,1,0,0.26,0,1 | F,1,0,1,0,0.26,0,1 @ F,1,0,1,0,0,0,1 @ F,1,0,1,0,0,0,1 @ F,1,0,1,0,0,0,1 @ F,1,0,1,0,0,0,1 @ F,1,0,1,0,0.26,0,1 @ F,1,0,1,0,0,0,1 @ F,1,0,1,0,0,0,1 @ F,1,0,1,0,0,0,1 @ F,1,0,1,0,0,0,1 @ F,1,0,1,0,0,0,1"
       radius="31"
       unit="px"
       method="auto"
       mode="F"
       chamfer_steps="1"
       flexible="true"
       use_knot_distance="true"
       apply_no_radius="true"
       apply_with_radius="true"
       only_selected="true"
       hide_knots="false" /><inkscape:path-effect
       effect="fillet_chamfer"
       id="path-effect9"
       is_visible="true"
       lpeversion="1"
       nodesatellites_param="F,1,0,1,0,0,0,1 @ F,1,1,1,0,0.51,0,1 @ F,1,0,1,0,0,0,1 @ F,1,0,1,0,0,0,1 @ F,1,0,1,0,0,0,1 @ F,1,0,1,0,0,0,1 @ F,1,0,1,0,0,0,1 @ F,1,0,1,0,0,0,1 @ F,1,1,1,0,0.51,0,1 @ F,1,0,1,0,0,0,1 @ F,1,0,1,0,0,0,1 @ F,1,0,1,0,0,0,1 @ F,1,0,1,0,0,0,1 @ F,1,0,1,0,0,0,1 | F,1,1,1,0,0.51,0,1 @ F,1,0,1,0,0,0,1 @ F,1,0,1,0,0,0,1 @ F,1,0,1,0,0,0,1 @ F,1,0,1,0,0,0,1 @ F,1,0,1,0,0,0,1 @ F,1,0,1,0,0,0,1 @ F,1,1,1,0,0.51,0,1 @ F,1,0,1,0,0,0,1 @ F,1,0,1,0,0,0,1 @ F,1,0,1,0,0,0,1 @ F,1,0,1,0,0,0,1 @ F,1,0,1,0,0,0,1 @ F,1,0,1,0,0,0,1 | F,1,0,1,0,0,0,1 @ F,1,1,1,0,0.51,0,1 @ F,1,0,1,0,0,0,1 @ F,1,0,1,0,0,0,1 @ F,1,0,1,0,0,0,1 @ F,1,0,1,0,0,0,1 @ F,1,0,1,0,0,0,1 @ F,1,1,1,0,0.51,0,1 @ F,1,0,1,0,0,0,1 @ F,1,0,1,0,0,0,1 @ F,1,0,1,0,0,0,1 @ F,1,0,1,0,0,0,1 | F,1,1,1,0,0.51,0,1 @ F,1,0,1,0,0,0,1 @ F,1,0,1,0,0,0,1 @ F,1,0,1,0,0,0,1 @ F,1,0,1,0,0,0,1 @ F,1,0,1,0,0,0,1 @ F,1,1,1,0,0.51,0,1 @ F,1,0,1,0,0,0,1 @ F,1,0,1,0,0,0,1 @ F,1,0,1,0,0,0,1 @ F,1,0,1,0,0,0,1 @ F,1,0,1,0,0,0,1 | F,1,0,1,0,0,0,1 @ F,1,1,1,0,0.51,0,1 @ F,1,0,1,0,0,0,1 @ F,1,0,1,0,0,0,1 @ F,1,0,1,0,0,0,1 @ F,1,0,1,0,0,0,1 @ F,1,0,1,0,0,0,1 @ F,1,1,1,0,0.51,0,1 @ F,1,0,1,0,0,0,1 @ F,1,0,1,0,0,0,1 @ F,1,0,1,0,0,0,1 @ F,1,0,1,0,0,0,1 | F,1,1,1,0,0.51,0,1 @ F,1,0,1,0,0,0,1 @ F,1,0,1,0,0,0,1 @ F,1,0,1,0,0,0,1 @ F,1,0,1,0,0,0,1 @ F,1,0,1,0,0,0,1 @ F,1,1,1,0,0.51,0,1 @ F,1,0,1,0,0,0,1 @ F,1,0,1,0,0,0,1 @ F,1,0,1,0,0,0,1 @ F,1,0,1,0,0,0,1 @ F,1,0,1,0,0,0,1 | F,1,1,1,0,0.51,0,1 @ F,1,0,1,0,0,0,1 @ F,1,0,1,0,0,0,1 @ F,1,0,1,0,0,0,1 @ F,1,0,1,0,0,0,1 @ F,1,0,1,0,0,0,1 @ F,1,1,1,0,0.51,0,1 @ F,1,0,1,0,0,0,1 @ F,1,0,1,0,0,0,1 @ F,1,0,1,0,0,0,1 @ F,1,0,1,0,0,0,1 @ F,1,0,1,0,0,0,1 | F,1,0,1,0,0,0,1 @ F,1,1,1,0,0.51,0,1 @ F,1,0,1,0,0,0,1 @ F,1,0,1,0,0,0,1 @ F,1,0,1,0,0,0,1 @ F,1,0,1,0,0,0,1 @ F,1,0,1,0,0,0,1 @ F,1,1,1,0,0.51,0,1 @ F,1,0,1,0,0,0,1 @ F,1,0,1,0,0,0,1 @ F,1,0,1,0,0,0,1 @ F,1,0,1,0,0,0,1 @ F,1,0,1,0,0,0,1 | F,1,1,1,0,0.51,0,1 @ F,1,0,1,0,0,0,1 @ F,1,0,1,0,0,0,1 @ F,1,0,1,0,0,0,1 @ F,1,0,1,0,0,0,1 @ F,1,0,1,0,0,0,1 @ F,1,0,1,0,0,0,1 @ F,1,1,1,0,0.51,0,1 @ F,1,0,1,0,0,0,1 @ F,1,0,1,0,0,0,1 @ F,1,0,1,0,0,0,1 @ F,1,0,1,0,0,0,1 @ F,1,0,1,0,0,0,1 | F,1,0,1,0,0,0,1 @ F,1,1,1,0,0.51,0,1 @ F,1,0,1,0,0,0,1 @ F,1,0,1,0,0,0,1 @ F,1,0,1,0,0,0,1 @ F,1,0,1,0,0,0,1 @ F,1,0,1,0,0,0,1 @ F,1,1,1,0,0.51,0,1 @ F,1,0,1,0,0,0,1 @ F,1,0,1,0,0,0,1 @ F,1,0,1,0,0,0,1 @ F,1,0,1,0,0,0,1 | F,1,1,1,0,0.51,0,1 @ F,1,0,1,0,0,0,1 @ F,1,0,1,0,0,0,1 @ F,1,0,1,0,0,0,1 @ F,1,0,1,0,0,0,1 @ F,1,0,1,0,0,0,1 @ F,1,1,1,0,0.51,0,1 @ F,1,0,1,0,0,0,1 @ F,1,0,1,0,0,0,1 @ F,1,0,1,0,0,0,1 @ F,1,0,1,0,0,0,1 @ F,1,0,1,0,0,0,1 | F,1,0,1,0,0,0,1 @ F,1,1,1,0,0.51,0,1 @ F,1,0,1,0,0,0,1 @ F,1,0,1,0,0,0,1 @ F,1,0,1,0,0,0,1 @ F,1,0,1,0,0,0,1 @ F,1,0,1,0,0,0,1 @ F,1,1,1,0,0.51,0,1 @ F,1,0,1,0,0,0,1 @ F,1,0,1,0,0,0,1 @ F,1,0,1,0,0,0,1 @ F,1,0,1,0,0,0,1 @ F,1,0,1,0,0,0,1"
       radius="51"
       unit="px"
       method="auto"
       mode="F"
       chamfer_steps="1"
       flexible="true"
       use_knot_distance="true"
       apply_no_radius="true"
       apply_with_radius="true"
       only_selected="true"
       hide_knots="false" /></defs><g
     inkscape:groupmode="layer"
     id="g44064"
     inkscape:label="final"
     style="display:inline"
     transform="translate(-6.6143867,-56.620883)"><g
       inkscape:groupmode="layer"
       id="g44032"
       inkscape:label="outer"
       style="display:inline"><g
         inkscape:groupmode="layer"
         id="g44030"
         inkscape:label="locations"
         style="display:inline;fill:#ffffff;fill-opacity:1;stroke:none;stroke-opacity:1"><circle
           style="fill:#ffffff;fill-opacity:1;stroke:none;stroke-width:7.2;stroke-linecap:round;stroke-linejoin:round;stroke-miterlimit:2.6;stroke-dasharray:none;stroke-opacity:1"
           id="circle44018"
           cx="36.289314"
           cy="116.99863"
           r="7.265944"
           inkscape:label="NW location" /><circle
           style="display:inline;fill:#ffffff;fill-opacity:1;stroke:none;stroke-width:7.2;stroke-linecap:round;stroke-linejoin:round;stroke-miterlimit:2.6;stroke-dasharray:none;stroke-opacity:1"
           id="circle44022"
           cx="37.320095"
           cy="194.24275"
           r="7.265944"
           inkscape:label="SW location" /><circle
           style="fill:#ffffff;fill-opacity:1;stroke:none;stroke-width:7.2;stroke-linecap:round;stroke-linejoin:round;stroke-miterlimit:2.6;stroke-dasharray:none;stroke-opacity:1"
           id="circle44020"
           cx="104.43156"
           cy="232.84328"
           r="7.265944"
           inkscape:label="S location" /><circle
           style="fill:#ffffff;fill-opacity:1;stroke:none;stroke-width:7.2;stroke-linecap:round;stroke-linejoin:round;stroke-miterlimit:2.6;stroke-dasharray:none;stroke-opacity:1"
           id="circle44028"
           cx="171.51129"
           cy="195.12146"
           r="7.265944"
           inkscape:label="SE location" /><circle
           style="display:inline;fill:#ffffff;fill-opacity:1;stroke:none;stroke-width:7.2;stroke-linecap:round;stroke-linejoin:round;stroke-miterlimit:2.6;stroke-dasharray:none;stroke-opacity:1"
           id="circle44024"
           cx="172.65503"
           cy="116.87912"
           r="7.265944"
           inkscape:label="NE location" /><circle
           style="display:inline;fill:#ffffff;fill-opacity:1;stroke:none;stroke-width:7.2;stroke-linecap:round;stroke-linejoin:round;stroke-miterlimit:2.6;stroke-dasharray:none;stroke-opacity:1"
           id="circle44026"
           cx="104.25365"
           cy="76.780426"
           r="7.265944"
           inkscape:label="N location" /></g><path
         style="color:#000000;display:inline;fill:#ffffff;fill-opacity:1;stroke-linecap:square;stroke-linejoin:round;stroke-miterlimit:2.6;stroke-dasharray:36.5, 14.25;stroke-dashoffset:43.5;-inkscape-stroke:none"
         d="m 108.16918,58.018164 -0.15444,2.420791 a 1.2741028,1.2741028 48.639877 0 0 1.19086,1.352666 l 1.22213,0.07752 c 8.22256,0.525659 16.37828,2.131373 24.17969,4.773437 h 0.002 c 3.42197,1.158129 6.77588,2.512142 10.04102,4.056641 l 1.08489,0.513844 c 0.6488,0.307297 1.42387,0.0303 1.73093,-0.61861 l 1.03717,-2.191778 A 1.2756672,1.2756672 70.333908 0 0 147.8964,66.70414 l -1.10729,-0.524453 c -3.43937,-1.626913 -6.97286,-3.053859 -10.57617,-4.273437 h -0.002 c -8.22089,-2.783949 -16.80468,-4.473833 -25.46289,-5.027344 l -1.1986,-0.07597 c -0.71668,-0.04542 -1.33455,0.498571 -1.38027,1.215226 z m -10.797617,-1.117729 -1.221172,0.09762 c -3.396048,0.272909 -6.777294,0.721962 -10.126954,1.341797 v -0.002 c -8.925617,1.650044 -17.618186,4.537122 -25.757812,8.554687 l -1.074294,0.530123 c -0.64393,0.317754 -0.908346,1.097355 -0.590589,1.741283 l 1.073745,2.175921 a 1.2740583,1.2740583 18.735321 0 0 1.706314,0.578728 l 1.097715,-0.54168 c 7.724789,-3.81281 15.981923,-6.555055 24.453125,-8.121094 h 0.002 c 3.181514,-0.58872 6.392514,-1.014299 9.617187,-1.273437 l 1.196807,-0.09661 c 0.715492,-0.05776 1.248773,-0.68447 1.191267,-1.399983 l -0.194175,-2.415986 a 1.2756191,1.2756191 40.417302 0 0 -1.373164,-1.169369 z m 59.324807,16.168984 -1.34568,2.016153 a 1.2756619,1.2756619 78.724189 0 0 0.35273,1.76914 l 1.01924,0.680449 c 8.01958,5.35066 15.21938,11.937196 21.26562,19.447266 1.38768,1.723407 2.71432,3.493893 3.97656,5.308603 l 0.685,0.98393 c 0.4103,0.58934 1.22051,0.73478 1.81016,0.32493 l 1.99092,-1.38379 a 1.2748123,1.2748123 100.18944 0 0 0.31898,-1.77471 l -0.69959,-1.005838 c -1.33026,-1.912498 -2.72779,-3.776987 -4.1875,-5.589844 C 175.51639,85.937942 167.94198,79.010088 159.49609,73.375 l -0.99691,-0.66523 c -0.59715,-0.398477 -1.40427,-0.237463 -1.80281,0.359649 z m -108.008929,0.528789 -1.007754,0.696719 c -1.674856,1.157321 -3.312687,2.366363 -4.912109,3.623047 -8.21424,6.452873 -15.40746,14.194644 -21.232422,22.867196 l -0.668514,0.99668 c -0.399953,0.59628 -0.241028,1.40386 0.355038,1.80414 l 2.013052,1.35182 a 1.2753955,1.2753955 168.89805 0 0 1.769448,-0.34721 l 0.68332,-1.01637 c 5.530651,-8.234362 12.36694,-15.59635 20.167969,-21.724616 1.520417,-1.194608 3.076683,-2.343181 4.666015,-3.441406 l 0.987425,-0.682664 c 0.590567,-0.408293 0.738452,-1.217966 0.330349,-1.808664 l -1.378111,-1.994708 a 1.2747435,1.2747435 10.350852 0 0 -1.773706,-0.323964 z m 142.547089,36.740482 -2.17113,1.07988 a 1.2749241,1.2749241 108.555 0 0 -0.57375,1.70929 l 0.54551,1.09676 c 3.70575,7.45067 6.41612,15.39977 8.03125,23.5625 0.68567,3.46175 1.17674,6.96375 1.4707,10.48047 l 0.10027,1.19484 c 0.06,0.71551 0.68861,1.24697 1.40414,1.18723 l 2.41594,-0.20172 a 1.2750189,1.2750189 130.21682 0 0 1.16448,-1.37715 l -0.10241,-1.22117 c -0.30955,-3.70319 -0.82681,-7.38793 -1.54883,-11.0332 -1.70183,-8.60094 -4.5547,-16.96854 -8.45898,-24.81836 l -0.53437,-1.07437 c -0.31972,-0.64281 -1.10001,-0.90473 -1.74282,-0.585 z m -176.406425,2.02569 -0.527324,1.10633 c -1.59566,3.34522 -3.001272,6.78089 -4.210937,10.28321 -2.8670812,8.29699 -4.6163695,16.97291 -5.2031253,25.7285 l -0.080627,1.19722 c -0.048232,0.71619 0.4934058,1.3358 1.2096116,1.38376 l 2.4192836,0.16198 a 1.2753883,1.2753883 138.84165 0 0 1.3577086,-1.18684 L 9.875,149.81641 c 0.557147,-8.31378 2.218796,-16.55642 4.939453,-24.42969 1.148863,-3.32656 2.485216,-6.58801 4,-9.76367 l 0.516272,-1.0822 c 0.309241,-0.64823 0.03452,-1.42442 -0.613655,-1.73378 l -2.188919,-1.04472 a 1.2749352,1.2749352 160.49939 0 0 -1.700046,0.60203 z m 183.874175,49.75429 -0.089,1.22117 c -0.60889,8.30337 -2.32283,16.52877 -5.08984,24.37891 -1.1716,3.32564 -2.52853,6.58597 -4.06641,9.75781 l -0.52416,1.0802 c -0.31347,0.646 -0.0438,1.42379 0.60236,1.73703 l 2.18269,1.05819 a 1.2745828,1.2745828 160.85452 0 0 1.70313,-0.59128 l 0.53403,-1.1025 c 1.62038,-3.342 3.05139,-6.77523 4.28515,-10.27734 2.91591,-8.27255 4.7181,-16.93075 5.35938,-25.67578 l 0.0871,-1.19571 c 0.0522,-0.7161 -0.48587,-1.33899 -1.20196,-1.39144 l -2.4189,-0.17718 a 1.273924,1.273924 139.1789 0 0 -1.36362,1.17792 z m -190.2467722,-0.81695 -2.418863,0.18759 a 1.2747986,1.2747986 130.56439 0 0 -1.1724065,1.3696 l 0.094746,1.22117 c 0.2864685,3.70819 0.7807187,7.39989 1.4804687,11.05273 1.647252,8.6082 4.4458779,16.98965 8.2988279,24.86133 l 0.528015,1.07854 c 0.315667,0.64479 1.094317,0.91154 1.739056,0.59577 l 2.17816,-1.06682 a 1.2743068,1.2743068 108.90057 0 0 0.583812,-1.70512 l -0.538808,-1.09963 c -3.656957,-7.47125 -6.315555,-15.43376 -7.878907,-23.60351 v -0.002 c -0.664536,-3.46903 -1.134195,-6.97448 -1.4062496,-10.49611 l -0.091906,-1.19756 c -0.05494,-0.71589 -0.6801082,-1.2515 -1.3959458,-1.19598 z m 174.7413622,47.16816 -0.68906,1.01254 c -5.57687,8.1907 -12.45387,15.50104 -20.2832,21.57617 v 0.002 c -1.53582,1.19188 -3.10624,2.33591 -4.71094,3.42968 l -0.99222,0.67618 c -0.59322,0.40426 -0.74631,1.21292 -0.34192,1.80605 l 1.36572,2.00313 a 1.2755941,1.2755941 10.720257 0 0 1.77229,0.33552 l 1.01254,-0.69002 c 1.69138,-1.15286 3.34548,-2.35764 4.96094,-3.61132 8.24412,-6.39699 15.47607,-14.08649 21.3496,-22.7129 l 0.67483,-0.99163 c 0.40399,-0.59364 0.25039,-1.40235 -0.34311,-1.80654 l -2.00465,-1.36519 a 1.274332,1.274332 169.24591 0 0 -1.77082,0.33633 z m -159.460268,-0.0197 -1.998875,1.3711 a 1.2753799,1.2753799 100.54044 0 0 -0.330012,1.77359 l 0.693847,1.01063 c 1.211535,1.76547 2.479241,3.48984 3.800782,5.17187 6.387894,8.13166 14.041013,15.26091 22.607422,21.05469 l 0.99375,0.67219 c 0.594569,0.40217 1.40259,0.24621 1.804765,-0.34836 l 1.358065,-2.00774 A 1.2761107,1.2761107 79.093626 0 0 52.325,235.3766 l -1.014453,-0.68715 c -8.133957,-5.5013 -15.410069,-12.27943 -21.476563,-20.00195 -1.256372,-1.59909 -2.46184,-3.23705 -3.611328,-4.91211 l -0.678513,-0.98872 c -0.406259,-0.59199 -1.215458,-0.74264 -1.807541,-0.33652 z m 122.876658,32.46118 -1.10154,0.53594 c -7.74642,3.76241 -16.01779,6.45052 -24.49609,7.96289 -3.18781,0.56922 -6.40578,0.97383 -9.63477,1.21289 l -1.19578,0.089 c -0.71608,0.0533 -1.25345,0.67687 -1.20043,1.39297 l 0.17906,2.41882 a 1.2739997,1.2739997 40.754065 0 0 1.36512,1.17643 l 1.22117,-0.0909 c 3.39976,-0.2517 6.78698,-0.67823 10.14258,-1.27734 8.93295,-1.59346 17.64212,-4.42414 25.80469,-8.38867 l 1.07845,-0.52377 c 0.64591,-0.3137 0.91516,-1.09166 0.60135,-1.73752 l -1.06009,-2.18175 a 1.2743363,1.2743363 19.070519 0 0 -1.70372,-0.58899 z m -86.09244,0.77777 -1.05023,2.18475 a 1.275752,1.275752 70.679287 0 0 0.596871,1.70242 l 1.104414,0.53115 c 3.435571,1.65182 6.965559,3.1035 10.568359,4.34766 8.1976,2.8328 16.763501,4.57414 25.41211,5.18164 l 1.197187,0.0844 c 0.716288,0.0505 1.337877,-0.48926 1.388359,-1.20554 l 0.170508,-2.41932 a 1.2751663,1.2751663 49.031397 0 0 -1.182363,-1.36166 l -1.222129,-0.0861 c -8.212469,-0.57687 -16.352007,-2.22988 -24.130859,-4.91797 v -0.002 c -3.420819,-1.18132 -6.773921,-2.55896 -10.035156,-4.12696 l -1.082475,-0.52057 c -0.646933,-0.31112 -1.423584,-0.0388 -1.734596,0.60816 z"
         id="circle4307"
         inkscape:path-effect="#path-effect8;#path-effect9"
         inkscape:original-d="m 108.25195,56.720703 -0.31836,4.990234 2.49414,0.158204 c 8.22256,0.525659 16.37828,2.131373 24.17969,4.773437 a 2.50025,2.50025 0 0 0 0.002,0 c 3.42197,1.158129 6.77588,2.512142 10.04102,4.056641 l 2.25977,1.070312 2.13867,-4.519531 -2.25977,-1.070313 c -3.43937,-1.626913 -6.97286,-3.053859 -10.57617,-4.273437 h -0.002 c -8.22089,-2.783949 -16.80468,-4.473833 -25.46289,-5.027344 z m -9.609372,0.07813 -2.492187,0.199219 c -3.396048,0.272909 -6.777294,0.721962 -10.126954,1.341797 v -0.002 c -8.925617,1.650044 -17.618186,4.537122 -25.757812,8.554687 l -2.240234,1.105469 2.21289,4.484375 2.240235,-1.105469 c 7.724789,-3.81281 15.981923,-6.555055 24.453125,-8.121094 a 2.50025,2.50025 0 0 0 0.002,0 c 3.181514,-0.58872 6.392514,-1.014299 9.617187,-1.273437 l 2.492188,-0.201172 z m 58.775392,15.189453 -2.77539,4.158203 2.08008,1.388672 c 8.01958,5.35066 15.21938,11.937196 21.26562,19.447266 1.38768,1.723407 2.71432,3.493893 3.97656,5.308603 l 1.42774,2.05078 4.10547,-2.85352 -1.42774,-2.052738 c -1.33026,-1.912498 -2.72779,-3.776987 -4.1875,-5.589844 C 175.51639,85.937942 167.94198,79.010088 159.49609,73.375 Z m -107.681642,0.884766 -2.056641,1.421875 c -1.674856,1.157321 -3.312687,2.366363 -4.912109,3.623047 -8.21424,6.452873 -15.40746,14.194644 -21.232422,22.867196 l -1.392578,2.07617 4.150391,2.78711 1.394531,-2.07422 c 5.530651,-8.234362 12.36694,-15.59635 20.167969,-21.724616 1.520417,-1.194608 3.076683,-2.343181 4.666015,-3.441406 l 2.056641,-1.421875 z m 142.662112,36.886728 -4.47657,2.22656 1.11329,2.23828 c 3.70575,7.45067 6.41612,15.39977 8.03125,23.5625 0.68567,3.46175 1.17674,6.96375 1.4707,10.48047 l 0.20898,2.49023 4.98243,-0.41601 -0.20899,-2.49219 c -0.30955,-3.70319 -0.82681,-7.38793 -1.54883,-11.0332 -1.70183,-8.60094 -4.5547,-16.96854 -8.45898,-24.81836 z m -177.021487,1.45312 -1.076172,2.25781 c -1.59566,3.34522 -3.001272,6.78089 -4.210937,10.28321 -2.8670812,8.29699 -4.6163695,16.97291 -5.2031253,25.7285 L 4.71875,151.97656 9.7070313,152.31055 9.875,149.81641 c 0.557147,-8.31378 2.218796,-16.55642 4.939453,-24.42969 1.148863,-3.32656 2.485216,-6.58801 4,-9.76367 l 1.076172,-2.25586 z m 183.417967,49.63476 -0.18164,2.49218 c -0.60889,8.30337 -2.32283,16.52877 -5.08984,24.37891 -1.1716,3.32564 -2.52853,6.58597 -4.06641,9.75781 l -1.0918,2.25 4.5,2.18164 1.08985,-2.25 c 1.62038,-3.342 3.05139,-6.77523 4.28515,-10.27734 2.91591,-8.27255 4.7181,-16.93075 5.35938,-25.67578 l 0.18164,-2.49219 z m -189.0429669,0.35351 -4.9863281,0.38672 0.1933594,2.49219 c 0.2864685,3.70819 0.7807187,7.39989 1.4804687,11.05273 1.647252,8.6082 4.4458779,16.98965 8.2988279,24.86133 l 1.09961,2.2461 4.490234,-2.19921 -1.099609,-2.24415 c -3.656957,-7.47125 -6.315555,-15.43376 -7.878907,-23.60351 a 2.50025,2.50025 0 0 0 0,-0.002 c -0.664536,-3.46903 -1.134195,-6.97448 -1.4062496,-10.49611 z m 174.1621069,46.21485 -1.40625,2.0664 c -5.57687,8.1907 -12.45387,15.50104 -20.2832,21.57617 a 2.50025,2.50025 0 0 0 0,0.002 c -1.53582,1.19188 -3.10624,2.33591 -4.71094,3.42968 l -2.0664,1.40821 2.8164,4.13086 2.06641,-1.40821 c 1.69138,-1.15286 3.34548,-2.35764 4.96094,-3.61132 8.24412,-6.39699 15.47607,-14.08649 21.3496,-22.7129 l 1.40625,-2.0664 z m -159.105466,0.29882 -4.123047,2.82813 1.416015,2.0625 c 1.211535,1.76547 2.479241,3.48984 3.800782,5.17187 6.387894,8.13166 14.041013,15.26091 22.607422,21.05469 l 2.070312,1.40039 2.800781,-4.14062 -2.070312,-1.40235 c -8.133957,-5.5013 -15.410069,-12.27943 -21.476563,-20.00195 -1.256372,-1.59909 -2.46184,-3.23705 -3.611328,-4.91211 z m 122.951176,32.63868 -2.24805,1.09375 c -7.74642,3.76241 -16.01779,6.45052 -24.49609,7.96289 -3.18781,0.56922 -6.40578,0.97383 -9.63477,1.21289 l -2.49219,0.18554 0.36914,4.98633 2.49219,-0.18555 c 3.39976,-0.2517 6.78698,-0.67823 10.14258,-1.27734 8.93295,-1.59346 17.64212,-4.42414 25.80469,-8.38867 l 2.24804,-1.0918 z m -86.675786,0.16406 -2.166015,4.50586 2.253906,1.08398 c 3.435571,1.65182 6.965559,3.1035 10.568359,4.34766 8.1976,2.8328 16.763501,4.57414 25.41211,5.18164 l 2.49414,0.17578 0.351563,-4.98828 -2.494141,-0.17578 c -8.212469,-0.57687 -16.352007,-2.22988 -24.130859,-4.91797 a 2.50025,2.50025 0 0 0 0,-0.002 c -3.420819,-1.18132 -6.773921,-2.55896 -10.035156,-4.12696 z"
         inkscape:label="orbit outline"
         transform="matrix(0.98669878,0,0,0.98669878,1.8751692,0.57610799)" /></g><g
       inkscape:groupmode="layer"
       id="g44062"
       inkscape:label="inner"
       style="display:inline"><path
         id="path44116"
         style="display:none;fill:#ff0000;fill-opacity:1;stroke:none;stroke-width:7.2;stroke-linecap:round;stroke-linejoin:round;stroke-miterlimit:2.6;stroke-dasharray:none;stroke-opacity:0.712803"
         d="m 106.02764,98.56401 a 55.109917,55.109917 0 0 0 -30.877705,9.47126 v 6.13554 2.73162 a 3.4395833,3.4395833 0 0 0 3.439583,3.43958 h 9.275403 a 3.4395833,3.4395833 0 0 0 3.439583,-3.43958 v -8.04861 a 3.4395833,3.4395833 0 0 1 3.439584,-3.43958 2.6736604,2.6736604 0 0 1 1.570447,3.43958 v 8.86664 a 3.4395833,3.4395833 0 0 0 3.439583,3.43959 h 42.709542 a 3.4395833,3.4395833 0 0 0 3.43958,-3.43959 v -2.08049 a 55.109917,55.109917 0 0 0 -18.09709,-12.58683 v 4.34082 a 3.4395833,3.4395833 0 0 1 -3.43958,3.43958 H 110.4899 a 3.4395833,3.4395833 0 0 1 -3.43959,-3.43958 v -7.639842 a 3.4395833,3.4395833 0 0 0 -0.22789,-1.179773 55.109917,55.109917 0 0 0 -0.79478,-0.01033 z m -41.167516,27.03091 -2.221053,0.0253 a 5.3699818,5.3699818 0 0 0 -4.842599,3.17913 l -3.63492,8.13542 a 4.9975676,4.9975676 0 0 0 1.028878,5.57279 l 8.78551,8.78499 a 2.5327537,2.5327537 0 0 0 4.323767,-1.79058 v -20.50573 a 3.4011552,3.4011552 0 0 0 -3.439583,-3.40134 z m 12.195638,0.57516 a 3.4395833,3.4395833 0 0 0 -3.439584,3.43958 v 3.95893 a 3.4395833,3.4395833 0 0 0 3.439584,3.43958 h 56.614628 a 3.4395833,3.4395833 0 0 0 3.43959,-3.43958 v -3.95893 a 3.4395833,3.4395833 0 0 0 -3.43959,-3.43958 z m 68.503828,0.71572 a 3.4395833,3.4395833 0 0 0 -3.43958,3.43958 v 64.94487 a 55.109917,55.109917 0 0 0 8.4863,-9.25731 v -55.68756 a 3.4395833,3.4395833 0 0 0 -3.43958,-3.43958 z m 9.23871,1.13223 v 51.23511 a 55.109917,55.109917 0 0 0 6.33967,-25.57932 55.109917,55.109917 0 0 0 -6.33967,-25.65579 z m -36.12906,15.73805 a 3.4395833,3.4395833 0 0 0 -3.43958,3.43959 v 16.22795 a 1.3793552,1.3793552 0 0 0 2.3766,0.95343 l 17.33176,-18.1343 a 1.470516,1.470516 0 0 0 -1.06299,-2.48667 z m -42.431516,0.10232 a 3.4395833,3.4395833 0 0 0 -3.439584,3.43959 v 3.54965 a 3.4395833,3.4395833 0 0 0 3.439584,3.43958 h 18.068664 a 3.3747158,3.3747158 0 0 1 3.439584,3.30885 3.4395833,3.4395833 0 0 1 -3.439584,3.43958 H 84.008309 a 3.4395833,3.4395833 0 0 0 -3.439583,3.43958 v 37.90363 a 3.4395833,3.4395833 0 0 0 0.02222,0.14108 55.109917,55.109917 0 0 0 7.51427,3.22771 3.4395833,3.4395833 0 0 0 2.99465,-3.36879 v -27.98589 a 3.4395833,3.4395833 0 0 1 3.439583,-3.43958 h 11.729521 a 3.4395833,3.4395833 0 0 0 3.43958,-3.43958 v -20.21582 a 3.4395833,3.4395833 0 0 0 -3.43958,-3.43959 z m -24.853264,2.92024 a 55.109917,55.109917 0 0 0 -0.466638,6.89518 55.109917,55.109917 0 0 0 1.087272,10.70684 l 20.148641,18.46089 a 1.5135551,1.5135551 0 0 0 2.53628,-1.11569 v -8.20208 a 8.3038897,8.3038897 0 0 0 -2.43241,-5.872 z m 85.76169,8.38036 a 1.488632,1.488632 0 0 0 -1.03715,0.43564 l -26.21803,26.21803 a 3.4395339,3.4395339 0 0 0 5.1e-4,4.86431 l 13.23279,13.2333 a 3.4396327,3.4396327 0 0 0 4.86482,0 l 8.52919,-8.52971 a 8.3038887,8.3038887 0 0 0 2.43241,-5.872 v -5.74848 a 1.4246791,1.4246791 0 0 0 -2.43189,-1.00718 l -7.32875,7.32824 a 3.4396824,3.4396824 0 0 1 -4.86431,5.2e-4 l -0.2222,-0.22273 a 3.4394119,3.4394119 0 0 1 0,-4.86379 l 12.41474,-12.41578 a 7.9473894,7.9473894 0 0 0 2.32389,-5.86992 l -0.19224,-6.10867 a 1.488632,1.488632 0 0 0 -1.50378,-1.44178 z m -37.903112,19.06602 a 3.4395833,3.4395833 0 0 0 -3.439583,3.43959 v 3.65197 a 1.6288553,1.6288553 0 0 0 2.660819,1.26039 l 7.535976,-6.17223 a 1.2288103,1.2288103 0 0 0 -0.77877,-2.17972 z m -33.72714,8.15196 a 1.4247226,1.4247226 0 0 0 -1.510502,1.42214 v 5.47201 a 55.109917,55.109917 0 0 0 10.735262,9.75755 v -4.49378 a 8.3038854,8.3038854 0 0 0 -2.431893,-5.87148 l -5.871477,-5.87148 a 1.4247226,1.4247226 0 0 0 -0.92139,-0.41496 z m 31.823897,4.09174 a 1.4247221,1.4247221 0 0 0 -1.53634,1.42059 v 19.89852 a 55.109917,55.109917 0 0 0 10.224185,0.99581 55.109917,55.109917 0 0 0 12.63023,-1.48001 L 98.235347,186.88162 a 1.4247221,1.4247221 0 0 0 -0.895552,-0.4129 z"
         inkscape:label="inside" /><path
         id="circle1832"
         style="display:inline;fill:#ffffff;fill-opacity:1;stroke:none;stroke-width:2.065;stroke-dashoffset:2.31761"
         inkscape:label="inside eye"
         d="m 95.717708,184.96503 c -0.163606,0.005 -0.327019,0.0154 -0.490025,0.0303 -0.145508,0.0133 -0.266268,0.14678 -0.270242,0.29286 l -0.08189,3.0095 a 0.26095068,0.26095068 46.162561 0 0 0.257364,0.26803 l 6.167883,0.0825 a 0.26209953,0.26209953 135.49632 0 0 0.2656,-0.26104 l 0.004,-0.99116 c 5.7e-4,-0.14612 -0.0861,-0.34488 -0.19702,-0.44 -0.48618,-0.41695 -1.01909,-0.77609 -1.588041,-1.07022 -0.129795,-0.0671 -0.237335,7.3e-4 -0.237842,0.14685 l -0.0015,0.42325 a 0.25720223,0.25720223 136.00897 0 1 -0.265367,0.25618 l -0.277009,-0.009 a 0.280229,0.280229 45.174469 0 1 -0.27124,-0.2729 l -0.0191,-0.74407 c -0.0037,-0.14608 -0.118542,-0.3039 -0.257992,-0.34754 -0.241186,-0.0755 -0.485701,-0.13988 -0.732777,-0.193 -0.142855,-0.0307 -0.265686,0.0668 -0.273295,0.21275 l -0.05366,1.0291 a 0.27004053,0.27004053 137.40023 0 1 -0.278229,0.25584 l -0.417609,-0.0132 a 0.26650623,0.26650623 46.607954 0 1 -0.257984,-0.27288 l 0.02732,-1.11733 c 0.0036,-0.14608 -0.111789,-0.27202 -0.257851,-0.27609 -0.126606,-0.004 -0.229125,-0.003 -0.228905,-0.003 z m -1.961265,0.30043 0.002,0.002 v -0.003 z m -0.962691,0.33388 c -0.5556,0.23199 -1.084249,0.52388 -1.576565,0.87049 -0.119475,0.0841 -0.125208,0.2343 -0.01584,0.33121 a 0.42481305,0.42481305 76.529384 0 1 0.07728,0.32263 l 0.04127,0.94989 a 0.27372272,0.27372272 43.484857 0 0 0.276056,0.26183 l 1.794452,-0.017 a 0.25652583,0.25652583 133.57169 0 0 0.253887,-0.26687 l -0.0734,-1.81637 a 0.62867346,0.62867346 64.861572 0 0 -0.207192,-0.44154 l -0.127701,-0.11513 c -0.108528,-0.0978 -0.307412,-0.13544 -0.442249,-0.0791 z m -2.823859,1.94838 c -0.103838,0.10967 -0.204657,0.22215 -0.302344,0.33733 -0.09451,0.11144 -0.179942,0.32232 -0.194812,0.46769 a 0.15068399,0.15068399 3.8988655 0 0 0.247213,0.0168 l 0.846437,-0.2232 a 0.15885078,0.15885078 106.20776 0 0 0.07603,-0.26155 l -0.307757,-0.33221 c -0.09931,-0.10719 -0.264299,-0.11101 -0.364764,-0.005 z m 1.191404,1.95161 v 1.08098 a 0.26458333,0.26458333 45 0 0 0.264583,0.26458 h 9.13186 a 0.26458333,0.26458333 135 0 0 0.26458,-0.26458 v -1.08098 a 0.26458333,0.26458333 45 0 0 -0.26458,-0.26458 l -9.13186,0 a 0.26458333,0.26458333 135 0 0 -0.264583,0.26458 z m -1.140465,-0.12158 -1.361723,0.65156 a 0.88101357,0.88101357 161.96834 0 1 -0.356953,0.1162 c -0.26857,0.72057 -0.398509,1.20909 -0.48319,1.70638 -0.02453,0.14404 0.07822,0.26169 0.224342,0.26194 l 0.638929,0.001 a 0.41227525,0.41227525 147.40722 0 0 0.375212,-0.23989 l 1.091423,-2.37115 a 0.09555152,0.09555152 44.573004 0 0 -0.12804,-0.12614 z m 13.253748,0.15931 0.41109,4.55783 a 0.28471348,0.28471348 41.944918 0 0 0.28832,0.25909 c 0.11859,-0.002 0.2311,-0.12094 0.24612,-0.26628 0.02,-0.19301 0.0331,-0.38667 0.0395,-0.58061 0.005,-0.14604 0.005,-0.38302 2e-4,-0.52907 -0.0386,-1.20757 -0.34101,-2.39214 -0.88592,-3.47046 -0.0659,-0.13041 -0.12307,-0.23411 -0.12305,-0.23401 z m -1.86094,0.0487 0.82517,8.58176 a 0.14703729,0.14703729 23.570027 0 0 0.2356,0.10279 c 0.11335,-0.0866 0.27529,-0.25229 0.35743,-0.37314 0.16816,-0.24742 0.32279,-0.50377 0.46321,-0.76792 0.0686,-0.12902 0.11034,-0.3536 0.0979,-0.49919 l -0.60268,-7.04405 a 0.28818701,0.28818701 42.554915 0 0 -0.28713,-0.26362 l -0.85023,0 a 0.24036311,0.24036311 132.25386 0 0 -0.23926,0.26337 z m -11.062341,2.07905 -1.600693,1.47476 a 0.19776171,0.19776171 84.12086 0 0 0.03245,0.31514 l 0.549826,0.32903 a 0.2265925,0.2265925 161.47415 0 0 0.326371,-0.10937 l 0.787297,-1.94361 a 0.0593679,0.0593679 34.698027 0 0 -0.09525,-0.0659 z m 0.527412,0.46186 -0.490697,1.27127 a 0.18281936,0.18281936 55.749535 0 0 0.169301,0.24864 l 3.991701,0.0274 a 0.26640383,0.26640383 45.196439 0 1 0.264577,0.26639 v 0.3378 a 0.26458333,0.26458333 135 0 1 -0.264583,0.26458 h -2.009954 a 0.2603255,0.2603255 134.53525 0 0 -0.260291,0.26455 l 0.08436,5.19939 a 0.62362868,0.62362868 66.08073 0 0 0.197509,0.4453 l 0.432786,0.40487 c 0.106711,0.0998 0.30459,0.22121 0.44362,0.26617 0.03968,0.0128 0.07945,0.0254 0.119313,0.0376 0.139693,0.0429 0.255157,-0.0449 0.256407,-0.19102 l 0.03867,-4.52113 a 0.26685626,0.26685626 135.24505 0 1 0.266846,-0.26457 h 2.257601 a 0.26458333,0.26458333 135 0 0 0.264583,-0.26458 v -3.77489 a 0.26458286,0.26458286 44.999949 0 0 -0.264583,-0.26458 l -5.137307,10e-6 a 0.38573717,0.38573717 145.55305 0 0 -0.359859,0.24683 z m 9.588169,-0.0875 -2.711379,0.0183 a 0.23861876,0.23861876 131.65903 0 0 -0.235567,0.26478 l 0.270449,2.45176 a 0.12463337,0.12463337 18.928285 0 0 0.213307,0.0731 l 2.54347,-2.61996 a 0.11084444,0.11084444 66.882052 0 0 -0.0803,-0.18805 z m 0.38936,1.3971 -4.096022,4.00482 a 0.62872735,0.62872735 112.82251 0 0 -0.189183,0.44955 l 0,0.63877 a 0.58856669,0.58856669 65.794252 0 0 0.19789,0.4402 l 2.036853,1.80768 c 0.109292,0.097 0.271073,0.14742 0.360491,0.11052 l 2.130111,-1.8874 a 0.54116226,0.54116226 112.40238 0 0 0.18118,-0.43952 l -0.0592,-0.92726 a 0.28201097,0.28201097 43.173797 0 0 -0.28143,-0.26405 h -0.15209 a 0.63878359,0.63878359 157.50073 0 0 -0.45167,0.18708 l -1.143184,1.14313 a 0.26456284,0.26456284 0.00367265 0 1 -0.374162,-3e-5 l -0.384346,-0.38442 a 0.26461913,0.26461913 90.002015 0 1 1.4e-5,-0.3742 l 2.226728,-2.22688 a 0.63883765,0.63883765 112.50058 0 0 0.18709,-0.45167 l 1e-4,-1.74671 a 0.11133471,0.11133471 22.824019 0 0 -0.18917,-0.0796 z m -13.149782,0.10855 c 0.05647,1.54408 0.543864,3.04176 1.406957,4.32334 0.08162,0.1212 0.14513,0.0988 0.137552,-0.0472 l -0.05067,-0.97567 a 0.12235528,0.12235528 152.20933 0 1 0.196492,-0.10356 l 1.754516,1.34101 a 0.12700066,0.12700066 153.0325 0 0 0.204089,-0.10384 l -0.04609,-1.99065 a 0.51346405,0.51346405 61.411983 0 0 -0.225085,-0.41304 l -3.164246,-2.14641 c -0.120929,-0.082 -0.218855,-0.03 -0.213515,0.11599 z m 16.220242,1.74457 c 0.005,0.14266 0.0427,0.14463 0.0789,0.003 0.0352,-0.13755 -0.007,-0.25783 -0.0883,-0.26747 z m -9.354449,1.67839 -0.01181,0.4729 a 0.47891732,0.47891732 62.51214 0 0 0.213786,0.41089 l 0.962121,0.63907 a 0.14645127,0.14645127 152.55844 0 0 0.227429,-0.1181 l 0.03399,-1.2778 a 0.28157863,0.28157863 48.306035 0 0 -0.256506,-0.28796 l -0.898857,-0.08 a 0.24821153,0.24821153 138.25973 0 0 -0.270149,0.24103 z m -0.0802,1.59201 0.04409,2.57324 c 0.0025,0.1461 0.121132,0.28565 0.26575,0.30654 0.303541,0.0438 0.609283,0.0708 0.915813,0.0807 0.146042,0.005 0.38303,0.005 0.529074,9e-5 0.321316,-0.0103 0.64176,-0.0393 0.959705,-0.0868 0.144512,-0.0216 0.339545,-0.13199 0.436431,-0.24137 a 0.24294239,0.24294239 82.479663 0 0 -0.04581,-0.34704 l -2.904994,-2.38212 a 0.12244023,0.12244023 154.18519 0 0 -0.20006,0.0968 z m -4.303147,0.59898 c -5.6e-5,5.4e-4 0.08424,0.0842 0.191848,0.18305 0.329438,0.30266 0.682858,0.57812 1.056789,0.82369 0.122135,0.0802 0.138707,0.0589 0.03419,-0.0432 l -1.066258,-1.04179 a 0.12788116,0.12788116 160.13068 0 0 -0.216567,0.0783 z"
         transform="matrix(6.4833653,0,0,6.4833653,-516.08514,-1099.2031)"
         inkscape:path-effect="#path-effect1841"
         inkscape:original-d="m 95.982245,184.96074 a 8.2818251,8.2818251 0 0 0 -1.017608,0.063 l -0.09628,3.53848 6.697003,0.0896 0.006,-1.52032 a 8.2818251,8.2818251 0 0 0 -2.023026,-1.36337 l -0.0033,0.95241 -0.805909,-0.0256 -0.03268,-1.27307 a 8.2818251,8.2818251 0 0 0 -1.243496,-0.32751 l -0.08122,1.55754 -0.946511,-0.03 0.04025,-1.64633 a 8.2818251,8.2818251 0 0 0 -0.493621,-0.0148 z m -2.223802,0.30408 a 8.2818251,8.2818251 0 0 0 -0.002,6.4e-4 l 0.002,0.002 z m -0.71895,0.23649 a 8.2818251,8.2818251 0 0 0 -2.036174,1.12426 l 0.263827,0.23377 0.06424,1.47855 2.323594,-0.022 -0.09477,-2.34511 z m -2.884647,1.85723 a 8.2818251,8.2818251 0 0 0 -0.655184,0.73099 l -0.03555,0.34752 1.358113,-0.35812 z m 1.006451,1.87621 v 1.61014 h 9.661023 v -1.61014 z m -0.901796,0.0288 -1.839061,0.87996 -0.118284,0.002 a 8.2818251,8.2818251 0 0 0 -0.523431,1.96787 l 1.168095,0.002 z m 12.991309,0.01 0.45863,5.08485 0.47927,-0.008 a 8.2818251,8.2818251 0 0 0 0.0753,-1.10784 8.2818251,8.2818251 0 0 0 -1.01323,-3.9692 z m -1.86249,0.0488 0.87581,9.1085 0.41551,-0.31731 a 8.2818251,8.2818251 0 0 0 0.73585,-1.2199 l -0.64778,-7.57129 z m -10.842435,2.16314 -1.989865,1.83332 1.0039,0.60075 z m 0.428102,0.39431 -0.681249,1.76493 4.520855,0.031 v 0.86696 h -2.53912 l 0.09294,5.72849 0.81922,0.76637 a 8.2818251,8.2818251 0 0 0 0.62386,0.19656 l 0.0432,-5.05027 h 2.786767 v -4.30405 z m 9.757473,0.15758 -3.240536,0.0219 0.328469,2.97774 z m 0.31396,1.21392 -4.474385,4.37476 v 1.16793 l 2.432633,2.15892 a 8.2818251,8.2818251 0 0 0 0.162601,-0.0651 l 2.328141,-2.06287 -0.0929,-1.45536 h -0.68125 l -1.517367,1.51729 -0.758484,-0.75864 2.600891,-2.60106 z m -13.344408,0.029 a 8.2818251,8.2818251 0 0 0 1.563676,4.80492 l -0.07811,-1.50413 2.174942,1.66235 -0.05834,-2.51967 z m 16.216228,1.74468 0.0187,0.52272 a 8.2818251,8.2818251 0 0 0 0.12944,-0.50526 z m -9.338381,1.6783 -0.02503,1.0019 1.402909,0.93185 0.04806,-1.80678 z m -0.09134,1.59197 0.05316,3.10232 a 8.2818251,8.2818251 0 0 0 1.441566,0.12706 8.2818251,8.2818251 0 0 0 1.485246,-0.13439 l 0.334208,-0.37733 z m -4.271295,0.60035 -0.02742,0.26414 a 8.2818251,8.2818251 0 0 0 1.472174,1.14745 z" /><circle
         style="display:inline;fill:none;fill-opacity:1;stroke:#ffffff;stroke-width:4;stroke-dasharray:none;stroke-opacity:1"
         id="circle44060"
         cy="153.87486"
         cx="105.95371"
         r="54.851467"
         inkscape:label="circle" /></g></g></svg>
