<?xml version="1.0" encoding="UTF-8" standalone="no"?>
<!-- Created with Inkscape (http://www.inkscape.org/) -->

<svg
   width="210mm"
   height="297mm"
   viewBox="0 0 210 297"
   version="1.1"
   id="svg5"
   xml:space="preserve"
   inkscape:version="1.2 (dc2aedaf03, 2022-05-15)"
   sodipodi:docname="quantum_moon_white.svg"
   xmlns:inkscape="http://www.inkscape.org/namespaces/inkscape"
   xmlns:sodipodi="http://sodipodi.sourceforge.net/DTD/sodipodi-0.dtd"
   xmlns="http://www.w3.org/2000/svg"
   xmlns:svg="http://www.w3.org/2000/svg"><sodipodi:namedview
     id="namedview7"
     pagecolor="#505050"
     bordercolor="#ffffff"
     borderopacity="1"
     inkscape:showpageshadow="0"
     inkscape:pageopacity="0"
     inkscape:pagecheckerboard="1"
     inkscape:deskcolor="#505050"
     inkscape:document-units="mm"
     showgrid="false"
     inkscape:zoom="1.4142136"
     inkscape:cx="360.97801"
     inkscape:cy="612.35447"
     inkscape:window-width="2498"
     inkscape:window-height="1417"
     inkscape:window-x="2552"
     inkscape:window-y="-8"
     inkscape:window-maximized="1"
     inkscape:current-layer="g44062" /><defs
     id="defs2"><inkscape:path-effect
       effect="fillet_chamfer"
       id="path-effect1841"
       is_visible="true"
       lpeversion="1"
       nodesatellites_param="F,0,0,1,0,0.26458333,0,1 @ F,0,0,1,0,0.26458333,0,1 @ F,0,0,1,0,0.26458333,0,1 @ F,0,0,1,0,0.26458333,0,1 @ F,0,0,1,0,0.26458333,0,1 @ F,0,0,1,0,0.26458333,0,1 @ F,0,0,1,0,0.26458333,0,1 @ F,0,0,1,0,0.26458333,0,1 @ F,0,0,1,0,0.26458333,0,1 @ F,0,0,1,0,0.26458333,0,1 @ F,0,0,1,0,0.26458333,0,1 @ F,0,0,1,0,0.26458333,0,1 @ F,0,0,1,0,0.26458333,0,1 @ F,0,0,1,0,0.26458333,0,1 | F,0,0,1,0,0.26458333,0,1 @ F,0,0,1,0,0.26458333,0,1 @ F,0,0,1,0,0.26458333,0,1 | F,0,0,1,0,0.26458333,0,1 @ F,0,0,1,0,0.26458333,0,1 @ F,0,0,1,0,0.26458333,0,1 @ F,0,0,1,0,0.26458333,0,1 @ F,0,0,1,0,0.26458333,0,1 @ F,0,0,1,0,0.26458333,0,1 | F,0,0,1,0,0.26458333,0,1 @ F,0,0,1,0,0.26458333,0,1 @ F,0,0,1,0,0.26458333,0,1 @ F,0,0,1,0,0.26458333,0,1 | F,0,0,1,0,0.26458333,0,1 @ F,0,0,1,0,0.26458333,0,1 @ F,0,0,1,0,0.26458333,0,1 @ F,0,0,1,0,0.26458333,0,1 | F,0,0,1,0,0.26458333,0,1 @ F,0,0,1,0,0.26458333,0,1 @ F,0,0,1,0,0.26458333,0,1 @ F,0,0,1,0,0.26458333,0,1 @ F,0,0,1,0,0.26458333,0,1 | F,0,0,1,0,0.26458333,0,1 @ F,0,0,1,0,0.26458333,0,1 @ F,0,0,1,0,0.26458333,0,1 @ F,0,0,1,0,0.26458333,0,1 @ F,0,0,1,0,0.26458333,0,1 | F,0,0,1,0,0.26458333,0,1 @ F,0,0,1,0,0.26458333,0,1 @ F,0,0,1,0,0.26458333,0,1 @ F,0,0,1,0,0.26458333,0,1 @ F,0,0,1,0,0.26458333,0,1 | F,0,0,1,0,0.26458333,0,1 @ F,0,0,1,0,0.26458333,0,1 @ F,0,0,1,0,0.26458333,0,1 | F,0,0,1,0,0.26458333,0,1 @ F,0,0,1,0,0.26458333,0,1 @ F,0,0,1,0,0.26458333,0,1 @ F,0,0,1,0,0.26458333,0,1 @ F,0,0,1,0,0.26458333,0,1 @ F,0,0,1,0,0.26458333,0,1 @ F,0,0,1,0,0.26458333,0,1 @ F,0,0,1,0,0.26458333,0,1 @ F,0,0,1,0,0.26458333,0,1 @ F,0,0,1,0,0.26458333,0,1 @ F,0,0,1,0,0.26458333,0,1 | F,0,0,1,0,0.26458333,0,1 @ F,0,0,1,0,0.26458333,0,1 @ F,0,0,1,0,0.26458333,0,1 | F,0,0,1,0,0.26458333,0,1 @ F,0,0,1,0,0.26458333,0,1 @ F,0,0,1,0,0.26458333,0,1 @ F,0,0,1,0,0.26458333,0,1 @ F,0,0,1,0,0.26458333,0,1 @ F,0,0,1,0,0.26458333,0,1 @ F,0,0,1,0,0.26458333,0,1 @ F,0,0,1,0,0.26458333,0,1 @ F,0,0,1,0,0.26458333,0,1 @ F,0,0,1,0,0.26458333,0,1 @ F,0,0,1,0,0.26458333,0,1 | F,0,0,1,0,0.26458333,0,1 @ F,0,0,1,0,0.26458333,0,1 @ F,0,0,1,0,0.26458333,0,1 @ F,0,0,1,0,0.26458333,0,1 @ F,0,0,1,0,0.26458333,0,1 | F,0,0,1,0,0.26458333,0,1 @ F,0,0,1,0,0.26458333,0,1 @ F,0,0,1,0,0.26458333,0,1 | F,0,0,1,0,0.26458333,0,1 @ F,0,0,1,0,0.26458333,0,1 @ F,0,0,1,0,0.26458333,0,1 @ F,0,0,1,0,0.26458333,0,1 | F,0,0,1,0,0.26458333,0,1 @ F,0,0,1,0,0.26458333,0,1 @ F,0,0,1,0,0.26458333,0,1 @ F,0,0,1,0,0.26458333,0,1 @ F,0,0,1,0,0.26458333,0,1 | F,0,0,1,0,0.26458333,0,1 @ F,0,0,1,0,0.26458333,0,1 @ F,0,0,1,0,0.26458333,0,1"
       unit="px"
       method="auto"
       mode="F"
       radius="1"
       chamfer_steps="1"
       flexible="false"
       use_knot_distance="true"
       apply_no_radius="true"
       apply_with_radius="true"
       only_selected="false"
       hide_knots="false" /><inkscape:path-effect
       effect="fillet_chamfer"
       id="path-effect44112"
       is_visible="true"
       lpeversion="1"
       nodesatellites_param="F,0,0,1,0,3.4395833,0,1 @ F,0,0,1,0,3.4395833,0,1 @ F,0,0,1,0,3.4395833,0,1 @ F,0,0,1,0,3.4395833,0,1"
       unit="px"
       method="auto"
       mode="F"
       radius="13"
       chamfer_steps="1"
       flexible="false"
       use_knot_distance="true"
       apply_no_radius="true"
       apply_with_radius="true"
       only_selected="false"
       hide_knots="false" /><inkscape:path-effect
       effect="fillet_chamfer"
       id="path-effect44108"
       is_visible="true"
       lpeversion="1"
       nodesatellites_param="F,0,0,1,0,3.4395833,0,1 @ F,0,0,1,0,3.4395833,0,1 @ F,0,0,1,0,3.4395833,0,1"
       unit="px"
       method="auto"
       mode="F"
       radius="13"
       chamfer_steps="1"
       flexible="false"
       use_knot_distance="true"
       apply_no_radius="true"
       apply_with_radius="true"
       only_selected="false"
       hide_knots="false" /><inkscape:path-effect
       effect="fillet_chamfer"
       id="path-effect44104"
       is_visible="true"
       lpeversion="1"
       nodesatellites_param="F,0,0,1,0,3.4395833,0,1 @ F,0,0,1,0,3.4395833,0,1 @ F,0,0,1,0,3.4395833,0,1"
       unit="px"
       method="auto"
       mode="F"
       radius="13"
       chamfer_steps="1"
       flexible="false"
       use_knot_distance="true"
       apply_no_radius="true"
       apply_with_radius="true"
       only_selected="false"
       hide_knots="false" /><inkscape:path-effect
       effect="fillet_chamfer"
       id="path-effect44100"
       is_visible="true"
       lpeversion="1"
       nodesatellites_param="F,0,0,1,0,3.4395833,0,1 @ F,0,0,1,0,3.4395833,0,1 @ F,0,0,1,0,3.4395833,0,1 @ F,0,0,1,0,3.4395833,0,1"
       unit="px"
       method="auto"
       mode="F"
       radius="13"
       chamfer_steps="1"
       flexible="false"
       use_knot_distance="true"
       apply_no_radius="true"
       apply_with_radius="true"
       only_selected="false"
       hide_knots="false" /><inkscape:path-effect
       effect="fillet_chamfer"
       id="path-effect44096"
       is_visible="true"
       lpeversion="1"
       nodesatellites_param="F,0,0,1,0,3.4395833,0,1 @ F,0,0,1,0,3.4395833,0,1 @ F,0,0,1,0,3.4395833,0,1 @ F,0,0,1,0,3.4395833,0,1 @ F,0,0,1,0,3.4395833,0,1 @ F,0,0,1,0,3.4395833,0,1 @ F,0,0,1,0,3.4395833,0,1 @ F,0,0,1,0,3.4395833,0,1"
       unit="px"
       method="auto"
       mode="F"
       radius="13"
       chamfer_steps="1"
       flexible="false"
       use_knot_distance="true"
       apply_no_radius="true"
       apply_with_radius="true"
       only_selected="false"
       hide_knots="false" /><inkscape:path-effect
       effect="fillet_chamfer"
       id="path-effect44092"
       is_visible="true"
       lpeversion="1"
       nodesatellites_param="F,0,0,1,0,3.4395833,0,1 @ F,0,0,1,0,3.4395833,0,1 @ F,0,0,1,0,3.4395833,0,1 @ F,0,0,1,0,3.4395833,0,1"
       unit="px"
       method="auto"
       mode="F"
       radius="13"
       chamfer_steps="1"
       flexible="false"
       use_knot_distance="true"
       apply_no_radius="true"
       apply_with_radius="true"
       only_selected="false"
       hide_knots="false" /><inkscape:path-effect
       effect="fillet_chamfer"
       id="path-effect44088"
       is_visible="true"
       lpeversion="1"
       nodesatellites_param="F,0,0,1,0,3.4395833,0,1 @ F,0,0,1,0,3.4395833,0,1 @ F,0,0,1,0,3.4395833,0,1 @ F,0,0,1,0,3.4395833,0,1"
       unit="px"
       method="auto"
       mode="F"
       radius="13"
       chamfer_steps="1"
       flexible="false"
       use_knot_distance="true"
       apply_no_radius="true"
       apply_with_radius="true"
       only_selected="false"
       hide_knots="false" /><inkscape:path-effect
       effect="fillet_chamfer"
       id="path-effect44084"
       is_visible="true"
       lpeversion="1"
       nodesatellites_param="F,0,0,1,0,3.4395833,0,1 @ F,0,0,1,0,3.4395833,0,1 @ F,0,0,1,0,3.4395833,0,1 @ F,0,0,1,0,3.4395833,0,1 @ F,0,0,1,0,3.4395833,0,1 @ F,0,0,1,0,3.4395833,0,1 @ F,0,0,1,0,3.4395833,0,1 @ F,0,0,1,0,3.4395833,0,1 @ F,0,0,1,0,3.4395833,0,1 @ F,0,0,1,0,3.4395833,0,1 @ F,0,0,1,0,3.4395833,0,1 @ F,0,0,1,0,3.4395833,0,1 @ F,0,0,1,0,3.4395833,0,1"
       unit="px"
       method="auto"
       mode="F"
       radius="13"
       chamfer_steps="1"
       flexible="false"
       use_knot_distance="true"
       apply_no_radius="true"
       apply_with_radius="true"
       only_selected="false"
       hide_knots="false" /><inkscape:path-effect
       effect="fillet_chamfer"
       id="path-effect44080"
       is_visible="true"
       lpeversion="1"
       nodesatellites_param="F,0,0,1,0,3.4395833,0,1 @ F,0,0,1,0,3.4395833,0,1 @ F,0,0,1,0,3.4395833,0,1"
       unit="px"
       method="auto"
       mode="F"
       radius="13"
       chamfer_steps="1"
       flexible="false"
       use_knot_distance="true"
       apply_no_radius="true"
       apply_with_radius="true"
       only_selected="false"
       hide_knots="false" /><inkscape:path-effect
       effect="fillet_chamfer"
       id="path-effect44076"
       is_visible="true"
       lpeversion="1"
       nodesatellites_param="F,0,0,1,0,3.4395833,0,1 @ F,0,0,1,0,3.4395833,0,1 @ F,0,0,1,0,3.4395833,0,1 @ F,0,0,1,0,3.4395833,0,1 @ F,0,0,1,0,3.4395833,0,1 @ F,0,0,1,0,3.4395833,0,1 @ F,0,0,1,0,3.4395833,0,1 @ F,0,0,1,0,3.4395833,0,1 @ F,0,0,1,0,3.4395833,0,1 @ F,0,0,1,0,3.4395833,0,1"
       unit="px"
       method="auto"
       mode="F"
       radius="13"
       chamfer_steps="1"
       flexible="false"
       use_knot_distance="true"
       apply_no_radius="true"
       apply_with_radius="true"
       only_selected="false"
       hide_knots="false" /><inkscape:path-effect
       effect="fillet_chamfer"
       id="path-effect44072"
       is_visible="true"
       lpeversion="1"
       nodesatellites_param="F,0,0,1,0,3.4395833,0,1 @ F,0,0,1,0,6.1146077,0,1 @ F,0,0,1,0,3.4395833,0,1 @ F,0,0,1,0,3.4395833,0,1"
       unit="px"
       method="auto"
       mode="F"
       radius="13"
       chamfer_steps="1"
       flexible="false"
       use_knot_distance="true"
       apply_no_radius="true"
       apply_with_radius="true"
       only_selected="false"
       hide_knots="false" /><inkscape:path-effect
       effect="fillet_chamfer"
       id="path-effect44068"
       is_visible="true"
       lpeversion="1"
       nodesatellites_param="F,0,0,1,0,3.4395833,0,1 @ F,0,0,1,0,3.4395833,0,1 @ F,0,0,1,0,3.4395833,0,1 @ F,0,0,1,0,3.4395833,0,1"
       unit="px"
       method="auto"
       mode="F"
       radius="13"
       chamfer_steps="1"
       flexible="false"
       use_knot_distance="true"
       apply_no_radius="true"
       apply_with_radius="true"
       only_selected="false"
       hide_knots="false" /><inkscape:path-effect
       effect="fillet_chamfer"
       id="path-effect43868"
       is_visible="true"
       lpeversion="1"
       nodesatellites_param="F,0,0,1,0,3.4395833,0,1 @ F,0,0,1,0,3.4395833,0,1 @ F,0,0,1,0,3.4395833,0,1 @ F,0,0,1,0,3.4395833,0,1"
       unit="px"
       method="auto"
       mode="F"
       radius="13"
       chamfer_steps="1"
       flexible="false"
       use_knot_distance="true"
       apply_no_radius="true"
       apply_with_radius="true"
       only_selected="false"
       hide_knots="false" /><inkscape:path-effect
       effect="fillet_chamfer"
       id="path-effect43864"
       is_visible="true"
       lpeversion="1"
       nodesatellites_param="F,0,0,1,0,3.4395833,0,1 @ F,0,0,1,0,3.4395833,0,1 @ F,0,0,1,0,3.4395833,0,1"
       unit="px"
       method="auto"
       mode="F"
       radius="13"
       chamfer_steps="1"
       flexible="false"
       use_knot_distance="true"
       apply_no_radius="true"
       apply_with_radius="true"
       only_selected="false"
       hide_knots="false" /><inkscape:path-effect
       effect="fillet_chamfer"
       id="path-effect43860"
       is_visible="true"
       lpeversion="1"
       nodesatellites_param="F,0,0,1,0,3.4395833,0,1 @ F,0,0,1,0,3.4395833,0,1 @ F,0,0,1,0,3.4395833,0,1"
       unit="px"
       method="auto"
       mode="F"
       radius="13"
       chamfer_steps="1"
       flexible="false"
       use_knot_distance="true"
       apply_no_radius="true"
       apply_with_radius="true"
       only_selected="false"
       hide_knots="false" /><inkscape:path-effect
       effect="fillet_chamfer"
       id="path-effect43856"
       is_visible="true"
       lpeversion="1"
       nodesatellites_param="F,0,0,1,0,3.4395833,0,1 @ F,0,0,1,0,3.4395833,0,1 @ F,0,0,1,0,3.4395833,0,1 @ F,0,0,1,0,3.4395833,0,1"
       unit="px"
       method="auto"
       mode="F"
       radius="13"
       chamfer_steps="1"
       flexible="false"
       use_knot_distance="true"
       apply_no_radius="true"
       apply_with_radius="true"
       only_selected="false"
       hide_knots="false" /><inkscape:path-effect
       effect="fillet_chamfer"
       id="path-effect43852"
       is_visible="true"
       lpeversion="1"
       nodesatellites_param="F,0,0,1,0,3.4395833,0,1 @ F,0,0,1,0,3.4395833,0,1 @ F,0,0,1,0,3.4395833,0,1 @ F,0,0,1,0,3.4395833,0,1 @ F,0,0,1,0,3.4395833,0,1 @ F,0,0,1,0,3.4395833,0,1 @ F,0,0,1,0,3.4395833,0,1 @ F,0,0,1,0,3.4395833,0,1"
       unit="px"
       method="auto"
       mode="F"
       radius="13"
       chamfer_steps="1"
       flexible="false"
       use_knot_distance="true"
       apply_no_radius="true"
       apply_with_radius="true"
       only_selected="false"
       hide_knots="false" /><inkscape:path-effect
       effect="fillet_chamfer"
       id="path-effect43848"
       is_visible="true"
       lpeversion="1"
       nodesatellites_param="F,0,0,1,0,3.4395833,0,1 @ F,0,0,1,0,3.4395833,0,1 @ F,0,0,1,0,3.4395833,0,1 @ F,0,0,1,0,3.4395833,0,1"
       unit="px"
       method="auto"
       mode="F"
       radius="13"
       chamfer_steps="1"
       flexible="false"
       use_knot_distance="true"
       apply_no_radius="true"
       apply_with_radius="true"
       only_selected="false"
       hide_knots="false" /><inkscape:path-effect
       effect="fillet_chamfer"
       id="path-effect43844"
       is_visible="true"
       lpeversion="1"
       nodesatellites_param="F,0,0,1,0,3.4395833,0,1 @ F,0,0,1,0,3.4395833,0,1 @ F,0,0,1,0,3.4395833,0,1 @ F,0,0,1,0,3.4395833,0,1"
       unit="px"
       method="auto"
       mode="F"
       radius="13"
       chamfer_steps="1"
       flexible="false"
       use_knot_distance="true"
       apply_no_radius="true"
       apply_with_radius="true"
       only_selected="false"
       hide_knots="false" /><inkscape:path-effect
       effect="fillet_chamfer"
       id="path-effect43840"
       is_visible="true"
       lpeversion="1"
       nodesatellites_param="F,0,0,1,0,3.4395833,0,1 @ F,0,0,1,0,3.4395833,0,1 @ F,0,0,1,0,3.4395833,0,1 @ F,0,0,1,0,3.4395833,0,1 @ F,0,0,1,0,3.4395833,0,1 @ F,0,0,1,0,3.4395833,0,1 @ F,0,0,1,0,3.4395833,0,1 @ F,0,0,1,0,3.4395833,0,1 @ F,0,0,1,0,3.4395833,0,1 @ F,0,0,1,0,3.4395833,0,1 @ F,0,0,1,0,3.4395833,0,1 @ F,0,0,1,0,3.4395833,0,1 @ F,0,0,1,0,3.4395833,0,1"
       unit="px"
       method="auto"
       mode="F"
       radius="13"
       chamfer_steps="1"
       flexible="false"
       use_knot_distance="true"
       apply_no_radius="true"
       apply_with_radius="true"
       only_selected="false"
       hide_knots="false" /><inkscape:path-effect
       effect="fillet_chamfer"
       id="path-effect43836"
       is_visible="true"
       lpeversion="1"
       nodesatellites_param="F,0,0,1,0,3.4395833,0,1 @ F,0,0,1,0,3.4395833,0,1 @ F,0,0,1,0,3.4395833,0,1"
       unit="px"
       method="auto"
       mode="F"
       radius="13"
       chamfer_steps="1"
       flexible="false"
       use_knot_distance="true"
       apply_no_radius="true"
       apply_with_radius="true"
       only_selected="false"
       hide_knots="false" /><inkscape:path-effect
       effect="fillet_chamfer"
       id="path-effect43832"
       is_visible="true"
       lpeversion="1"
       nodesatellites_param="F,0,0,1,0,3.4395833,0,1 @ F,0,0,1,0,3.4395833,0,1 @ F,0,0,1,0,3.4395833,0,1 @ F,0,0,1,0,3.4395833,0,1 @ F,0,0,1,0,3.4395833,0,1 @ F,0,0,1,0,3.4395833,0,1 @ F,0,0,1,0,3.4395833,0,1 @ F,0,0,1,0,3.4395833,0,1 @ F,0,0,1,0,3.4395833,0,1 @ F,0,0,1,0,3.4395833,0,1"
       unit="px"
       method="auto"
       mode="F"
       radius="13"
       chamfer_steps="1"
       flexible="false"
       use_knot_distance="true"
       apply_no_radius="true"
       apply_with_radius="true"
       only_selected="false"
       hide_knots="false" /><inkscape:path-effect
       effect="fillet_chamfer"
       id="path-effect43828"
       is_visible="true"
       lpeversion="1"
       nodesatellites_param="F,0,0,1,0,3.4395833,0,1 @ F,0,0,1,0,6.1146077,0,1 @ F,0,0,1,0,3.4395833,0,1 @ F,0,0,1,0,3.4395833,0,1"
       unit="px"
       method="auto"
       mode="F"
       radius="13"
       chamfer_steps="1"
       flexible="false"
       use_knot_distance="true"
       apply_no_radius="true"
       apply_with_radius="true"
       only_selected="false"
       hide_knots="false" /><inkscape:path-effect
       effect="fillet_chamfer"
       id="path-effect43824"
       is_visible="true"
       lpeversion="1"
       nodesatellites_param="F,0,0,1,0,3.4395833,0,1 @ F,0,0,1,0,3.4395833,0,1 @ F,0,0,1,0,3.4395833,0,1 @ F,0,0,1,0,3.4395833,0,1"
       unit="px"
       method="auto"
       mode="F"
       radius="13"
       chamfer_steps="1"
       flexible="false"
       use_knot_distance="true"
       apply_no_radius="true"
       apply_with_radius="true"
       only_selected="false"
       hide_knots="false" /><inkscape:path-effect
       effect="fillet_chamfer"
       id="path-effect43755"
       is_visible="true"
       lpeversion="1"
       nodesatellites_param="F,0,0,1,0,3.4395833,0,1 @ F,0,0,1,0,3.4395833,0,1 @ F,0,0,1,0,3.4395833,0,1 @ F,0,0,1,0,3.4395833,0,1"
       unit="px"
       method="auto"
       mode="F"
       radius="13"
       chamfer_steps="1"
       flexible="false"
       use_knot_distance="true"
       apply_no_radius="true"
       apply_with_radius="true"
       only_selected="false"
       hide_knots="false" /><inkscape:path-effect
       effect="fillet_chamfer"
       id="path-effect43522"
       is_visible="true"
       lpeversion="1"
       nodesatellites_param="F,0,0,1,0,3.4395833,0,1 @ F,0,0,1,0,3.4395833,0,1 @ F,0,0,1,0,3.4395833,0,1 @ F,0,0,1,0,3.4395833,0,1 @ F,0,0,1,0,3.4395833,0,1 @ F,0,0,1,0,3.4395833,0,1 @ F,0,0,1,0,3.4395833,0,1 @ F,0,0,1,0,3.4395833,0,1 @ F,0,0,1,0,3.4395833,0,1 @ F,0,0,1,0,3.4395833,0,1 @ F,0,0,1,0,3.4395833,0,1 @ F,0,0,1,0,3.4395833,0,1 @ F,0,0,1,0,3.4395833,0,1"
       unit="px"
       method="auto"
       mode="F"
       radius="13"
       chamfer_steps="1"
       flexible="false"
       use_knot_distance="true"
       apply_no_radius="true"
       apply_with_radius="true"
       only_selected="false"
       hide_knots="false" /><inkscape:path-effect
       effect="fillet_chamfer"
       id="path-effect43520"
       is_visible="true"
       lpeversion="1"
       nodesatellites_param="F,0,0,1,0,3.4395833,0,1 @ F,0,0,1,0,3.4395833,0,1 @ F,0,0,1,0,3.4395833,0,1 @ F,0,0,1,0,3.4395833,0,1 @ F,0,0,1,0,3.4395833,0,1 @ F,0,0,1,0,3.4395833,0,1 @ F,0,0,1,0,3.4395833,0,1 @ F,0,0,1,0,3.4395833,0,1"
       unit="px"
       method="auto"
       mode="F"
       radius="13"
       chamfer_steps="1"
       flexible="false"
       use_knot_distance="true"
       apply_no_radius="true"
       apply_with_radius="true"
       only_selected="false"
       hide_knots="false" /><inkscape:path-effect
       effect="fillet_chamfer"
       id="path-effect43514"
       is_visible="true"
       lpeversion="1"
       nodesatellites_param="F,0,0,1,0,3.4395833,0,1 @ F,0,0,1,0,3.4395833,0,1 @ F,0,0,1,0,3.4395833,0,1 @ F,0,0,1,0,3.4395833,0,1"
       unit="px"
       method="auto"
       mode="F"
       radius="13"
       chamfer_steps="1"
       flexible="false"
       use_knot_distance="true"
       apply_no_radius="true"
       apply_with_radius="true"
       only_selected="false"
       hide_knots="false" /><inkscape:path-effect
       effect="fillet_chamfer"
       id="path-effect43508"
       is_visible="true"
       lpeversion="1"
       nodesatellites_param="F,0,0,1,0,3.4395833,0,1 @ F,0,0,1,0,3.4395833,0,1 @ F,0,0,1,0,3.4395833,0,1 @ F,0,0,1,0,3.4395833,0,1"
       unit="px"
       method="auto"
       mode="F"
       radius="13"
       chamfer_steps="1"
       flexible="false"
       use_knot_distance="true"
       apply_no_radius="true"
       apply_with_radius="true"
       only_selected="false"
       hide_knots="false" /><inkscape:path-effect
       effect="fillet_chamfer"
       id="path-effect43506"
       is_visible="true"
       lpeversion="1"
       nodesatellites_param="F,0,0,1,0,3.4395833,0,1 @ F,0,0,1,0,3.4395833,0,1 @ F,0,0,1,0,3.4395833,0,1"
       unit="px"
       method="auto"
       mode="F"
       radius="13"
       chamfer_steps="1"
       flexible="false"
       use_knot_distance="true"
       apply_no_radius="true"
       apply_with_radius="true"
       only_selected="false"
       hide_knots="false" /><inkscape:path-effect
       effect="fillet_chamfer"
       id="path-effect43504"
       is_visible="true"
       lpeversion="1"
       nodesatellites_param="F,0,0,1,0,3.4395833,0,1 @ F,0,0,1,0,3.4395833,0,1 @ F,0,0,1,0,3.4395833,0,1"
       unit="px"
       method="auto"
       mode="F"
       radius="13"
       chamfer_steps="1"
       flexible="false"
       use_knot_distance="true"
       apply_no_radius="true"
       apply_with_radius="true"
       only_selected="false"
       hide_knots="false" /><inkscape:path-effect
       effect="fillet_chamfer"
       id="path-effect43502"
       is_visible="true"
       lpeversion="1"
       nodesatellites_param="F,0,0,1,0,3.4395833,0,1 @ F,0,0,1,0,3.4395833,0,1 @ F,0,0,1,0,3.4395833,0,1"
       unit="px"
       method="auto"
       mode="F"
       radius="13"
       chamfer_steps="1"
       flexible="false"
       use_knot_distance="true"
       apply_no_radius="true"
       apply_with_radius="true"
       only_selected="false"
       hide_knots="false" /><inkscape:path-effect
       effect="fillet_chamfer"
       id="path-effect43500"
       is_visible="true"
       lpeversion="1"
       nodesatellites_param="F,0,0,1,0,3.4395833,0,1 @ F,0,0,1,0,3.4395833,0,1 @ F,0,0,1,0,3.4395833,0,1"
       unit="px"
       method="auto"
       mode="F"
       radius="13"
       chamfer_steps="1"
       flexible="false"
       use_knot_distance="true"
       apply_no_radius="true"
       apply_with_radius="true"
       only_selected="false"
       hide_knots="false" /><inkscape:path-effect
       effect="fillet_chamfer"
       id="path-effect43498"
       is_visible="true"
       lpeversion="1"
       nodesatellites_param="F,0,0,1,0,0,0,1 @ F,0,0,1,0,0,0,1 @ F,0,0,1,0,0,0,1 @ F,0,0,1,0,0,0,1"
       unit="px"
       method="auto"
       mode="F"
       radius="0"
       chamfer_steps="1"
       flexible="false"
       use_knot_distance="true"
       apply_no_radius="true"
       apply_with_radius="true"
       only_selected="false"
       hide_knots="false" /><inkscape:path-effect
       effect="fillet_chamfer"
       id="path-effect43496"
       is_visible="true"
       lpeversion="1"
       nodesatellites_param="F,0,0,1,0,3.4395833,0,1 @ F,0,0,1,0,3.4395833,0,1 @ F,0,0,1,0,3.4395833,0,1 @ F,0,0,1,0,3.4395833,0,1 @ F,0,0,1,0,3.4395833,0,1 @ F,0,0,1,0,3.4395833,0,1 @ F,0,0,1,0,3.4395833,0,1 @ F,0,0,1,0,3.4395833,0,1 @ F,0,0,1,0,3.4395833,0,1 @ F,0,0,1,0,3.4395833,0,1"
       unit="px"
       method="auto"
       mode="F"
       radius="13"
       chamfer_steps="1"
       flexible="false"
       use_knot_distance="true"
       apply_no_radius="true"
       apply_with_radius="true"
       only_selected="false"
       hide_knots="false" /><inkscape:path-effect
       effect="fillet_chamfer"
       id="path-effect43494"
       is_visible="true"
       lpeversion="1"
       nodesatellites_param="F,0,0,1,0,3.4395833,0,1 @ F,0,0,1,0,3.4395833,0,1 @ F,0,0,1,0,3.4395833,0,1 @ F,0,0,1,0,3.4395833,0,1"
       unit="px"
       method="auto"
       mode="F"
       radius="13"
       chamfer_steps="1"
       flexible="false"
       use_knot_distance="true"
       apply_no_radius="true"
       apply_with_radius="true"
       only_selected="false"
       hide_knots="false" /><inkscape:path-effect
       effect="fillet_chamfer"
       id="path-effect43492"
       is_visible="true"
       lpeversion="1"
       nodesatellites_param="F,0,0,1,0,3.4395833,0,1 @ F,0,0,1,0,3.4395833,0,1 @ F,0,0,1,0,3.4395833,0,1 @ F,0,0,1,0,3.4395833,0,1"
       unit="px"
       method="auto"
       mode="F"
       radius="13"
       chamfer_steps="1"
       flexible="false"
       use_knot_distance="true"
       apply_no_radius="true"
       apply_with_radius="true"
       only_selected="false"
       hide_knots="false" /><inkscape:path-effect
       effect="fillet_chamfer"
       id="path-effect43456"
       is_visible="true"
       lpeversion="1"
       nodesatellites_param="F,0,0,1,0,3.4395833,0,1 @ F,0,0,1,0,6.1146077,0,1 @ F,0,0,1,0,3.4395833,0,1 @ F,0,0,1,0,3.4395833,0,1"
       unit="px"
       method="auto"
       mode="F"
       radius="13"
       chamfer_steps="1"
       flexible="false"
       use_knot_distance="true"
       apply_no_radius="true"
       apply_with_radius="true"
       only_selected="false"
       hide_knots="false" /><inkscape:path-effect
       effect="fillet_chamfer"
       id="path-effect43452"
       is_visible="true"
       lpeversion="1"
       nodesatellites_param="F,0,0,1,0,0,0,1 @ F,0,0,1,0,0,0,1 @ F,0,0,1,0,0,0,1 @ F,0,0,1,0,0,0,1"
       unit="px"
       method="auto"
       mode="F"
       radius="13"
       chamfer_steps="1"
       flexible="false"
       use_knot_distance="true"
       apply_no_radius="true"
       apply_with_radius="true"
       only_selected="false"
       hide_knots="false" /><inkscape:path-effect
       effect="fillet_chamfer"
       id="path-effect43448"
       is_visible="true"
       lpeversion="1"
       nodesatellites_param="F,0,0,1,0,3.4395833,0,1 @ F,0,0,1,0,3.4395833,0,1 @ F,0,0,1,0,3.4395833,0,1 @ F,0,0,1,0,3.4395833,0,1"
       unit="px"
       method="auto"
       mode="F"
       radius="13"
       chamfer_steps="1"
       flexible="false"
       use_knot_distance="true"
       apply_no_radius="true"
       apply_with_radius="true"
       only_selected="false"
       hide_knots="false" /></defs><g
     inkscape:groupmode="layer"
     id="g44064"
     inkscape:label="final"
     style="display:inline;fill:#ffffff;fill-opacity:1"><g
       inkscape:groupmode="layer"
       id="g44032"
       inkscape:label="outer"
       style="display:inline;fill:#ffffff;fill-opacity:1"><path
         id="path44000"
         style="color:#000000;fill:#ffffff;fill-opacity:1;-inkscape-stroke:none"
         d="m 109.60623,56.661141 v 4.004923 c 13.48236,0.696498 26.21205,4.221894 37.61166,9.990605 l 1.99522,-3.456636 C 137.21948,61.089512 123.80849,57.36669 109.60623,56.661141 Z m -10.837582,0.05633 C 84.628183,57.553134 71.289737,61.37764 59.375704,67.571586 l 1.99316,3.451469 C 72.689248,65.171981 85.348425,61.549829 98.768648,60.724976 Z m 59.812882,15.931844 -1.99264,3.451469 c 10.91913,7.209802 20.25022,16.625613 27.35595,27.618986 l 3.45199,-1.99265 C 179.93241,90.136883 170.09707,80.219002 158.58153,72.649312 Z M 50.049141,73.093213 C 38.694296,80.69115 29.007325,90.58785 21.657593,102.11935 l 3.448368,1.99109 C 32.097591,93.175568 41.28245,83.781115 52.041785,76.544165 Z m 142.700339,38.058137 -3.45716,1.99575 c 5.61831,11.37806 9.01072,24.05251 9.60872,37.45921 h 4.00234 c -0.60597,-14.12672 -4.19503,-27.48195 -10.1539,-39.45496 z m -176.401641,0.41703 c -5.835229,11.86568 -9.347745,25.07524 -9.9466793,39.03793 h 4.0023393 c 0.590678,-13.24268 3.905816,-25.77203 9.401494,-37.04218 z m -9.8221391,49.87603 c 0.9107773,13.8136 4.6729181,26.8507 10.7094241,38.52581 l 3.451469,-1.99316 C 14.991861,186.89584 11.431099,174.5381 10.533207,161.44441 Z m 192.2456301,0 c -0.90908,13.2569 -4.55106,25.75745 -10.37043,36.94451 l 3.45147,1.99265 c 6.16194,-11.78033 10.00494,-24.96048 10.92647,-38.93716 z m -172.582231,45.87058 -3.450952,1.99213 c 7.419167,11.14156 17.049168,20.6837 28.263391,28.00139 l 1.992643,-3.45147 C 42.37591,226.89937 33.247016,217.86108 26.189099,207.31499 Z m 156.668471,0.38809 c -7.1721,10.60322 -16.44436,19.66678 -27.22108,26.59735 l 1.99265,3.45147 c 11.37311,-7.28925 21.14771,-16.85669 28.68145,-28.05514 z m -120.472231,31.56397 -1.995227,3.45612 c 11.654863,5.8883 24.638108,9.52271 38.378536,10.33477 v -4.00751 c -13.020425,-0.80032 -25.323289,-4.2355 -36.383309,-9.78338 z m 83.811421,0.35863 c -11.13703,5.46736 -23.509,8.80784 -36.59053,9.48366 v 4.00493 c 13.80143,-0.68567 26.85331,-4.22519 38.58576,-10.03195 z" /><g
         inkscape:groupmode="layer"
         id="g44030"
         inkscape:label="ballies"
         style="display:inline;fill:#ffffff;fill-opacity:1"><circle
           style="fill:#ffffff;fill-opacity:1;stroke:none;stroke-width:7.2;stroke-linecap:round;stroke-linejoin:round;stroke-miterlimit:2.6;stroke-dasharray:none;stroke-opacity:0.712803"
           id="circle44018"
           cx="36.289314"
           cy="116.99863"
           r="7.265944" /><circle
           style="fill:#ffffff;fill-opacity:1;stroke:none;stroke-width:7.2;stroke-linecap:round;stroke-linejoin:round;stroke-miterlimit:2.6;stroke-dasharray:none;stroke-opacity:0.712803"
           id="circle44020"
           cx="104.43156"
           cy="232.84328"
           r="7.265944" /><circle
           style="fill:#ffffff;fill-opacity:1;stroke:none;stroke-width:7.2;stroke-linecap:round;stroke-linejoin:round;stroke-miterlimit:2.6;stroke-dasharray:none;stroke-opacity:0.712803"
           id="circle44022"
           cx="37.320095"
           cy="194.24275"
           r="7.265944" /><circle
           style="fill:#ffffff;fill-opacity:1;stroke:none;stroke-width:7.2;stroke-linecap:round;stroke-linejoin:round;stroke-miterlimit:2.6;stroke-dasharray:none;stroke-opacity:0.712803"
           id="circle44024"
           cx="172.65503"
           cy="116.87912"
           r="7.265944" /><circle
           style="fill:#ffffff;fill-opacity:1;stroke:none;stroke-width:7.2;stroke-linecap:round;stroke-linejoin:round;stroke-miterlimit:2.6;stroke-dasharray:none;stroke-opacity:0.712803"
           id="circle44026"
           cx="104.25365"
           cy="76.780426"
           r="7.265944" /><circle
           style="fill:#ffffff;fill-opacity:1;stroke:none;stroke-width:7.2;stroke-linecap:round;stroke-linejoin:round;stroke-miterlimit:2.6;stroke-dasharray:none;stroke-opacity:0.712803"
           id="circle44028"
           cx="171.51129"
           cy="195.12146"
           r="7.265944" /></g><g
         id="layer4-0"
         inkscape:label="drawing"
         style="display:inline;fill:#ffffff;fill-opacity:1"
         transform="translate(77.044749,85.783448)" /></g><g
       inkscape:groupmode="layer"
       id="g44062"
       inkscape:label="inner"
       style="display:inline;fill:#ffffff;fill-opacity:1"><path
         id="path44116"
         style="display:none;fill:#ffffff;fill-opacity:1;stroke:none;stroke-width:7.2;stroke-linecap:round;stroke-linejoin:round;stroke-miterlimit:2.6;stroke-dasharray:none;stroke-opacity:0.712803"
         d="m 106.02764,98.56401 a 55.109917,55.109917 0 0 0 -30.877705,9.47126 v 6.13554 2.73162 a 3.4395833,3.4395833 0 0 0 3.439583,3.43958 h 9.275403 a 3.4395833,3.4395833 0 0 0 3.439583,-3.43958 v -8.04861 a 3.4395833,3.4395833 0 0 1 3.439584,-3.43958 2.6736604,2.6736604 0 0 1 1.570447,3.43958 v 8.86664 a 3.4395833,3.4395833 0 0 0 3.439583,3.43959 h 42.709542 a 3.4395833,3.4395833 0 0 0 3.43958,-3.43959 v -2.08049 a 55.109917,55.109917 0 0 0 -18.09709,-12.58683 v 4.34082 a 3.4395833,3.4395833 0 0 1 -3.43958,3.43958 H 110.4899 a 3.4395833,3.4395833 0 0 1 -3.43959,-3.43958 v -7.639842 a 3.4395833,3.4395833 0 0 0 -0.22789,-1.179773 55.109917,55.109917 0 0 0 -0.79478,-0.01033 z m -41.167516,27.03091 -2.221053,0.0253 a 5.3699818,5.3699818 0 0 0 -4.842599,3.17913 l -3.63492,8.13542 a 4.9975676,4.9975676 0 0 0 1.028878,5.57279 l 8.78551,8.78499 a 2.5327537,2.5327537 0 0 0 4.323767,-1.79058 v -20.50573 a 3.4011552,3.4011552 0 0 0 -3.439583,-3.40134 z m 12.195638,0.57516 a 3.4395833,3.4395833 0 0 0 -3.439584,3.43958 v 3.95893 a 3.4395833,3.4395833 0 0 0 3.439584,3.43958 h 56.614628 a 3.4395833,3.4395833 0 0 0 3.43959,-3.43958 v -3.95893 a 3.4395833,3.4395833 0 0 0 -3.43959,-3.43958 z m 68.503828,0.71572 a 3.4395833,3.4395833 0 0 0 -3.43958,3.43958 v 64.94487 a 55.109917,55.109917 0 0 0 8.4863,-9.25731 v -55.68756 a 3.4395833,3.4395833 0 0 0 -3.43958,-3.43958 z m 9.23871,1.13223 v 51.23511 a 55.109917,55.109917 0 0 0 6.33967,-25.57932 55.109917,55.109917 0 0 0 -6.33967,-25.65579 z m -36.12906,15.73805 a 3.4395833,3.4395833 0 0 0 -3.43958,3.43959 v 16.22795 a 1.3793552,1.3793552 0 0 0 2.3766,0.95343 l 17.33176,-18.1343 a 1.470516,1.470516 0 0 0 -1.06299,-2.48667 z m -42.431516,0.10232 a 3.4395833,3.4395833 0 0 0 -3.439584,3.43959 v 3.54965 a 3.4395833,3.4395833 0 0 0 3.439584,3.43958 h 18.068664 a 3.3747158,3.3747158 0 0 1 3.439584,3.30885 3.4395833,3.4395833 0 0 1 -3.439584,3.43958 H 84.008309 a 3.4395833,3.4395833 0 0 0 -3.439583,3.43958 v 37.90363 a 3.4395833,3.4395833 0 0 0 0.02222,0.14108 55.109917,55.109917 0 0 0 7.51427,3.22771 3.4395833,3.4395833 0 0 0 2.99465,-3.36879 v -27.98589 a 3.4395833,3.4395833 0 0 1 3.439583,-3.43958 h 11.729521 a 3.4395833,3.4395833 0 0 0 3.43958,-3.43958 v -20.21582 a 3.4395833,3.4395833 0 0 0 -3.43958,-3.43959 z m -24.853264,2.92024 a 55.109917,55.109917 0 0 0 -0.466638,6.89518 55.109917,55.109917 0 0 0 1.087272,10.70684 l 20.148641,18.46089 a 1.5135551,1.5135551 0 0 0 2.53628,-1.11569 v -8.20208 a 8.3038897,8.3038897 0 0 0 -2.43241,-5.872 z m 85.76169,8.38036 a 1.488632,1.488632 0 0 0 -1.03715,0.43564 l -26.21803,26.21803 a 3.4395339,3.4395339 0 0 0 5.1e-4,4.86431 l 13.23279,13.2333 a 3.4396327,3.4396327 0 0 0 4.86482,0 l 8.52919,-8.52971 a 8.3038887,8.3038887 0 0 0 2.43241,-5.872 v -5.74848 a 1.4246791,1.4246791 0 0 0 -2.43189,-1.00718 l -7.32875,7.32824 a 3.4396824,3.4396824 0 0 1 -4.86431,5.2e-4 l -0.2222,-0.22273 a 3.4394119,3.4394119 0 0 1 0,-4.86379 l 12.41474,-12.41578 a 7.9473894,7.9473894 0 0 0 2.32389,-5.86992 l -0.19224,-6.10867 a 1.488632,1.488632 0 0 0 -1.50378,-1.44178 z m -37.903112,19.06602 a 3.4395833,3.4395833 0 0 0 -3.439583,3.43959 v 3.65197 a 1.6288553,1.6288553 0 0 0 2.660819,1.26039 l 7.535976,-6.17223 a 1.2288103,1.2288103 0 0 0 -0.77877,-2.17972 z m -33.72714,8.15196 a 1.4247226,1.4247226 0 0 0 -1.510502,1.42214 v 5.47201 a 55.109917,55.109917 0 0 0 10.735262,9.75755 v -4.49378 a 8.3038854,8.3038854 0 0 0 -2.431893,-5.87148 l -5.871477,-5.87148 a 1.4247226,1.4247226 0 0 0 -0.92139,-0.41496 z m 31.823897,4.09174 a 1.4247221,1.4247221 0 0 0 -1.53634,1.42059 v 19.89852 a 55.109917,55.109917 0 0 0 10.224185,0.99581 55.109917,55.109917 0 0 0 12.63023,-1.48001 L 98.235347,186.88162 a 1.4247221,1.4247221 0 0 0 -0.895552,-0.4129 z"
         inkscape:label="inside" /><path
         id="circle1832"
         style="display:inline;fill:#ffffff;fill-opacity:1;stroke:none;stroke-width:2.065;stroke-dashoffset:2.31761"
         inkscape:label="inside eye"
         d="m 95.717708,184.96503 c -0.163606,0.005 -0.327019,0.0154 -0.490025,0.0303 -0.145508,0.0133 -0.266268,0.14678 -0.270242,0.29286 l -0.08189,3.0095 a 0.26095068,0.26095068 46.162561 0 0 0.257364,0.26803 l 6.167883,0.0825 a 0.26209953,0.26209953 135.49632 0 0 0.2656,-0.26104 l 0.004,-0.99116 c 5.7e-4,-0.14612 -0.0861,-0.34488 -0.19702,-0.44 -0.48618,-0.41695 -1.01909,-0.77609 -1.588041,-1.07022 -0.129795,-0.0671 -0.237335,7.3e-4 -0.237842,0.14685 l -0.0015,0.42325 a 0.25720223,0.25720223 136.00897 0 1 -0.265367,0.25618 l -0.277009,-0.009 a 0.280229,0.280229 45.174469 0 1 -0.27124,-0.2729 l -0.0191,-0.74407 c -0.0037,-0.14608 -0.118542,-0.3039 -0.257992,-0.34754 -0.241186,-0.0755 -0.485701,-0.13988 -0.732777,-0.193 -0.142855,-0.0307 -0.265686,0.0668 -0.273295,0.21275 l -0.05366,1.0291 a 0.27004053,0.27004053 137.40023 0 1 -0.278229,0.25584 l -0.417609,-0.0132 a 0.26650623,0.26650623 46.607954 0 1 -0.257984,-0.27288 l 0.02732,-1.11733 c 0.0036,-0.14608 -0.111789,-0.27202 -0.257851,-0.27609 -0.126606,-0.004 -0.229125,-0.003 -0.228905,-0.003 z m -1.961265,0.30043 0.002,0.002 v -0.003 z m -0.962691,0.33388 c -0.5556,0.23199 -1.084249,0.52388 -1.576565,0.87049 -0.119475,0.0841 -0.125208,0.2343 -0.01584,0.33121 a 0.42481305,0.42481305 76.529384 0 1 0.07728,0.32263 l 0.04127,0.94989 a 0.27372272,0.27372272 43.484857 0 0 0.276056,0.26183 l 1.794452,-0.017 a 0.25652583,0.25652583 133.57169 0 0 0.253887,-0.26687 l -0.0734,-1.81637 a 0.62867346,0.62867346 64.861572 0 0 -0.207192,-0.44154 l -0.127701,-0.11513 c -0.108528,-0.0978 -0.307412,-0.13544 -0.442249,-0.0791 z m -2.823859,1.94838 c -0.103838,0.10967 -0.204657,0.22215 -0.302344,0.33733 -0.09451,0.11144 -0.179942,0.32232 -0.194812,0.46769 a 0.15068399,0.15068399 3.8988655 0 0 0.247213,0.0168 l 0.846437,-0.2232 a 0.15885078,0.15885078 106.20776 0 0 0.07603,-0.26155 l -0.307757,-0.33221 c -0.09931,-0.10719 -0.264299,-0.11101 -0.364764,-0.005 z m 1.191404,1.95161 v 1.08098 a 0.26458333,0.26458333 45 0 0 0.264583,0.26458 h 9.13186 a 0.26458333,0.26458333 135 0 0 0.26458,-0.26458 v -1.08098 a 0.26458333,0.26458333 45 0 0 -0.26458,-0.26458 l -9.13186,0 a 0.26458333,0.26458333 135 0 0 -0.264583,0.26458 z m -1.140465,-0.12158 -1.361723,0.65156 a 0.88101357,0.88101357 161.96834 0 1 -0.356953,0.1162 c -0.26857,0.72057 -0.398509,1.20909 -0.48319,1.70638 -0.02453,0.14404 0.07822,0.26169 0.224342,0.26194 l 0.638929,0.001 a 0.41227525,0.41227525 147.40722 0 0 0.375212,-0.23989 l 1.091423,-2.37115 a 0.09555152,0.09555152 44.573004 0 0 -0.12804,-0.12614 z m 13.253748,0.15931 0.41109,4.55783 a 0.28471348,0.28471348 41.944918 0 0 0.28832,0.25909 c 0.11859,-0.002 0.2311,-0.12094 0.24612,-0.26628 0.02,-0.19301 0.0331,-0.38667 0.0395,-0.58061 0.005,-0.14604 0.005,-0.38302 2e-4,-0.52907 -0.0386,-1.20757 -0.34101,-2.39214 -0.88592,-3.47046 -0.0659,-0.13041 -0.12307,-0.23411 -0.12305,-0.23401 z m -1.86094,0.0487 0.82517,8.58176 a 0.14703729,0.14703729 23.570027 0 0 0.2356,0.10279 c 0.11335,-0.0866 0.27529,-0.25229 0.35743,-0.37314 0.16816,-0.24742 0.32279,-0.50377 0.46321,-0.76792 0.0686,-0.12902 0.11034,-0.3536 0.0979,-0.49919 l -0.60268,-7.04405 a 0.28818701,0.28818701 42.554915 0 0 -0.28713,-0.26362 l -0.85023,0 a 0.24036311,0.24036311 132.25386 0 0 -0.23926,0.26337 z m -11.062341,2.07905 -1.600693,1.47476 a 0.19776171,0.19776171 84.12086 0 0 0.03245,0.31514 l 0.549826,0.32903 a 0.2265925,0.2265925 161.47415 0 0 0.326371,-0.10937 l 0.787297,-1.94361 a 0.0593679,0.0593679 34.698027 0 0 -0.09525,-0.0659 z m 0.527412,0.46186 -0.490697,1.27127 a 0.18281936,0.18281936 55.749535 0 0 0.169301,0.24864 l 3.991701,0.0274 a 0.26640383,0.26640383 45.196439 0 1 0.264577,0.26639 v 0.3378 a 0.26458333,0.26458333 135 0 1 -0.264583,0.26458 h -2.009954 a 0.2603255,0.2603255 134.53525 0 0 -0.260291,0.26455 l 0.08436,5.19939 a 0.62362868,0.62362868 66.08073 0 0 0.197509,0.4453 l 0.432786,0.40487 c 0.106711,0.0998 0.30459,0.22121 0.44362,0.26617 0.03968,0.0128 0.07945,0.0254 0.119313,0.0376 0.139693,0.0429 0.255157,-0.0449 0.256407,-0.19102 l 0.03867,-4.52113 a 0.26685626,0.26685626 135.24505 0 1 0.266846,-0.26457 h 2.257601 a 0.26458333,0.26458333 135 0 0 0.264583,-0.26458 v -3.77489 a 0.26458286,0.26458286 44.999949 0 0 -0.264583,-0.26458 l -5.137307,10e-6 a 0.38573717,0.38573717 145.55305 0 0 -0.359859,0.24683 z m 9.588169,-0.0875 -2.711379,0.0183 a 0.23861876,0.23861876 131.65903 0 0 -0.235567,0.26478 l 0.270449,2.45176 a 0.12463337,0.12463337 18.928285 0 0 0.213307,0.0731 l 2.54347,-2.61996 a 0.11084444,0.11084444 66.882052 0 0 -0.0803,-0.18805 z m 0.38936,1.3971 -4.096022,4.00482 a 0.62872735,0.62872735 112.82251 0 0 -0.189183,0.44955 l 0,0.63877 a 0.58856669,0.58856669 65.794252 0 0 0.19789,0.4402 l 2.036853,1.80768 c 0.109292,0.097 0.271073,0.14742 0.360491,0.11052 l 2.130111,-1.8874 a 0.54116226,0.54116226 112.40238 0 0 0.18118,-0.43952 l -0.0592,-0.92726 a 0.28201097,0.28201097 43.173797 0 0 -0.28143,-0.26405 h -0.15209 a 0.63878359,0.63878359 157.50073 0 0 -0.45167,0.18708 l -1.143184,1.14313 a 0.26456284,0.26456284 0.00367265 0 1 -0.374162,-3e-5 l -0.384346,-0.38442 a 0.26461913,0.26461913 90.002015 0 1 1.4e-5,-0.3742 l 2.226728,-2.22688 a 0.63883765,0.63883765 112.50058 0 0 0.18709,-0.45167 l 1e-4,-1.74671 a 0.11133471,0.11133471 22.824019 0 0 -0.18917,-0.0796 z m -13.149782,0.10855 c 0.05647,1.54408 0.543864,3.04176 1.406957,4.32334 0.08162,0.1212 0.14513,0.0988 0.137552,-0.0472 l -0.05067,-0.97567 a 0.12235528,0.12235528 152.20933 0 1 0.196492,-0.10356 l 1.754516,1.34101 a 0.12700066,0.12700066 153.0325 0 0 0.204089,-0.10384 l -0.04609,-1.99065 a 0.51346405,0.51346405 61.411983 0 0 -0.225085,-0.41304 l -3.164246,-2.14641 c -0.120929,-0.082 -0.218855,-0.03 -0.213515,0.11599 z m 16.220242,1.74457 c 0.005,0.14266 0.0427,0.14463 0.0789,0.003 0.0352,-0.13755 -0.007,-0.25783 -0.0883,-0.26747 z m -9.354449,1.67839 -0.01181,0.4729 a 0.47891732,0.47891732 62.51214 0 0 0.213786,0.41089 l 0.962121,0.63907 a 0.14645127,0.14645127 152.55844 0 0 0.227429,-0.1181 l 0.03399,-1.2778 a 0.28157863,0.28157863 48.306035 0 0 -0.256506,-0.28796 l -0.898857,-0.08 a 0.24821153,0.24821153 138.25973 0 0 -0.270149,0.24103 z m -0.0802,1.59201 0.04409,2.57324 c 0.0025,0.1461 0.121132,0.28565 0.26575,0.30654 0.303541,0.0438 0.609283,0.0708 0.915813,0.0807 0.146042,0.005 0.38303,0.005 0.529074,9e-5 0.321316,-0.0103 0.64176,-0.0393 0.959705,-0.0868 0.144512,-0.0216 0.339545,-0.13199 0.436431,-0.24137 a 0.24294239,0.24294239 82.479663 0 0 -0.04581,-0.34704 l -2.904994,-2.38212 a 0.12244023,0.12244023 154.18519 0 0 -0.20006,0.0968 z m -4.303147,0.59898 c -5.6e-5,5.4e-4 0.08424,0.0842 0.191848,0.18305 0.329438,0.30266 0.682858,0.57812 1.056789,0.82369 0.122135,0.0802 0.138707,0.0589 0.03419,-0.0432 l -1.066258,-1.04179 a 0.12788116,0.12788116 160.13068 0 0 -0.216567,0.0783 z"
         transform="matrix(6.4833653,0,0,6.4833653,-516.08514,-1099.2031)"
         inkscape:path-effect="#path-effect1841"
         inkscape:original-d="m 95.982245,184.96074 a 8.2818251,8.2818251 0 0 0 -1.017608,0.063 l -0.09628,3.53848 6.697003,0.0896 0.006,-1.52032 a 8.2818251,8.2818251 0 0 0 -2.023026,-1.36337 l -0.0033,0.95241 -0.805909,-0.0256 -0.03268,-1.27307 a 8.2818251,8.2818251 0 0 0 -1.243496,-0.32751 l -0.08122,1.55754 -0.946511,-0.03 0.04025,-1.64633 a 8.2818251,8.2818251 0 0 0 -0.493621,-0.0148 z m -2.223802,0.30408 a 8.2818251,8.2818251 0 0 0 -0.002,6.4e-4 l 0.002,0.002 z m -0.71895,0.23649 a 8.2818251,8.2818251 0 0 0 -2.036174,1.12426 l 0.263827,0.23377 0.06424,1.47855 2.323594,-0.022 -0.09477,-2.34511 z m -2.884647,1.85723 a 8.2818251,8.2818251 0 0 0 -0.655184,0.73099 l -0.03555,0.34752 1.358113,-0.35812 z m 1.006451,1.87621 v 1.61014 h 9.661023 v -1.61014 z m -0.901796,0.0288 -1.839061,0.87996 -0.118284,0.002 a 8.2818251,8.2818251 0 0 0 -0.523431,1.96787 l 1.168095,0.002 z m 12.991309,0.01 0.45863,5.08485 0.47927,-0.008 a 8.2818251,8.2818251 0 0 0 0.0753,-1.10784 8.2818251,8.2818251 0 0 0 -1.01323,-3.9692 z m -1.86249,0.0488 0.87581,9.1085 0.41551,-0.31731 a 8.2818251,8.2818251 0 0 0 0.73585,-1.2199 l -0.64778,-7.57129 z m -10.842435,2.16314 -1.989865,1.83332 1.0039,0.60075 z m 0.428102,0.39431 -0.681249,1.76493 4.520855,0.031 v 0.86696 h -2.53912 l 0.09294,5.72849 0.81922,0.76637 a 8.2818251,8.2818251 0 0 0 0.62386,0.19656 l 0.0432,-5.05027 h 2.786767 v -4.30405 z m 9.757473,0.15758 -3.240536,0.0219 0.328469,2.97774 z m 0.31396,1.21392 -4.474385,4.37476 v 1.16793 l 2.432633,2.15892 a 8.2818251,8.2818251 0 0 0 0.162601,-0.0651 l 2.328141,-2.06287 -0.0929,-1.45536 h -0.68125 l -1.517367,1.51729 -0.758484,-0.75864 2.600891,-2.60106 z m -13.344408,0.029 a 8.2818251,8.2818251 0 0 0 1.563676,4.80492 l -0.07811,-1.50413 2.174942,1.66235 -0.05834,-2.51967 z m 16.216228,1.74468 0.0187,0.52272 a 8.2818251,8.2818251 0 0 0 0.12944,-0.50526 z m -9.338381,1.6783 -0.02503,1.0019 1.402909,0.93185 0.04806,-1.80678 z m -0.09134,1.59197 0.05316,3.10232 a 8.2818251,8.2818251 0 0 0 1.441566,0.12706 8.2818251,8.2818251 0 0 0 1.485246,-0.13439 l 0.334208,-0.37733 z m -4.271295,0.60035 -0.02742,0.26414 a 8.2818251,8.2818251 0 0 0 1.472174,1.14745 z" /><circle
         style="display:inline;fill:none;fill-opacity:1;stroke:#ffffff;stroke-width:4;stroke-dasharray:none;stroke-opacity:1"
         id="circle44060"
         cy="153.87486"
         cx="105.95371"
         r="54.851467"
         inkscape:label="circle" /></g></g></svg>
