<?xml version="1.0" encoding="UTF-8" standalone="no"?>
<!-- Created with Inkscape (http://www.inkscape.org/) -->

<svg
   width="190.53169mm"
   height="188.92662mm"
   viewBox="0 0 190.53169 188.92662"
   version="1.1"
   id="svg5"
   xml:space="preserve"
   xmlns="http://www.w3.org/2000/svg"
   xmlns:svg="http://www.w3.org/2000/svg"><defs
     id="defs2" /><g
     id="g1956"
     style="display:inline"
     transform="translate(-9.9213594,-63.703953)"><path
       id="path1965"
       style="display:inline;opacity:1;fill:#ffffff;fill-opacity:1;stroke-width:4.99999;stroke-linecap:square;stroke-linejoin:bevel;stroke-miterlimit:2.6;stroke-dasharray:38.7501, 12.5;stroke-dashoffset:48.5"
       d="m 105.12123,82.275081 a 75.768257,75.768257 0 0 0 -19.303212,2.559017 l 9.193237,15.869832 a 58.272152,58.272152 0 0 1 10.109975,-0.932759 58.272152,58.272152 0 0 1 5.13612,0.229439 l 9.4263,-16.272387 a 75.768257,75.768257 0 0 0 -14.56242,-1.453142 z m 15.33808,1.633492 -9.38444,16.199527 a 58.272152,58.272152 0 0 1 4.16512,0.54829 l 9.17102,-15.83056 a 75.768257,75.768257 0 0 0 -3.9517,-0.917257 z m 5.78208,1.407666 -9.12709,15.755631 a 58.272152,58.272152 0 0 1 46.27934,56.9712 58.272152,58.272152 0 0 1 -2.97811,18.38027 h 18.20768 a 75.768257,75.768257 0 0 0 2.26652,-18.38027 75.768257,75.768257 0 0 0 -54.64834,-72.726831 z m -42.235148,0.04031 A 75.768257,75.768257 0 0 0 80.48501,86.44692 l 8.974646,15.49259 a 58.272152,58.272152 0 0 1 3.638021,-0.88883 z m -4.252971,1.346688 A 75.768257,75.768257 0 0 0 29.35273,158.04307 75.768257,75.768257 0 0 0 47.911287,207.62454 L 57.3288,191.36765 A 58.272152,58.272152 0 0 1 46.849337,158.04307 58.272152,58.272152 0 0 1 88.715515,102.17413 Z M 159.8259,178.11058 a 58.272152,58.272152 0 0 1 -1.47278,3.57859 h 18.69809 a 75.768257,75.768257 0 0 0 1.12913,-3.57859 z m -1.83606,4.39611 a 58.272152,58.272152 0 0 1 -8.16643,12.81627 l 9.19841,15.8781 a 75.768257,75.768257 0 0 0 17.77152,-28.69437 z m -100.161328,9.51621 -9.377723,16.18816 a 75.768257,75.768257 0 0 0 2.750737,2.99052 l 9.175667,-15.83883 a 58.272152,58.272152 0 0 1 -2.548681,-3.33985 z m 3.836458,4.76767 -9.123991,15.75046 a 75.768257,75.768257 0 0 0 52.580251,21.27054 75.768257,75.768257 0 0 0 45.10371,-14.95103 l -8.84132,-15.26211 a 58.272152,58.272152 0 0 1 -36.26239,12.71705 58.272152,58.272152 0 0 1 -43.45626,-19.52491 z m 86.90839,0.0243 a 58.272152,58.272152 0 0 1 -6.58048,6.31693 l 8.84236,15.26366 a 75.768257,75.768257 0 0 0 6.8218,-5.89989 z" /><path
       id="path1920"
       style="display:inline;opacity:1;fill:#ffffff;fill-opacity:1;stroke-width:4.99999;stroke-linecap:square;stroke-linejoin:bevel;stroke-miterlimit:2.6;stroke-dasharray:38.7501, 12.5;stroke-dashoffset:48.5"
       d="M 118.42169,63.874035 101.01143,80.08772 c -0.3208,0.298758 -0.22642,0.515124 0.21113,0.488263 1.03405,-0.06348 2.06926,-0.106248 3.10503,-0.128278 0.43827,-0.0093 1.14903,-0.01318 1.58738,-0.0086 8.53031,0.0889 16.98768,1.583629 25.03171,4.424032 0.41336,0.145961 0.56828,-0.03901 0.34771,-0.417849 L 119.40194,64.019043 a 0.63417232,0.63417232 8.4147572 0 0 -0.98025,-0.145008 z m -42.778153,3.339501 -8.91592,22.874438 c -0.159203,0.408446 0.01952,0.561874 0.401644,0.347048 9.049708,-5.087581 19.028347,-8.307787 29.344851,-9.469874 0.435619,-0.04907 0.494699,-0.283708 0.131412,-0.529056 L 76.589589,66.918221 a 0.63433817,0.63433817 162.66401 0 0 -0.946052,0.295315 z m 82.491023,11.542791 -22.89375,7.216826 c -0.4181,0.131797 -0.42789,0.372669 -0.0238,0.542623 9.41218,3.958633 17.95079,9.73579 25.12628,17.000234 0.30806,0.31189 0.52709,0.21328 0.49279,-0.22376 L 158.9537,79.309004 a 0.63127908,0.63127908 34.007862 0 0 -0.81914,-0.552677 z m -118.312037,9.515709 1.803212,24.382684 c 0.03233,0.43718 0.262653,0.50066 0.518509,0.1447 6.080823,-8.46 13.802944,-15.609138 22.705761,-21.020975 0.374594,-0.227708 0.328968,-0.461867 -0.104498,-0.527294 L 40.548841,87.598914 a 0.63349488,0.63349488 137.17691 0 0 -0.726318,0.673122 z M 163.24826,106.62975 c 6.84338,7.73485 12.07419,16.75793 15.38576,26.54021 0.14057,0.41523 0.37988,0.42208 0.53928,0.0137 l 8.80205,-22.55122 a 0.63432978,0.63432978 59.951697 0 0 -0.49625,-0.85787 l -23.97497,-3.61816 c -0.43347,-0.0654 -0.54635,0.14501 -0.25587,0.47333 z m -124.115212,9.64058 -23.104088,7.28346 a 0.63417274,0.63417274 111.12615 0 0 -0.357148,0.92432 l 12.362752,21.19835 c 0.220845,0.37869 0.452811,0.33425 0.523054,-0.0985 1.665304,-10.25864 5.374189,-20.07845 10.9065,-28.87655 0.233354,-0.3711 0.08702,-0.56292 -0.33107,-0.43112 z m 140.772342,21.04168 c 1.80191,6.4951 2.74999,13.19728 2.82032,19.93732 0.005,0.43836 0.002,1.14912 -0.005,1.58744 -0.0476,2.90284 -0.25807,5.80073 -0.63039,8.67999 -0.0562,0.43475 0.15479,0.54505 0.47626,0.24701 l 17.68482,-16.3956 a 0.62987924,0.62987924 85.600094 0 0 -0.0757,-0.9839 L 180.34708,136.9925 c -0.36329,-0.24535 -0.55888,-0.10291 -0.44169,0.31951 z M 27.668057,148.39343 10.123952,164.73216 a 0.63610817,0.63610817 85.745966 0 0 0.07364,0.99003 l 19.834915,13.60898 c 0.361474,0.24802 0.553492,0.10834 0.433697,-0.31334 -1.865888,-6.56807 -2.856855,-13.35368 -2.947226,-20.18104 -0.0058,-0.43834 -0.0046,-1.1491 0.0026,-1.58742 0.04749,-2.87937 0.255204,-5.75387 0.622183,-8.61015 0.05586,-0.4348 -0.154887,-0.54456 -0.47569,-0.24579 z m 153.843223,23.31913 c -1.85625,10.31759 -5.78364,20.1523 -11.54506,28.91039 -0.24093,0.36624 -0.10014,0.5558 0.31863,0.42617 l 23.72744,-7.34507 a 0.63127718,0.63127718 111.29515 0 0 0.35887,-0.92067 L 182.04721,171.6166 c -0.22057,-0.37884 -0.45831,-0.33548 -0.53593,0.096 z m -150.644854,10.37975 -9.187223,23.57052 a 0.63350477,0.63350477 59.888572 0 0 0.496806,0.85664 l 24.836523,3.7041 c 0.43358,0.0647 0.545586,-0.1455 0.2539,-0.47275 -7.145521,-8.01669 -12.549593,-17.42926 -15.870175,-27.64198 -0.135549,-0.41689 -0.370629,-0.42498 -0.529831,-0.0165 z M 168.1674,203.19232 c -6.11435,8.53361 -13.8966,15.73813 -22.8756,21.17739 -0.37494,0.22713 -0.3295,0.4602 0.10408,0.52486 l 24.49494,3.65295 a 0.63173277,0.63173277 136.99778 0 0 0.72298,-0.67424 l -1.92531,-24.53722 c -0.0343,-0.43703 -0.26576,-0.50009 -0.52109,-0.14374 z m -119.170228,9.12124 1.841939,24.89996 a 0.63172286,0.63172286 34.284607 0 0 0.816809,0.55687 l 24.040076,-7.4417 c 0.418771,-0.12963 0.427823,-0.36555 0.0221,-0.53157 -9.865956,-4.03714 -18.794574,-10.06362 -26.228842,-17.70346 -0.305722,-0.31418 -0.524425,-0.21728 -0.492085,0.2199 z m 93.370428,13.7727 c -9.23096,5.06378 -19.39592,8.19638 -29.87595,9.20707 -0.43635,0.0421 -0.49742,0.2732 -0.13594,0.5212 l 20.45191,14.03174 a 0.62988313,0.62988313 162.88728 0 0 0.94312,-0.29037 l 9.02221,-23.11553 c 0.15939,-0.40837 -0.021,-0.56495 -0.40535,-0.35411 z m -64.46081,5.10419 12.320343,21.12447 a 0.63613365,0.63613365 8.4578231 0 0 0.981985,0.14602 l 17.746292,-16.45195 c 0.32148,-0.29804 0.2276,-0.51444 -0.21,-0.48836 -0.94273,0.0562 -1.88641,0.0952 -2.83056,0.11692 -0.43826,0.0101 -1.14901,0.0138 -1.58734,0.008 -8.907196,-0.11158 -17.728779,-1.75582 -26.078067,-4.86064 -0.410883,-0.1528 -0.563508,0.0265 -0.342653,0.4052 z" /><path
       id="path1971"
       style="display:inline;opacity:1;fill:#ffffff;fill-opacity:1;stroke-width:4.99999;stroke-linecap:square;stroke-linejoin:bevel;stroke-miterlimit:2.6;stroke-dasharray:38.7501, 12.5;stroke-dashoffset:48.5"
       d="m 105.12123,101.65116 c -1.45774,7.1e-4 -2.9149,0.0579 -4.36821,0.17157 l 6.90552,11.92071 6.53397,-11.27838 c -1.0798,-0.18236 -2.16495,-0.33044 -3.6597,-0.52093 -1.49474,-0.19049 -3.45249,-0.29277 -5.41158,-0.29297 z m -5.193996,0.26458 c -1.31175,0.12384 -2.618767,0.29362 -3.918624,0.50902 l 9.10332,15.7148 2.10685,-3.63647 z m 16.194876,0.86868 -7.40575,12.78475 35.25211,60.85417 h 14.46217 c 2.03998,-5.91333 3.08188,-12.12496 3.08302,-18.38027 -0.024,-26.88467 -19.02341,-50.01407 -45.39155,-55.25865 z m -25.071337,0.69712 c -24.894713,6.41432 -42.300391,28.85373 -42.321964,54.56153 0.01154,4.66497 0.60189,9.31055 1.757515,13.83016 h 15.27297 L 98.21416,115.84719 Z m 17.225827,12.84676 -2.10685,3.63699 32.70549,56.45805 h 4.2137 z m -9.622157,0.27905 -32.015617,55.26588 h 7.345805 l 28.342459,-48.92621 z m -47.921622,56.18624 c 0.332065,1.22214 0.705213,2.43274 1.118794,3.62975 h 19.497002 l 2.102714,-3.62975 z m 1.7632,5.31699 c 2.137986,5.58892 5.151925,10.80199 8.928653,15.4435 l 8.946741,-15.4435 z m 19.990511,0 -2.073259,3.57859 H 139.8111 l -2.07325,-3.57859 z m 67.366428,0 2.07274,3.57859 h 4.21422 l -2.07326,-3.57859 z m 5.09323,0 2.07274,3.57859 h 9.25422 c 0.54514,-1.17514 1.04963,-2.36874 1.51257,-3.57859 z m -75.006273,4.39611 -7.258988,12.52998 c 10.682352,12.29057 26.156285,19.36346 42.440301,19.39882 16.37461,-1.4e-4 31.8312,-7.11439 42.47493,-19.30735 l -7.3117,-12.62145 z m 72.459663,0 6.45025,11.13524 c 0.82873,-1.01821 1.62887,-2.06513 2.39055,-3.14761 l -4.62711,-7.98763 z m 5.09323,0 4.22403,7.29206 c 1.56644,-2.3239 2.95746,-4.76134 4.1615,-7.29206 z" /><path
       id="path1950"
       style="display:inline;opacity:1;fill:#ffffff;fill-opacity:1;stroke-width:4.99999;stroke-linecap:square;stroke-linejoin:bevel;stroke-miterlimit:2.6;stroke-dasharray:38.7501, 12.5;stroke-dashoffset:48.5"
       d="m 103.32678,146.25147 -10.57352,18.31399 a 0.61103122,0.61103122 59.999911 0 0 0.529169,0.91655 h 21.147031 a 0.61103106,0.61103106 120.00008 0 0 0.52917,-0.91655 L 104.3851,146.25147 a 0.61102477,0.61102477 179.99999 0 0 -1.05832,0 z m 1.05832,7.11997 4.4075,7.63404 a 0.61103037,0.61103037 120.00006 0 1 -0.52917,0.91654 h -8.814452 a 0.61105972,0.61105972 59.998753 0 1 -0.529206,-0.91657 l 4.407038,-7.63398 a 0.61099696,0.61099696 179.99881 0 1 1.05829,-3e-5 z"
       transform="translate(1.1567673,-0.57838364)" /></g></svg>
