<?xml version="1.0" encoding="UTF-8" standalone="no"?>
<!-- Created with Inkscape (http://www.inkscape.org/) -->

<svg
   width="190.64876mm"
   height="219.0538mm"
   viewBox="0 0 190.64876 219.05381"
   version="1.1"
   id="svg5"
   xml:space="preserve"
   sodipodi:docname="darkbramble_wip.svg"
   inkscape:version="1.2 (dc2aedaf03, 2022-05-15)"
   inkscape:export-filename="darkbramble_colour.svg"
   inkscape:export-xdpi="96"
   inkscape:export-ydpi="96"
   xmlns:inkscape="http://www.inkscape.org/namespaces/inkscape"
   xmlns:sodipodi="http://sodipodi.sourceforge.net/DTD/sodipodi-0.dtd"
   xmlns="http://www.w3.org/2000/svg"
   xmlns:svg="http://www.w3.org/2000/svg"><sodipodi:namedview
     id="namedview8"
     pagecolor="#505050"
     bordercolor="#ffffff"
     borderopacity="1"
     inkscape:showpageshadow="0"
     inkscape:pageopacity="0"
     inkscape:pagecheckerboard="1"
     inkscape:deskcolor="#505050"
     inkscape:document-units="mm"
     showgrid="false"
     inkscape:zoom="1.1675218"
     inkscape:cx="498.49175"
     inkscape:cy="453.09645"
     inkscape:window-width="2498"
     inkscape:window-height="1417"
     inkscape:window-x="2552"
     inkscape:window-y="-8"
     inkscape:window-maximized="1"
     inkscape:current-layer="g479" /><defs
     id="defs2" /><g
     id="g479"
     transform="matrix(1.0012347,0,0,0.99513185,-11.162582,-34.835979)"
     inkscape:label="drawing"
     inkscape:highlight-color="#eef800"><path
       id="ellipse425"
       style="fill:#ffffff;fill-opacity:1;stroke:none;stroke-width:2.8202;stroke-dasharray:11.2808, 2.8202;stroke-dashoffset:0.564043"
       inkscape:label="ball"
       d="m 124.50883,35.006395 -2.96102,14.009469 c 0,0 -13.76529,-3.289665 -23.366624,-2.415229 l -0.479998,6.601763 c 0,0 -12.393937,-1.448756 -19.205605,-0.321961 1.192639,17.371688 1.199996,17.874041 1.199996,17.874041 l 9.363061,-0.16098 -0.159999,4.187054 6.869135,0.218622 -1.987606,13.871336 10.80306,2.334738 -3.12102,17.632572 5.68152,1.28836 -1.81986,9.83228 a 32.44664,32.916885 0 0 0 -2.85625,-0.26899 32.44664,32.916885 0 0 1 3.05444,0.29756 c -4.49721,1.8129 -8.709507,4.48006 -11.524084,8.47796 -2.40813,3.42056 -3.83507,7.8296 -3.529277,13.6657 a 13.57714,13.773911 0 0 1 8.254936,-3.93156 c 4.729365,-6.54691 10.068215,-9.69993 15.409485,-10.61745 1.19033,-0.20447 2.37758,-0.29863 3.55664,-0.29964 0.16844,0 0.33668,0.001 0.50477,0.005 1.27032,0.0273 2.52987,0.16279 3.77186,0.38375 a 32.44664,32.916885 0 0 0 -12.01028,-6.689 l 2.71121,-9.80891 9.27997,2.10625 2.20644,-7.51468 9.73261,3.58675 c 0,0 0.80426,-2.1111 4.63998,-11.386523 5.81705,2.816953 7.10195,3.631103 11.43015,9.279753 -1.49693,1.3998 -2.42312,2.31313 -3.03431,2.94595 -0.58232,-0.65148 -1.20871,-1.31178 -1.88851,-1.97799 l -11.71299,11.38652 3.7347,5.35131 -2.37677,2.16337 c 0.91864,1.11646 1.76957,2.30677 2.54503,3.48445 l -8.56307,5.16956 a 32.44664,32.916885 0 0 0 -4.33908,-5.83425 c -3.22853,-0.91214 -6.58165,-1.27272 -9.90964,-0.70104 -4.62883,0.79515 -9.25903,3.36351 -13.57053,8.91832 a 13.57714,13.773911 0 0 1 8.2663,3.49899 c 1.68723,-0.24565 3.28563,-0.36368 4.7974,-0.36298 5.382,0.002 9.6754,1.48846 13.05388,3.89625 2.56493,1.82795 4.59337,4.16742 6.21314,6.75184 a 32.44664,32.916885 0 0 0 -2.66476,-12.50145 l 9.08796,-4.88965 c 1.32333,2.40828 2.10012,4.18445 2.10012,4.18445 0,0 0.055,-0.1269 4.75302,-1.82219 1.10453,2.9958 1.99301,5.98393 2.70553,8.76721 l -9.84047,2.61619 c 0,0 -0.18013,9.35645 -1.04052,15.45882 l -6.51352,-1.53399 a 32.44664,32.916885 0 0 0 1.32438,-7.05303 c -1.71212,-3.3696 -3.99951,-6.41553 -7.08436,-8.61402 -3.7595,-2.67931 -8.72112,-4.15219 -15.47349,-3.3941 a 13.57714,13.773911 0 0 1 3.09057,8.74489 13.57714,13.773911 0 0 1 -0.0305,0.54889 c 5.43837,4.4457 8.13366,9.36034 8.96822,14.27846 0.62766,3.69887 0.21608,7.37054 -0.77419,10.85009 a 32.44664,32.916885 0 0 0 8.15481,-10.66418 l 10.33854,2.79535 c 4.21996,-5.66238 3.28102,-18.75996 3.28102,-18.75996 l 6.44694,-1.71003 c 1.34416,6.12235 1.76619,10.55618 1.76619,10.55618 l 16.74884,-0.3417 c 0,0 -0.69726,-9.8057 -4.35663,-22.60479 l 6.62036,-2.44535 3.16851,11.72822 10.17131,-2.42665 c 0.96489,4.1661 1.48542,6.75339 1.48542,6.75339 l 15.9571,0.91084 c 0,0 -1.66438,-31.02951 -11.31712,-46.00099 l -14.03298,9.7923 c 2.8786,8.68321 5.19485,17.35928 6.80927,23.94249 -1.64558,0.2621 -6.24359,2.13273 -6.24359,2.13273 l -4.41392,-12.18364 -9.63816,3.12459 c -1.24595,-3.80293 -2.74709,-7.77848 -4.56463,-11.77807 l -4.18734,2.39082 c 0,0 -0.70622,-4.25844 -4.75611,-9.77308 1.35624,-1.24251 4.10467,-3.72843 6.18011,-5.38402 -6.05122,-11.95312 -15.40484,-13.968968 -15.40484,-13.968968 l 2.28076,-5.434914 -8.1099,-3.722806 3.54889,-10.689113 10.16254,3.381631 4.19921,-10.666264 4.76385,2.212185 3.1205,-5.152937 4.32154,2.012777 6.64204,-12.721104 c 0,0 -21.13594,-14.642012 -46.41376,-17.874042 z m 6.24204,18.840445 14.88407,4.830457 -1.28051,4.267544 3.60618,1.674199 -2.72567,7.423803 -10.40306,-2.97918 -3.60101,10.305875 c 0,0 -6.65627,-3.389347 -13.92408,-4.588986 l 1.2578,-6.799095 8.50526,1.565667 z m -22.48663,12.238162 6.23946,1.148675 -2.07844,10.525536 6.32204,1.610325 -4.72153,15.539303 -5.36153,-1.046893 1.28051,-6.682254 -11.843564,-2.012777 1.881283,-10.033246 6.601261,0.210313 z m 15.00433,14.129944 7.2423,3.099656 -1.36051,3.462122 7.84203,3.301141 -6.04178,14.371935 -9.20255,-3.18015 c 0,0 -2.56076,5.99828 -2.60076,6.23982 -0.04,0.24155 -12.48357,-2.57673 -12.48357,-2.57673 l 1.12052,-6.682772 8.76228,1.529835 z M 32.938596,83.389899 C 27.197207,90.236038 24.439532,97.32407 24.439532,97.32407 L 20.819417,95.626503 C 5.0197464,129.4327 10.846103,154.66814 22.158766,182.74973 l 10.163058,-6.76326 5.361528,9.33947 27.448154,-13.6065 -2.961021,-9.17849 7.047715,-2.2745 a 32.44664,32.916885 0 0 0 5.132883,11.38081 c 4.196386,1.67701 8.710607,2.5894 13.179821,1.82168 4.307604,-0.73995 8.616715,-3.0174 12.668856,-7.80652 a 13.57714,13.773911 0 0 1 -0.16052,0.009 13.57714,13.773911 0 0 1 -7.441517,-2.26879 c -7.893979,1.23486 -13.850811,-0.33283 -18.253349,-3.47043 -2.459064,-1.75251 -4.424134,-3.97667 -6.009784,-6.43507 a 32.44664,32.916885 0 0 1 -0.0351,-0.95394 32.44664,32.916885 0 0 0 0.106323,2.59802 l -11.356344,3.85678 -2.241024,-19.96731 -6.722039,-1.44934 2.961021,-14.5729 23.87449,9.6391 a 32.44664,32.916885 0 0 0 -6.622427,19.89565 32.44664,32.916885 0 0 1 0.08413,-2.27866 c 1.693749,3.24456 3.931499,6.1714 6.920232,8.30141 3.762721,2.68159 8.729786,4.15638 15.491037,3.3941 a 13.57714,13.773911 0 0 1 -4.079468,-7.51884 c -5.571931,-4.4883 -8.321207,-9.4642 -9.1659,-14.44204 -0.659209,-3.88474 -0.170418,-7.73794 0.929544,-11.37094 a 32.44664,32.916885 0 0 0 -0.118193,0.10593 l -29.861047,-11.8679 c -3.611022,4.82361 -4.300371,19.92628 -4.300371,19.92628 l -6.879973,-0.95134 c 1.800328,-15.94475 7.426642,-27.52844 14.668847,-38.706492 z m 67.807744,36.236221 a 32.44664,32.916885 0 0 0 -19.753218,6.84687 c -1.663038,4.21788 -2.567528,8.75439 -1.805412,13.24559 0.710483,4.1869 2.847402,8.3749 7.283069,12.33007 a 13.57714,13.773911 0 0 1 -0.0083,-0.15111 13.57714,13.773911 0 0 1 2.486184,-7.90779 c -0.724906,-7.0205 0.824892,-12.4182 3.693405,-16.49272 2.455152,-3.48735 5.838216,-5.9896 9.497772,-7.82002 a 32.44664,32.916885 0 0 0 -1.39354,-0.0509 z m -19.982894,7.02343 a 32.44664,32.916885 0 0 0 -1.894703,1.62902 32.44664,32.916885 0 0 1 1.894703,-1.62902 z m 41.450684,1.2328 a 32.44664,32.916885 0 0 1 2.09444,2.03614 32.44664,32.916885 0 0 0 -2.09444,-2.03614 z m -85.484064,12.43964 13.919946,2.39134 c -0.280002,6.8902 1.527737,13.37905 1.527737,13.37905 l -16.805614,5.57928 c 0,0 -2.865374,-5.95479 -1.867347,-14.91615 h 2.772634 c -0.566132,-3.71696 0.452644,-6.43352 0.452644,-6.43352 z m 96.462594,12.22103 a 32.44664,32.916885 0 0 1 -0.10787,2.61152 32.44664,32.916885 0 0 0 0.10787,-2.61152 z m -19.82856,1.8949 a 13.57714,13.773911 0 0 1 -4.3876,7.80081 c 0.76905,7.10595 -0.78409,12.55893 -3.67637,16.6672 -1.89036,2.6851 -4.33224,4.78389 -7.025009,6.44494 a 32.44664,32.916885 0 0 0 2.471219,0.10905 32.44664,32.916885 0 0 0 10.63015,-1.84089 l 3.68979,10.72494 -14.96459,5.4749 6.23172,28.3222 c -8.102099,0.9104 -13.99375,0.98458 -13.99375,0.98458 l -0.16,4.58951 c 0,0 -6.58323,0.70765 -12.404081,-0.32196 l -1.966961,20.85685 c 6.319154,1.1548 13.570529,0.80127 13.570529,0.80127 l 0.16,-4.5895 c 3.861669,0.84929 10.243053,-0.0805 10.243053,-0.0805 l -0.08,4.75048 c 23.25814,-0.009 44.41274,-8.05111 44.41274,-8.05111 l -1.6,-3.86509 10.32255,-4.428 -7.16436,-11.27696 8.20487,-5.38973 -15.92459,-29.06531 -17.20509,7.56816 -6.75662,-19.04971 a 32.44664,32.916885 0 0 0 3.4374,-2.15922 c 1.45531,-3.97816 2.19626,-8.21395 1.48439,-12.40901 -0.72473,-4.27086 -2.93084,-8.54305 -7.54939,-12.56791 z m -60.790482,6.26578 c 0,0 0.357519,2.25001 1.867348,4.27014 l 3.338826,-1.19541 1.923605,5.63588 -19.578248,9.84941 -3.395083,-6.31926 c 0,0 0.04929,-0.0102 2.772634,-1.25254 -2.213538,-3.10593 -2.433023,-5.06725 -2.433023,-5.06725 z m 54.845212,2.74446 a 13.57714,13.773911 0 0 1 -4.87998,1.96811 c -4.557789,5.92822 -9.642375,8.82769 -14.728721,9.70142 -3.944642,0.67759 -7.857727,0.14999 -11.537505,-1.00794 a 32.44664,32.916885 0 0 0 10.359703,8.07136 l -2.087734,6.87491 -8.374678,-2.61879 -4.979594,14.00531 -7.129779,-2.73303 -1.810574,4.66843 c 0,0 -3.479502,-0.74254 -7.582423,-2.61879 0,0 -6.111321,11.84191 -6.224492,12.29736 -0.113168,0.45546 11.91309,6.47628 28.066474,9.22315 l 3.960759,-17.87663 -5.771849,-2.04965 3.847727,-10.24771 8.714289,2.04964 2.67199,-9.60119 a 32.44664,32.916885 0 0 0 5.577785,1.44519 c 3.29799,-1.71584 6.276882,-3.99728 8.434032,-7.06134 2.52013,-3.57965 3.96525,-8.2422 3.47457,-14.48981 z m -32.977425,8.32218 a 32.44664,32.916885 0 0 0 1.724381,2.21478 32.44664,32.916885 0 0 1 -1.724381,-2.21478 z m 47.324205,5.81815 a 32.44664,32.916885 0 0 1 -2.13109,1.68562 32.44664,32.916885 0 0 0 2.13109,-1.68562 z m -25.956028,7.46327 a 32.44664,32.916885 0 0 0 1.888509,0.23835 32.44664,32.916885 0 0 1 -1.888509,-0.23835 z m 20.616698,12.59283 3.52102,9.66196 6.32204,-2.8182 2.1605,6.52179 -7.52203,2.8182 2.96463,11.27539 c -4.01901,0.98782 -8.06253,1.73535 -11.85595,2.29787 l -6.71327,-25.32848 z m 22.56662,1.52984 11.20357,21.57815 c 0,0 -3.14879,1.84044 -4.97546,2.89817 l -3.42709,-5.3944 c -3.78255,2.26446 -8.24022,4.05738 -12.90369,5.47749 l -3.10089,-8.0537 7.84203,-3.14016 -3.60102,-10.1449 z" /><g
       id="g443"
       inkscape:label="inner spikes"
       transform="matrix(0.99876683,0,0,1.004892,0.23265662,26.230355)"><path
         style="fill:#ffffff;fill-opacity:1;stroke:none;stroke-width:2.065;stroke-dasharray:none;stroke-dashoffset:2.31761;stroke-opacity:0.411972"
         d="m 99.91229,114.57464 0.04006,5.48837 3.88593,-4.96758 -0.24037,2.72416 2.1633,-1.88287 -1.32202,-1.4422 z"
         id="path429" /><path
         style="fill:#ffffff;fill-opacity:1;stroke:none;stroke-width:2.065;stroke-dasharray:none;stroke-dashoffset:2.31761;stroke-opacity:0.411972"
         d="m 110.52847,124.87033 -4.48684,0.0401 4.48684,2.08317 z"
         id="path431" /><path
         style="fill:#ffffff;fill-opacity:1;stroke:none;stroke-width:2.065;stroke-dasharray:none;stroke-dashoffset:2.31761;stroke-opacity:0.411972"
         d="m 109.84743,129.19693 -3.92598,-1.40214 2.76421,3.76574 z"
         id="path433" /><path
         style="fill:#ffffff;fill-opacity:1;stroke:none;stroke-width:2.065;stroke-dasharray:none;stroke-dashoffset:2.31761;stroke-opacity:0.411972"
         d="m 96.186613,115.25568 v 3.40519 l -2.003054,-2.56391 z"
         id="path435" /><path
         style="fill:#ffffff;fill-opacity:1;stroke:none;stroke-width:2.065;stroke-dasharray:none;stroke-dashoffset:2.31761;stroke-opacity:0.411972"
         d="m 90.297637,120.90429 7.050746,2.84433 -8.252579,2.32355 -0.400611,-2.52385 z"
         id="path437" /><path
         style="fill:#ffffff;fill-opacity:1;stroke:none;stroke-width:2.065;stroke-dasharray:none;stroke-dashoffset:2.31761;stroke-opacity:0.411972"
         d="m 90.377758,129.59754 4.166351,-1.04159 -2.323542,3.96605 z"
         id="path439" /><path
         style="fill:#ffffff;fill-opacity:1;stroke:none;stroke-width:2.065;stroke-dasharray:none;stroke-dashoffset:2.31761;stroke-opacity:0.411972"
         d="m 95.024841,134.8856 3.164824,-5.88898 v 6.77032 z"
         id="path441" /></g><circle
       style="fill:none;fill-opacity:0.609155;stroke:#ffffff;stroke-width:2.065;stroke-dasharray:none;stroke-dashoffset:2.31761;stroke-opacity:1"
       id="circle445"
       cy="124.9705"
       cx="99.972389"
       r="11.237128"
       inkscape:label="inner circle"
       transform="matrix(0.99876683,0,0,1.004892,0.23265662,26.230355)" /><path
       id="path447"
       style="fill:#ffffff;fill-opacity:1;stroke:none;stroke-width:2.06877;stroke-dasharray:none;stroke-dashoffset:2.31761;stroke-opacity:0.411972"
       inkscape:label="outer spikes"
       d="m 78.735583,96.358186 7.276875,26.872334 a 32.44664,32.916885 0 0 1 4.887207,-2.019 z m 16.324582,10.547344 0.566192,13.16199 a 32.44664,32.916885 0 0 1 2.515087,-0.31885 z m 39.531725,6.76327 -14.93879,12.12859 a 32.44664,32.916885 0 0 1 2.79277,2.27657 z m -61.697834,1.28784 7.493133,11.99721 a 32.44664,32.916885 0 0 1 2.092895,-1.57345 c -2.752858,-3.07893 -9.586028,-10.42376 -9.586028,-10.42376 z m 50.094264,0 -6.96153,8.55274 a 32.44664,32.916885 0 0 1 1.94271,1.14245 z m -65.698849,22.70502 12.63221,4.71258 a 32.44664,32.916885 0 0 1 1.656768,-4.22133 z m 69.104769,35.01692 a 32.44664,32.916885 0 0 1 -4.6116,4.88342 l 10.00822,8.81084 -6.88203,-9.33948 17.9256,12.8016 z m -50.782775,0.62834 -10.159961,7.10807 6.56204,-2.65721 -14.164075,12.7211 22.083012,-12.72889 a 32.44664,32.916885 0 0 1 -4.321016,-4.44307 z m 17.193225,11.12065 -1.905541,27.146 6.881522,-26.2523 a 32.44664,32.916885 0 0 1 -4.975981,-0.8937 z m 6.334428,0.95705 0.882572,8.95935 0.90478,-8.89236 a 32.44664,32.916885 0 0 1 -0.18013,0.008 32.44664,32.916885 0 0 1 -1.607222,-0.0753 z" /></g></svg>
