<?xml version="1.0" encoding="UTF-8" standalone="no"?>
<!-- Created with Inkscape (http://www.inkscape.org/) -->

<svg
   width="110.61005mm"
   height="108.94424mm"
   viewBox="0 0 110.61006 108.94424"
   version="1.1"
   id="svg5"
   xml:space="preserve"
   inkscape:export-filename="ash-twin.png"
   inkscape:export-xdpi="918.54218"
   inkscape:export-ydpi="918.54218"
   sodipodi:docname="ash-twin.svg"
   inkscape:version="1.2.2 (732a01da63, 2022-12-09)"
   xmlns:inkscape="http://www.inkscape.org/namespaces/inkscape"
   xmlns:sodipodi="http://sodipodi.sourceforge.net/DTD/sodipodi-0.dtd"
   xmlns="http://www.w3.org/2000/svg"
   xmlns:svg="http://www.w3.org/2000/svg"><sodipodi:namedview
     id="namedview7"
     pagecolor="#505050"
     bordercolor="#ffffff"
     borderopacity="1"
     inkscape:showpageshadow="0"
     inkscape:pageopacity="0"
     inkscape:pagecheckerboard="1"
     inkscape:deskcolor="#505050"
     inkscape:document-units="mm"
     showgrid="false"
     inkscape:zoom="0.99933631"
     inkscape:cx="411.27296"
     inkscape:cy="48.031878"
     inkscape:window-width="1920"
     inkscape:window-height="1129"
     inkscape:window-x="1912"
     inkscape:window-y="-8"
     inkscape:window-maximized="1"
     inkscape:current-layer="layer7" /><defs
     id="defs2" /><g
     inkscape:groupmode="layer"
     id="layer7"
     inkscape:label="final"
     transform="translate(-15.464686,-121.93054)"
     style="display:inline"><g
       inkscape:groupmode="layer"
       id="g3218"
       inkscape:label="ash twin"
       style="display:inline;fill:#ff2a2a"><g
         id="g3214"
         inkscape:label="solar plants"
         style="display:inline;fill:#ff2a2a"><path
           id="path3210"
           style="fill:#ffffff;fill-opacity:1;stroke-width:0.264583"
           d="m 42.077535,121.93054 -1.916162,1.98799 4.156335,21.01578 -8.494055,-11.61687 -7.338053,-0.7953 -0.07235,7.37423 10.567313,9.33845 -21.701001,-4.4819 -1.814876,2.14716 24.027991,4.16667 -1.084172,0.92139 2.403471,2.60294 -1.265039,1.24695 5.205367,4.95267 0.209806,0.47491 0.6134,-0.66456 -4.651913,-4.70359 1.277958,-1.4056 -1.533756,-1.68723 1.239201,-0.98341 3.003434,2.65462 -1.386995,1.32602 4.193025,3.9765 5.639449,-5.85597 -3.253548,-4.41007 -1.435054,1.37149 -2.410706,-3.29747 1.604553,-1.43609 1.554427,1.44591 1.229383,-0.75913 3.867464,4.59094 1.48208,-0.56018 -5.367631,-5.2958 -1.138949,0.90382 -2.440161,-2.56676 -0.903821,0.93999 z m -17.062524,0.12661 -7.392314,8.27805 2.458248,2.53059 0.469739,-0.48834 7.193876,-7.51892 z m 2.412255,5.56969 -4.44779,4.47362 3.859713,3.55276 0.05116,-0.63924 0.255799,-3.75739 3.578593,-0.20412 z"
           inkscape:label="top solar plant" /><path
           id="path3212"
           style="fill:#ffffff;fill-opacity:1;stroke-width:0.264583"
           d="m 99.524085,230.87479 1.911215,-1.99275 -4.20859,-21.00538 8.52292,11.5957 7.34001,0.77705 0.054,-7.37438 -10.59051,-9.31214 21.71208,4.42792 1.80953,-2.15167 -24.03828,-4.1069 1.08188,-0.92409 -2.40994,-2.59695 1.26194,-1.25009 -6.482879,-6.38567 -0.500179,-0.14905 -0.864787,0.55763 6.471045,5.92108 -1.274455,1.40878 1.537945,1.68341 -1.236755,0.98649 -3.010024,-2.64715 1.383693,-1.32946 -4.202902,-3.96606 -5.624867,5.86998 3.264507,4.40196 1.431639,-1.37506 2.418899,3.29147 -1.600976,1.44008 -1.558018,-1.44204 -1.227492,0.76219 -4.601849,-5.95498 -1.516832,1.21455 6.139914,6.00542 1.136698,-0.90665 2.446538,2.56068 0.90148,-0.94224 z m 17.062145,-0.16905 7.37171,-8.29642 -2.46453,-2.52446 -0.46852,0.48951 -7.17516,7.53679 z m -2.4261,-5.56367 4.43666,-4.48467 -3.86854,-3.54316 -0.0496,0.63937 -0.24646,3.75802 -3.57807,0.21302 z"
           inkscape:label="bottom solar plant"
           sodipodi:nodetypes="cccccccccccccccccccccccccccccccccccccccccccccccccc" /></g><circle
         style="fill:#ffffff;fill-opacity:1;stroke-width:0.268271"
         id="circle3216"
         cx="69.83316"
         cy="176.47443"
         r="29.753222"
         inkscape:label="ball" /></g><g
       inkscape:groupmode="layer"
       id="g3236"
       inkscape:label="sand stream"
       style="display:inline"><path
         id="path821"
         style="display:inline;fill:#ffffff;fill-opacity:1;stroke-width:0.264583"
         inkscape:label="ash sand"
         d="m 106.94541,131.73269 c -5.24841,5.31084 -10.457485,10.58085 -15.595432,15.77268 2.336261,1.73753 4.451089,3.75447 6.29729,6.00584 4.438742,-4.47496 8.985752,-9.04354 13.569202,-13.63845 z"
         sodipodi:nodetypes="ccccc" /></g></g></svg>
