<?xml version="1.0" encoding="UTF-8" standalone="no"?>
<!-- Created with Inkscape (http://www.inkscape.org/) -->

<svg
   width="197.09184mm"
   height="215.88191mm"
   viewBox="0 0 197.09184 215.88191"
   version="1.1"
   id="svg5"
   xml:space="preserve"
   inkscape:version="1.3 (0e150ed6c4, 2023-07-21)"
   sodipodi:docname="giants-deep_v2_wip.svg"
   inkscape:export-filename="giants-deep_v2.png"
   inkscape:export-xdpi="515.49573"
   inkscape:export-ydpi="515.49573"
   xmlns:inkscape="http://www.inkscape.org/namespaces/inkscape"
   xmlns:sodipodi="http://sodipodi.sourceforge.net/DTD/sodipodi-0.dtd"
   xmlns="http://www.w3.org/2000/svg"
   xmlns:svg="http://www.w3.org/2000/svg"><sodipodi:namedview
     id="namedview7"
     pagecolor="#505050"
     bordercolor="#ffffff"
     borderopacity="1"
     inkscape:showpageshadow="0"
     inkscape:pageopacity="0"
     inkscape:pagecheckerboard="1"
     inkscape:deskcolor="#505050"
     inkscape:document-units="mm"
     showgrid="false"
     inkscape:zoom="0.4204826"
     inkscape:cx="-253.2804"
     inkscape:cy="344.84186"
     inkscape:window-width="2560"
     inkscape:window-height="1366"
     inkscape:window-x="0"
     inkscape:window-y="0"
     inkscape:window-maximized="1"
     inkscape:current-layer="svg5" /><defs
     id="defs2" /><path
     id="path7593"
     style="display:inline;opacity:1;fill:#ffffff;fill-opacity:1;stroke-width:0.621001;stroke-dasharray:none"
     inkscape:label="planet"
     d="M 98.546958,0 C 44.177457,0 1.3229166e-6,44.177463 0,98.546958 -2.6458333e-7,139.28446 24.802789,174.2966 60.110027,189.29387 c 4.682027,-2.4071 8.314793,-4.25196 11.250991,-5.85235 -5.936483,-1.89612 -11.616317,-4.36274 -16.937466,-7.3949 l 2.616957,-4.1056 c 2.826371,-3.60614 4.481152,-4.90035 8.811881,-8.01277 4.705948,-2.80631 8.107349,-3.97449 16.484756,-6.63391 -6.174994,-1.54228 -15.093283,1.38866 -17.916099,3.11503 -4.315317,2.63914 -8.072294,4.87081 -11.499212,7.92557 l -4.33152,4.01888 c -5.662316,-3.83651 -10.887234,-8.26719 -15.515849,-13.27154 0.418166,-2.17199 7.318393,-11.58115 11.984283,-16.27239 5.507776,-5.53772 5.841765,-5.7611 11.874728,-7.93698 9.092853,-3.27949 20.06765,-4.58076 30.975368,-3.67316 4.472334,0.37212 11.623858,0.96462 15.891535,1.31671 8.45148,0.69725 23.57292,2.62053 28.99979,2.05932 9.91878,-1.02574 21.48675,-5.81194 26.24749,-8.46048 3.67668,-2.04545 18.63513,-16.43226 18.60403,-17.89296 -0.003,-0.11937 -0.0556,-0.17742 -0.14883,-0.17984 -0.27985,-0.007 -0.92555,0.48584 -1.68672,1.3224 -3.11613,3.42477 -11.44428,10.51861 -14.70143,12.52275 -4.05514,2.49516 -9.81922,5.66325 -15.21922,7.18253 -7.33169,2.06274 -14.93275,2.445 -22.71696,2.45307 -8.67408,-0.43686 -13.3778,-1.65319 -23.723618,-2.512 -19.855814,-1.64823 -28.400403,-1.50186 -36.624638,0.62683 -7.864435,2.03557 -11.525633,3.66699 -16.472897,7.33961 -4.919623,3.65209 -11.915357,12.03869 -14.856457,17.81028 l -0.797367,1.56528 c -4.059494,-4.75978 -7.657139,-9.92509 -10.652064,-15.47399 0.460892,-1.99752 3.962636,-9.26162 6.32623,-13.02712 6.218634,-9.90701 16.657127,-22.25912 24.209891,-28.647343 6.459018,-5.463119 8.296028,-6.563103 14.41514,-8.632547 5.945626,-2.010764 11.051185,-2.163471 22.657532,-0.678511 21.327378,2.728675 38.819338,3.416409 48.032208,1.888258 3.03068,-0.502693 5.66207,-0.76236 5.84771,-0.57671 0.66471,0.66471 -2.61819,3.450415 -4.79454,4.068485 -1.22031,0.346569 -5.78188,0.908613 -10.13685,1.249018 -8.29796,0.648621 -23.85679,-0.187698 -40.810946,-2.193663 -10.847252,-1.28342 -13.963229,-1.182653 -19.525424,0.633037 -8.067188,2.633392 -11.594147,4.940395 -15.17065,9.921876 -2.012807,2.80351 -2.040249,2.91293 -0.620633,2.47427 0.817057,-0.25249 2.243183,-0.84388 3.168798,-1.31465 7.672594,-3.90233 28.364643,-4.30286 51.391175,-0.99478 10.39788,1.49379 28.32553,1.45813 32.96388,-0.0656 5.39282,-1.77162 9.0098,-4.93214 13.99398,-12.228197 7.83053,-11.462668 9.67786,-13.629889 18.82831,-22.087025 4.65854,-4.305557 8.63265,-7.831421 9.26197,-8.227404 1.14529,2.587233 2.12377,5.260464 3.02307,7.970573 l -3.15588,6.432682 c -6.56146,13.372383 -13.77757,22.740167 -22.68957,29.455571 -10.5693,7.9642 -28.81596,11.77364 -45.08614,9.41337 -15.815369,-2.29428 -38.597761,-3.0611 -45.770851,-1.54099 -8.597299,1.82193 -20.360071,8.50444 -26.85779,15.2585 -4.100264,4.26199 -3.646752,4.27569 1.551842,0.047 3.813087,-3.10166 12.045526,-7.20177 19.553846,-9.73894 7.81264,-2.64001 18.639353,-2.78001 38.17648,-0.49403 11.588943,1.356 17.941583,1.77634 26.692433,1.76734 10.74208,-0.011 11.86514,-0.12403 17.38136,-1.75029 10.13346,-2.98748 18.94824,-8.69065 27.52442,-17.80718 5.20624,-5.534256 7.63613,-9.014583 12.06438,-17.282145 1.72863,-3.227369 2.57305,-4.797608 3.12177,-4.684469 1.33679,6.142866 2.07275,12.511693 2.07275,19.059302 0,1.567822 -0.0608,3.120592 -0.1416,4.667932 -1.97909,8.49271 -11.77201,20.95616 -19.44326,28.4794 -6.7785,6.64771 -16.97972,11.75354 -22.64268,13.28022 -10.22357,3.41765 -19.31328,-0.29252 -42.02972,-5.99961 -24.622274,-4.20399 -37.710396,-1.42148 -50.191781,8.05507 -3.682844,2.79622 -5.661861,4.96552 -2.951758,3.23546 8.268613,-5.27848 13.163968,-7.5368 18.990056,-8.76019 8.566012,-1.79872 16.435451,-2.76719 30.429162,-0.47155 17.086331,2.80296 20.276731,10.05749 34.674631,9.83615 18.40233,-1.77863 31.1371,-10.33989 41.02294,-20.49846 3.98526,-4.0952 7.81686,-7.25304 9.64657,-10.87426 l 1.10587,-2.1885 c -3.0178,15.6813 -10.22532,28.11542 -20.28622,39.69627 4.71749,-1.0351 9.45686,-2.10136 14.26734,-3.23546 10.69516,-15.75929 16.9509,-34.76819 16.9509,-55.222466 C 197.09184,44.177468 152.91646,5.2916667e-6 98.546958,5.2916667e-6 Z m -0.02326,9.413896 c 1.064268,0 2.085072,0.02077 3.100592,0.044958 14.74815,0.4988825 28.57825,4.566544 40.65746,11.370365 -0.0549,0.538039 -4.77943,4.541957 -7.75404,6.567043 -2.72076,1.85225 -12.1701,5.769568 -16.29617,6.755659 -5.43897,1.299861 -16.83701,1.129851 -22.97896,-0.342614 -13.192196,-3.162683 -31.635901,-4.007831 -41.218156,-1.888773 -5.162947,1.141749 -10.922559,3.480702 -10.243302,4.159951 0.178475,0.178478 1.951358,-0.190008 3.939813,-0.81907 2.994287,-0.94727 5.535178,-1.133205 14.789277,-1.082104 10.687084,0.05902 11.781726,0.184978 25.140583,2.89388 7.681825,1.557713 15.265095,2.987122 16.851685,3.176551 6.71912,0.802206 19.69456,-1.811579 27.59005,-5.558319 5.54179,-2.629802 12.32027,-7.10433 14.00121,-9.241295 0.50587,-0.643102 1.05076,-1.196256 1.39682,-1.440223 6.15248,4.045355 11.77294,8.830461 16.73386,14.232723 0.21382,0.640694 -0.11327,1.37871 -1.20096,3.12229 -4.30045,6.893674 -13.99458,15.709612 -21.40438,19.464446 -9.99815,5.06645 -28.66434,6.501458 -47.84721,3.678843 -9.432192,-1.387869 -24.921567,-1.867141 -30.620869,-0.947745 -5.584076,0.900808 -14.564561,3.722568 -19.114598,6.006351 -8.81439,4.424185 -18.357842,12.664395 -23.383585,20.190499 -3.654296,5.472359 -3.101438,5.687793 1.088307,0.424265 6.617874,-8.313954 13.65614,-13.811342 24.843961,-19.404502 9.209614,-4.604189 13.788922,-5.525158 27.40918,-5.513358 6.316162,0.0055 13.299752,0.324461 15.51895,0.709001 9.149746,1.585426 23.364874,2.702404 29.394074,2.309421 8.52931,-0.55595 18.92038,-3.303722 25.64701,-6.781498 7.84587,-4.056449 16.5805,-12.024746 20.2737,-18.494481 0.618,-1.082601 1.23965,-1.976429 1.54616,-2.253607 4.63094,5.43302 8.65894,11.395448 11.89023,17.84077 1.7e-4,2.64e-4 2.5e-4,7.93e-4 5.3e-4,0.0011 v 5.29e-4 c 0.006,0.03828 0.0155,0.08251 0.0155,0.113173 0,0.482698 -3.79029,4.645218 -8.42274,9.249563 -9.75971,9.700496 -12.52515,13.028091 -19.45514,23.409942 -6.40699,9.59835 -9.09735,11.59667 -17.43718,12.95218 -4.63151,0.75278 -16.47456,0.33728 -27.003,-0.94775 -24.480547,-2.98791 -30.62731,-3.23155 -41.543209,-1.64589 -3.729633,0.54178 -6.909943,0.98495 -7.067267,0.98495 -0.86986,0 3.42382,-2.752356 6.466787,-4.14548 2.868377,-1.31319 4.944264,-1.712973 10.855669,-2.090311 4.020058,-0.256601 9.072957,-0.230997 11.228771,0.05684 11.283566,1.506561 28.747079,2.764689 38.371819,2.764689 10.02967,0 11.10657,-0.110011 14.03997,-1.437637 3.95459,-1.789806 6.06215,-3.991586 10.07484,-10.52494 l 3.1533,-5.134054 -2.92592,1.671733 c -1.6094,0.919501 -3.21034,1.883182 -3.55741,2.141471 -1.82223,1.35608 -10.92895,3.747093 -16.4176,4.310332 -7.0702,0.725533 -18.31942,0.08065 -33.77727,-1.936316 -12.77883,-1.667451 -22.221917,-2.115668 -26.76839,-1.270764 -7.820046,1.453291 -17.974792,8.148072 -26.071793,17.188617 -2.731315,3.04959 -5.114409,5.68423 -5.295802,5.85494 -3.34631,3.14918 -12.213082,15.71396 -16.536974,23.43371 -0.875154,1.56247 -1.667503,2.90068 -2.071708,3.514 -1.389808,-2.89752 -2.613321,-5.88891 -3.687631,-8.95088 0.53053,-4.46422 8.684263,-21.46 12.883967,-26.68726 4.147429,-5.162187 10.954007,-11.908329 14.785145,-14.653884 4.80179,-3.441168 14.128122,-6.857597 21.929412,-8.033617 7.554145,-1.138894 15.160948,-1.136799 26.275397,0.0078 4.855449,0.500009 10.364377,1.064347 12.242147,1.254186 8.95655,0.90547 22.39893,1.091647 26.109,0.361735 4.02928,-0.79272 14.52385,-5.662477 20.82922,-9.665043 4.22167,-2.679854 9.11271,-6.540606 8.74779,-6.905522 -0.13752,-0.137523 -3.15569,1.394394 -6.70709,3.403928 -3.55139,2.009534 -9.2502,4.705768 -12.66434,5.991881 -5.59722,2.10848 -6.94038,2.367087 -13.65705,2.629297 -9.0627,0.353782 -24.39308,-0.648602 -35.692908,-2.333707 -26.398537,-3.936749 -43.399138,0.871662 -58.972113,16.680119 -6.988588,7.094273 -10.880157,12.781587 -15.287955,22.341277 -1.591773,3.45226 -2.96576,6.31383 -3.367236,7.03264 -1.627139,-6.74359 -2.4954551,-13.78546 -2.4954551,-21.033857 0,-1.825426 0.061194,-3.63629 0.168982,-5.434295 C 9.8359181,91.208168 10.188382,89.528514 10.640707,88.33728 14.047369,79.365622 25.306545,64.550181 32.83987,59.126146 44.5578,50.689165 54.187779,48.330881 74.624915,48.894211 c 7.576656,0.208843 15.123377,0.811022 20.174479,1.609204 4.438385,0.70136 9.960716,1.561105 12.271606,1.910995 13.93926,2.110536 31.19582,-1.601332 40.6585,-8.74572 2.48579,-1.87679 3.37129,-2.832994 2.84427,-2.743501 -0.4099,0.06961 -1.6741,0.771763 -3.70624,2.165241 -7.31749,5.017794 -17.91654,7.696351 -30.34233,7.667749 -8.3015,-0.0191 -11.75201,-0.432871 -25.450126,-3.050458 -4.123719,-0.788008 -9.000625,-1.077169 -18.622637,-1.10381 -11.211144,-0.03105 -14.034391,0.163582 -20.167242,1.390097 -7.881821,1.576285 -15.128621,4.846172 -21.716505,9.798368 -6.463718,4.858866 -13.321769,12.87953 -18.47019,21.601266 l -0.98392,1.666565 c 4.874325,-24.573944 19.825445,-45.485761 40.379434,-58.26625 5.29e-4,-2.65e-4 0.0011,-7.94e-4 0.0016,-0.0011 0.0011,-5.29e-4 0.0021,-0.0011 0.0031,-0.0016 0.01318,-0.0062 0.02745,-0.01397 0.04031,-0.01963 2.960293,-1.303597 17.000667,-1.399677 35.077447,-0.240294 11.756189,0.753996 13.347819,0.7342 17.630449,-0.218591 5.13345,-1.142087 12.53255,-3.740563 13.5201,-4.748033 0.12783,-0.130402 0.0901,-0.186338 -0.0785,-0.175699 h -5.3e-4 c -0.28231,0.0182 -0.92953,0.222771 -1.78284,0.578776 -6.97054,2.908131 -17.112866,3.425711 -37.245274,1.901693 -7.580397,-0.573834 -13.568468,-0.715518 -16.760216,-0.396875 -2.731315,0.272677 -5.064278,0.415533 -5.18418,0.317293 -7.93e-4,-5.29e-4 -7.93e-4,-0.0016 -0.0016,-0.0021 11.633091,-6.183389 24.803219,-9.8639949 38.799182,-10.3306379 0.985904,-0.022278 1.973143,-0.043408 3.010667,-0.043408 z m 89.016272,94.128624 c -0.10827,1.93774 -0.26677,3.86197 -0.49506,5.76502 0.22979,-1.90254 0.3879,-3.82689 0.49506,-5.76502 z m -0.50436,5.84667 c -0.22411,1.85382 -0.41236,5.46298 -0.74814,7.27967 0.33586,-1.81654 0.52259,-5.42651 0.74814,-7.27967 z M 13.061218,123.92474 c 0.390981,1.32189 0.819325,2.62773 1.269173,3.92327 -0.449282,-1.29586 -0.878136,-2.60108 -1.269173,-3.92327 z m 69.574047,49.80523 c -0.0508,0.0175 -0.10378,0.0304 -0.154511,0.048 -4.916659,1.70985 -7.033583,3.18129 -2.701129,1.87741 0.641821,-0.19316 1.340747,-0.36632 2.06189,-0.53175 0.272762,-0.43245 0.53526,-0.90197 0.79375,-1.39371 z"
     sodipodi:nodetypes="ssccccccscccsssssscsssacssscccssscssssssssssssscccssssssscssscscsccsssscsccccsssccsssssssssssccssssssssscssscsccsssssssssssssccssscsssccsscssssssssssscscssssssssssssscccsccsssccssscccsccccccccsssscccs" /><path
     id="path4240"
     style="color:#000000;display:inline;fill:#ffffff;stroke-width:6;stroke-linecap:round;stroke-linejoin:round;-inkscape-stroke:none"
     inkscape:label="outline outline"
     d="m 93.892977,143.39745 c -0.372496,-0.008 -0.745624,0.0189 -1.114661,0.0806 -2.260729,0.37723 -4.120347,2.02536 -4.767667,4.22404 -5.084347,17.26443 -6.933211,23.94339 -9.762195,27.27172 -2.086785,2.45511 -6.158257,4.71537 -14.47922,9.03614 a 92.497885,92.497885 0 0 0 3.849894,1.41748 c 6.779061,-3.52295 10.546076,-5.72348 12.915491,-8.51111 3.577041,-4.2084 5.27972,-11.13686 10.35389,-28.36674 1.161178,-3.65135 7.094865,-1.99676 7.949903,0.79788 1.399748,8.37436 2.334828,14.76306 3.453538,20.84111 24.8841,-5.2864 46.19132,-9.26179 68.3581,-14.23582 a 92.497885,92.497885 0 0 0 3.33778,-4.41059 c -23.32948,4.82362 -44.49623,9.80081 -69.24952,15.06006 -0.91243,-5.24949 -1.7412,-10.57434 -2.94039,-17.74878 -0.40531,-2.42817 -2.275817,-4.3778 -4.684985,-4.88394 l -0.484725,-0.10232 c -0.13565,-0.008 -0.2717,-0.007 -0.40721,0.003 -0.1388,-0.049 -0.264946,-0.12971 -0.40721,-0.16847 -0.05524,-0.015 -0.110903,-0.028 -0.166915,-0.0398 l -0.640271,-0.13539 -0.0031,-0.002 c -0.36597,-0.0773 -0.738028,-0.11975 -1.110526,-0.12765 z" /><path
     id="path3478"
     style="display:inline;opacity:1;fill:#ffffff;fill-opacity:1;stroke:none;stroke-width:0.186995px;stroke-linecap:butt;stroke-linejoin:miter;stroke-opacity:1"
     inkscape:label="canon"
     d="m 93.766886,149.39657 c -10.117238,34.35414 -6.509989,29.09067 -37.689689,45.36157 l 0.178801,1.18443 c 6.884961,-3.16401 10.687466,-4.6768 15.079182,-6.72105 l 2.468067,8.12767 c -4.523076,0.37216 -10.337839,1.44364 -16.997412,2.23553 l 0.160713,1.06557 c 28.555423,-2.52517 30.94868,-5.6011 56.812552,15.23162 l 0.80925,-1.43867 -11.27889,-10.54974 3.1228,-2.73885 8.77518,12.18892 0.56379,-1.00253 c -3.51748,-5.79167 -6.23367,-10.81379 -8.3876,-15.42179 l -10.877893,4.05246 -7.898226,-3.67677 0.652157,-0.16692 7.301363,3.39876 32.075049,-11.94914 -4.72271,0.88315 c -0.21177,-0.11187 -0.42455,-0.22362 -0.63201,-0.3359 0.55033,-1.2114 1.08479,-2.37061 1.59112,-3.43183 1.30869,0.72131 2.68665,1.45692 4.1553,2.2164 -0.11323,0.25273 -0.23458,0.53427 -0.34933,0.7922 1.38618,-0.32654 2.79974,-0.66895 4.2323,-1.02112 -0.33048,-0.1675 -0.67124,-0.33438 -0.99787,-0.5023 0.68113,-1.4968 1.32656,-2.87147 1.94252,-4.14342 1.30638,0.70084 2.69282,1.41974 4.15633,2.15904 -0.19824,0.44883 -0.39676,0.89768 -0.59841,1.35755 1.65224,-0.42224 3.33895,-0.86016 5.07772,-1.32085 -0.53464,-0.2616 -1.07482,-0.52278 -1.59938,-0.78549 0.69974,-1.5629 1.36238,-3.00399 1.99161,-4.32945 1.8461,0.84118 3.81245,1.69755 5.96708,2.59674 -0.13031,0.29138 -0.2695,0.61361 -0.40205,0.91261 1.49504,-0.40956 3.07265,-0.85193 4.64468,-1.29139 -0.42863,-0.17256 -0.85892,-0.34446 -1.28261,-0.5178 0.57875,-1.27156 1.13495,-2.46759 1.66553,-3.57395 1.53807,0.67326 3.17684,1.36006 4.92322,2.06861 -0.0965,0.19766 -0.19665,0.40913 -0.29352,0.60823 1.36954,-0.38969 2.71824,-0.77178 4.15116,-1.18442 -0.23845,-0.0937 -0.48113,-0.18603 -0.71779,-0.28009 0.81348,-1.53605 1.60865,-2.98741 2.38384,-4.32479 1.34373,0.4735 2.73808,0.94726 4.23023,1.42936 -0.32703,0.56525 -0.65037,1.1503 -0.97203,1.74667 2.18075,-0.63512 4.45441,-1.30213 6.79029,-1.99058 -0.77235,-0.23353 -1.54496,-0.46694 -2.29961,-0.70539 0.75944,-1.17813 1.52414,-2.28411 2.29495,-3.33054 1.82532,0.74991 3.77599,1.50776 5.8906,2.29547 1.02683,-0.30498 2.08517,-0.6203 3.14244,-0.93534 -2.70495,-0.98601 -5.29855,-1.99664 -7.75198,-3.04375 1.27492,-1.61459 2.56858,-3.09155 3.88607,-4.48913 1.21697,0.56614 2.49961,1.12653 3.84162,1.6893 -0.24372,-0.77834 -0.46165,-1.6347 -0.64233,-2.55901 -0.54501,-0.24867 -1.0896,-0.49697 -1.62006,-0.74983 0.43155,-0.43396 0.86903,-0.85942 1.30742,-1.28416 -0.14395,-1.05173 -0.25833,-2.04018 -0.31317,-2.93057 -1.13355,1.02579 -2.22914,2.04952 -3.28093,3.09077 -1.50473,-0.7639 -2.95327,-1.54541 -4.33669,-2.34921 1.23154,-1.38361 2.51901,-2.75426 3.88194,-4.17132 -1.37548,0.2717 -2.81702,0.55401 -4.13515,0.817 -0.65661,0.69771 -1.2903,1.38086 -1.89911,2.05362 -0.66801,-0.41893 -1.31447,-0.84578 -1.95078,-1.27641 -1.00608,0.20302 -2.04332,0.41048 -3.01636,0.60876 1.15722,0.82889 2.30946,1.6109 3.47679,2.35127 -1.41371,1.63391 -2.72235,3.26166 -3.97909,5.00073 -1.67222,-0.90181 -3.2658,-1.82927 -4.77542,-2.78743 0.78347,-1.22378 1.68602,-2.62679 2.57504,-4.01009 -0.92541,0.19046 -1.81113,0.37573 -2.70733,0.56224 -0.56135,0.7791 -1.10577,1.54505 -1.6247,2.29443 -0.72893,-0.49567 -1.43325,-1.00115 -2.12029,-1.51308 -0.99969,0.2116 -1.93153,0.4154 -2.89594,0.6227 1.26867,0.97069 2.51782,1.87772 3.76876,2.72593 -1.09068,1.64045 -2.12279,3.2931 -3.14451,5.05448 -1.83502,-0.8905 -3.5815,-1.81598 -5.22914,-2.78382 0.9247,-1.47015 1.92003,-3.012 2.97501,-4.64622 -0.94367,0.20469 -1.91026,0.41222 -2.82205,0.61339 -0.69472,0.98153 -1.35958,1.94461 -2.00039,2.90577 -0.94418,-0.59909 -1.84856,-1.21635 -2.72439,-1.84692 -1.09334,0.24928 -2.16831,0.49669 -3.21995,0.7426 -0.98211,1.34381 -1.90585,2.63529 -2.77606,3.90311 -1.1401,-0.79915 -2.2289,-1.61611 -3.26595,-2.45255 -0.93896,0.23172 -1.86321,0.46314 -2.77555,0.69452 -1.09562,1.50504 -2.10463,2.93761 -3.06699,4.36459 -0.92943,-0.63975 -1.82614,-1.28965 -2.68976,-1.95078 0.21768,-0.33848 0.4735,-0.74541 0.69867,-1.09709 -0.92803,0.24809 -1.83205,0.49952 -2.74144,0.75034 l 2.30529,-0.79478 -38.095867,8.09356 -1.944067,3.38067 -0.582394,0.1509 2.211751,-3.84628 9.985954,-2.12131 c -1.348932,-6.80349 -2.338924,-14.18154 -3.907255,-23.56446 l -0.484208,-0.1018 2.673738,22.02398 -5.77019,-2.882 2.108915,-19.35024 z M 172.6091,162.7172 c 1.35491,0.79194 2.75437,1.54387 4.2168,2.27687 -1.37678,1.44723 -2.6896,2.95026 -3.95066,4.56044 -1.41382,-0.63852 -2.77791,-1.29116 -4.10001,-1.95699 1.25528,-1.73839 2.52297,-3.33501 3.83387,-4.88032 z m -28.43237,2.54455 c 1.03648,0.71641 2.05991,1.39558 3.07578,2.0345 -0.84787,1.33356 -1.66973,2.70556 -2.48977,4.1522 -1.12657,-0.66245 -2.20908,-1.33855 -3.25716,-2.02623 0.83634,-1.31154 1.72146,-2.68941 2.67115,-4.16047 z m 16.32355,0.21962 c 1.52158,0.9659 3.07673,1.86736 4.70049,2.73162 -0.88,1.3064 -1.74881,2.69106 -2.6293,4.20181 -1.72335,-0.67732 -3.37622,-1.37935 -4.97024,-2.10323 0.95747,-1.68248 1.9083,-3.2513 2.89905,-4.8302 z m -25.26305,2.16317 c 1.0914,0.85581 2.17898,1.66381 3.27318,2.43035 -0.8792,1.33655 -1.72318,2.69177 -2.55644,4.10776 -1.21834,-0.70536 -2.39697,-1.42167 -3.52743,-2.15232 0.87797,-1.38836 1.81504,-2.84498 2.81069,-4.38579 z m 13.90612,0.80151 c 1.73247,1.01894 3.4787,1.95494 5.3082,2.83084 -0.71389,1.29665 -1.43257,2.66509 -2.17247,4.14548 -1.93093,-0.92618 -3.78227,-1.873 -5.53972,-2.84685 0.8053,-1.44979 1.59738,-2.80699 2.40399,-4.12947 z m -24.61245,0.57102 c 0.2278,0.18594 0.45587,0.37495 0.68264,0.55552 -0.92555,1.27301 -1.78915,2.49455 -2.61637,3.70624 -0.99347,-0.77106 -1.95096,-1.55033 -2.86236,-2.34198 0.0683,-0.10629 0.14329,-0.22427 0.21704,-0.34055 z m 42.98446,0.37776 c 1.2906,0.63361 2.64086,1.25676 4.06435,1.87585 -0.81087,1.11796 -1.60044,2.2943 -2.37402,3.53829 -1.44137,-0.48078 -2.85347,-0.97014 -4.2199,-1.47433 0.85297,-1.40651 1.69271,-2.7106 2.52957,-3.93981 z m -40.77219,1.36426 c 0.8851,0.66982 1.77184,1.31932 2.67115,1.93734 -0.79612,1.23577 -1.56949,2.49254 -2.33422,3.81115 -0.95347,-0.64133 -1.8838,-1.28729 -2.77761,-1.94149 0.76748,-1.20762 1.58283,-2.4796 2.44068,-3.807 z m 13.5723,0.53898 c 1.09911,0.71973 2.22154,1.4119 3.38119,2.08101 -0.65576,1.21684 -1.32,2.50352 -2.00246,3.88452 -1.29772,-0.64745 -2.55381,-1.30517 -3.77135,-1.97249 0.79135,-1.37827 1.57945,-2.68816 2.39262,-3.99304 z m -23.2699,0.30024 c -1.0972,1.50333 -2.11165,2.93572 -3.07372,4.35478 -0.96683,-0.7694 -1.88806,-1.54921 -2.7745,-2.33837 z m 39.48648,0.63511 c 1.57483,0.69677 3.23635,1.36518 4.99762,2.02623 -0.72951,1.31837 -1.47763,2.74486 -2.24895,4.27726 -1.69022,-0.69973 -3.32755,-1.41035 -4.9103,-2.13424 0.75081,-1.5146 1.46486,-2.88652 2.16163,-4.16925 z m -38.00802,0.58601 c 0.93414,0.80031 1.87826,1.56755 2.83859,2.30838 -0.91146,1.39467 -1.78802,2.80906 -2.65462,4.30051 -1.04501,-0.71385 -2.06203,-1.43354 -3.03444,-2.16265 0.88964,-1.40503 1.83813,-2.87928 2.85047,-4.44624 z m 12.72429,1.09399 c 1.1666,0.74868 2.3642,1.46922 3.61425,2.17403 -0.69508,1.24447 -1.39469,2.55965 -2.10943,3.96823 -1.30286,-0.76045 -2.56051,-1.5286 -3.77548,-2.30477 0.75597,-1.33775 1.50547,-2.59298 2.27066,-3.83749 z m 14.45028,0.58032 c 1.76389,0.94893 3.62885,1.87352 5.66271,2.80448 -0.54786,1.13539 -1.11399,2.34474 -1.69809,3.62304 -2.04053,-0.86609 -4.00688,-1.74619 -5.89163,-2.64377 0.66781,-1.36251 1.30695,-2.61519 1.92701,-3.78375 z m -37.91758,0.29921 c -0.68032,0.94552 -1.33822,1.87326 -1.96474,2.78743 -0.59303,-0.50105 -1.1621,-1.00759 -1.72083,-1.51671 z m 2.00246,0.5364 c 0.97571,0.86051 1.95829,1.68552 2.95951,2.47737 -0.73419,1.13262 -1.44835,2.28519 -2.15232,3.47989 -1.0815,-0.7771 -2.11614,-1.5631 -3.11506,-2.35696 0.72772,-1.14367 1.49914,-2.34895 2.30787,-3.6003 z m 13.33717,1.11104 c 0.93198,0.67357 1.88228,1.33502 2.87579,1.98438 -0.73073,1.32702 -1.46632,2.72853 -2.22466,4.24883 -1.09335,-0.65692 -2.14604,-1.32046 -3.17552,-1.9885 0.83865,-1.48212 1.66974,-2.86566 2.52439,-4.24471 z m -21.15892,0.6935 c 0.86469,0.7981 1.73445,1.5593 2.61432,2.29754 -0.86674,1.32028 -1.70072,2.65942 -2.52336,4.05866 -0.96498,-0.70394 -1.89308,-1.4153 -2.790532,-2.1332 0.847012,-1.34972 1.751492,-2.75595 2.699572,-4.223 z m 34.90123,0.046 c 1.24003,0.65566 2.54649,1.30472 3.91811,1.95803 -0.63008,1.31897 -1.28514,2.73908 -1.96629,4.25193 -1.39571,-0.72355 -2.74496,-1.453 -4.05866,-2.18798 0.7285,-1.45349 1.42585,-2.78047 2.10684,-4.02198 z m -37.781153,0.61237 c -0.514578,0.73303 -1.019803,1.46139 -1.501717,2.18281 -0.464602,-0.39589 -0.915757,-0.79505 -1.360123,-1.19579 z m 15.411983,1.35444 c 1.01045,0.74862 2.04559,1.47945 3.12849,2.19832 -0.59727,1.08269 -1.2003,2.22866 -1.81333,3.43493 -1.15618,-0.72511 -2.2794,-1.45517 -3.36103,-2.19263 0.67881,-1.18628 1.35599,-2.32083 2.04587,-3.44062 z m 13.43587,0.50436 c 1.22831,0.75619 2.52523,1.51021 3.8933,2.27376 -0.63558,1.30002 -1.29036,2.68306 -1.97352,4.17494 -1.40015,-0.74536 -2.76447,-1.49511 -4.07986,-2.25205 0.75029,-1.52165 1.46574,-2.91034 2.16008,-4.19665 z m -33.407781,0.58653 c 0.608129,0.54981 1.220355,1.08527 1.83658,1.60611 -0.612932,0.9621 -1.211483,1.94594 -1.805574,2.95795 -0.646478,-0.53092 -1.275677,-1.06472 -1.888257,-1.60093 0.598739,-0.98268 1.226583,-1.97222 1.857251,-2.96313 z m -2.579688,0.0165 c -0.320205,0.48163 -0.635515,0.96393 -0.946712,1.44953 -0.250999,-0.23402 -0.487779,-0.4706 -0.731738,-0.7059 l 0.973584,-0.50074 z m 14.340209,0.5638 c 1.03568,0.8149 2.10339,1.60625 3.21066,2.38228 -0.68704,1.22876 -1.37888,2.527 -2.08463,3.91501 -1.20831,-0.76397 -2.37917,-1.53394 -3.5047,-2.31201 0.78814,-1.38045 1.5727,-2.68703 2.37867,-3.98528 z M 88.179114,182.07 c 0.536371,0.52639 1.075146,1.04481 1.621089,1.54771 -0.0073,0.012 -0.01441,0.0247 -0.0217,0.0367 -0.603327,0.99308 -1.198263,2.0122 -1.794205,3.08044 -0.511055,-0.44576 -1.006082,-0.89444 -1.493966,-1.34411 0.06733,-0.82096 0.216122,-1.70801 0.452686,-2.68458 z m 31.367076,0.5147 c 1.04852,0.65581 2.15662,1.31121 3.30574,1.97146 -0.52071,1.08113 -1.05838,2.23173 -1.61178,3.44165 -1.18639,-0.66555 -2.33813,-1.33584 -3.46026,-2.0097 0.60716,-1.21111 1.19437,-2.34513 1.7663,-3.40341 z m -21.460188,0.67232 c 0.92969,0.73633 1.881682,1.45482 2.865978,2.15697 -0.54106,0.97005 -1.085503,1.98083 -1.636595,3.04632 -1.027905,-0.73935 -2.015733,-1.48367 -2.976563,-2.23139 0.582475,-1.02443 1.1609,-2.00721 1.74718,-2.9719 z m 13.299968,1.22886 c 1.10547,0.72881 2.26117,1.45598 3.47937,2.18695 -0.58538,1.19631 -1.18377,2.45111 -1.80867,3.80855 -1.266,-0.71157 -2.48906,-1.42844 -3.68143,-2.14974 0.69396,-1.38383 1.36055,-2.65607 2.01073,-3.84576 z m -19.878377,0.65629 c 0.631058,0.5442 1.271244,1.08143 1.930114,1.61024 -0.547617,0.98395 -1.098838,2.01364 -1.657263,3.09645 -0.690529,-0.53398 -1.363078,-1.07086 -2.018998,-1.60972 0.589867,-1.08721 1.167959,-2.10778 1.746147,-3.09697 z m 11.328507,1.57303 c 1.15099,0.77109 2.35005,1.53673 3.622,2.30632 -0.5001,1.02185 -1.01035,2.08856 -1.53841,3.22616 -1.27304,-0.81275 -2.51127,-1.62803 -3.70261,-2.44792 0.55352,-1.08889 1.09267,-2.11892 1.61902,-3.08456 z m 14.02963,1.13275 c 1.12309,0.64545 2.30341,1.30275 3.54501,1.97559 -0.0456,0.10179 -0.0934,0.21138 -0.14056,0.31884 l -4.92011,0.91984 c 0.5241,-1.13707 1.03044,-2.212 1.51566,-3.21427 z m -21.605395,0.32091 c 0.97976,0.73881 2.009752,1.47328 3.080949,2.21175 -0.489949,0.98676 -0.994122,2.03764 -1.508952,3.13262 -1.096875,-0.74846 -2.156999,-1.50075 -3.184818,-2.25671 0.551178,-1.08879 1.089517,-2.12299 1.612821,-3.08766 z m -8.591207,0.37103 c 0.07586,0.0656 0.150133,0.13263 0.226343,0.19793 -0.04046,0.0763 -0.08194,0.15926 -0.122473,0.23616 -0.03764,-0.14362 -0.0726,-0.2882 -0.10387,-0.43409 z m 21.785752,1.66399 c 0.9112,0.52717 1.88013,1.06557 2.87372,1.61023 l -3.98942,0.74621 c 0.37976,-0.81256 0.75579,-1.61304 1.1157,-2.35644 z m -19.752284,0.0315 c 0.672217,0.53864 1.36192,1.07152 2.072742,1.60197 -0.318112,0.64313 -0.646014,1.32997 -0.974618,2.01951 l -0.608232,-0.007 c -0.480148,-0.72258 -0.903254,-1.40575 -1.267105,-2.07429 0.260141,-0.51848 0.524702,-1.05304 0.777213,-1.54048 z m 11.573974,1.44849 c 0.84541,0.55665 1.74124,1.12499 2.6603,1.69964 l -3.141412,0.58756 -0.607198,-0.007 c 0.370368,-0.78662 0.738009,-1.56525 1.08831,-2.28048 z m -7.600573,1.53066 c 0.102439,0.0723 0.204117,0.1447 0.307475,0.21704 l 0.002,-0.006 c 0.226257,0.15818 0.455268,0.31669 0.68678,0.47542 l -1.316715,-0.015 c 0.105479,-0.21933 0.216827,-0.45877 0.320394,-0.67127 z" /></svg>
