<?xml version="1.0" encoding="UTF-8" standalone="no"?>
<!-- Created with Inkscape (http://www.inkscape.org/) -->

<svg
   width="210mm"
   height="297mm"
   viewBox="0 0 210 297"
   version="1.1"
   id="svg5"
   xml:space="preserve"
   inkscape:version="1.2.2 (732a01da63, 2022-12-09)"
   sodipodi:docname="giants-deep_v2_wip.svg"
   inkscape:export-filename="giants-deep_v2_white.svg"
   inkscape:export-xdpi="386.62177"
   inkscape:export-ydpi="386.62177"
   xmlns:inkscape="http://www.inkscape.org/namespaces/inkscape"
   xmlns:sodipodi="http://sodipodi.sourceforge.net/DTD/sodipodi-0.dtd"
   xmlns="http://www.w3.org/2000/svg"
   xmlns:svg="http://www.w3.org/2000/svg"><sodipodi:namedview
     id="namedview7"
     pagecolor="#505050"
     bordercolor="#ffffff"
     borderopacity="1"
     inkscape:showpageshadow="0"
     inkscape:pageopacity="0"
     inkscape:pagecheckerboard="1"
     inkscape:deskcolor="#505050"
     inkscape:document-units="mm"
     showgrid="false"
     inkscape:zoom="0.4204826"
     inkscape:cx="-221.17443"
     inkscape:cy="475.64393"
     inkscape:window-width="1920"
     inkscape:window-height="1009"
     inkscape:window-x="-8"
     inkscape:window-y="-8"
     inkscape:window-maximized="1"
     inkscape:current-layer="svg5" /><defs
     id="defs2"><inkscape:path-effect
       effect="spiro"
       id="path-effect7557"
       is_visible="true"
       lpeversion="1" /></defs><path
     id="path7593"
     style="display:inline;opacity:1;fill:#ffffff;fill-opacity:1;stroke-width:2.34709;stroke-dasharray:none"
     inkscape:label="planet"
     d="m 392.00879,137.71678 c -205.49103,0 -372.460942,166.96994 -372.460947,372.46095 -1e-6,153.96852 93.742827,286.29787 227.187507,342.98047 17.69585,-9.09771 31.42599,-16.07042 42.52343,-22.11914 -22.4371,-7.16641 -43.90419,-16.4891 -64.01562,-27.94922 l 9.89086,-15.51724 c 10.68235,-13.62951 16.93664,-18.52098 33.30475,-30.28446 17.78626,-10.60653 30.64195,-15.02171 62.30459,-25.07306 -23.33856,-5.82908 -57.04548,5.24849 -67.71439,11.77333 -16.30986,9.97471 -30.50946,18.40936 -43.46159,29.95494 l -16.3711,15.18946 c -21.40088,-14.5002 -41.1486,-31.2461 -58.64258,-50.16016 1.58047,-8.2091 27.66007,-43.77127 45.29493,-61.50195 20.81679,-20.92996 22.07911,-21.77424 44.88086,-29.99805 34.36669,-12.39491 75.84624,-17.31311 117.07226,-13.88281 16.90331,1.40646 43.93269,3.64582 60.0625,4.97656 31.94258,2.63527 89.09449,9.90437 109.60549,7.78326 37.48832,-3.87682 81.20976,-21.96641 99.20311,-31.97662 13.89612,-7.73082 70.43199,-62.10617 70.31445,-67.62695 -0.01,-0.45115 -0.20993,-0.67055 -0.5625,-0.67969 -1.0577,-0.0274 -3.49815,1.83624 -6.375,4.99804 -11.7775,12.944 -43.25396,39.75536 -55.56445,47.33008 -15.32652,9.43051 -37.11204,21.40442 -57.52147,27.14655 -27.71034,7.79622 -56.43875,9.24097 -85.85937,9.27148 -32.78394,-1.65114 -50.56177,-6.2483 -89.66408,-9.4942 -75.0456,-6.22951 -107.34011,-5.67632 -138.42383,2.36914 -29.72385,7.69347 -43.56145,13.8595 -62.25977,27.74024 -18.59385,13.80318 -45.03442,45.50057 -56.15039,67.31445 l -3.01367,5.91602 C 120.2498,710.66849 106.6524,691.14605 95.333,670.17382 c 1.741952,-7.54967 14.97689,-35.00454 23.91016,-49.23633 23.5035,-37.44385 62.95607,-84.12899 91.50195,-108.27344 24.41204,-20.64801 31.35507,-24.80543 54.48242,-32.62695 22.47166,-7.59974 41.76826,-8.1769 85.63477,-2.56445 80.60741,10.3131 146.71876,12.91241 181.53907,7.13672 11.45454,-1.89994 21.39992,-2.88136 22.10156,-2.17969 2.51229,2.51229 -9.89552,13.04094 -18.1211,15.37695 -4.61217,1.30987 -21.85275,3.43413 -38.3125,4.7207 -31.36238,2.45148 -90.16739,-0.70941 -154.24609,-8.29101 -40.99749,-4.85072 -52.77441,-4.46987 -73.79688,2.39258 -30.49016,9.95298 -43.8204,18.67236 -57.33789,37.5 -7.60746,10.59596 -7.71118,11.00952 -2.3457,9.35156 3.08809,-0.95426 8.47817,-3.18946 11.97656,-4.96875 28.99878,-14.74895 107.20495,-16.26278 194.23438,-3.75977 39.29907,5.64579 107.05712,5.51103 124.58789,-0.24804 20.38231,-6.69589 34.05277,-18.64116 52.89063,-46.2168 29.59568,-43.32347 36.57772,-51.51454 71.16211,-83.47852 17.60707,-16.27297 32.62735,-29.59907 35.00586,-31.0957 4.32865,9.77852 8.02687,19.88207 11.42578,30.125 l -11.92774,24.3125 c -24.7992,50.54129 -52.0727,85.94709 -85.75586,111.32813 -39.94696,30.10092 -108.91071,44.49881 -170.4043,35.57812 -59.77462,-8.67131 -145.8813,-11.56953 -172.99219,-5.82422 -32.49373,6.88604 -76.95145,32.14274 -101.50976,57.66993 -15.49706,16.10831 -13.783,16.16006 5.86523,0.17773 14.41167,-11.72279 45.5264,-27.2193 73.9043,-36.80859 29.52809,-9.978 70.44795,-10.50714 144.28906,-1.86719 43.80075,5.12502 67.81071,6.71371 100.88477,6.67969 40.60002,-0.0416 44.84465,-0.46878 65.69336,-6.61524 38.29967,-11.29128 71.61539,-32.84656 104.0293,-67.30273 19.67713,-20.91689 28.86096,-34.07088 45.59765,-65.31836 6.5334,-12.19793 9.7249,-18.13269 11.79883,-17.70508 5.05242,23.21713 7.83399,47.28829 7.83399,72.03516 0,5.92562 -0.22962,11.79437 -0.53516,17.64257 -7.48005,32.09844 -44.49263,79.20441 -73.48633,107.63868 -25.61953,25.12521 -64.17534,44.42285 -85.57864,50.19295 -38.64026,12.91713 -72.99509,-1.10559 -158.8525,-22.67569 -93.06056,-15.88908 -142.52748,-5.37251 -189.70122,30.44437 -13.91941,10.56841 -21.39916,18.76731 -11.15625,12.22852 31.25145,-19.95016 49.75358,-28.48554 71.77344,-33.10938 32.37548,-6.79833 62.11824,-10.45868 115.00786,-1.78226 64.57825,10.59388 76.63647,38.01258 131.05371,37.176 69.55213,-6.72237 117.68355,-39.07989 155.04735,-77.47449 15.06238,-15.47793 29.54404,-27.41304 36.45948,-41.09956 l 4.17968,-8.27148 c -11.40588,59.26789 -38.64688,106.26298 -76.67236,150.03315 17.82988,-3.9122 35.74248,-7.94216 53.92383,-12.22852 40.42266,-59.56266 64.0664,-131.40735 64.0664,-208.71484 0,-205.49101 -166.9621,-372.46095 -372.45312,-372.46095 z m -0.0879,35.58008 c 4.02243,0 7.88058,0.0785 11.71875,0.16992 55.74105,1.88554 108.0123,17.25938 153.66602,42.97461 -0.20748,2.03353 -18.06399,17.16645 -29.30664,24.82032 -10.28317,7.00063 -45.99722,21.80624 -61.5918,25.5332 -20.55673,4.91286 -63.63594,4.2703 -86.84961,-1.29492 -49.86027,-11.95345 -119.56876,-15.14771 -155.78516,-7.13867 -19.5135,4.31527 -41.28211,13.15541 -38.71484,15.72265 0.67455,0.67456 7.37521,-0.71814 14.89063,-3.0957 11.31699,-3.58023 20.92036,-4.28298 55.89648,-4.08984 40.39213,0.22305 44.52936,0.69913 95.01953,10.9375 29.03367,5.88742 57.69483,11.28991 63.69141,12.00586 25.39509,3.03196 74.43611,-6.84691 104.27735,-21.00782 20.94533,-9.93941 46.56479,-26.85101 52.91796,-34.92773 1.91193,-2.43062 3.97138,-4.52128 5.2793,-5.44336 23.25349,15.28953 44.49615,33.37497 63.2461,53.79297 0.80812,2.42152 -0.4281,5.21087 -4.53907,11.80078 -16.25367,26.05483 -52.89291,59.37491 -80.89843,73.56641 -37.7883,19.14879 -108.33766,24.57244 -180.83985,13.90429 -35.64923,-5.24549 -94.19175,-7.05691 -115.73242,-3.58203 -21.10517,3.40463 -55.04716,14.06955 -72.24415,22.70117 -33.31423,16.72133 -69.38397,47.86543 -88.378903,76.31055 -13.811515,20.68293 -11.721973,21.49717 4.113283,1.60352 25.01244,-31.42282 51.61376,-52.20035 93.89844,-73.33985 34.80799,-17.40166 52.11561,-20.88249 103.59375,-20.83789 23.87211,0.0207 50.26678,1.22631 58.6543,2.67969 34.58172,5.99216 88.30817,10.21381 111.0957,8.72852 32.23677,-2.10123 71.51012,-12.48651 96.9336,-25.63086 29.65366,-15.33146 62.66643,-45.44786 76.625,-69.9004 2.33573,-4.09172 4.68528,-7.46997 5.84375,-8.51757 17.50276,20.53425 32.7267,43.06941 44.93945,67.42968 6.5e-4,0.001 9.5e-4,0.003 0.002,0.004 v 0.002 c 0.0213,0.14467 0.0586,0.31186 0.0586,0.42774 0,1.82437 -14.32552,17.55673 -31.83399,34.95898 -36.88709,36.66329 -47.33916,49.24003 -73.53125,88.47852 -24.21537,36.27722 -34.38366,43.82995 -65.9043,48.95313 -17.50491,2.84514 -62.26603,1.27477 -102.05859,-3.58204 -92.52488,-11.29288 -115.75674,-12.21373 -157.01368,-6.2207 -14.09625,2.04767 -26.11632,3.72266 -26.71093,3.72266 -3.28766,0 12.94042,-10.40262 24.4414,-15.66797 10.84111,-4.96324 18.68698,-6.47423 41.0293,-7.90039 15.19392,-0.96983 34.29149,-0.87306 42.43945,0.21484 42.64655,5.69409 108.65038,10.44922 145.02735,10.44922 37.90741,0 41.97759,-0.41579 53.06445,-5.43359 14.94646,-6.76462 22.91204,-15.08631 38.07813,-39.7793 l 11.91797,-19.4043 -11.0586,6.31836 c -6.08275,3.47528 -12.13355,7.11754 -13.44531,8.09375 -6.88719,5.12534 -41.30628,14.16224 -62.05078,16.29102 -26.72203,2.74217 -69.23875,0.30481 -127.66211,-7.31836 -48.29795,-6.30203 -83.98836,-7.99608 -101.17188,-4.80274 -29.55608,5.49275 -67.93622,30.79586 -98.53906,64.96485 -10.32308,11.52602 -19.33005,21.4837 -20.01563,22.1289 -12.64747,11.90243 -46.15968,59.39134 -62.50195,88.56836 -3.307669,5.90541 -6.302375,10.96321 -7.830079,13.28125 -5.252817,-10.95123 -9.877116,-22.25729 -13.9375,-33.83007 2.00515,-16.87265 32.822409,-81.10866 48.695309,-100.86524 15.67532,-19.51064 41.40097,-45.00787 55.88086,-55.38477 18.1485,-13.00599 53.39763,-25.91848 82.88282,-30.36328 28.5511,-4.30448 57.30122,-4.29656 99.30859,0.0293 18.3513,1.8898 39.17243,4.02273 46.26953,4.74023 33.85151,3.42225 84.65738,4.12591 98.67969,1.36719 15.22879,-2.99611 54.89328,-21.40149 78.72461,-36.5293 15.9559,-10.12858 34.44172,-24.7204 33.0625,-26.09961 -0.51976,-0.51977 -11.92702,5.27015 -25.34961,12.86524 -13.42257,7.59509 -34.96139,17.78558 -47.86523,22.64648 -21.15485,7.96906 -26.23136,8.94647 -51.61719,9.9375 -34.25272,1.33713 -92.19432,-2.45141 -134.90234,-8.82031 -99.774,-14.87905 -164.02824,3.29447 -222.88673,63.04297 -26.41356,26.813 -41.121852,48.30835 -57.781246,84.43945 -6.016151,13.04793 -11.209173,23.86331 -12.726563,26.58008 -6.149815,-25.4876 -9.431641,-52.10252 -9.431641,-79.49804 0,-6.89925 0.231284,-13.74346 0.638672,-20.53907 1.007105,-7.19823 2.339252,-13.54653 4.048828,-18.04883 12.875571,-33.90863 55.42994,-89.904 83.90235,-110.40429 44.28824,-31.8878 80.68501,-40.801 157.92773,-38.67188 28.63618,0.78933 57.15922,3.06528 76.25,6.08203 16.775,2.65081 37.64681,5.90024 46.38086,7.22266 52.68383,7.97683 117.90549,-6.05228 153.66993,-33.05469 9.39513,-7.09338 12.74188,-10.70738 10.75,-10.36914 -1.54924,0.26308 -6.32731,2.9169 -14.00782,8.18359 -27.65667,18.96489 -67.71607,29.08857 -114.67969,28.98047 -31.37574,-0.0722 -44.41705,-1.63605 -96.18945,-11.52929 -15.58571,-2.9783 -34.01811,-4.07119 -70.38477,-4.17188 -42.37283,-0.11734 -53.04337,0.61826 -76.22265,5.25391 -29.78956,5.95761 -57.17904,18.31624 -82.07813,37.0332 -24.4298,18.36422 -50.349993,48.67854 -69.808594,81.64258 l -3.71875,6.29883 c 18.422643,-92.8779 74.930814,-171.91469 152.615184,-220.2189 0.002,-10e-4 0.004,-0.003 0.006,-0.004 0.004,-0.002 0.008,-0.004 0.0117,-0.006 0.0498,-0.0236 0.10375,-0.0528 0.15234,-0.0742 11.18851,-4.92698 64.25449,-5.29012 132.57618,-0.9082 44.43284,2.84975 50.44845,2.77493 66.63476,-0.82617 19.40202,-4.31655 47.36712,-14.13756 51.09961,-17.94532 0.48313,-0.49286 0.3404,-0.70427 -0.29687,-0.66406 h -0.002 c -1.06699,0.0688 -3.51316,0.84197 -6.73829,2.1875 -26.34532,10.99136 -64.67854,12.94757 -140.76953,7.1875 -28.65032,-2.16882 -51.2824,-2.70432 -63.3457,-1.5 -10.32308,1.03059 -19.14058,1.57052 -19.59375,1.19922 -0.003,-0.002 -0.003,-0.006 -0.006,-0.008 43.96759,-23.37029 93.74445,-37.28124 146.64258,-39.04493 3.72625,-0.0842 7.45755,-0.16406 11.3789,-0.16406 z m 336.43946,355.76173 c -0.40921,7.32375 -1.00827,14.59642 -1.87109,21.78906 0.86848,-7.1907 1.46605,-14.46384 1.87109,-21.78906 z m -1.90625,22.09765 c -0.84702,7.00658 -1.55852,20.64749 -2.82763,27.51373 1.26939,-6.86568 1.97516,-20.50967 2.82763,-27.51373 z m -657.541022,54.9375 c 1.477724,4.99612 3.096661,9.93161 4.796875,14.82813 -1.698074,-4.89773 -3.318939,-9.83087 -4.796875,-14.82813 z M 331.87011,794.33398 c -0.19201,0.066 -0.39224,0.11496 -0.58398,0.18164 -18.58265,6.46241 -26.58362,12.02375 -10.20899,7.0957 2.42578,-0.73006 5.06739,-1.38451 7.79297,-2.00976 1.03091,-1.63447 2.02303,-3.40902 3,-5.26758 z"
     transform="matrix(0.26458333,0,0,0.26458333,3.0667402,-1.9471639)"
     sodipodi:nodetypes="ssccccccscccsssssscsssacssscccssscssssssssssssscccssssssscssscscsccsssscsccccsssccsssssssssssccssssssssscssscsccsssssssssssssccssscsssccsscssssssssssscscssssssssssssscccsccsssccssscccsccccccccsssscccs" /><path
     id="path4240"
     style="color:#000000;display:inline;fill:#ffffff;stroke-width:8.48953;stroke-linecap:round;stroke-linejoin:round;-inkscape-stroke:none"
     inkscape:label="outline outline"
     d="m 67.19219,80.233664 c -0.527053,-0.01117 -1.054999,0.02678 -1.577158,0.114064 -3.198756,0.533746 -5.829971,2.865723 -6.745879,5.976677 -7.193956,24.427835 -9.809954,33.878045 -13.812747,38.587365 -2.952639,3.4738 -8.713455,6.67189 -20.486971,12.78544 a 130.87732,130.87732 0 0 0 5.447301,2.00563 c 9.591844,-4.98471 14.921877,-8.09828 18.274416,-12.04256 5.061235,-5.95456 7.470393,-15.7578 14.64995,-40.136738 1.642976,-5.166372 10.038683,-2.825261 11.248494,1.128944 1.98054,11.849064 3.303606,20.888584 4.886485,29.488544 35.209069,-7.47985 65.357139,-13.10471 96.721399,-20.142583 a 130.87732,130.87732 0 0 0 4.7227,-6.240633 C 147.51078,98.582856 117.56148,105.62519 82.537494,113.06663 81.246471,105.639 80.073832,98.10476 78.377072,87.953477 77.803592,84.51781 75.156966,81.759229 71.748181,81.043082 l -0.685848,-0.144774 c -0.191935,-0.01159 -0.384435,-0.01013 -0.576171,0.0044 -0.196391,-0.06939 -0.374878,-0.183525 -0.576171,-0.238365 -0.07816,-0.02126 -0.156919,-0.03955 -0.236171,-0.0563 l -0.905934,-0.19157 -0.0044,-0.0022 c -0.51782,-0.109358 -1.044253,-0.169435 -1.571309,-0.180602 z"
     transform="matrix(0.70675259,0,0,0.70675259,54.643496,121.1825)" /><path
     id="path3478"
     style="display:inline;opacity:1;fill:#ffffff;fill-opacity:1;stroke:none;stroke-width:0.264583px;stroke-linecap:butt;stroke-linejoin:miter;stroke-opacity:1"
     inkscape:label="canon"
     d="M 67.013782,88.721949 C 52.698676,137.33039 57.802653,129.88299 13.6858,152.90505 l 0.252989,1.67587 c 9.741685,-4.47682 15.121934,-6.6173 21.335872,-9.50975 l 3.492122,11.50002 c -6.399801,0.52657 -14.627238,2.04264 -24.050017,3.16309 l 0.227397,1.5077 c 40.403705,-3.57292 43.789977,-7.92512 80.385348,21.55157 l 1.14503,-2.03561 -15.958764,-14.92707 4.418529,-3.87526 12.41619,17.24638 0.797719,-1.4185 c -4.976958,-8.19477 -8.820158,-15.30068 -11.867804,-21.82064 l -15.391368,5.73392 -11.175376,-5.20235 0.922751,-0.23617 10.330861,4.80898 45.383701,-16.90711 -6.68227,1.24959 c -0.29964,-0.15829 -0.6007,-0.31641 -0.89424,-0.47527 0.77867,-1.71404 1.53489,-3.35423 2.25131,-4.85577 1.8517,1.02059 3.8014,2.06142 5.87943,3.13603 -0.16021,0.3576 -0.33191,0.75595 -0.49428,1.1209 1.96134,-0.46203 3.96141,-0.94651 5.98838,-1.44481 -0.46761,-0.237 -0.94975,-0.47312 -1.41191,-0.71071 0.96374,-2.11786 1.87698,-4.06291 2.74851,-5.86261 1.84843,0.99163 3.81014,2.00882 5.88089,3.05487 -0.2805,0.63505 -0.56139,1.27015 -0.84671,1.92082 2.33779,-0.59743 4.72436,-1.21706 7.18459,-1.8689 -0.75648,-0.37014 -1.52079,-0.73969 -2.26301,-1.1114 0.99008,-2.21139 1.92767,-4.25041 2.81798,-6.12584 2.61208,1.1902 5.39432,2.40191 8.44295,3.67419 -0.18438,0.41228 -0.38132,0.86821 -0.56886,1.29127 2.11536,-0.57949 4.34755,-1.20542 6.57186,-1.82722 -0.60649,-0.24415 -1.21531,-0.48738 -1.8148,-0.73265 0.81889,-1.79915 1.60587,-3.49144 2.3566,-5.05685 2.17624,0.9526 4.49498,1.92438 6.96597,2.92692 -0.13656,0.27967 -0.27825,0.57889 -0.41531,0.8606 1.9378,-0.55138 3.8461,-1.09201 5.87357,-1.67587 -0.33738,-0.1326 -0.68076,-0.26322 -1.01561,-0.3963 1.15101,-2.1734 2.27611,-4.22695 3.37294,-6.11925 1.90127,0.66997 3.87418,1.3403 5.98545,2.02244 -0.46272,0.79979 -0.92022,1.62758 -1.37535,2.4714 3.0856,-0.89864 6.30264,-1.84241 9.60773,-2.81651 -1.09281,-0.33043 -2.186,-0.66069 -3.25376,-0.99807 1.07454,-1.66697 2.15653,-3.23184 3.24717,-4.71246 2.58269,1.06106 5.34274,2.13336 8.33474,3.24791 1.45289,-0.43152 2.95036,-0.87767 4.44631,-1.32344 -3.82729,-1.39512 -7.49703,-2.82508 -10.96845,-4.30666 1.80391,-2.28452 3.63434,-4.3743 5.49849,-6.35177 1.72192,0.80104 3.53676,1.59395 5.4356,2.39023 -0.34485,-1.1013 -0.65321,-2.31298 -0.90886,-3.62081 -0.77114,-0.35184 -1.54169,-0.70317 -2.29225,-1.06094 0.6106,-0.61402 1.22961,-1.21602 1.84989,-1.81699 -0.20368,-1.48812 -0.36551,-2.8867 -0.4431,-4.14653 -1.60389,1.45141 -3.15406,2.89991 -4.64227,4.3732 -2.12907,-1.08086 -4.17865,-2.18664 -6.13607,-3.32395 1.74252,-1.9577 3.56419,-3.89707 5.49263,-5.9021 -1.94619,0.384441 -3.98586,0.78389 -5.85091,1.156 -0.92905,0.9872 -1.82567,1.95381 -2.68709,2.90571 -0.94519,-0.59275 -1.85987,-1.19672 -2.76021,-1.80602 -1.42352,0.28725 -2.89114,0.5808 -4.26791,0.86134 1.63737,1.17282 3.2677,2.27931 4.91939,3.32687 -2.00029,2.31185 -3.85192,4.615 -5.6301,7.07564 -2.36607,-1.27598 -4.62086,-2.58827 -6.75685,-3.94399 1.10854,-1.73155 2.38559,-3.7167 3.64348,-5.67397 -1.30938,0.26949 -2.56261,0.53163 -3.83066,0.79553 -0.79427,1.10236 -1.56458,2.18612 -2.29883,3.24644 -1.03137,-0.70134 -2.02794,-1.41655 -3.00004,-2.1409 -1.41448,0.29941 -2.73297,0.58776 -4.09754,0.88108 1.79508,1.37345 3.56253,2.65683 5.33251,3.85698 -1.54323,2.32111 -3.00358,4.65948 -4.44924,7.15169 -2.59641,-1.25999 -5.06754,-2.56947 -7.39883,-3.93888 1.30839,-2.08015 2.7167,-4.26175 4.20941,-6.57405 -1.33521,0.28963 -2.70287,0.58326 -3.99298,0.86791 -0.98297,1.38879 -1.9237,2.75147 -2.8304,4.11143 -1.33593,-0.84766 -2.61556,-1.72104 -3.85479,-2.61324 -1.547,0.35271 -3.068,0.70277 -4.55599,1.05071 -1.3896,1.90139 -2.69663,3.72873 -3.92791,5.52261 -1.61315,-1.13074 -3.15371,-2.28667 -4.62106,-3.47018 -1.32856,0.32787 -2.63629,0.65531 -3.92718,0.9827 -1.55022,2.12951 -2.9779,4.15649 -4.33956,6.17556 -1.31507,-0.9052 -2.58385,-1.82476 -3.8058,-2.76021 0.308,-0.47892 0.66996,-1.0547 0.98856,-1.5523 -1.31308,0.35103 -2.5922,0.70678 -3.87892,1.06168 l 3.2618,-1.12456 -53.902687,11.45176 -2.750704,4.78339 -0.824042,0.21351 3.129456,-5.44218 14.129349,-3.0015 C 73.621948,113.06696 72.221187,102.6276 70.00212,89.351496 l -0.685117,-0.144043 3.783132,31.162217 -8.164371,-4.0778 2.983951,-27.379083 z M 178.56939,107.56961 c 1.91709,1.12054 3.89722,2.18446 5.96644,3.22159 -1.94804,2.04772 -3.80557,4.17439 -5.58988,6.45267 -2.00044,-0.90346 -3.93052,-1.82689 -5.80119,-2.76898 1.77612,-2.4597 3.56981,-4.71879 5.42463,-6.90528 z m -40.2296,3.60034 c 1.46654,1.01367 2.91461,1.97464 4.35199,2.87866 -1.19967,1.88689 -2.36254,3.82815 -3.52283,5.87504 -1.59401,-0.93732 -3.12567,-1.89395 -4.60863,-2.86696 1.18336,-1.85573 2.43574,-3.8053 3.77947,-5.88674 z m 23.09656,0.31075 c 2.15291,1.36667 4.35333,2.64216 6.65083,3.86502 -1.24513,1.84846 -2.47443,3.80765 -3.72026,5.94524 -2.4384,-0.95836 -4.77709,-1.95167 -7.0325,-2.97591 1.35474,-2.38058 2.7001,-4.60034 4.10193,-6.83435 z m -35.74526,3.06072 c 1.54425,1.2109 3.08309,2.35416 4.6313,3.43875 -1.244,1.89112 -2.43817,3.80864 -3.61716,5.81216 -1.72386,-0.99803 -3.39153,-2.01155 -4.99104,-3.04537 1.24226,-1.96442 2.56814,-4.02542 3.9769,-6.20554 z m 19.67609,1.13407 c 2.45131,1.44172 4.92208,2.76609 7.51069,4.00541 -1.01011,1.83467 -2.02698,3.7709 -3.07388,5.86554 -2.73211,-1.31047 -5.35162,-2.65015 -7.83827,-4.02808 1.13943,-2.05133 2.26017,-3.97167 3.40146,-5.84287 z m -34.82471,0.80795 c 0.32232,0.26308 0.64502,0.53052 0.96589,0.78602 -1.30959,1.8012 -2.53152,3.52959 -3.70197,5.24404 -1.40568,-1.09099 -2.76046,-2.1936 -4.05001,-3.31372 0.0966,-0.1504 0.20274,-0.31733 0.30709,-0.48185 z m 60.81967,0.5345 c 1.8261,0.89651 3.73662,1.77821 5.75074,2.65418 -1.14731,1.58183 -2.26449,3.24626 -3.35905,5.0064 -2.03943,-0.68026 -4.03744,-1.37267 -5.97083,-2.08606 1.20689,-1.9901 2.39505,-3.83528 3.57914,-5.57452 z m -57.68948,1.93032 c 1.25235,0.94774 2.50701,1.86673 3.77947,2.74119 -1.12645,1.74851 -2.2207,3.52675 -3.30274,5.39247 -1.34909,-0.90742 -2.66543,-1.82141 -3.9301,-2.74705 1.08592,-1.70869 2.23958,-3.50844 3.45337,-5.38661 z m 19.20375,0.76262 c 1.55516,1.01836 3.14331,1.99772 4.78412,2.94446 -0.92785,1.72174 -1.86769,3.54229 -2.83333,5.49629 -1.83616,-0.91609 -3.61343,-1.84671 -5.33616,-2.79091 1.1197,-1.95015 2.2348,-3.80354 3.38537,-5.64984 z m -32.925101,0.42481 c -1.552451,2.1271 -2.987814,4.15382 -4.349067,6.16167 -1.367997,-1.08863 -2.671466,-2.19201 -3.925713,-3.3086 z m 55.870301,0.89863 c 2.22826,0.98588 4.57919,1.93162 7.07125,2.86696 -1.0322,1.86539 -2.09074,3.88376 -3.1821,6.05199 -2.39152,-0.99006 -4.70822,-1.99554 -6.94768,-3.01978 1.06233,-2.14305 2.07265,-4.0842 3.05853,-5.89917 z m -53.77839,0.82916 c 1.32173,1.13238 2.65759,2.21796 4.01638,3.26618 -1.28965,1.97335 -2.52991,3.9746 -3.75608,6.08489 -1.47861,-1.01004 -2.917617,-2.02835 -4.293498,-3.05999 1.258777,-1.988 2.600808,-4.07395 4.033198,-6.29108 z m 18.00388,1.54791 c 1.65065,1.05933 3.34516,2.07884 5.11388,3.07608 -0.98349,1.76084 -1.97337,3.62171 -2.98468,5.61474 -1.84345,-1.07597 -3.62292,-2.16285 -5.34201,-3.26107 1.06964,-1.89281 2.13013,-3.66887 3.21281,-5.42975 z m 20.44602,0.82111 c 2.49577,1.34266 5.13454,2.65089 8.01229,3.96812 -0.77517,1.60649 -1.57621,3.31762 -2.40266,5.12632 -2.88719,-1.22545 -5.66942,-2.47072 -8.3362,-3.74073 0.9449,-1.92785 1.84923,-3.70029 2.72657,-5.35371 z m -53.650431,0.42336 c -0.962597,1.33783 -1.893476,2.65052 -2.779951,3.94399 -0.839093,-0.70894 -1.644277,-1.42565 -2.434834,-2.14602 z m 2.833328,0.75896 c 1.380561,1.21756 2.770827,2.38488 4.187476,3.50529 -1.038824,1.60257 -2.0493,3.23337 -3.045371,4.92377 -1.530231,-1.09953 -2.994162,-2.21166 -4.407561,-3.33492 1.029665,-1.6182 2.121166,-3.32357 3.265456,-5.09414 z m 18.871063,1.57204 c 1.31868,0.95304 2.66328,1.88894 4.06902,2.80774 -1.03393,1.87763 -2.07473,3.86066 -3.14773,6.01177 -1.547,-0.92949 -3.03648,-1.86836 -4.49311,-2.81358 1.18662,-2.09708 2.36255,-4.05468 3.57182,-6.00593 z m -29.938224,0.98125 c 1.223467,1.12924 2.454107,2.20628 3.699046,3.25083 -1.226365,1.8681 -2.406377,3.76288 -3.570358,5.7427 -1.365372,-0.99603 -2.678556,-2.00254 -3.94838,-3.01832 1.198463,-1.90974 2.478221,-3.89945 3.819692,-5.97521 z m 49.382524,0.0651 c 1.75454,0.92771 3.60308,1.84608 5.54382,2.77045 -0.89151,1.86624 -1.81838,3.87559 -2.78215,6.01616 -1.97482,-1.02377 -3.8839,-2.05589 -5.74269,-3.09582 1.03078,-2.05658 2.01747,-3.93415 2.98102,-5.69079 z m -53.457398,0.86645 c -0.728088,1.03719 -1.442943,2.06776 -2.124813,3.08851 -0.657376,-0.56015 -1.295725,-1.12493 -1.924469,-1.69195 z m 21.806753,1.91643 c 1.429715,1.05924 2.894357,2.09331 4.426575,3.11045 -0.845087,1.53193 -1.698331,3.15338 -2.565718,4.86016 -1.635906,-1.02597 -3.22517,-2.05895 -4.755604,-3.1024 0.960472,-1.6785 1.918631,-3.2838 2.894747,-4.86821 z m 19.010715,0.71363 c 1.73797,1.06995 3.57301,2.13683 5.50872,3.2172 -0.8993,1.83942 -1.82576,3.79632 -2.79238,5.90721 -1.9811,-1.05463 -3.91151,-2.11546 -5.77268,-3.18648 1.0616,-2.15301 2.07391,-4.1179 3.05634,-5.93793 z m -47.269412,0.82989 c 0.860455,0.77794 1.726708,1.53558 2.598618,2.27252 -0.867251,1.3613 -1.714155,2.75336 -2.554747,4.18528 -0.914716,-0.75121 -1.804984,-1.5065 -2.671737,-2.2652 0.847169,-1.39041 1.735519,-2.79054 2.627866,-4.1926 z m -3.650058,0.0234 c -0.453066,0.68146 -0.899204,1.36388 -1.339524,2.05097 -0.355144,-0.33113 -0.690169,-0.66586 -1.035353,-0.9988 l 1.377546,-0.70851 z m 20.290283,0.79772 c 1.465404,1.15302 2.976138,2.27273 4.54283,3.37075 -0.972104,1.7386 -1.951011,3.57551 -2.949586,5.53943 -1.709666,-1.08095 -3.366335,-2.1704 -4.958872,-3.27131 1.115153,-1.95323 2.225248,-3.80194 3.365628,-5.63887 z m -25.614745,1.77165 c 0.758923,0.74479 1.521248,1.47832 2.293715,2.18989 -0.01032,0.017 -0.02039,0.0349 -0.03071,0.0519 -0.853662,1.40513 -1.69545,2.8471 -2.538662,4.35858 -0.723103,-0.63072 -1.423527,-1.26557 -2.113845,-1.90181 0.09526,-1.1616 0.305795,-2.41671 0.640515,-3.79848 z m 44.381982,0.72826 c 1.48357,0.92791 3.05144,1.85526 4.67736,2.78946 -0.73676,1.52971 -1.49752,3.15772 -2.28055,4.86966 -1.67864,-0.94169 -3.30826,-1.8901 -4.89599,-2.84356 0.85908,-1.71363 1.68993,-3.31818 2.49918,-4.81556 z m -30.364505,0.95127 c 1.315439,1.04186 2.662434,2.05847 4.055132,3.05195 -0.765553,1.37254 -1.535898,2.80272 -2.315651,4.31031 -1.454406,-1.04613 -2.852105,-2.09928 -4.211605,-3.15724 0.824157,-1.44949 1.642583,-2.84005 2.472124,-4.20502 z m 18.818415,1.73875 c 1.564166,1.0312 3.199388,2.0601 4.923044,3.09436 -0.828267,1.69269 -1.674949,3.46813 -2.559134,5.3888 -1.791284,-1.00681 -3.521825,-2.02113 -5.208936,-3.04171 0.981912,-1.95802 1.92508,-3.75813 2.845026,-5.44145 z m -28.126353,0.9286 c 0.892899,0.77 1.798712,1.53014 2.730962,2.27836 -0.774836,1.39221 -1.55477,2.84915 -2.344899,4.38124 -0.977045,-0.75554 -1.928649,-1.51518 -2.856725,-2.27763 0.834616,-1.53832 1.652571,-2.98235 2.470662,-4.38197 z m 16.028958,2.22571 c 1.628567,1.09104 3.325142,2.17435 5.12485,3.26326 -0.70761,1.44585 -1.429569,2.95515 -2.176727,4.56477 -1.801252,-1.14997 -3.553259,-2.30354 -5.238915,-3.46361 0.783191,-1.5407 1.546053,-2.99811 2.290792,-4.36442 z m 19.850842,1.60275 c 1.589083,0.91326 3.259143,1.84329 5.015903,2.79531 -0.0645,0.14403 -0.13208,0.29909 -0.19888,0.45114 l -6.961577,1.3015 c 0.741566,-1.60887 1.458003,-3.12981 2.144554,-4.54795 z m -30.569961,0.45407 c 1.386284,1.04536 2.843643,2.08457 4.359303,3.12945 -0.693239,1.39619 -1.406605,2.88311 -2.13505,4.43242 -1.551992,-1.05901 -3.051985,-2.12345 -4.50627,-3.19307 0.779875,-1.54055 1.541582,-3.00387 2.282017,-4.3688 z m -12.15589,0.52498 c 0.107342,0.0928 0.212426,0.18766 0.320257,0.28005 -0.05725,0.10799 -0.115931,0.22534 -0.17329,0.33415 -0.05326,-0.20321 -0.102717,-0.40778 -0.146967,-0.6142 z m 30.825144,2.35441 c 1.289276,0.74591 2.660234,1.5077 4.066099,2.27836 l -5.64472,1.05582 c 0.537326,-1.14971 1.069371,-2.28232 1.578621,-3.33418 z m -27.947946,0.0446 c 0.951135,0.76213 1.927012,1.51612 2.932769,2.26666 -0.450103,0.90998 -0.914059,1.88181 -1.379008,2.85746 l -0.860601,-0.01 c -0.679372,-1.02239 -1.278034,-1.98902 -1.792856,-2.93496 0.36808,-0.73361 0.742413,-1.48997 1.099696,-2.17965 z m 16.376269,2.0495 c 1.196195,0.78762 2.463719,1.59177 3.764122,2.40486 l -4.444852,0.83135 -0.859138,-0.01 c 0.524042,-1.11301 1.044225,-2.21471 1.539868,-3.2267 z m -10.754215,2.16576 c 0.144944,0.10228 0.28881,0.20475 0.435053,0.3071 l 0.0029,-0.009 c 0.320136,0.22382 0.644169,0.44809 0.97174,0.67269 l -1.86305,-0.0212 c 0.149245,-0.31033 0.306794,-0.64913 0.453333,-0.9498 z"
     transform="matrix(0.70675259,0,0,0.70675259,54.643496,121.1825)" /></svg>
