<?xml version="1.0" encoding="UTF-8" standalone="no"?>
<!-- Created with Inkscape (http://www.inkscape.org/) -->

<svg
   width="197.09184mm"
   height="215.88193mm"
   viewBox="0 0 197.09184 215.88193"
   version="1.1"
   id="svg5"
   xml:space="preserve"
   inkscape:version="1.2.2 (732a01da63, 2022-12-09)"
   sodipodi:docname="giants-deep_v2_wip.svg"
   inkscape:export-filename="giants-deep_v2_white.png"
   inkscape:export-xdpi="386.62177"
   inkscape:export-ydpi="386.62177"
   xmlns:inkscape="http://www.inkscape.org/namespaces/inkscape"
   xmlns:sodipodi="http://sodipodi.sourceforge.net/DTD/sodipodi-0.dtd"
   xmlns="http://www.w3.org/2000/svg"
   xmlns:svg="http://www.w3.org/2000/svg"><sodipodi:namedview
     id="namedview7"
     pagecolor="#505050"
     bordercolor="#ffffff"
     borderopacity="1"
     inkscape:showpageshadow="0"
     inkscape:pageopacity="0"
     inkscape:pagecheckerboard="1"
     inkscape:deskcolor="#505050"
     inkscape:document-units="mm"
     showgrid="false"
     inkscape:zoom="0.4204826"
     inkscape:cx="-221.17443"
     inkscape:cy="475.64393"
     inkscape:window-width="1920"
     inkscape:window-height="1009"
     inkscape:window-x="-8"
     inkscape:window-y="-8"
     inkscape:window-maximized="1"
     inkscape:current-layer="svg5" /><defs
     id="defs2" /><path
     id="path7593"
     style="display:inline;opacity:1;fill:#ffffff;fill-opacity:1;stroke-width:0.621001;stroke-dasharray:none"
     inkscape:label="planet"
     d="M 98.546956,-1.2470838e-6 C 44.177456,-1.2470838e-6 1.3644844e-6,44.177462 6.4484453e-8,98.546959 -2.3551555e-7,139.28446 24.802789,174.2966 60.110027,189.29387 c 4.682027,-2.4071 8.314793,-4.25196 11.25099,-5.85235 -5.936482,-1.89611 -11.616316,-4.36274 -16.937465,-7.3949 l 2.616956,-4.1056 c 2.826372,-3.60614 4.481153,-4.90035 8.811882,-8.01277 4.705948,-2.80631 8.107349,-3.97449 16.484756,-6.63391 -6.174994,-1.54228 -15.093283,1.38866 -17.916099,3.11503 -4.315317,2.63914 -8.072295,4.87081 -11.499212,7.92557 l -4.33152,4.01888 c -5.662316,-3.83651 -10.887234,-8.26719 -15.515849,-13.27154 0.418166,-2.17199 7.318393,-11.58115 11.984283,-16.27239 5.507776,-5.53772 5.841764,-5.7611 11.874727,-7.93698 9.092854,-3.27949 20.067651,-4.58076 30.975369,-3.67316 4.472331,0.37212 11.623861,0.96462 15.891535,1.31671 8.45148,0.69725 23.57292,2.62053 28.99979,2.05932 9.91879,-1.02574 21.48675,-5.81194 26.24749,-8.46048 3.67668,-2.04545 18.63513,-16.43226 18.60403,-17.89296 -0.003,-0.11937 -0.0555,-0.17742 -0.14883,-0.17984 -0.27985,-0.007 -0.92555,0.48584 -1.68672,1.3224 -3.11613,3.42477 -11.44427,10.51861 -14.70142,12.52275 -4.05514,2.49516 -9.81923,5.66325 -15.21923,7.18253 -7.33169,2.06275 -14.93275,2.445 -22.71695,2.45307 -8.67409,-0.43686 -13.3778,-1.65319 -23.723624,-2.512 -19.855819,-1.64823 -28.400408,-1.50186 -36.624642,0.62683 -7.864435,2.03557 -11.525633,3.667 -16.472897,7.33961 -4.919623,3.65209 -11.915357,12.03869 -14.856457,17.81028 l -0.797367,1.56528 c -4.059494,-4.75978 -7.65714,-9.92509 -10.652064,-15.47399 0.460891,-1.99752 3.962635,-9.26162 6.32623,-13.02712 6.218634,-9.90701 16.657126,-22.25912 24.20989,-28.647341 6.459019,-5.46312 8.296029,-6.56311 14.41514,-8.63255 5.945627,-2.01076 11.051186,-2.16347 22.657533,-0.67851 21.327378,2.72867 38.819338,3.41641 48.032218,1.88826 3.03068,-0.5027 5.66206,-0.76236 5.8477,-0.57671 0.66471,0.66471 -2.61819,3.45041 -4.79454,4.06848 -1.2203,0.34657 -5.78187,0.90862 -10.13685,1.24902 -8.29796,0.64862 -23.85679,-0.1877 -40.810946,-2.19366 -10.847252,-1.28342 -13.963229,-1.18266 -19.525424,0.63303 -8.067188,2.6334 -11.594148,4.9404 -15.17065,9.921881 -2.012807,2.80351 -2.04025,2.91293 -0.620633,2.47427 0.817057,-0.25249 2.243182,-0.84388 3.168798,-1.31465 7.672594,-3.90233 28.364643,-4.30286 51.391185,-0.99477 10.39788,1.49378 28.32553,1.45812 32.96388,-0.0656 5.39282,-1.77162 9.00979,-4.93214 13.99398,-12.228201 7.83052,-11.46266 9.67785,-13.62989 18.8283,-22.08702 4.65854,-4.30556 8.63266,-7.831422 9.26197,-8.227406 1.14529,2.587234 2.12378,5.260466 3.02307,7.970576 l -3.15588,6.43268 c -6.56145,13.37238 -13.77757,22.74017 -22.68957,29.455571 -10.5693,7.9642 -28.81596,11.77364 -45.08614,9.41337 -15.815374,-2.29428 -38.597762,-3.0611 -45.770851,-1.54099 -8.5973,1.82193 -20.360071,8.50444 -26.857791,15.2585 -4.100263,4.262 -3.646752,4.27569 1.551842,0.047 3.813088,-3.10166 12.045527,-7.20177 19.553846,-9.73894 7.812641,-2.64001 18.639353,-2.78001 38.17648,-0.49403 11.588954,1.356 17.941584,1.77634 26.692434,1.76734 10.74209,-0.011 11.86515,-0.12403 17.38137,-1.75029 10.13345,-2.98748 18.94823,-8.69065 27.52442,-17.80718 5.20624,-5.534261 7.63612,-9.014581 12.06437,-17.282141 1.72863,-3.22737 2.57305,-4.79761 3.12178,-4.68447 1.33678,6.14286 2.07274,12.51169 2.07274,19.0593 0,1.567821 -0.0608,3.120591 -0.14159,4.667931 -1.9791,8.49271 -11.77201,20.95617 -19.44326,28.4794 -6.7785,6.64771 -16.97973,11.75354 -22.64268,13.28022 -10.22357,3.41765 -19.31329,-0.29252 -42.02973,-5.99961 -24.622274,-4.20399 -37.710396,-1.42148 -50.191782,8.05507 -3.682843,2.79623 -5.661861,4.96552 -2.951757,3.23546 8.268612,-5.27848 13.163967,-7.5368 18.990055,-8.76019 8.566013,-1.79872 16.435451,-2.76719 30.42916,-0.47155 17.086334,2.80296 20.276744,10.05749 34.674634,9.83615 18.40233,-1.77863 31.13711,-10.33989 41.02294,-20.49846 3.98526,-4.0952 7.81686,-7.25304 9.64657,-10.87426 l 1.10588,-2.1885 c -3.01781,15.6813 -10.22532,28.11542 -20.28623,39.69627 4.71749,-1.0351 9.45686,-2.10136 14.26735,-3.23546 10.69516,-15.75929 16.9509,-34.76819 16.9509,-55.222471 C 197.09185,44.177467 152.91646,4.7529162e-6 98.546956,4.7529162e-6 Z M 98.523656,9.4138948 c 1.06427,0 2.085074,0.02077 3.100594,0.04496 14.74815,0.498883 28.57825,4.5665452 40.65747,11.3703662 -0.0549,0.538038 -4.77943,4.541956 -7.75405,6.567043 -2.72076,1.85225 -12.1701,5.769567 -16.29616,6.755659 -5.43897,1.299861 -16.83701,1.12985 -22.978964,-0.342614 -13.1922,-3.162684 -31.635904,-4.007832 -41.21816,-1.888774 -5.162947,1.141749 -10.922558,3.480703 -10.243301,4.159952 0.178475,0.178477 1.951358,-0.190008 3.939812,-0.819071 2.994287,-0.947269 5.535179,-1.133205 14.789277,-1.082104 10.687084,0.05902 11.781727,0.184979 25.140584,2.893881 7.681828,1.557713 15.265092,2.987122 16.851692,3.17655 6.71911,0.802206 19.69455,-1.811578 27.59005,-5.558319 5.54178,-2.629802 12.32026,-7.10433 14.00121,-9.241295 0.50586,-0.643102 1.05076,-1.196255 1.39681,-1.440222 6.15249,4.045354 11.77294,8.83046 16.73386,14.232723 0.21382,0.640694 -0.11326,1.378709 -1.20096,3.122289 -4.30045,6.893674 -13.99458,15.709612 -21.40437,19.464446 -9.99816,5.066444 -28.66434,6.501454 -47.847214,3.678844 -9.432196,-1.38787 -24.921571,-1.867141 -30.620873,-0.947746 -5.584076,0.900808 -14.564561,3.722566 -19.114598,6.006346 -8.814389,4.42419 -18.357841,12.6644 -23.383584,20.1905 -3.654297,5.47236 -3.101439,5.6878 1.088306,0.42427 6.617875,-8.31396 13.656141,-13.81135 24.843962,-19.4045 9.209614,-4.60419 13.788922,-5.525161 27.409179,-5.513361 6.316163,0.0055 13.299752,0.324461 15.51895,0.709001 9.149748,1.58542 23.364872,2.7024 29.394072,2.30942 8.52931,-0.55595 18.92039,-3.303721 25.64702,-6.781497 7.84586,-4.056449 16.58049,-12.024746 20.2737,-18.49448 0.61799,-1.082601 1.23964,-1.97643 1.54615,-2.253607 4.63094,5.43302 8.65894,11.395448 11.89023,17.840769 1.8e-4,2.64e-4 2.5e-4,7.94e-4 5.3e-4,0.0011 v 5.29e-4 c 0.006,0.03828 0.0155,0.08251 0.0155,0.113173 0,0.482698 -3.7903,4.645218 -8.42275,9.249563 -9.75971,9.70049 -12.52515,13.02809 -19.45514,23.40994 -6.40698,9.598351 -9.09734,11.596671 -17.43718,12.952181 -4.63151,0.75278 -16.47455,0.33728 -27.003,-0.94775 -24.480545,-2.98791 -30.627308,-3.23155 -41.543206,-1.64589 -3.729633,0.54178 -6.909943,0.98495 -7.067267,0.98495 -0.86986,0 3.423819,-2.752361 6.466787,-4.145481 2.868377,-1.31319 4.944263,-1.71297 10.855669,-2.09031 4.020058,-0.2566 9.072956,-0.231 11.228771,0.0568 11.283562,1.50656 28.747086,2.76469 38.371826,2.76469 10.02967,0 11.10657,-0.11001 14.03997,-1.43764 3.95458,-1.7898 6.06214,-3.99158 10.07483,-10.52494 l 3.1533,-5.13405 -2.92592,1.67173 c -1.60939,0.9195 -3.21034,1.88318 -3.55741,2.14147 -1.82223,1.35608 -10.92895,3.7471 -16.4176,4.31033 -7.0702,0.72554 -18.31942,0.0806 -33.777264,-1.93631 -12.778836,-1.66741 -22.221924,-2.11563 -26.768397,-1.27073 -7.820046,1.45329 -17.974791,8.14807 -26.071792,17.188621 -2.731315,3.04959 -5.114409,5.68423 -5.295802,5.85494 -3.34631,3.14918 -12.213082,15.71396 -16.536974,23.43371 -0.875154,1.56247 -1.667504,2.90068 -2.071709,3.514 -1.389808,-2.89752 -2.61332,-5.88891 -3.68763,-8.95088 0.530529,-4.46422 8.684262,-21.45999 12.883967,-26.68726 4.147428,-5.162191 10.954007,-11.908331 14.785144,-14.653881 4.801791,-3.44117 14.128123,-6.8576 21.929413,-8.03362 7.554145,-1.13889 15.160947,-1.1368 26.275397,0.008 4.855453,0.50001 10.364377,1.06435 12.242147,1.25419 8.95655,0.90547 22.39893,1.09164 26.109,0.36173 4.02929,-0.79272 14.52385,-5.66247 20.82922,-9.66504 4.22167,-2.67985 9.11271,-6.540603 8.74779,-6.905519 -0.13752,-0.137522 -3.15569,1.394394 -6.70708,3.403929 -3.55139,2.00953 -9.25021,4.70576 -12.66435,5.99188 -5.59722,2.10848 -6.94038,2.36708 -13.65704,2.62929 -9.0627,0.35379 -24.39308,-0.6486 -35.692918,-2.3337 -26.398538,-3.93675 -43.399138,0.87166 -58.972114,16.68012 -6.988587,7.09427 -10.880156,12.781581 -15.287954,22.341271 -1.591773,3.45226 -2.96576,6.31383 -3.367236,7.03264 -1.627139,-6.74359 -2.4954545,-13.78546 -2.4954545,-21.033851 0,-1.82543 0.06119,-3.63629 0.168982,-5.4343 0.266463,-1.90453 0.6189265,-3.58419 1.0712515,-4.77542 3.406661,-8.97166 14.665838,-23.787095 22.199163,-29.21113 11.71793,-8.43698 21.347909,-10.795264 41.785045,-10.231935 7.576656,0.208844 15.123377,0.811022 20.174481,1.609204 4.43838,0.70136 9.960724,1.561105 12.271604,1.910995 13.93926,2.110537 31.19583,-1.601332 40.6585,-8.745719 2.4858,-1.876791 3.37129,-2.832995 2.84427,-2.743502 -0.4099,0.06961 -1.6741,0.771763 -3.70623,2.165241 -7.3175,5.017794 -17.91655,7.696351 -30.34234,7.66775 -8.3015,-0.0191 -11.75201,-0.432872 -25.450126,-3.050458 -4.123719,-0.788009 -9.000625,-1.077169 -18.622637,-1.10381 -11.211145,-0.03105 -14.034392,0.163581 -20.167243,1.390097 -7.881821,1.576284 -15.12862,4.846172 -21.716505,9.798367 -6.463717,4.858867 -13.321768,12.87953 -18.47019,21.60126 l -0.983919,1.66657 c 4.874324,-24.573943 19.825444,-45.48576 40.379433,-58.266249 5.3e-4,-2.64e-4 0.0011,-7.93e-4 0.0016,-0.0011 0.0011,-5.29e-4 0.0021,-0.0011 0.0031,-0.0016 0.01318,-0.0062 0.02745,-0.01397 0.04031,-0.01963 2.960293,-1.303596 17.000667,-1.399677 35.077447,-0.240294 11.756186,0.753996 13.347816,0.7342 17.63045,-0.218591 5.13345,-1.142087 12.53255,-3.740563 13.52011,-4.748032 0.12782,-0.130403 0.0901,-0.186339 -0.0786,-0.1757 h -5.3e-4 c -0.28231,0.0182 -0.92952,0.222772 -1.78284,0.578776 -6.97053,2.908131 -17.112864,3.425712 -37.245274,1.901693 -7.580397,-0.573834 -13.568468,-0.715518 -16.760216,-0.396875 -2.731315,0.272677 -5.064279,0.415534 -5.18418,0.317294 -7.94e-4,-5.29e-4 -7.94e-4,-0.0016 -0.0016,-0.0021 11.633092,-6.183389 24.803219,-9.8639952 38.799186,-10.3306382 0.9859,-0.02228 1.97314,-0.04341 3.01067,-0.04341 z M 187.53994,103.54252 c -0.10827,1.93774 -0.26677,3.86197 -0.49506,5.76502 0.22978,-1.90254 0.38789,-3.82689 0.49506,-5.76502 z m -0.50436,5.84667 c -0.22411,1.85382 -0.41236,5.46298 -0.74815,7.27967 0.33586,-1.81654 0.5226,-5.42651 0.74815,-7.27967 z M 13.061218,123.92474 c 0.390981,1.32189 0.819325,2.62773 1.269173,3.92327 -0.449282,-1.29586 -0.878136,-2.60108 -1.269173,-3.92327 z m 69.574047,49.80523 c -0.0508,0.0175 -0.10378,0.0304 -0.154511,0.048 -4.91666,1.70985 -7.033583,3.18129 -2.701129,1.87741 0.641821,-0.19316 1.340747,-0.36632 2.06189,-0.53175 0.272762,-0.43245 0.53526,-0.90197 0.79375,-1.39371 z"
     sodipodi:nodetypes="ssccccccscccsssssscsssacssscccssscssssssssssssscccssssssscssscscsccsssscsccccsssccsssssssssssccssssssssscssscsccsssssssssssssccssscsssccsscssssssssssscscssssssssssssscccsccsssccssscccsccccccccsssscccs" /><path
     id="path4240"
     style="color:#000000;display:inline;fill:#ffffff;stroke-width:6;stroke-linecap:round;stroke-linejoin:round;-inkscape-stroke:none"
     inkscape:label="outline outline"
     d="m 93.892976,143.39745 c -0.3725,-0.008 -0.74562,0.0189 -1.11466,0.0806 -2.260729,0.37723 -4.120347,2.02536 -4.767668,4.22404 -5.084347,17.26443 -6.93321,23.94339 -9.762194,27.27172 -2.086786,2.45511 -6.158257,4.71537 -14.47922,9.03614 a 92.497885,92.497885 0 0 0 3.849894,1.41748 c 6.779061,-3.52295 10.546075,-5.72348 12.915491,-8.51111 3.577041,-4.2084 5.279719,-11.13686 10.35389,-28.36674 1.161177,-3.65135 7.094867,-1.99676 7.949907,0.79788 1.399754,8.37436 2.334834,14.76306 3.453534,20.84111 24.8841,-5.2864 46.19133,-9.26179 68.3581,-14.23582 a 92.497885,92.497885 0 0 0 3.33778,-4.41059 c -23.32948,4.82362 -44.49622,9.80081 -69.24952,15.06006 -0.91243,-5.24949 -1.7412,-10.57434 -2.94039,-17.74878 -0.4053,-2.42817 -2.275814,-4.3778 -4.684984,-4.88394 l -0.48473,-0.10232 c -0.13565,-0.008 -0.2717,-0.007 -0.40721,0.003 -0.1388,-0.049 -0.26494,-0.12971 -0.40721,-0.16847 -0.0552,-0.015 -0.1109,-0.028 -0.16691,-0.0398 l -0.64027,-0.13539 -0.003,-0.002 c -0.36597,-0.0773 -0.73803,-0.11975 -1.11053,-0.12765 z" /><path
     id="path3478"
     style="display:inline;opacity:1;fill:#ffffff;fill-opacity:1;stroke:none;stroke-width:0.186995px;stroke-linecap:butt;stroke-linejoin:miter;stroke-opacity:1"
     inkscape:label="canon"
     d="m 93.766886,149.39657 c -10.117238,34.35414 -6.509989,29.09067 -37.689689,45.36157 l 0.1788,1.18443 c 6.884961,-3.16401 10.687466,-4.6768 15.079183,-6.72104 l 2.468066,8.12766 c -4.523076,0.37216 -10.337838,1.44365 -16.997412,2.23553 l 0.160714,1.06557 c 28.555423,-2.52517 30.94868,-5.6011 56.812552,15.23162 l 0.80926,-1.43867 -11.2789,-10.54974 3.12281,-2.73885 8.77517,12.18892 0.56379,-1.00253 c -3.51748,-5.79167 -6.23367,-10.81379 -8.3876,-15.42179 l -10.877894,4.05246 -7.898225,-3.67677 0.652156,-0.16692 7.301359,3.39876 32.075054,-11.94914 -4.72271,0.88315 c -0.21177,-0.11187 -0.42455,-0.22362 -0.63201,-0.3359 0.55033,-1.2114 1.08479,-2.37061 1.59112,-3.43183 1.3087,0.72131 2.68665,1.45692 4.15531,2.2164 -0.11323,0.25273 -0.23458,0.53427 -0.34934,0.7922 1.38618,-0.32654 2.79974,-0.66895 4.23231,-1.02112 -0.33049,-0.1675 -0.67124,-0.33438 -0.99788,-0.5023 0.68113,-1.4968 1.32656,-2.87147 1.94252,-4.14342 1.30638,0.70084 2.69283,1.41974 4.15634,2.15904 -0.19825,0.44883 -0.39677,0.89768 -0.59842,1.35755 1.65224,-0.42224 3.33895,-0.86016 5.07773,-1.32085 -0.53465,-0.2616 -1.07482,-0.52278 -1.59939,-0.78549 0.69974,-1.5629 1.36239,-3.00399 1.99161,-4.32945 1.8461,0.84118 3.81245,1.69755 5.96708,2.59674 -0.13031,0.29138 -0.2695,0.61361 -0.40204,0.91261 1.49503,-0.40956 3.07264,-0.85193 4.64468,-1.29139 -0.42864,-0.17256 -0.85893,-0.34446 -1.28262,-0.5178 0.57876,-1.27156 1.13496,-2.46759 1.66554,-3.57395 1.53806,0.67326 3.17683,1.36006 4.92321,2.06861 -0.0965,0.19766 -0.19665,0.40913 -0.29352,0.60823 1.36955,-0.38969 2.71824,-0.77178 4.15116,-1.18442 -0.23844,-0.0937 -0.48113,-0.18603 -0.71778,-0.28009 0.81348,-1.53605 1.60864,-2.98741 2.38383,-4.32479 1.34373,0.4735 2.73809,0.94726 4.23023,1.42936 -0.32702,0.56525 -0.65036,1.1503 -0.97203,1.74667 2.18076,-0.63512 4.45441,-1.30213 6.79029,-1.99058 -0.77235,-0.23353 -1.54496,-0.46694 -2.2996,-0.70539 0.75943,-1.17813 1.52413,-2.28411 2.29494,-3.33054 1.82533,0.74991 3.776,1.50776 5.8906,2.29547 1.02684,-0.30498 2.08518,-0.6203 3.14244,-0.93534 -2.70494,-0.98601 -5.29854,-1.99664 -7.75198,-3.04375 1.27492,-1.61459 2.56858,-3.09155 3.88607,-4.48913 1.21698,0.56614 2.49962,1.12653 3.84163,1.6893 -0.24373,-0.77834 -0.46166,-1.6347 -0.64234,-2.55901 -0.54501,-0.24867 -1.08959,-0.49697 -1.62005,-0.74982 0.43154,-0.43397 0.86903,-0.85943 1.30741,-1.28417 -0.14395,-1.05173 -0.25832,-2.04018 -0.31316,-2.93057 -1.13356,1.02579 -2.22914,2.04952 -3.28094,3.09077 -1.50472,-0.7639 -2.95327,-1.54541 -4.33668,-2.34921 1.23153,-1.38361 2.519,-2.75426 3.88193,-4.17132 -1.37548,0.2717 -2.81702,0.55401 -4.13515,0.817 -0.65661,0.69771 -1.29029,1.38086 -1.8991,2.05362 -0.66802,-0.41893 -1.31447,-0.84578 -1.95079,-1.27641 -1.00608,0.20302 -2.04332,0.41048 -3.01636,0.60876 1.15722,0.82889 2.30946,1.6109 3.47679,2.35127 -1.41371,1.63391 -2.72235,3.26166 -3.97908,5.00073 -1.67223,-0.9018 -3.26581,-1.82927 -4.77542,-2.78743 0.78346,-1.22378 1.68602,-2.62679 2.57503,-4.01009 -0.9254,0.19046 -1.81113,0.37573 -2.70732,0.56224 -0.56136,0.7791 -1.10577,1.54505 -1.62471,2.29443 -0.72892,-0.49567 -1.43325,-1.00115 -2.12028,-1.51308 -0.99969,0.2116 -1.93154,0.4154 -2.89595,0.6227 1.26868,0.97069 2.51783,1.87772 3.76876,2.72593 -1.09068,1.64045 -2.12278,3.2931 -3.14451,5.05448 -1.83502,-0.8905 -3.58149,-1.81598 -5.22914,-2.78382 0.92471,-1.47015 1.92003,-3.012 2.97501,-4.64622 -0.94366,0.20469 -1.91026,0.41222 -2.82205,0.61339 -0.69471,0.98154 -1.35958,1.94461 -2.00039,2.90577 -0.94417,-0.59909 -1.84855,-1.21635 -2.72438,-1.84692 -1.09335,0.24928 -2.16832,0.49669 -3.21996,0.7426 -0.9821,1.34381 -1.90585,2.63529 -2.77606,3.90311 -1.1401,-0.79915 -2.22889,-1.61611 -3.26595,-2.45255 -0.93896,0.23172 -1.8632,0.46314 -2.77554,0.69452 -1.09562,1.50504 -2.10464,2.93761 -3.067,4.36459 -0.92943,-0.63975 -1.82614,-1.28965 -2.68976,-1.95078 0.21768,-0.33848 0.4735,-0.74541 0.69867,-1.09709 -0.92802,0.24809 -1.83204,0.49952 -2.74144,0.75034 l 2.30529,-0.79478 -38.095868,8.09356 -1.944067,3.38067 -0.582394,0.1509 2.211751,-3.84628 9.985954,-2.12131 c -1.34893,-6.80349 -2.33892,-14.18154 -3.90725,-23.56446 l -0.48421,-0.1018 2.67374,22.02398 -5.77019,-2.882 2.10891,-19.35024 z M 172.6091,162.7172 c 1.35491,0.79195 2.75438,1.54387 4.2168,2.27687 -1.37678,1.44723 -2.68959,2.95026 -3.95066,4.56044 -1.41382,-0.63852 -2.77791,-1.29116 -4.10001,-1.95699 1.25528,-1.73839 2.52298,-3.33501 3.83387,-4.88032 z m -28.43237,2.54455 c 1.03648,0.71641 2.05991,1.39558 3.07578,2.0345 -0.84787,1.33356 -1.66973,2.70556 -2.48977,4.1522 -1.12657,-0.66245 -2.20907,-1.33855 -3.25716,-2.02623 0.83634,-1.31154 1.72147,-2.68941 2.67115,-4.16047 z m 16.32355,0.21962 c 1.52158,0.9659 3.07673,1.86736 4.7005,2.73162 -0.88,1.3064 -1.74881,2.69106 -2.62931,4.20181 -1.72334,-0.67732 -3.37622,-1.37935 -4.97024,-2.10323 0.95747,-1.68248 1.90831,-3.2513 2.89905,-4.8302 z m -25.26305,2.16318 c 1.0914,0.8558 2.17898,1.6638 3.27318,2.43034 -0.8792,1.33655 -1.72318,2.69177 -2.55643,4.10776 -1.21835,-0.70536 -2.39698,-1.42167 -3.52743,-2.15232 0.87797,-1.38836 1.81503,-2.84498 2.81068,-4.38578 z m 13.90613,0.8015 c 1.73247,1.01894 3.47869,1.95494 5.3082,2.83084 -0.7139,1.29665 -1.43258,2.66509 -2.17248,4.14548 -1.93092,-0.92618 -3.78227,-1.873 -5.53971,-2.84685 0.80529,-1.44979 1.59738,-2.80699 2.40399,-4.12947 z m -24.61246,0.57102 c 0.2278,0.18594 0.45587,0.37495 0.68265,0.55552 -0.92556,1.27301 -1.78916,2.49455 -2.61638,3.70624 -0.99347,-0.77106 -1.95096,-1.55033 -2.86235,-2.34198 0.0683,-0.10629 0.14328,-0.22427 0.21703,-0.34055 z m 42.98446,0.37776 c 1.2906,0.63361 2.64087,1.25676 4.06435,1.87585 -0.81086,1.11796 -1.60043,2.2943 -2.37401,3.53829 -1.44138,-0.48078 -2.85348,-0.97014 -4.2199,-1.47433 0.85297,-1.40651 1.6927,-2.7106 2.52956,-3.93981 z m -40.77219,1.36426 c 0.8851,0.66982 1.77184,1.31932 2.67115,1.93734 -0.79612,1.23577 -1.56948,2.49254 -2.33422,3.81115 -0.95347,-0.64133 -1.8838,-1.28729 -2.77761,-1.94149 0.76748,-1.20762 1.58283,-2.4796 2.44068,-3.807 z m 13.5723,0.53898 c 1.09912,0.71973 2.22155,1.4119 3.38119,2.08101 -0.65576,1.21684 -1.31999,2.50352 -2.00246,3.88452 -1.29771,-0.64745 -2.5538,-1.30517 -3.77135,-1.97249 0.79135,-1.37827 1.57945,-2.68816 2.39262,-3.99304 z m -23.2699,0.30024 c -1.0972,1.50333 -2.11164,2.93572 -3.07371,4.35478 -0.96684,-0.7694 -1.88807,-1.54921 -2.77451,-2.33837 z m 39.48648,0.63511 c 1.57483,0.69677 3.23636,1.36518 4.99763,2.02623 -0.72951,1.31837 -1.47764,2.74486 -2.24896,4.27726 -1.69021,-0.69973 -3.32755,-1.41035 -4.91029,-2.13424 0.7508,-1.5146 1.46485,-2.88652 2.16162,-4.16925 z m -38.00801,0.58601 c 0.93413,0.80031 1.87825,1.56755 2.83858,2.30838 -0.91146,1.39467 -1.78802,2.80906 -2.65462,4.30051 -1.04501,-0.71385 -2.06203,-1.43354 -3.03444,-2.16265 0.88965,-1.40503 1.83813,-2.87928 2.85048,-4.44624 z m 12.72428,1.09399 c 1.16661,0.74868 2.36421,1.46923 3.61425,2.17403 -0.69508,1.24448 -1.39468,2.55965 -2.10943,3.96823 -1.30286,-0.76045 -2.56051,-1.5286 -3.77548,-2.30477 0.75597,-1.33775 1.50548,-2.59298 2.27066,-3.83749 z m 14.45028,0.58032 c 1.76389,0.94893 3.62885,1.87352 5.66271,2.80448 -0.54785,1.13539 -1.11399,2.34474 -1.69809,3.62304 -2.04053,-0.86609 -4.00687,-1.74619 -5.89163,-2.64377 0.66781,-1.36251 1.30695,-2.61519 1.92701,-3.78375 z m -37.91758,0.29921 c -0.68032,0.94552 -1.33822,1.87326 -1.96474,2.78743 -0.59303,-0.50105 -1.16209,-1.00758 -1.72082,-1.51671 z m 2.00246,0.5364 c 0.97572,0.86051 1.95829,1.68552 2.95951,2.47737 -0.73419,1.13262 -1.44835,2.28519 -2.15232,3.47989 -1.0815,-0.7771 -2.11613,-1.5631 -3.11506,-2.35696 0.72772,-1.14367 1.49914,-2.34895 2.30787,-3.6003 z m 13.33718,1.11104 c 0.93198,0.67357 1.88228,1.33502 2.87579,1.98438 -0.73074,1.32702 -1.46632,2.72853 -2.22467,4.24883 -1.09335,-0.65692 -2.14604,-1.32046 -3.17552,-1.9885 0.83865,-1.48212 1.66974,-2.86566 2.5244,-4.24471 z m -21.15892,0.6935 c 0.86469,0.7981 1.73445,1.5593 2.61431,2.29754 -0.86674,1.32028 -1.70071,2.65942 -2.52336,4.05866 -0.96498,-0.70394 -1.89308,-1.4153 -2.790534,-2.1332 0.847024,-1.34972 1.751494,-2.75595 2.699584,-4.223 z m 34.90123,0.046 c 1.24002,0.65566 2.54648,1.30472 3.9181,1.95803 -0.63007,1.31897 -1.28514,2.73908 -1.96629,4.25193 -1.39571,-0.72355 -2.74495,-1.453 -4.05866,-2.18798 0.72851,-1.45349 1.42585,-2.78047 2.10685,-4.02198 z m -37.781164,0.61237 c -0.51458,0.73304 -1.0198,1.46139 -1.50172,2.18281 -0.4646,-0.39589 -0.91575,-0.79505 -1.36012,-1.19579 z m 15.411984,1.35444 c 1.01045,0.74862 2.04559,1.47945 3.12849,2.19832 -0.59726,1.08269 -1.2003,2.22866 -1.81332,3.43493 -1.15619,-0.72511 -2.2794,-1.45517 -3.36104,-2.19263 0.67882,-1.18628 1.356,-2.32083 2.04587,-3.44062 z m 13.43587,0.50436 c 1.22832,0.75619 2.52524,1.51021 3.8933,2.27376 -0.63558,1.30002 -1.29036,2.68306 -1.97352,4.17494 -1.40015,-0.74536 -2.76447,-1.49511 -4.07985,-2.25205 0.75028,-1.52165 1.46574,-2.91034 2.16007,-4.19665 z m -33.407784,0.58653 c 0.60813,0.54981 1.22036,1.08527 1.83658,1.60611 -0.61293,0.9621 -1.21148,1.94594 -1.80557,2.95795 -0.64648,-0.53092 -1.27568,-1.06472 -1.88826,-1.60093 0.59874,-0.98268 1.22658,-1.97222 1.85725,-2.96313 z m -2.57969,0.0165 c -0.320201,0.48162 -0.63551,0.96392 -0.946707,1.44952 -0.250999,-0.23402 -0.487779,-0.47059 -0.731739,-0.7059 l 0.973584,-0.50074 z m 14.340214,0.56379 c 1.03568,0.8149 2.1034,1.60625 3.21066,2.38228 -0.68704,1.22876 -1.37888,2.527 -2.08463,3.91501 -1.20831,-0.76397 -2.37916,-1.53394 -3.50469,-2.31201 0.78814,-1.38045 1.5727,-2.68703 2.37866,-3.98528 z m -18.103287,1.25211 c 0.536371,0.52639 1.075146,1.04481 1.621089,1.54771 -0.0073,0.012 -0.01441,0.0247 -0.0217,0.0367 -0.603328,0.99308 -1.198264,2.0122 -1.794206,3.08044 -0.511055,-0.44576 -1.006081,-0.89444 -1.493965,-1.34411 0.06732,-0.82096 0.216121,-1.70801 0.452685,-2.68458 z m 31.367087,0.5147 c 1.04852,0.65581 2.15661,1.31121 3.30573,1.97146 -0.5207,1.08113 -1.05837,2.23173 -1.61178,3.44165 -1.18638,-0.66555 -2.33812,-1.33584 -3.46025,-2.0097 0.60715,-1.21111 1.19436,-2.34513 1.7663,-3.40341 z m -21.460194,0.67232 c 0.92969,0.73633 1.88168,1.45483 2.865974,2.15697 -0.54106,0.97005 -1.085504,1.98083 -1.636594,3.04632 -1.02791,-0.73935 -2.01573,-1.48367 -2.97656,-2.23138 0.58247,-1.02444 1.1609,-2.00722 1.74718,-2.97191 z m 13.299964,1.22886 c 1.10548,0.72881 2.26117,1.45598 3.47937,2.18695 -0.58538,1.19631 -1.18377,2.45111 -1.80867,3.80855 -1.266,-0.71157 -2.48906,-1.42844 -3.68143,-2.14974 0.69397,-1.38383 1.36055,-2.65607 2.01073,-3.84576 z m -19.878378,0.65629 c 0.631064,0.5442 1.271244,1.08143 1.930114,1.61024 -0.54762,0.98395 -1.09884,2.01364 -1.65726,3.09645 -0.690532,-0.53398 -1.36308,-1.07086 -2.019,-1.60972 0.589867,-1.08721 1.167958,-2.10778 1.746146,-3.09697 z m 11.328508,1.57303 c 1.151,0.77109 2.35006,1.53673 3.622,2.30632 -0.5001,1.02185 -1.01035,2.08856 -1.5384,3.22616 -1.27304,-0.81274 -2.51128,-1.62803 -3.70262,-2.44792 0.55352,-1.08889 1.09268,-2.11892 1.61902,-3.08456 z m 14.02964,1.13275 c 1.12309,0.64545 2.30341,1.30275 3.545,1.97559 -0.0456,0.10179 -0.0933,0.21138 -0.14056,0.31884 l -4.92011,0.91984 c 0.5241,-1.13707 1.03045,-2.212 1.51567,-3.21427 z m -21.605404,0.32091 c 0.97976,0.73881 2.00975,1.47328 3.08095,2.21175 -0.48995,0.98676 -0.99412,2.03764 -1.50895,3.13262 -1.09688,-0.74845 -2.157,-1.50075 -3.18482,-2.25671 0.55118,-1.08879 1.08951,-2.12299 1.61282,-3.08766 z m -8.591208,0.37103 c 0.07586,0.0656 0.150133,0.13263 0.226343,0.19793 -0.04046,0.0763 -0.08194,0.15926 -0.122474,0.23616 -0.03764,-0.14362 -0.07259,-0.2882 -0.103869,-0.43409 z m 21.785752,1.66399 c 0.9112,0.52717 1.88013,1.06557 2.87373,1.61024 l -3.98942,0.7462 c 0.37975,-0.81256 0.75578,-1.61304 1.11569,-2.35644 z m -19.752285,0.0315 c 0.672217,0.53864 1.361921,1.07152 2.072742,1.60197 -0.318111,0.64313 -0.646013,1.32997 -0.974617,2.01951 l -0.608232,-0.007 c -0.480148,-0.72258 -0.903254,-1.40575 -1.267106,-2.07429 0.260142,-0.51848 0.524702,-1.05304 0.777213,-1.54048 z m 11.573975,1.44849 c 0.84541,0.55665 1.74124,1.12499 2.6603,1.69964 l -3.141414,0.58756 -0.6072,-0.007 c 0.37037,-0.78662 0.73801,-1.56525 1.088314,-2.28048 z m -7.600574,1.53066 c 0.10244,0.0723 0.20412,0.1447 0.30748,0.21704 l 0.002,-0.006 c 0.22626,0.15818 0.45527,0.31669 0.68678,0.47542 l -1.31671,-0.015 c 0.10548,-0.21933 0.21683,-0.45877 0.32039,-0.67127 z" /></svg>
