<?xml version="1.0" encoding="UTF-8" standalone="no"?>
<!-- Created with Inkscape (http://www.inkscape.org/) -->

<svg
   width="197.09155mm"
   height="197.09155mm"
   viewBox="0 0 197.09155 197.09155"
   version="1.1"
   id="svg5"
   inkscape:version="1.3 (0e150ed6c4, 2023-07-21)"
   sodipodi:docname="giants-deep_v1_wip.svg"
   inkscape:export-filename="giants-deep_v1.png"
   inkscape:export-xdpi="515.49646"
   inkscape:export-ydpi="515.49646"
   xmlns:inkscape="http://www.inkscape.org/namespaces/inkscape"
   xmlns:sodipodi="http://sodipodi.sourceforge.net/DTD/sodipodi-0.dtd"
   xmlns="http://www.w3.org/2000/svg"
   xmlns:svg="http://www.w3.org/2000/svg">
  <sodipodi:namedview
     id="namedview7"
     pagecolor="#505050"
     bordercolor="#eeeeee"
     borderopacity="1"
     inkscape:pageshadow="0"
     inkscape:pageopacity="0"
     inkscape:pagecheckerboard="true"
     inkscape:document-units="mm"
     showgrid="false"
     showguides="true"
     inkscape:guide-bbox="true"
     inkscape:snap-global="false"
     inkscape:zoom="1.0381216"
     inkscape:cx="366.52739"
     inkscape:cy="419.98933"
     inkscape:window-width="2560"
     inkscape:window-height="1366"
     inkscape:window-x="0"
     inkscape:window-y="0"
     inkscape:window-maximized="1"
     inkscape:current-layer="g7597"
     inkscape:showpageshadow="2"
     inkscape:deskcolor="#d1d1d1" />
  <defs
     id="defs2" />
  <g
     inkscape:label="Final"
     inkscape:groupmode="layer"
     id="g7597"
     style="display:inline;opacity:1"
     transform="translate(-5.1725893,-36.437833)">
    <path
       id="path7593"
       style="opacity:1;fill:#ffffff;fill-opacity:1;stroke-width:2.34616"
       inkscape:label="generated_twirls"
       d="m 392.00781,173.24609 c -3.85433,0 -7.68697,0.0869 -11.50976,0.21485 3.74029,-0.0846 7.4857,-0.16406 11.42187,-0.16406 4.02243,0 7.88251,0.0785 11.7207,0.16992 -3.86349,-0.13071 -7.73707,-0.22071 -11.63281,-0.22071 z m 72.34571,30.19336 c -1.06654,0.0685 -3.51427,0.84162 -6.74024,2.1875 -26.34538,10.99138 -64.6784,12.94759 -140.76953,7.1875 -28.65038,-2.16882 -51.28238,-2.70432 -63.3457,-1.5 -10.3231,1.03059 -19.14058,1.57052 -19.59375,1.19922 -0.003,-0.002 -9.1e-4,-0.006 -0.004,-0.008 -6.71533,3.56943 -13.29408,7.36043 -19.72851,11.36133 0.0545,-0.0242 0.11557,-0.06 0.16992,-0.084 11.18853,-4.927 64.25434,-5.29012 132.57617,-0.9082 44.43294,2.84977 50.44841,2.77495 66.63476,-0.82617 19.40206,-4.31655 47.3671,-14.13755 51.09961,-17.94531 0.48391,-0.49366 0.3411,-0.70517 -0.29882,-0.66407 z m 92.95117,13.00196 c -0.20748,2.03353 -18.06397,17.16644 -29.30664,24.82031 -10.28319,7.00065 -45.9972,21.80624 -61.5918,25.5332 -20.55677,4.91288 -63.6359,4.27032 -86.84961,-1.29492 -49.86037,-11.95347 -119.5687,-15.14771 -155.78516,-7.13867 -19.51354,4.31529 -41.28211,13.15539 -38.71484,15.72265 0.67455,0.67456 7.37521,-0.71814 14.89063,-3.0957 11.31703,-3.58023 20.92028,-4.28298 55.89648,-4.08984 40.39221,0.22305 44.52926,0.69911 95.01953,10.9375 29.03373,5.88744 57.69481,11.28991 63.69141,12.00586 25.39513,3.03198 74.43604,-6.84689 104.27734,-21.00782 20.94539,-9.93943 46.56673,-26.85099 52.91992,-34.92773 1.91193,-2.43062 3.96943,-4.52128 5.27735,-5.44336 -6.42524,-4.22467 -13.00211,-8.23494 -19.72461,-12.02148 z m 82.97265,65.81445 c 0.80812,2.42152 -0.42809,5.21085 -4.53906,11.80078 -16.25371,26.05489 -52.89481,59.37489 -80.90039,73.56641 -37.78836,19.14883 -108.33751,24.57246 -180.83984,13.90429 -35.64931,-5.24551 -94.1917,-7.05693 -115.73243,-3.58203 -21.10521,3.40463 -55.04713,14.06953 -72.24414,22.70117 -33.31431,16.72135 -69.38393,47.86537 -88.378902,76.31055 -13.811543,20.68297 -11.722002,21.49721 4.113282,1.60352 25.0125,-31.42288 51.61368,-52.20031 93.89844,-73.33985 34.80807,-17.4017 52.11551,-20.88249 103.59375,-20.83789 23.87217,0.0207 50.26677,1.22631 58.65429,2.67969 34.5818,5.99218 88.30814,10.21383 111.09571,8.72852 32.23683,-2.10123 71.51007,-12.48647 96.93359,-25.63086 29.65372,-15.33148 62.66836,-45.44781 76.62695,-69.90039 2.39519,-4.19587 4.84585,-7.72456 5.96875,-8.67188 -2.69467,-3.16052 -5.44199,-6.27421 -8.25,-9.33203 z m -51.63086,10.13867 c -1.54924,0.26308 -6.32925,2.91688 -14.00976,8.18359 -27.65673,18.96493 -67.71404,29.08857 -114.67774,28.98047 -31.37582,-0.0722 -44.4189,-1.63603 -96.1914,-11.52929 -15.58575,-2.9783 -34.01805,-4.07119 -70.38477,-4.17188 -42.37293,-0.11734 -53.04331,0.61826 -76.22265,5.25391 -29.78962,5.95763 -57.179,18.3162 -82.07813,37.0332 -24.42986,18.36426 -50.349953,48.67848 -69.808592,81.64258 l -3.71875,6.29883 c -2.946223,14.85334 -4.911148,30.06128 -5.839844,45.55273 1.007107,-7.19825 2.339248,-13.54653 4.048828,-18.04883 12.875595,-33.90871 55.429898,-89.90396 83.902348,-110.40429 44.28834,-31.88786 80.68485,-40.801 157.92773,-38.67188 28.63624,0.78933 57.15918,3.06528 76.25,6.08203 16.77502,2.65081 37.64679,5.90024 46.38086,7.22266 52.68393,7.97685 117.90542,-6.05222 153.66992,-33.05469 9.39515,-7.0934 12.74385,-10.70738 10.75195,-10.36914 z m 104.69532,66.77735 c 0.0211,0.14598 0.0605,0.31615 0.0605,0.43359 0,1.82437 -14.32547,17.55669 -31.83398,34.95898 -36.88717,36.66335 -47.33912,49.23995 -73.53125,88.47852 -24.21543,36.2773 -34.3836,43.82994 -65.9043,48.95312 -17.50495,2.84516 -62.26595,1.27478 -102.05859,-3.58203 -92.52506,-11.29292 -115.75665,-12.21375 -157.01367,-6.2207 -14.09629,2.04767 -26.11633,3.72266 -26.71094,3.72266 -3.28766,0 12.94039,-10.4026 24.44141,-15.66797 10.84113,-4.96324 18.68693,-6.47423 41.02929,-7.90039 15.19394,-0.96983 34.29148,-0.87306 42.43946,0.21484 42.64663,5.69409 108.65029,10.44922 145.02734,10.44922 37.90749,0 41.97755,-0.41578 53.06445,-5.4336 14.94648,-6.76462 22.91202,-15.08624 38.07813,-39.77929 l 11.91797,-19.4043 -11.0586,6.31836 c -6.08277,3.47528 -12.13355,7.11754 -13.44531,8.09375 -6.88721,5.12534 -41.30624,14.16224 -62.05078,16.29102 -26.72209,2.74219 -69.23863,0.30483 -127.66211,-7.31836 -48.29805,-6.30203 -83.98834,-7.9961 -101.17188,-4.80274 -29.55614,5.49275 -67.93616,30.7958 -98.53906,64.96485 -10.3231,11.52604 -19.33004,21.4837 -20.01562,22.1289 -12.64751,11.90245 -46.15965,59.39128 -62.501956,88.56836 -3.308249,5.90644 -6.30457,10.9657 -7.832032,13.28321 2.310141,4.81617 4.734728,9.56643 7.263672,14.25195 1.741956,-7.54969 14.976866,-35.00452 23.910156,-49.23633 23.50356,-37.44393 62.95601,-84.12895 91.50195,-108.27344 24.41208,-20.64805 31.35502,-24.80541 54.48243,-32.62695 22.4717,-7.59976 41.76817,-8.1769 85.63476,-2.56445 80.60757,10.31312 146.71869,12.91243 181.53906,7.13672 11.45458,-1.89994 21.39993,-2.88136 22.10157,-2.17969 2.51229,2.51229 -9.89552,13.04094 -18.1211,15.37695 -4.61219,1.30987 -21.85273,3.43411 -38.3125,4.7207 -31.36244,2.45148 -90.16725,-0.70939 -154.24609,-8.29101 -40.99757,-4.85072 -52.77437,-4.46987 -73.79688,2.39258 -30.49022,9.953 -43.82038,18.67232 -57.33789,37.5 -7.60748,10.59598 -7.71118,11.00952 -2.3457,9.35156 3.08811,-0.95426 8.47817,-3.18946 11.97656,-4.96875 28.99884,-14.74897 107.20479,-16.26282 194.23438,-3.75977 39.29915,5.64579 107.05708,5.51105 124.58789,-0.24804 20.38235,-6.69589 34.05274,-18.6411 52.89062,-46.2168 29.59574,-43.32355 36.57766,-51.51448 71.16211,-83.47852 17.60711,-16.27301 32.62735,-29.59907 35.00586,-31.0957 -2.17375,-4.91055 -4.4613,-9.75768 -6.85937,-14.54101 z m -75.70508,19.8125 c -0.51976,-0.51977 -11.927,5.27012 -25.34961,12.86523 -13.42261,7.59511 -34.96137,17.78556 -47.86523,22.64648 -21.15489,7.96906 -26.23132,8.94647 -51.61719,9.9375 -34.2528,1.33713 -92.19423,-2.45139 -134.90235,-8.82031 -99.7742,-14.87909 -164.02813,3.29435 -222.88672,63.04297 -26.41362,26.81306 -41.121817,48.30827 -57.781245,84.43945 -6.016163,13.04795 -11.209171,23.86329 -12.726563,26.58008 2.667713,11.0562 5.879204,21.89561 9.605469,32.49414 1.938105,-16.77876 32.822819,-81.16494 48.714839,-100.94531 15.67534,-19.51068 41.40093,-45.00785 55.88086,-55.38477 18.14852,-13.00603 53.39757,-25.91848 82.88282,-30.36328 28.55116,-4.3045 57.30114,-4.29656 99.30859,0.0293 18.35134,1.8898 39.17241,4.02273 46.26953,4.74023 33.85157,3.42225 84.65734,4.12591 98.67969,1.36719 15.22881,-2.99611 54.89517,-21.40147 78.72656,-36.5293 15.95592,-10.1286 34.43977,-24.72039 33.06055,-26.0996 z m 94.11523,24.59765 -12.05468,24.56836 c -24.79926,50.54139 -52.07264,85.94705 -85.75586,111.32813 -39.94704,30.10098 -108.91059,44.49883 -170.4043,35.57812 -59.77474,-8.67133 -145.88126,-11.56955 -172.99219,-5.82422 -32.49381,6.88604 -76.95139,32.14269 -101.50976,57.66992 -15.49708,16.10835 -13.78304,16.16011 5.86523,0.17774 14.41169,-11.72281 45.52634,-27.21929 73.9043,-36.8086 29.52815,-9.97802 70.44779,-10.50715 144.28906,-1.86718 43.80083,5.12504 67.81065,6.7137 100.88477,6.67968 40.6001,-0.0416 44.84461,-0.46877 65.69336,-6.61523 38.29975,-11.2913 71.61727,-32.84648 104.03124,-67.30273 19.67717,-20.91693 28.85898,-34.07082 45.59571,-65.31836 6.62666,-12.37205 9.8311,-18.36791 11.90234,-17.74805 -2.55336,-11.7471 -5.70798,-23.26543 -9.44922,-34.51758 z m 16.74219,123.93164 c -7.34084,32.08512 -41.72473,82.567 -73.58398,107.94531 -23.09711,18.39863 -58.25628,36.02638 -88.20118,44.22266 -38.8388,10.62973 -100.74228,10.6238 -163.05664,-0.0156 -93.06076,-15.8891 -137.48436,-9.57673 -184.6582,26.24023 -13.91945,10.56843 -21.39918,18.76733 -11.15625,12.22852 31.25151,-19.9502 49.75354,-28.48554 71.77344,-33.10938 32.37554,-6.79835 57.07317,-6.25456 109.96289,2.42188 64.57837,10.5939 106.08937,14.40427 130.21289,11.95117 70.08019,-7.12634 125.35292,-30.54478 162.7168,-68.93946 15.0624,-15.47795 29.12557,-34.13963 36.04101,-47.82617 l 4.33008,-8.57031 c 2.90553,-15.17937 4.81931,-30.71454 5.61914,-46.54883 z m -38.06836,18.55274 c -1.05772,-0.0274 -3.5001,1.83622 -6.37695,4.99804 -11.77754,12.94402 -43.25394,39.75534 -55.56445,47.33008 -15.32656,9.43053 -26.70495,13.35625 -59.20118,20.41992 -29.30105,6.36915 -34.21761,6.90006 -85.86132,9.27149 -26.06828,1.19705 -48.88004,0.47832 -87.98243,-2.76758 -75.04574,-6.22953 -107.34003,-5.67634 -138.42383,2.36914 -29.72391,7.69349 -43.5614,13.85947 -62.25976,27.74023 -18.59389,13.80322 -45.0344,45.50054 -56.15039,67.31446 l -3.08789,6.06054 c 2.94384,3.45149 5.95631,6.84115 9.03515,10.16993 1.58047,-8.20912 27.66005,-43.77124 45.29493,-61.50196 20.81683,-20.93 22.07907,-21.77421 44.88086,-29.99804 34.36677,-12.39493 75.84811,-17.31312 117.07421,-13.88282 16.90333,1.40648 43.9307,3.64583 60.06055,4.97657 31.94264,2.63527 87.41279,3.17775 107.92383,1.05664 37.48838,-3.87682 82.89138,-15.23977 100.88477,-25.25 13.89614,-7.73084 70.43199,-62.10616 70.31445,-67.62696 -0.01,-0.45115 -0.20798,-0.67054 -0.56055,-0.67968 z M 619.43359,723.5625 c -1.21422,0.0423 -4.03368,0.89408 -8.67187,2.83203 -13.80851,5.76956 -41.70045,12.55599 -63.47461,15.44336 -25.62728,3.39836 -66.51476,0.34898 -118.86133,-8.86328 -46.51302,-8.18566 -109.29456,-9.16304 -132.69726,-2.06641 -27.01188,8.19107 -56.66984,24.94944 -76.16211,43.03516 l -16.52344,15.33008 c 7.20448,4.88286 14.60994,9.49179 22.19922,13.8164 l 3.94531,-4.2207 c 16.62794,-17.79141 50.82622,-38.14125 80.86914,-48.12109 24.85812,-8.25751 51.41666,-7.76276 196.82617,3.67383 24.32149,1.91292 67.26379,-7.7177 99.4961,-22.31446 10.62431,-4.81135 15.72597,-8.63796 13.05468,-8.54492 z m -21.38671,53.32617 c -7.03191,2.62357 -19.50834,6.05595 -31.74024,8.61133 -31.72925,6.62857 -39.33697,6.67053 -130.1543,0.71094 -49.24422,-3.23146 -78.31101,-0.93062 -104.86718,8.30468 -18.58269,6.46243 -26.58366,12.02376 -10.20899,7.09571 22.27106,-6.70269 57.16825,-8.98755 104.86328,-6.86524 57.09997,2.54064 121.44419,2.71278 138.42383,0.3711 4.82738,-0.66575 7.73564,-1.02118 9.28711,-1.00977 8.39925,-5.37905 16.52982,-11.13632 24.39649,-17.21875 z"
       transform="scale(0.26458333)" />
    <circle
       style="display:inline;opacity:1;fill:none;fill-opacity:1;stroke:#ffffff;stroke-width:9.4;stroke-miterlimit:4;stroke-dasharray:none;stroke-opacity:1"
       id="circle7595"
       cx="103.71837"
       cy="134.98361"
       inkscape:label="outline"
       r="93.845779" />
  </g>
</svg>
