<?xml version="1.0" encoding="UTF-8" standalone="no"?>
<!-- Created with Inkscape (http://www.inkscape.org/) -->

<svg
   width="182.72789mm"
   height="167.20168mm"
   viewBox="0 0 182.72789 167.20168"
   version="1.1"
   id="svg5"
   xml:space="preserve"
   inkscape:version="1.2 (dc2aedaf03, 2022-05-15)"
   sodipodi:docname="whitehole_final_white.svg"
   inkscape:export-filename="whitehole_final_white.svg"
   inkscape:export-xdpi="96"
   inkscape:export-ydpi="96"
   xmlns:inkscape="http://www.inkscape.org/namespaces/inkscape"
   xmlns:sodipodi="http://sodipodi.sourceforge.net/DTD/sodipodi-0.dtd"
   xmlns="http://www.w3.org/2000/svg"
   xmlns:svg="http://www.w3.org/2000/svg"><sodipodi:namedview
     id="namedview7"
     pagecolor="#505050"
     bordercolor="#ffffff"
     borderopacity="1"
     inkscape:showpageshadow="0"
     inkscape:pageopacity="0"
     inkscape:pagecheckerboard="1"
     inkscape:deskcolor="#505050"
     inkscape:document-units="mm"
     showgrid="false"
     inkscape:zoom="1"
     inkscape:cx="193.5"
     inkscape:cy="584"
     inkscape:window-width="2498"
     inkscape:window-height="1417"
     inkscape:window-x="2552"
     inkscape:window-y="-8"
     inkscape:window-maximized="1"
     inkscape:current-layer="layer3" /><defs
     id="defs2" /><g
     inkscape:groupmode="layer"
     id="layer2"
     inkscape:label="final"
     style="display:inline"
     transform="translate(-23.01875,-68.753942)"><path
       id="path1724"
       style="display:inline;fill:#ffffff;fill-opacity:1;stroke-width:0.257779"
       inkscape:label="station"
       d="m 109.42278,96.556897 v 4.359943 a 50.475197,50.475197 0 0 0 -4.85604,-0.26304 50.475197,50.475197 0 0 0 -32.631079,12.01012 v -4.24625 h -2.198316 v 6.20789 A 50.475197,50.475197 0 0 0 55.54338,139.20029 h -2.73265 -0.09819 v 2.08928 h 2.380733 a 50.475197,50.475197 0 0 0 -1.002006,9.83919 50.475197,50.475197 0 0 0 1.113627,10.42882 h -2.394169 -0.09819 v 2.08928 H 55.7015 a 50.475197,50.475197 0 0 0 14.035835,23.98613 v 6.70554 0.0465 h 2.198316 v -4.79143 a 50.475197,50.475197 0 0 0 32.631079,12.01063 50.475197,50.475197 0 0 0 4.85604,-0.23719 v 5.43791 h 3.09697 v -5.83375 a 50.475197,50.475197 0 0 0 40.52569,-35.78903 h 3.65404 v -2.56109 h -2.98431 a 50.475197,50.475197 0 0 0 1.32653,-11.49232 50.475197,50.475197 0 0 0 -1.20251,-10.89959 h 2.86029 v -2.56109 h -3.52072 a 50.475197,50.475197 0 0 0 -40.65901,-36.36935 v -4.741833 z m -4.87877,7.628993 a 46.943214,46.943214 0 0 1 4.87877,0.28629 v 32.13033 H 95.883036 v -1.05678 H 82.883313 v 12.48968 h 8.320939 v 6.76548 h -8.320939 v 13.01781 h 12.999723 v -1.57768 h 13.539744 v 31.57533 a 46.943214,46.943214 0 0 1 -4.87877,0.2558 46.943214,46.943214 0 0 1 -32.608349,-13.20798 v -19.15025 h 4.256071 v -28.5781 h -4.256071 v -19.74195 a 46.943214,46.943214 0 0 1 32.608349,-13.20798 z m 7.97574,0.70383 a 46.943214,46.943214 0 0 1 36.96467,32.77836 h -20.33261 v -1.5844 h -1.55753 v 1.5844 h -6.74584 v -1.06557 h -8.32869 z m -42.782405,14.7898 v 17.4563 h -6.54792 -0.09354 v 2.06447 H 59.17106 a 46.943214,46.943214 0 0 1 10.56628,-19.52077 z m 7.388697,17.96996 v 10.38489 h -0.529167 v 6.28386 h 0.529167 v 10.88099 h 4.696354 v -11.43548 h 8.354529 v -4.701 h -8.354529 v -11.41326 z m 38.494808,2.57969 h 11.97343 v 22.39191 h -11.97343 v -1.05988 h -3.1011 v -20.37033 h 3.1011 z m 13.53096,0 h 9.36945 v 22.39191 h -9.36945 z m 10.41176,0 h 10.63811 a 46.943214,46.943214 0 0 1 1.2852,10.89959 46.943214,46.943214 0 0 1 -1.43196,11.49232 h -10.49135 z m -80.888598,1.0604 h 4.420918 v 0.51883 h 1.052649 v 0.21807 0.80977 h 0.519865 v 17.16846 h -0.519865 v 0.56534 0.49506 H 63.09589 v 0.49248 h -4.303613 a 46.943214,46.943214 0 0 1 -1.191659,-10.42882 46.943214,46.943214 0 0 1 1.074354,-9.83919 z m 8.090462,0.51883 h 4.151168 v 19.2567 H 66.7613 v -0.45061 l 0.0041,-0.0124 V 160.0047 H 66.231099 V 142.83624 H 66.7613 v -0.76584 l 0.0041,-0.0119 z m -7.427971,21.83846 h 3.758427 v 2.06706 h 6.641455 V 182.578 A 46.943214,46.943214 0 0 1 59.337463,163.64686 Z m 61.510977,1.53531 h 6.74584 v 1.57458 h 1.55753 v -1.57458 h 20.17758 a 46.943214,46.943214 0 0 1 -36.80964,32.2032 v -31.14435 h 8.32869 z" /><path
       id="path2002"
       style="display:inline;fill:#ffffff;fill-opacity:1;stroke-width:0.264583"
       d="m 119.43302,68.753943 a 86.31366,83.600876 0 0 0 -39.989807,9.55859 h 11.675256 v 11.987898 h 3.679879 V 78.312533 h 8.380882 v 4.105175 h 20.44733 l -2.38125,7.342188 17.13177,-3.108854 7.60677,5.490104 -5.68854,12.170834 2.38125,1.45521 6.41615,-7.011461 20.17448,13.626041 v 7.01146 h -10.48412 v 4.23333 h 5.15938 v 1.78594 h 9.92187 v 14.35365 h -3.63802 v 24.9039 h 2.11667 v 5.29167 H 160.7013 v 5.55625 h 9.02891 v 1.68672 h -2.61276 v 2.97656 h 2.57969 v 3.80339 l -9.95495,9.26041 -3.40651,-3.40651 -3.00964,3.00964 3.38998,3.38997 -4.2168,4.2168 -7.5737,-7.5737 -3.57187,3.57187 7.57369,7.5737 -21.61315,21.61315 H 116.6151 v -3.74602 h -6.1836 v 7.76438 h -3.63905 v 5.38365 a 86.31366,83.600876 0 0 0 12.64057,0.91364 86.31366,83.600876 0 0 0 86.31359,-83.6011 86.31366,83.600876 0 0 0 -86.31359,-83.600577 z M 92.757646,204.39476 v 14.4017 h -7.793323 v -3.26026 h -2.612761 v -10.35183 h -4.20026 v 13.61209 H 67.086861 a 86.31366,83.600876 0 0 0 33.454809,15.11433 v -11.06548 h 3.63905 v -4.04885 h -1.00149 -5.746418 V 205.6474 Z"
       inkscape:label="astroid ring" /><path
       style="display:inline;fill:#ffffff;fill-opacity:1;stroke-width:0.264583"
       d="m 53.710416,107.35469 c -4.216381,-11.413479 -5.581777,-17.852887 0.198437,-30.559378 -12.225221,5.637127 -19.103889,5.175144 -30.890103,0 4.772607,12.53945 5.124872,17.82518 0.05788,30.687528 11.963116,-6.73348 19.848925,-4.99409 30.633785,-0.12815 z"
       id="path2117"
       sodipodi:nodetypes="cccccc"
       inkscape:label="star" /></g></svg>
