<?xml version="1.0" encoding="UTF-8" standalone="no"?>
<!-- Created with Inkscape (http://www.inkscape.org/) -->

<svg
   width="183.93307mm"
   height="192.26768mm"
   viewBox="0 0 183.93307 192.26769"
   version="1.1"
   id="svg5"
   xml:space="preserve"
   inkscape:export-filename="hourglass_white.svg"
   inkscape:export-xdpi="96"
   inkscape:export-ydpi="96"
   sodipodi:docname="hourglass_wip.svg"
   inkscape:version="1.2 (dc2aedaf03, 2022-05-15)"
   xmlns:inkscape="http://www.inkscape.org/namespaces/inkscape"
   xmlns:sodipodi="http://sodipodi.sourceforge.net/DTD/sodipodi-0.dtd"
   xmlns="http://www.w3.org/2000/svg"
   xmlns:svg="http://www.w3.org/2000/svg"><sodipodi:namedview
     id="namedview7"
     pagecolor="#505050"
     bordercolor="#ffffff"
     borderopacity="1"
     inkscape:showpageshadow="0"
     inkscape:pageopacity="0"
     inkscape:pagecheckerboard="1"
     inkscape:deskcolor="#505050"
     inkscape:document-units="mm"
     showgrid="false"
     inkscape:zoom="0.99933631"
     inkscape:cx="341.22647"
     inkscape:cy="507.33671"
     inkscape:window-width="2498"
     inkscape:window-height="1417"
     inkscape:window-x="2552"
     inkscape:window-y="-8"
     inkscape:window-maximized="1"
     inkscape:current-layer="layer5" /><defs
     id="defs2" /><g
     inkscape:groupmode="layer"
     id="layer7"
     inkscape:label="final"
     transform="translate(-15.464686,-38.607108)"><g
       inkscape:groupmode="layer"
       id="g3218"
       inkscape:label="ash twin"
       style="display:inline;fill:#ff2a2a"><g
         id="g3214"
         inkscape:label="solar plants"
         style="display:inline;fill:#ff2a2a"><path
           id="path3210"
           style="fill:#ffffff;fill-opacity:1;stroke-width:0.264583"
           d="m 42.077535,121.93054 -1.916162,1.98799 4.156335,21.01578 -8.494055,-11.61687 -7.338053,-0.7953 -0.07235,7.37423 10.567313,9.33845 -21.701001,-4.4819 -1.814876,2.14716 24.027991,4.16667 -1.084172,0.92139 2.403471,2.60294 -1.265039,1.24695 5.205367,4.95267 0.209806,0.47491 0.6134,-0.66456 -4.651913,-4.70359 1.277958,-1.4056 -1.533756,-1.68723 1.239201,-0.98341 3.003434,2.65462 -1.386995,1.32602 4.193025,3.9765 5.639449,-5.85597 -3.253548,-4.41007 -1.435054,1.37149 -2.410706,-3.29747 1.604553,-1.43609 1.554427,1.44591 1.229383,-0.75913 3.867464,4.59094 1.48208,-0.56018 -5.367631,-5.2958 -1.138949,0.90382 -2.440161,-2.56676 -0.903821,0.93999 z m -17.062524,0.12661 -7.392314,8.27805 2.458248,2.53059 0.469739,-0.48834 7.193876,-7.51892 z m 2.412255,5.56969 -4.44779,4.47362 3.859713,3.55276 0.05116,-0.63924 0.255799,-3.75739 3.578593,-0.20412 z"
           inkscape:label="top solar plant" /><path
           id="path3212"
           style="fill:#ffffff;fill-opacity:1;stroke-width:0.264583"
           d="m 99.524085,230.87479 1.911215,-1.99275 -4.20859,-21.00538 8.52292,11.5957 7.34001,0.77705 0.054,-7.37438 -10.59051,-9.31214 21.71208,4.42792 1.80953,-2.15167 -24.03828,-4.1069 1.08188,-0.92409 -2.40994,-2.59695 1.26194,-1.25009 -6.482879,-6.38567 -0.500179,-0.14905 -0.864787,0.55763 6.471045,5.92108 -1.274455,1.40878 1.537945,1.68341 -1.236755,0.98649 -3.010024,-2.64715 1.383693,-1.32946 -4.202902,-3.96606 -5.624867,5.86998 3.264507,4.40196 1.431639,-1.37506 2.418899,3.29147 -1.600976,1.44008 -1.558018,-1.44204 -1.227492,0.76219 -4.601849,-5.95498 -1.516832,1.21455 6.139914,6.00542 1.136698,-0.90665 2.446538,2.56068 0.90148,-0.94224 z m 17.062145,-0.16905 7.37171,-8.29642 -2.46453,-2.52446 -0.46852,0.48951 -7.17516,7.53679 z m -2.4261,-5.56367 4.43666,-4.48467 -3.86854,-3.54316 -0.0496,0.63937 -0.24646,3.75802 -3.57807,0.21302 z"
           inkscape:label="bottom solar plant"
           sodipodi:nodetypes="cccccccccccccccccccccccccccccccccccccccccccccccccc" /></g><circle
         style="fill:#ffffff;fill-opacity:1;stroke-width:0.268271"
         id="circle3216"
         cx="69.83316"
         cy="176.47443"
         r="29.753222"
         inkscape:label="ball" /></g><g
       inkscape:groupmode="layer"
       id="g3232"
       inkscape:label="ember twin"><path
         id="path3220"
         style="display:inline;fill:#ffffff;fill-opacity:1;stroke-width:0.314402"
         inkscape:label="planet"
         d="m 157.81466,49.077625 a 38.392899,38.392899 0 0 0 -35.68878,24.292574 l 5.25239,2.113566 a 33.076172,33.076172 0 0 0 -2.27841,10.730094 l -3.07888,0.02015 a 36.143513,36.143513 0 0 0 -0.0429,1.031978 36.143513,36.143513 0 0 0 2.29754,12.605432 l 2.5647,-1.516703 a 33.076172,33.076172 0 0 0 2.15077,4.913404 l 17.12299,-14.269422 2.60294,2.675289 1.44591,-1.301729 4.55476,4.410583 -1.37356,1.301213 2.67477,2.241206 -14.51643,17.89245 a 33.076172,33.076172 0 0 0 13.34234,4.35012 l -0.5395,3.77807 a 37.33643,37.33643 0 0 0 3.8163,0.22014 37.33643,37.33643 0 0 0 0.83458,-0.031 l -0.0971,-3.81113 a 33.076172,33.076172 0 0 0 13.89217,-3.39566 l 2.27015,4.45347 A 38.392899,38.392899 0 0 0 195.96742,91.5138 l -1.94407,-0.233578 a 36.143513,36.143513 0 0 0 0.24184,-4.014225 36.143513,36.143513 0 0 0 -1.7818,-11.196732 l -2.97346,1.18339 a 33.076172,33.076172 0 0 0 -4.43952,-8.722465 l -15.89722,16.256372 -2.59726,-2.090312 -1.47846,1.509469 -4.45141,-4.797123 1.55081,-1.368909 -2.18695,-2.817916 15.45952,-15.695683 a 33.076172,33.076172 0 0 0 -7.31221,-3.367753 l 2.08256,-5.01158 a 38.392899,38.392899 0 0 0 -12.42508,-2.069124 z" /><g
         id="g3230"
         inkscape:label="mountains"><path
           style="fill:#ffffff;fill-opacity:1;stroke-width:0.264583"
           d="m 152.83788,38.679405 3.2534,6.145326 v 6.868306 h 5.13316 l 0.14459,-8.241967 1.95205,-4.843962 z"
           id="path3222"
           inkscape:label="top right" /><path
           style="fill:#ffffff;fill-opacity:1;stroke-width:0.264583"
           d="m 142.71616,53.211295 -0.21689,-2.747322 2.96421,-4.410175 10.91699,-1.662854 -1.59055,-2.45813 -13.37512,3.325704 -10.91699,7.80818 6.00073,4.193281 z"
           id="path3224"
           inkscape:label="top left" /><path
           style="fill:#ffffff;fill-opacity:1;stroke-width:0.264583"
           d="m 182.76923,114.73685 3.3257,4.12099 4.55478,-5.78384 -3.6872,-2.81962 z"
           id="path3226"
           inkscape:label="bottom left" /><path
           style="fill:#ffffff;fill-opacity:1;stroke-width:0.264583"
           d="m 190.9389,106.0611 3.75949,2.89192 4.69937,-9.25414 -0.1446,-1.952045 -5.20545,-0.0723 z"
           id="path3228"
           inkscape:label="bottom reight" /></g></g><g
       inkscape:groupmode="layer"
       id="g3236"
       inkscape:label="sand stream"
       style="display:inline"><path
         id="path1313"
         style="display:inline;fill:#ffffff;fill-opacity:1;stroke-width:0.264583"
         inkscape:label="sand"
         d="m 143.4393,94.854837 -16.87752,17.059423 5.05344,7.53649 18.16935,-18.02968 z m -18.88566,19.089273 -33.203662,33.56126 c 2.336267,1.73753 4.451087,3.75447 6.29729,6.00584 L 129.70526,121.3664 Z"
         sodipodi:nodetypes="cccccccccc" /></g></g></svg>
