<?xml version="1.0" encoding="UTF-8" standalone="no"?>
<!-- Created with Inkscape (http://www.inkscape.org/) -->

<svg
   width="199.15497mm"
   height="199.08688mm"
   viewBox="0 0 199.15497 199.08688"
   version="1.1"
   id="svg5"
   xml:space="preserve"
   xmlns="http://www.w3.org/2000/svg"
   xmlns:svg="http://www.w3.org/2000/svg"><defs
     id="defs2" /><g
     id="g636"
     transform="translate(-4.7179795,-56.776943)"><path
       style="color:#000000;opacity:1;fill:#ffffff;fill-opacity:1;stroke-linecap:square;stroke-linejoin:bevel;stroke-miterlimit:2.6;stroke-dasharray:38.75, 12.5;stroke-dashoffset:48.5;-inkscape-stroke:none"
       d="m 99.379284,56.779011 -0.383565,0.02401 c -0.58336,0.03652 -1.529226,0.09511 -2.112163,0.13781 -3.496905,0.256133 -6.979879,0.697255 -10.430987,1.320608 -0.57519,0.103893 -1.04046,0.192744 -1.04046,0.191639 -9.207146,1.859197 -17.161866,4.552745 -24.65634,8.199766 -0.525572,0.255758 -1.37301,0.679959 -1.895896,0.941173 l -0.342793,0.171247 a 1.057963,1.057963 108.44496 0 0 -0.473467,1.419572 l 1.289727,2.579452 a 1.0579641,1.0579641 18.424943 0 0 1.419738,0.472971 l 0.343454,-0.171878 c 0.522703,-0.261579 1.36998,-0.686106 1.895707,-0.941546 7.082923,-3.441448 14.603835,-5.986095 22.321003,-7.553838 0.572798,-0.116364 1.039215,-0.20481 1.04032,-0.20481 4.283098,-0.777079 7.556182,-1.191363 10.842563,-1.433881 0.582911,-0.04302 1.52878,-0.101581 2.11214,-0.138098 l 0.383569,-0.02401 a 1.0582961,1.0582961 131.41709 0 0 0.990106,-1.122384 l -0.18023,-2.877659 a 1.0583704,1.0583704 41.417084 0 0 -1.122426,-0.990144 z m 8.805286,0.997866 -0.1836,2.877862 a 1.0579472,1.0579472 48.639877 0 0 0.98883,1.123182 l 0.38172,0.02421 c 0.58333,0.037 1.52913,0.09661 2.11199,0.140452 7.51262,0.565131 14.95907,2.031672 22.11959,4.366213 0.55571,0.181177 1.00522,0.333768 1.00632,0.333768 4.43264,1.549723 7.79435,2.953699 11.06317,4.548216 0.52533,0.256255 1.37206,0.681858 1.89449,0.943985 l 0.3425,0.171848 a 1.0583346,1.0583346 161.64512 0 0 1.42056,-0.471316 l 1.29295,-2.576872 a 1.058332,1.058332 71.645119 0 0 -0.47132,-1.420562 l -0.3425,-0.171848 c -0.52243,-0.262127 -1.36918,-0.687701 -1.89436,-0.944266 -3.47589,-1.698082 -7.05095,-3.191605 -10.70134,-4.470855 -0.5516,-0.193307 -1.00153,-0.344658 -1.00263,-0.344658 -8.58335,-2.809865 -16.45887,-4.360847 -24.40709,-4.954189 -0.58288,-0.04351 -1.52868,-0.103126 -2.11201,-0.140098 l -0.38368,-0.02432 a 1.0587724,1.0587724 138.63844 0 0 -1.12359,0.989243 z m -58.248664,14.990951 -0.319078,0.21432 c -0.485208,0.325907 -1.272135,0.853964 -1.753679,1.185255 -1.940361,1.334923 -3.831972,2.738989 -5.67216,4.207261 -0.456886,0.364546 -1.191486,0.963285 -1.640621,1.337339 -7.287198,6.069034 -13.703916,13.176136 -18.995822,21.047197 -0.326118,0.48506 -0.846147,1.27732 -1.167306,1.76568 l -0.210027,0.31937 a 1.0578783,1.0578783 78.317568 0 0 0.303,1.46539 l 2.410668,1.58383 a 1.0576437,1.0576437 168.28658 0 0 1.465063,-0.30376 l 0.209987,-0.32006 c 0.32063,-0.48871 0.840205,-1.28127 1.166607,-1.76614 5.009628,-7.44183 11.085511,-14.170797 17.976227,-19.916275 0.448921,-0.37431 1.183522,-0.973053 1.640644,-1.337302 1.721834,-1.372012 3.490546,-2.683784 5.302944,-3.931935 0.481387,-0.331518 1.26833,-0.859553 1.753538,-1.18546 l 0.319078,-0.214319 a 1.0581027,1.0581027 101.10514 0 0 0.28825,-1.468524 L 51.40475,73.05614 a 1.0585636,1.0585636 11.105131 0 0 -1.468844,-0.288312 z m 107.321984,0.373291 -1.61148,2.389617 a 1.0586779,1.0586779 79.003612 0 0 0.28554,1.469468 l 0.31774,0.214416 c 0.4845,0.326959 1.27042,0.856509 1.75125,1.188834 7.37284,5.095722 14.02028,11.245522 19.67749,18.197702 0.36891,0.453364 0.95883,1.195072 1.31761,1.656494 1.35689,1.74504 2.65332,3.53705 3.88419,5.37185 0.32563,0.4854 0.8441,1.27867 1.1642,1.76773 l 0.20996,0.32076 a 1.0583315,1.0583315 11.794114 0 0 1.46511,0.30592 l 2.41256,-1.57909 a 1.0583328,1.0583328 101.79405 0 0 0.30592,-1.46512 l -0.20994,-0.32075 c -0.32011,-0.48906 -0.83861,-1.28231 -1.16392,-1.76792 -1.31602,-1.964486 -2.70218,-3.881713 -4.15382,-5.746804 -0.35901,-0.461253 -0.94892,-1.202957 -1.31758,-1.65653 -5.97594,-7.352345 -12.99864,-13.848094 -20.79669,-19.230973 -0.48102,-0.332044 -1.2671,-0.861366 -1.75181,-1.188012 l -0.31696,-0.213604 a 1.0586713,1.0586713 168.98514 0 0 -1.46937,0.286012 z m -141.992396,38.339851 -0.167706,0.3447 c -0.25572,0.52559 -0.670869,1.3775 -0.920935,1.90581 -1.655297,3.49707 -3.104686,7.0914 -4.3387594,10.75783 -0.1864561,0.55396 -0.4792233,1.4553 -0.6538177,2.01312 -2.3817315,7.60941 -3.832959,15.50372 -4.3290909,23.45854 -0.036384,0.58336 -0.085051,1.52979 -0.1156278,2.11349 l -0.02013,0.38428 a 1.0575311,1.0575311 47.976966 0 0 1.0015611,1.11144 l 2.880289,0.1487 a 1.0583104,1.0583104 137.95462 0 0 1.1114662,-1.00237 l 0.019825,-0.38419 c 0.030122,-0.58373 0.078388,-1.53018 0.1151115,-2.11352 0.4733775,-7.5195 1.8469565,-14.98417 4.0927275,-22.17332 0.174282,-0.55791 0.467059,-1.45925 0.653835,-2.0131 1.162272,-3.44653 2.52493,-6.82528 4.078974,-10.11328 0.249766,-0.52844 0.664944,-1.38034 0.920664,-1.90593 l 0.167706,-0.3447 a 1.0583321,1.0583321 70.944508 0 0 -0.488651,-1.41469 l -2.592747,-1.26146 a 1.0583345,1.0583345 160.94451 0 0 -1.414695,0.48865 z m 176.655156,-0.34953 -2.59325,1.25665 a 1.0585152,1.0585152 109.15077 0 0 -0.49104,1.414 l 0.16712,0.34504 c 0.2548,0.52604 0.6686,1.37861 0.91753,1.90745 3.35672,7.13096 5.80975,14.6908 7.28176,22.43391 0.10917,0.57421 0.2757,1.50717 0.37202,2.08367 0.54181,3.24325 0.91392,6.51595 1.11604,9.7989 0.0359,0.58339 0.0832,1.52989 0.11293,2.11364 l 0.0194,0.38216 a 1.0587435,1.0587435 42.099584 0 0 1.11075,1.00362 l 2.87821,-0.14526 a 1.0587477,1.0587477 132.1219 0 0 1.00406,-1.11036 l -0.0191,-0.38207 c -0.0292,-0.58377 -0.0762,-1.53029 -0.11182,-2.1137 -0.21317,-3.49242 -0.60951,-6.97414 -1.18827,-10.42589 -0.0967,-0.57645 -0.2632,-1.5094 -0.37202,-2.08368 -1.55305,-8.19571 -4.14645,-16.18937 -7.70366,-23.73477 -0.24925,-0.52869 -0.66332,-1.38113 -0.91848,-1.90699 l -0.16775,-0.34568 a 1.0588942,1.0588942 19.130663 0 0 -1.41442,-0.49064 z m 6.95274,46.38744 -0.0105,0.38412 c -0.016,0.58429 -0.0413,1.53163 -0.0638,2.11569 -0.29029,7.52841 -1.47744,15.02439 -3.54392,22.26606 -0.16038,0.56206 -0.43073,1.47038 -0.60372,2.02869 -1.07684,3.47526 -2.35595,6.8873 -3.82882,10.21349 -0.23666,0.53444 -0.63049,1.39642 -0.87291,1.92828 l -0.15923,0.34935 a 1.0590517,1.0590517 69.522673 0 0 0.52378,1.40261 l 2.62144,1.19699 a 1.0583659,1.0583659 159.54299 0 0 1.40234,-0.52312 l 0.15982,-0.34997 c 0.24279,-0.53169 0.6369,-1.39354 0.87384,-1.92786 1.56884,-3.53786 2.92809,-7.16705 4.07107,-10.86389 0.17265,-0.55842 0.44299,-1.46674 0.60372,-2.0287 2.19238,-7.66548 3.44832,-15.59204 3.75094,-23.5552 0.0222,-0.58407 0.0479,-1.5314 0.0643,-2.11568 l 0.0108,-0.38416 a 1.0575133,1.0575133 46.588527 0 0 -1.02819,-1.08685 l -2.88407,-0.0789 a 1.0583499,1.0583499 136.56677 0 0 -1.08689,1.02901 z m -190.1904925,3.51906 -2.8755606,0.21513 a 1.0578909,1.0578909 130.70943 0 0 -0.9759845,1.13431 l 0.028701,0.38149 c 0.043851,0.58285 0.1141211,1.52792 0.1638744,2.1103 0.2990394,3.50034 0.7835126,6.98497 1.4510904,10.43443 0.1110574,0.57385 0.205749,1.03796 0.204672,1.03796 1.9731286,9.17691 4.7625424,17.09022 8.4986544,24.53327 0.262214,0.52238 0.697077,1.3644 0.965026,1.88387 l 0.176154,0.3415 a 1.0585115,1.0585115 17.719407 0 0 1.425823,0.45557 l 2.562044,-1.32099 a 1.05889,1.05889 107.7393 0 0 0.456146,-1.42592 l -0.175507,-0.34084 c -0.267589,-0.51965 -0.702189,-1.3618 -0.964093,-1.88434 -3.525904,-7.03469 -6.162846,-14.51747 -7.826036,-22.2084 -0.123544,-0.57129 -0.313417,-1.49978 -0.42414,-2.07369 -0.625308,-3.24122 -1.08039,-6.5163 -1.363213,-9.8055 -0.050073,-0.58234 -0.1203135,-1.52742 -0.1641653,-2.11027 l -0.028702,-0.38149 a 1.0587772,1.0587772 40.709398 0 0 -1.1347845,-0.97639 z m 176.7132725,43.95453 -0.20249,0.32561 c -0.30868,0.49635 -0.80875,1.30135 -1.12315,1.79409 -4.83455,7.57679 -10.7576,14.46306 -17.52216,20.38283 -0.43986,0.38493 -1.15995,1.00105 -1.60819,1.37617 -1.6754,1.40211 -3.39854,2.74713 -5.16604,4.02971 -0.47307,0.34329 -1.24677,0.89053 -1.72379,1.22832 l -0.31359,0.22207 a 1.0578574,1.0578574 99.683482 0 0 -0.2517,1.47505 l 1.6666,2.35127 a 1.0594861,1.0594861 9.7017856 0 0 1.47611,0.25236 l 0.31282,-0.22122 c 0.47723,-0.33749 1.25109,-0.88451 1.72434,-1.22755 1.89218,-1.37157 3.73482,-2.81056 5.52546,-4.31094 0.44801,-0.37539 1.1681,-0.99151 1.60818,-1.37618 7.15373,-6.25306 13.4093,-13.52505 18.51636,-21.53916 0.31412,-0.49291 0.81448,-1.29773 1.12348,-1.79388 l 0.20326,-0.32634 a 1.0579838,1.0579838 76.905784 0 0 -0.33903,-1.45756 l -2.44903,-1.52416 a 1.05798,1.05798 166.88676 0 0 -1.45744,0.33951 z m -161.325631,3.52688 -2.3735,1.63904 a 1.058439,1.058439 100.37561 0 0 -0.269572,1.47231 l 0.217332,0.31478 c 0.332086,0.481 0.869965,1.26125 1.207126,1.7387 1.353345,1.91647 2.774634,3.78404 4.259058,5.59962 0.369969,0.4525 0.977443,1.1799 1.356831,1.62454 6.161371,7.22107 13.350993,13.55886 21.294037,18.75891 0.489024,0.32015 1.287897,0.82995 1.780529,1.14452 l 0.323443,0.20654 a 1.059128,1.059128 167.58189 0 0 1.462241,-0.32198 l 1.552856,-2.42782 a 1.0586795,1.0586795 77.612765 0 0 -0.321123,-1.4621 l -0.322719,-0.20657 c -0.492293,-0.3151 -1.29091,-0.82531 -1.77975,-1.14573 -7.509818,-4.92257 -14.318383,-10.92288 -20.151388,-17.75105 -0.379646,-0.44442 -0.987122,-1.17182 -1.356852,-1.62452 -1.387307,-1.69863 -2.716065,-3.44441 -3.981673,-5.23439 -0.337442,-0.47725 -0.875123,-1.25764 -1.206996,-1.73878 l -0.218104,-0.31621 a 1.0577589,1.0577589 10.388297 0 0 -1.471776,-0.26981 z m 125.754491,30.70744 -0.33756,0.17923 c -0.51624,0.27411 -1.35292,0.71917 -1.87218,0.9875 -7.16028,3.70013 -14.80234,6.47502 -22.66889,8.22788 -0.57051,0.12712 -1.03519,0.2243 -1.03629,0.2243 -4.08644,0.82095 -7.16574,1.27799 -10.26064,1.5821 -0.5817,0.0572 -1.52587,0.13865 -2.10817,0.18931 l -0.38348,0.0334 a 1.058264,1.058264 130.02636 0 0 -0.96256,1.14607 l 0.25001,2.87177 a 1.058331,1.058331 40.024424 0 0 1.14614,0.96256 l 0.38153,-0.0332 c 0.5823,-0.0507 1.52647,-0.13225 2.1082,-0.18905 3.29672,-0.32189 6.57739,-0.80782 9.82551,-1.45726 0.57316,-0.1146 1.50043,-0.31027 2.07101,-0.43705 8.32658,-1.85019 16.40838,-4.78443 23.98343,-8.70448 0.51911,-0.26863 1.3558,-0.71366 1.87204,-0.98777 l 0.33755,-0.17924 a 1.0581736,1.0581736 107.02845 0 0 0.43828,-1.43098 l -1.35273,-2.54669 a 1.0584988,1.0584988 17.0286 0 0 -1.4312,-0.43834 z m -88.540213,2.58001 -1.22979,2.6071 a 1.0581583,1.0581583 70.248823 0 0 0.505751,1.40854 l 0.347194,0.16371 c 0.528681,0.24927 1.385623,0.65393 1.916976,0.89745 3.517451,1.61207 7.129101,3.0163 10.810714,4.20485 0.556231,0.17957 1.461127,0.46116 2.021054,0.62884 7.638588,2.28764 15.5504,3.64254 23.510629,4.04193 0.583764,0.0293 1.530735,0.0659 2.114785,0.0888 l 0.38301,0.015 a 1.0587268,1.0587268 137.25037 0 0 1.09927,-1.01615 l 0.11376,-2.88108 a 1.0578979,1.0578979 47.249234 0 0 -1.01578,-1.09883 l -0.38298,-0.015 c -0.58406,-0.0228 -1.531034,-0.0594 -2.114782,-0.089 -7.524718,-0.38181 -15.005334,-1.66283 -22.221492,-3.81928 -0.560027,-0.16735 -1.464926,-0.44894 -2.021045,-0.62886 -3.461,-1.1197 -6.857016,-2.44121 -10.164213,-3.95479 -0.531481,-0.24324 -1.388548,-0.64764 -1.917398,-0.89656 l -0.346585,-0.16312 a 1.059225,1.059225 160.22943 0 0 -1.409078,0.50648 z"
       id="circle626" /><path
       id="circle643"
       style="display:inline;opacity:1;fill:#ffffff;fill-opacity:1;stroke-width:5;stroke-linecap:square;stroke-linejoin:bevel;stroke-miterlimit:2.6;stroke-dasharray:38.75, 12.5;stroke-dashoffset:48.5"
       d="m 103.47125,100.89647 c -2.98405,0.0536 -5.958899,0.34833 -8.895474,0.88125 -0.431327,0.0783 -0.937377,0.46592 -1.131573,0.85894 l -9.949852,20.13669 a 2.3626171,2.3626171 134.86509 0 1 -1.061577,1.06659 L 61.87418,134.11899 a 1.3005924,1.3005924 122.03983 0 0 -0.718879,1.14867 l -0.126846,11.2821 a 3.1945414,3.1945414 104.59791 0 1 -0.388297,1.49092 l -10.208543,18.76144 c -0.209522,0.38506 -0.307964,1.04537 -0.213098,1.47335 5.552048,25.04794 27.599616,43.01208 53.252723,43.38979 0.43832,0.006 1.1491,0.007 1.58743,4.9e-4 29.96213,-0.42076 54.17192,-24.63055 54.59268,-54.59268 0.006,-0.43833 0.006,-1.14911 -1e-5,-1.58744 -0.42104,-29.96192 -24.63074,-54.1714 -54.59267,-54.59216 -0.43833,-0.006 -1.14912,-0.005 -1.58742,0.003 z m -10.656243,33.52023 23.362913,0.003 a 1.3748223,1.3748223 30.006764 0 1 1.19055,0.68755 l 11.67903,20.23411 a 1.3748286,1.3748286 90.006398 0 1 -1.5e-4,1.37482 l -11.68338,20.23118 a 1.3747951,1.3747951 150.00652 0 1 -1.1907,0.68727 l -23.362914,-0.003 a 1.3748382,1.3748382 30.006477 0 1 -1.190552,-0.68755 l -11.67902,-20.2336 a 1.3748292,1.3748292 90.005813 0 1 1.4e-4,-1.37482 l 11.683391,-20.23169 a 1.3747786,1.3747786 150.00623 0 1 1.190692,-0.68727 z m 3.480345,8.78032 -7.010301,12.13968 a 1.3748362,1.3748362 90.005531 0 0 -1.33e-4,1.37482 l 7.007983,12.14107 a 1.3748551,1.3748551 30.006625 0 0 1.190554,0.68755 l 14.018785,0.002 a 1.3747542,1.3747542 150.00624 0 0 1.19069,-0.68727 l 7.01029,-12.13968 a 1.3748367,1.3748367 90.005524 0 0 1.4e-4,-1.37482 l -7.00799,-12.14107 a 1.374855,1.374855 30.006627 0 0 -1.19055,-0.68755 l -14.018781,-0.002 a 1.3747547,1.3747547 150.00625 0 0 -1.190687,0.68727 z m 3.933158,4.06332 8.53333,8.4e-4 a 1.3747607,1.3747607 30.006648 0 1 1.19053,0.68754 l 4.26556,7.39043 a 1.3748764,1.3748764 90.006532 0 1 -1.6e-4,1.37483 l -4.26731,7.38958 a 1.3748089,1.3748089 150.00555 0 1 -1.19069,0.68729 l -8.53333,-8.4e-4 a 1.3747601,1.3747601 30.006657 0 1 -1.190533,-0.68754 l -4.265556,-7.39044 a 1.3748763,1.3748763 90.006553 0 1 1.57e-4,-1.37483 l 4.267309,-7.38957 a 1.3748096,1.3748096 150.00556 0 1 1.190693,-0.68729 z" /></g></svg>
