<?xml version="1.0" encoding="UTF-8" standalone="no"?>
<!-- Created with Inkscape (http://www.inkscape.org/) -->

<svg
   width="176.84126mm"
   height="192.39827mm"
   viewBox="0 0 176.84126 192.39827"
   version="1.1"
   id="svg5"
   xml:space="preserve"
   xmlns="http://www.w3.org/2000/svg"
   xmlns:svg="http://www.w3.org/2000/svg"><defs
     id="defs2" /><g
     id="g4522"
     transform="translate(-17.177758,-32.222442)"><path
       id="circle4512"
       style="display:inline;opacity:1;fill:none;fill-opacity:1;stroke:#ffffff;stroke-width:6.92;stroke-linecap:square;stroke-linejoin:round;stroke-miterlimit:2.6;stroke-dasharray:none;stroke-dashoffset:48.5001;stroke-opacity:1"
       d="M 20.637254,35.681825 99.858311,199.29257 c 9.216289,13.66907 24.622679,21.86469 41.108529,21.86813 27.38901,-3e-5 49.59215,-22.20318 49.59218,-49.59218 -0.002,-20.42623 -12.52744,-38.76193 -31.55465,-46.19131 z" /><path
       id="circle4516"
       style="display:inline;opacity:1;fill:#ffffff;fill-opacity:1;stroke-width:4.99999;stroke-linecap:square;stroke-linejoin:bevel;stroke-miterlimit:2.6;stroke-dasharray:38.7501, 12.5;stroke-dashoffset:48.5"
       d="m 87.261999,102.4303 -0.289155,0.32429 a 1.7463622,1.7463622 94.577174 0 0 -0.168304,2.1023 l 12.109816,18.95909 a 1.8772976,1.8772976 92.604307 0 1 -0.09827,2.16054 l -2.861626,3.69234 a 2.4387041,2.4387041 99.297982 0 0 -0.375758,2.29512 l 2.601318,7.47821 a 1.8803489,1.8803489 105.94786 0 1 -0.594568,2.08065 l -1.70157,1.37417 a 1.9759149,1.9759149 107.27296 0 0 -0.652807,2.09941 l 6.950608,23.41956 c 0.20788,0.70043 0.33571,1.85934 0.31344,2.58959 -0.0135,0.44142 -0.0178,1.39195 0.008,2.12208 0.25852,7.29585 2.57768,14.37049 6.68922,20.40301 0.41146,0.6037 1.01281,1.6203 1.40414,2.23673 4.58689,7.22532 19.64299,13.89866 29.21829,14.63073 0.72839,0.0557 1.91368,0.0658 2.64386,0.0412 20.29786,-0.68257 36.6291,-17.01381 37.31167,-37.31167 0.0246,-0.73018 0.0246,-1.91516 -3.3e-4,-2.64533 -0.49204,-14.4376 -9.00619,-27.40658 -22.0577,-33.59886 -0.66007,-0.31316 -1.68545,-0.89247 -2.27856,-1.31913 l -31.5979,-22.72995 a 1.4261679,1.4261679 172.88029 0 0 -1.92483,0.24042 l -1.33469,1.58887 a 1.5116818,1.5116818 171.22133 0 1 -1.96774,0.30387 l -6.87586,-4.36547 a 2.2021733,2.2021733 1.4168458 0 0 -2.26735,-0.0561 l -3.04902,1.73051 a 2.1406487,2.1406487 2.1382305 0 1 -2.24915,-0.084 l -14.92621,-10.0127 a 1.5183024,1.5183024 172.78815 0 0 -1.979051,0.25043 z m 43.029491,60.99006 22.82504,2.98256 a 0.79514565,0.79514565 66.43651 0 1 0.5449,1.24938 l -13.79349,19.389 a 0.72687273,0.72687273 6.6418628 0 1 -1.26554,-0.14736 l -9.12401,-22.41966 a 0.77012139,0.77012139 127.65004 0 1 0.8131,-1.05392 z" /></g></svg>
