<?xml version="1.0" encoding="UTF-8" standalone="no"?>
<!-- Created with Inkscape (http://www.inkscape.org/) -->

<svg
   width="182.4881mm"
   height="198.32774mm"
   viewBox="0 0 182.48809 198.32774"
   version="1.1"
   id="svg5"
   xml:space="preserve"
   inkscape:version="1.3 (0e150ed6c4, 2023-07-21)"
   sodipodi:docname="interloper_wip.svg"
   inkscape:export-filename="interloper.svg"
   inkscape:export-xdpi="556.7486"
   inkscape:export-ydpi="556.7486"
   xmlns:inkscape="http://www.inkscape.org/namespaces/inkscape"
   xmlns:sodipodi="http://sodipodi.sourceforge.net/DTD/sodipodi-0.dtd"
   xmlns="http://www.w3.org/2000/svg"
   xmlns:svg="http://www.w3.org/2000/svg"><sodipodi:namedview
     id="namedview7"
     pagecolor="#505050"
     bordercolor="#ffffff"
     borderopacity="1"
     inkscape:showpageshadow="0"
     inkscape:pageopacity="0"
     inkscape:pagecheckerboard="1"
     inkscape:deskcolor="#505050"
     inkscape:document-units="mm"
     showgrid="false"
     inkscape:zoom="0.91490602"
     inkscape:cx="78.150103"
     inkscape:cy="171.60232"
     inkscape:window-width="2560"
     inkscape:window-height="1366"
     inkscape:window-x="0"
     inkscape:window-y="0"
     inkscape:window-maximized="1"
     inkscape:current-layer="g3" /><defs
     id="defs2"><inkscape:path-effect
       effect="fillet_chamfer"
       id="path-effect3"
       is_visible="true"
       lpeversion="1"
       nodesatellites_param="F,1,0,1,0,0.05,0,1 @ F,1,0,1,0,0.05,0,1 @ F,1,0,1,0,0.05,0,1 @ F,1,0,1,0,0.05,0,1 @ F,1,0,1,0,0.05,0,1"
       radius="5"
       unit="px"
       method="auto"
       mode="F"
       chamfer_steps="1"
       flexible="true"
       use_knot_distance="true"
       apply_no_radius="true"
       apply_with_radius="true"
       only_selected="false"
       hide_knots="false" /></defs><g
     inkscape:groupmode="layer"
     id="g3"
     inkscape:label="final"
     style="display:inline"
     transform="rotate(0.04192243,39958.953,-19421.209)"
     inkscape:transform-center-x="39.325098"
     inkscape:transform-center-y="-46.937378"><path
       id="circle1"
       style="opacity:1;fill:none;fill-opacity:1;stroke:#ffffff;stroke-width:6.3;stroke-linecap:round;stroke-linejoin:bevel;stroke-miterlimit:2.6;stroke-dasharray:none;stroke-dashoffset:48.5001;stroke-opacity:1"
       inkscape:label="outline"
       d="M 17.608965,36.044205 91.281704,188.9302 c 0.760866,1.57896 1.909449,4.17822 2.67224,5.75595 8.085586,16.72395 24.418126,27.91857 42.873686,29.47142 2.37329,0.19968 6.24347,0.20388 8.61735,0.0112 26.07058,-2.11642 46.76001,-23.26611 48.15389,-49.53458 0.0828,-1.56095 0.0824,-4.09776 -0.002,-5.65862 -0.80092,-14.79732 -7.81174,-28.47424 -19.12185,-37.75859 -3.88153,-3.1863 -10.93331,-7.33813 -15.16698,-10.05069 L 21.320446,32.755924 a 2.5768086,2.5768086 138.45985 0 0 -3.711481,3.288281 z"
       inkscape:path-effect="#path-effect3"
       inkscape:original-d="M 13.658943,27.847103 92.659374,191.78915 a 52.537933,52.537933 0 0 0 48.476686,32.55377 52.537933,52.537933 0 0 0 52.53769,-52.5381 52.537933,52.537933 0 0 0 -26.70005,-45.72703 z" /><path
       id="circle2"
       style="opacity:1;fill:#ffffff;fill-opacity:1;stroke-width:5;stroke-linecap:square;stroke-linejoin:bevel;stroke-miterlimit:2.6;stroke-dasharray:38.7502, 12.5;stroke-dashoffset:48.5001"
       inkscape:label="core"
       d="m 82.425184,97.608049 a 0.11044318,0.11044318 0 0 0 -0.154402,0.151008 l 17.070715,26.725933 a 0.75092682,0.75092682 0 0 1 -0.03916,0.86406 l -3.833873,4.94721 a 0.97556108,0.97556108 0 0 0 -0.150224,0.91788 l 3.122142,8.97805 a 0.75226331,0.75226331 0 0 1 -0.237619,0.83217 l -2.936071,2.37151 a 0.83879676,0.83879676 0 0 0 -0.288768,0.84719 l 7.808476,32.71839 c 0.0678,0.28427 0.15708,0.74904 0.20385,1.03752 3.00091,18.50816 18.86822,32.19989 37.6163,32.45887 0.29221,0.004 0.76611,0.004 1.05833,2.6e-4 20.92957,-0.2808 37.84312,-17.19472 38.12379,-38.12429 0.004,-0.29222 0.004,-0.76611 -2.5e-4,-1.05833 -0.20859,-15.00137 -9.08402,-28.53202 -22.76096,-34.69855 -0.26642,-0.12012 -0.67626,-0.35267 -0.91351,-0.52333 l -32.9223,-23.68248 a 0.57044777,0.57044777 0 0 0 -0.76991,0.0962 l -2.35594,2.80414 a 0.60465365,0.60465365 0 0 1 -0.78695,0.12202 l -8.21624,-5.21693 a 0.8808886,0.8808886 0 0 0 -0.90693,-0.0221 l -4.42942,2.51368 a 0.85629472,0.85629472 0 0 1 -0.89971,-0.0335 z m 50.267006,64.677121 a 0.77010273,0.77010273 0 0 1 0.39638,0.0245 l 21.83553,7.28797 a 0.79515437,0.79515437 0 0 1 0.29605,1.33045 l -17.24277,16.39715 a 0.72688254,0.72688254 0 0 1 -1.21416,-0.38668 l -4.67395,-23.74966 a 0.77010273,0.77010273 0 0 1 0.60292,-0.90374 z" /></g></svg>
