<!-- Inspired from Reddit u/CyanT9 -->
<svg width="1299" height="1299" viewBox="0 0 1299 1299" xmlns="http://www.w3.org/2000/svg">
<path style="fill:white;" fill-rule="evenodd" clip-rule="evenodd" d="M643 1252C972.162 1252 1239 985.162 1239 656C1239 326.838 972.162 60 643 60C313.838 60 47 326.838 47 656C47 985.162 313.838 1252 643 1252ZM818.35 1172.18C1018.39 1104.24 1166.23 923.286 1185.79 705.369L757.138 690.631C748.43 719.972 728.618 744.538 702.574 759.459L818.35 1172.18ZM649.771 774.861L765.439 1187.19C726.082 1196.23 685.099 1201 643 1201C464.677 1201 306.357 1115.36 206.928 982.957L564.853 744.522C585.786 763.463 613.546 775 644 775C645.935 775 647.859 774.953 649.771 774.861ZM533.752 699.154C528.744 686.063 526 671.852 526 657C526 640.133 529.539 624.092 535.915 609.579L197.482 342.013C134.814 430.771 98 539.086 98 656C98 758.952 126.546 855.237 176.155 937.371L533.752 699.154ZM569.169 565.758C589.533 549.037 615.595 539 644 539C648.79 539 653.513 539.285 658.153 539.84L807.674 136.32C755.719 119.872 700.396 111 643 111C478.681 111 331.346 183.721 231.423 298.734L569.169 565.758ZM709.716 558.978C735.635 576.389 754.268 603.808 760.083 635.7L1187.97 650.411C1185.74 428.622 1051.03 238.555 859.197 155.565L709.716 558.978Z"/>
<path style="fill:white;" fill-rule="evenodd" clip-rule="evenodd" d="M360 657C360 608.544 372.135 562.923 393.533 523.009L519.408 622.526C516.378 633.501 514.76 645.062 514.76 657C514.76 667.912 516.112 678.508 518.658 688.629L386.399 776.735C369.459 740.351 360 699.78 360 657ZM436.325 850.721C488.164 906.27 562.026 941 644 941C654.677 941 665.217 940.411 675.588 939.263L632.521 785.738C608.987 783.666 587.264 775.288 569.053 762.303L436.325 850.721ZM922.481 712.996C904.733 801.752 845.614 875.572 766.085 913.493L722.859 759.401C740.327 745.929 754.252 728.087 762.997 707.512L922.481 712.996ZM926.187 624.731C915.858 533.403 862.213 455.201 786.29 411.162L730.708 561.162C747.813 576.646 760.753 596.646 767.649 619.28L926.187 624.731ZM640.812 527.798C617.636 528.359 595.972 535.021 577.365 546.24L452.355 447.407C502.868 401.194 570.141 373 644 373C661.896 373 679.406 374.655 696.385 377.821L640.812 527.798Z"/>
<path style="fill:white;" d="M708 344.5C565.6 316.5 461.667 386.167 427.5 424.5L389.5 393L314.5 236.5L345 213.5L472.5 333.5C504.1 311.5 559.333 299.333 583 296L602 184H636V217.5H653.5V184H686L706.5 296L725.5 300C708 344.5 716.5 322.5 708 344.5Z"/>
<path style="fill:white;" d="M365.597 499.282C295.723 626.48 330.583 746.648 356.747 790.833L315.205 817.488L143.328 841.485L130.663 805.445L283.683 720.351C272.305 683.566 277.465 627.245 281.467 603.682L180.506 551.605L190.819 519.207L222.741 529.368L228.049 512.693L196.127 502.531L205.985 471.562L318.927 486L328.502 469.109C365.597 499.282 347.212 484.509 365.597 499.282Z"/>
<path style="fill:white;" d="M407.786 872.201C507.161 977.967 632.22 981.953 682.327 970.726L694.838 1018.47L664.54 1189.35L626.35 1190.26L592.715 1018.43C554.215 1017.88 502.245 995.568 481.073 984.479L400.342 1064.4L372.718 1044.58L392.247 1017.36L378.029 1007.16L358.499 1034.38L332.093 1015.43L380.73 912.482L367.625 898.155C407.786 872.201 388.054 885.121 407.786 872.201Z"/>
<path style="fill:white;" d="M776.503 947.62C907.8 885.791 950.237 768.085 955.043 716.961L1004.32 719.817L1157.47 801.437L1146.53 838.037L972.72 816.929C960.302 853.375 923.02 895.906 905.932 912.615L956.996 1014.09L929.608 1034.24L909.757 1007.25L895.66 1017.62L915.512 1044.61L889.332 1063.87L806.451 985.798L788.776 993.835C776.503 947.62 782.692 970.378 776.503 947.62Z"/>
<path style="fill:white;" d="M961.754 623.015C943.524 479.037 844.693 402.304 797.556 381.935L815.499 335.953L940.451 215.519L971.88 237.233L898.093 396.016C928.919 419.088 957.847 467.688 968.458 489.103L1080.75 471.897L1091.45 504.17L1059.65 514.711L1065.15 531.322L1096.95 520.781L1107.18 551.63L1007.32 606.33L1009.5 625.624C961.754 623.015 985.311 624.161 961.754 623.015Z"/>
</svg>
