<?xml version="1.0" encoding="UTF-8" standalone="no"?>
<!-- Created with Inkscape (http://www.inkscape.org/) -->

<svg
   width="211.94676mm"
   height="165.43175mm"
   viewBox="0 0 211.94676 165.43175"
   version="1.1"
   id="svg5"
   xml:space="preserve"
   sodipodi:docname="eye_white.svg"
   inkscape:export-filename="full_eye_white.png"
   inkscape:export-xdpi="479.3652"
   inkscape:export-ydpi="479.3652"
   inkscape:version="1.2 (dc2aedaf03, 2022-05-15)"
   xmlns:inkscape="http://www.inkscape.org/namespaces/inkscape"
   xmlns:sodipodi="http://sodipodi.sourceforge.net/DTD/sodipodi-0.dtd"
   xmlns="http://www.w3.org/2000/svg"
   xmlns:svg="http://www.w3.org/2000/svg"><sodipodi:namedview
     id="namedview73"
     pagecolor="#505050"
     bordercolor="#ffffff"
     borderopacity="1"
     inkscape:showpageshadow="0"
     inkscape:pageopacity="0"
     inkscape:pagecheckerboard="1"
     inkscape:deskcolor="#505050"
     inkscape:document-units="mm"
     showgrid="false"
     inkscape:zoom="2.1361713"
     inkscape:cx="311.77275"
     inkscape:cy="297.26081"
     inkscape:window-width="2498"
     inkscape:window-height="1417"
     inkscape:window-x="2552"
     inkscape:window-y="-8"
     inkscape:window-maximized="1"
     inkscape:current-layer="layer4"
     showguides="false" /><defs
     id="defs2" /><g
     inkscape:groupmode="layer"
     id="layer4"
     inkscape:label="drawing"
     style="display:inline;fill:#ffffff;fill-opacity:1"><path
       id="path3698"
       style="display:inline;fill:#ffffff;fill-opacity:1;stroke-width:0.2;stroke-linecap:round;stroke-linejoin:round;stroke-miterlimit:2.6"
       inkscape:label="all"
       d="M 178.2315 0 L 112.69286 62.77808 L 112.89698 66.970072 L 178.74309 0.30644124 L 178.2315 0 z M 100.88687 5.141805 L 99.874524 5.214152 L 100.23626 53.509395 L 96.598755 56.782064 L 98.35627 58.092061 L 102.26042 54.52122 L 100.88687 5.141805 z M 129.22725 26.108484 L 109.63465 55.967126 L 109.69873 68.75601 L 114.5005 73.723665 L 118.56744 73.684908 L 111.69757 67.309587 L 111.64642 57.537056 L 130.01429 26.895516 L 129.22725 26.108484 z M 86.211275 30.264303 L 85.649036 30.571261 L 93.317301 54.035978 L 95.617936 56.234294 L 98.736092 53.167297 L 97.713932 45.600834 L 97.151693 45.754313 L 96.742415 52.2981 L 95.055697 52.860339 L 86.211275 30.264303 z M 52.230404 32.181498 L 51.651628 32.759757 L 85.342594 65.583077 L 85.848507 79.319706 L 94.821086 79.337793 A 8.2818251 8.2818251 0 0 1 95.349736 77.367887 L 87.439107 77.512065 L 87.36676 64.643083 L 52.230404 32.181498 z M 111.11673 40.676587 L 106.30927 53.03914 L 106.30927 56.907121 L 105.33311 56.870947 L 102.80251 59.293022 L 108.73083 59.184501 L 108.58665 53.870614 L 111.76734 40.784591 L 111.11673 40.676587 z M 76.919853 40.893111 L 76.30542 41.218673 L 89.644141 59.112154 L 92.789168 58.172677 L 98.24775 63.161003 L 96.657149 64.968644 L 101.06257 68.657308 L 100.98557 61.832402 L 93.24082 55.697892 L 89.892187 56.311292 L 76.919853 40.893111 z M 104.86285 41.47137 L 104.28459 41.616064 L 103.63398 54.810608 L 99.151571 58.859456 L 100.45278 60.015975 L 105.18841 55.425041 L 104.86285 41.47137 z M 82.052873 55.750602 L 81.474613 56.654423 L 90.403267 65.366036 L 94.625232 61.504773 L 92.866166 60.139998 L 90.15057 62.582743 L 82.052873 55.750602 z M 70.955359 57.557727 L 70.665971 58.064156 L 81.004875 66.523071 L 79.197233 68.691931 L 82.812 71.294356 L 82.740169 74.259033 L 76.034119 74.312777 L 76.124552 79.41014 L 78.401933 79.392053 L 78.401933 75.921464 L 84.909029 76.210852 L 84.691988 69.703756 L 82.089046 67.534896 L 83.390776 65.944295 L 70.955359 57.557727 z M 112.70061 58.4724 L 112.81585 61.100663 L 114.4788 59.293022 L 112.70061 58.4724 z M 108.60319 60.017525 L 102.26353 60.222164 L 101.93435 72.3191 A 8.2818251 8.2818251 0 0 1 102.95392 72.184741 A 8.2818251 8.2818251 0 0 1 103.44743 72.206445 L 103.69548 62.062362 L 106.55784 62.062362 L 106.52011 72.995028 A 8.2818251 8.2818251 0 0 1 108.54325 74.366003 L 108.60319 60.017525 z M 95.310978 61.960042 L 88.46075 68.810787 L 95.515617 76.376733 L 95.720256 73.41154 L 91.016667 68.810787 L 96.435974 63.28916 L 95.310978 61.960042 z M 134.36079 62.257182 L 123.76919 67.67959 L 123.80536 73.644084 L 126.0104 75.487899 L 126.0104 69.884623 L 134.72201 62.871615 L 134.36079 62.257182 z M 119.24854 62.552771 L 117.9282 63.978007 L 120.89805 66.855351 L 120.82105 74.485376 L 115.3511 74.536536 L 115.3511 76.274414 L 120.97453 76.069775 L 122.71292 74.127258 L 122.50828 65.743274 L 119.24854 62.552771 z M 104.92228 62.982719 L 104.43497 72.319617 A 8.2818251 8.2818251 0 0 1 105.67882 72.649829 L 105.43336 63.085038 L 104.92228 62.982719 z M 117.08949 64.618795 L 114.02198 67.685791 L 119.67073 73.07926 L 119.59425 69.462427 L 117.1913 67.583472 L 118.49096 66.137048 L 117.08949 64.618795 z M 88.306755 65.004818 L 88.379102 67.173678 L 89.536137 65.871948 L 88.306755 65.004818 z M 96.00861 65.737073 L 95.004537 66.663631 L 100.73029 72.491182 L 100.73029 69.832947 L 96.00861 65.737073 z M 84.484249 66.441423 L 83.463123 67.67959 L 84.547294 68.257849 L 84.484249 66.441423 z M 119.19634 66.69102 L 118.32973 67.601558 L 119.57461 68.600981 L 119.76685 67.205717 L 119.19634 66.69102 z M 94.168412 67.457381 L 92.478076 68.978735 L 98.028125 73.896781 A 8.2818251 8.2818251 0 0 1 100.06676 72.774886 L 94.168412 67.457381 z M 134.25227 68.764278 L 127.16691 71.511397 L 127.31161 76.861458 L 128.64899 78.017977 L 155.32902 77.34825 L 155.30318 76.427893 L 129.10116 76.662504 L 129.02882 72.288611 L 134.68584 69.487231 L 134.25227 68.764278 z M 63.819877 69.526506 L 63.30828 69.730627 L 82.095764 73.513859 L 82.057524 71.647823 L 63.819877 69.526506 z M 88.466435 70.320256 L 88.418376 76.389136 L 93.760168 76.352962 L 88.466435 70.320256 z M 109.67393 70.41534 L 110.22376 76.513159 A 8.2818251 8.2818251 0 0 1 111.23559 80.466406 A 8.2818251 8.2818251 0 0 1 111.08986 81.575382 L 116.37378 81.489083 L 116.36086 83.38044 L 118.99377 83.3422 L 118.95553 79.763607 L 111.94097 79.821484 L 111.70998 72.342354 L 109.67393 70.41534 z M 131.97489 73.427559 L 130.56516 73.897298 L 130.61942 75.234684 L 133.89054 75.108077 L 131.97489 73.427559 z M 96.603923 74.018221 L 96.458195 75.443974 A 8.2818251 8.2818251 0 0 1 97.129989 74.586145 L 96.603923 74.018221 z M 114.4788 74.511731 L 112.70733 74.547904 L 112.8882 78.849967 L 122.8292 78.560579 L 121.27477 77.042326 L 114.51497 77.150846 L 114.4788 74.511731 z M 69.238668 74.740658 L 73.532979 76.479053 L 73.737618 78.728528 L 57.88949 78.728528 L 75.066736 79.853007 L 74.958732 75.149935 L 69.238668 74.740658 z M 123.60641 74.98147 L 122.23285 76.482153 L 127.22118 80.620919 L 211.94675 78.523889 L 211.92143 77.935811 L 128.13171 79.163127 L 123.60641 74.98147 z M 84.812911 77.206657 L 79.667489 77.297091 L 79.661287 79.311955 L 81.868388 79.26958 L 81.908179 82.505558 L 93.110079 82.28645 L 93.050651 80.111389 L 84.882157 80.159965 L 84.812911 77.206657 z M 119.86503 79.861792 L 119.90121 84.525073 L 115.2741 84.4889 L 115.23793 82.753605 L 113.21376 82.862126 L 113.14141 85.537415 L 113.82819 86.332715 L 122.02253 86.064514 L 122.09901 81.770203 L 123.224 81.770203 L 125.98456 84.326119 L 131.71031 84.428438 L 144.00516 88.876229 L 144.66972 87.393632 L 131.07107 82.175346 L 127.23926 82.283866 L 124.23893 79.861792 L 119.86503 79.861792 z M 94.004081 80.050411 L 95.004537 98.97277 L 101.75245 98.768132 L 101.34368 90.179508 L 98.485978 87.387431 A 8.2818251 8.2818251 0 0 1 97.161511 86.371472 L 96.947054 88.44163 L 99.707609 90.793424 L 99.707609 97.030253 L 96.844735 97.030253 L 96.230302 85.191699 A 8.2818251 8.2818251 0 0 1 94.677425 80.507231 L 94.004081 80.050411 z M 80.868966 80.594564 L 0 81.133549 L 0 81.593986 L 78.56213 83.267786 L 80.971285 84.837716 L 80.868966 80.594564 z M 136.38806 81.795524 L 133.75514 81.974841 L 135.31422 82.664722 L 136.38806 81.795524 z M 110.99943 82.261646 A 8.2818251 8.2818251 0 0 1 110.90589 82.724666 L 110.95447 84.073938 L 112.49546 82.438379 L 110.99943 82.261646 z M 88.358431 83.303959 L 82.019283 83.4316 L 81.942802 85.144157 L 86.185954 85.041838 L 86.211275 86.089836 L 83.476558 86.166833 L 83.348401 95.803455 L 84.984477 97.848291 L 39.996525 138.33729 L 40.814563 138.95069 L 87.745032 97.95061 L 85.290918 94.883097 L 85.086796 87.955872 L 88.56307 87.93055 L 88.358431 83.303959 z M 89.278788 83.329281 L 89.789868 86.907874 L 93.368461 83.329281 L 89.278788 83.329281 z M 123.19041 83.440385 L 123.33511 89.549573 L 181.19669 119.31933 L 181.50365 118.60361 L 125.14275 87.850968 L 125.17892 84.994812 L 123.19041 83.440385 z M 110.37724 84.001591 A 8.2818251 8.2818251 0 0 1 109.445 85.49504 L 110.43977 84.73488 L 110.37724 84.001591 z M 112.00247 84.070837 L 108.57735 86.626754 L 115.3511 93.195862 L 115.27462 88.95271 L 112.00247 86.345634 L 112.00247 84.070837 z M 78.03193 84.556079 L 60.650045 87.214832 L 60.547725 87.725911 L 77.827291 86.089836 L 82.019283 90.179508 L 82.019283 87.214832 L 78.03193 84.556079 z M 92.959701 85.169995 L 87.642712 90.793424 L 91.016667 94.065059 L 93.488867 91.839872 L 93.260457 89.440019 L 91.323625 91.304504 L 90.607906 90.384147 L 93.163822 87.725911 L 92.959701 85.169995 z M 131.0349 85.537415 L 126.33544 85.609762 L 126.29927 86.947148 L 130.05873 89.079834 L 132.73402 86.476892 L 131.0349 85.537415 z M 121.95845 86.946114 L 120.14357 87.048433 L 121.98429 88.53103 L 121.95845 86.946114 z M 77.827291 87.317151 L 75.169055 87.725911 L 80.179085 93.656299 L 67.193831 102.34672 L 67.90955 102.96012 L 82.019283 94.883097 L 82.326241 92.326664 L 77.827291 87.317151 z M 107.78515 87.342472 L 102.90276 91.278666 L 102.95392 93.706942 L 108.09159 90.077706 L 121.43445 102.24441 L 122.30365 101.34989 L 107.78515 87.342472 z M 118.55917 87.406551 L 115.14646 87.444792 L 119.87537 91.138106 L 116.41202 94.33326 L 117.56233 95.420015 L 123.38988 90.678186 L 118.55917 87.406551 z M 106.30049 87.967757 A 8.2818251 8.2818251 0 0 1 105.91808 88.125887 L 106.01989 88.216321 L 106.30049 87.967757 z M 100.03317 88.143974 L 100.77886 88.841606 L 100.78196 88.454032 A 8.2818251 8.2818251 0 0 1 100.03317 88.143974 z M 104.5006 88.544466 A 8.2818251 8.2818251 0 0 1 102.95392 88.748071 A 8.2818251 8.2818251 0 0 1 101.51112 88.557902 L 101.51938 89.042627 L 102.71724 90.55778 L 104.5006 88.544466 z M 87.745032 88.95271 L 86.313595 89.055029 L 86.415914 90.384147 L 87.745032 88.95271 z M 116.5779 90.013627 C 116.5779 90.013627 116.47604 92.710103 116.56549 92.710103 C 116.65499 92.710103 118.25221 91.215104 118.25221 91.215104 L 116.5779 90.013627 z M 97.416276 90.381047 L 97.687577 96.201363 L 98.880269 96.129016 L 98.718005 91.682776 L 97.416276 90.381047 z M 86.487744 91.303988 L 86.614868 94.618514 L 91.630066 99.177409 L 84.371077 119.52397 L 84.779838 119.67745 L 94.007699 100.40421 L 93.929667 98.308211 L 86.487744 91.303988 z M 108.04043 91.355664 L 106.609 92.531303 L 128.79627 113.38946 L 129.76779 112.1115 L 108.04043 91.355664 z M 124.4198 91.393388 L 118.56331 96.309367 L 151.23883 120.75077 L 152.05687 119.67745 L 122.04836 96.109896 L 124.50196 93.656299 L 129.37195 96.851969 L 129.95072 95.984322 L 124.4198 91.393388 z M 105.58632 93.27286 L 102.80251 95.55024 L 103.0919 99.635262 L 95.572978 99.960824 L 94.235075 110.26304 L 94.850024 110.33538 L 97.380103 101.91264 L 105.29693 101.47908 L 105.04372 96.34554 L 105.69432 95.984322 L 109.05639 99.093176 C 109.05639 99.093176 110.6469 98.080754 110.5023 97.972314 C 110.3577 97.863866 105.58632 93.27286 105.58632 93.27286 z M 93.602555 93.399467 L 91.975781 94.990068 L 93.91003 96.761536 L 93.602555 93.399467 z M 106.12841 98.117008 C 106.12841 98.117008 106.01998 101.65987 106.16458 101.55142 C 106.30918 101.44298 108.29727 99.707609 108.29727 99.707609 L 106.12841 98.117008 z M 111.36375 98.615169 L 108.29623 101.42688 L 141.57689 165.43176 L 142.49725 164.97184 L 111.77251 103.1136 L 113.10162 102.09144 L 116.2203 104.18744 L 116.78254 103.31824 L 111.36375 98.615169 z M 107.40171 102.55136 L 104.23188 102.756 L 105.8168 122.38684 L 106.83947 122.48916 L 106.0726 106.61571 L 106.89012 105.87416 L 107.73399 106.00232 L 110.00879 110.65423 L 110.51987 110.39843 L 107.40171 102.55136 z M 100.74217 102.70794 L 101.71834 145.50843 L 102.9472 145.39991 L 102.9472 102.78029 L 100.74217 102.70794 z M 99.693656 102.96116 L 97.922705 103.14202 L 99.72983 104.73211 C 99.76598 104.51521 99.693656 102.96116 99.693656 102.96116 z " /></g></svg>
