<?xml version="1.0" encoding="UTF-8" standalone="no"?>
<!-- Created with Inkscape (http://www.inkscape.org/) -->

<svg
   width="211.94676mm"
   height="165.43175mm"
   viewBox="0 0 211.94676 165.43175"
   version="1.1"
   id="svg5"
   xml:space="preserve"
   sodipodi:docname="full_eye_white.svg"
   inkscape:export-filename="eye_wip.svg"
   inkscape:export-xdpi="96"
   inkscape:export-ydpi="96"
   inkscape:version="1.2 (dc2aedaf03, 2022-05-15)"
   xmlns:inkscape="http://www.inkscape.org/namespaces/inkscape"
   xmlns:sodipodi="http://sodipodi.sourceforge.net/DTD/sodipodi-0.dtd"
   xmlns="http://www.w3.org/2000/svg"
   xmlns:svg="http://www.w3.org/2000/svg"><sodipodi:namedview
     id="namedview73"
     pagecolor="#505050"
     bordercolor="#ffffff"
     borderopacity="1"
     inkscape:showpageshadow="0"
     inkscape:pageopacity="0"
     inkscape:pagecheckerboard="1"
     inkscape:deskcolor="#505050"
     inkscape:document-units="mm"
     showgrid="false"
     inkscape:zoom="1.5105012"
     inkscape:cx="256.20635"
     inkscape:cy="365.44162"
     inkscape:window-width="2498"
     inkscape:window-height="1417"
     inkscape:window-x="2552"
     inkscape:window-y="-8"
     inkscape:window-maximized="1"
     inkscape:current-layer="layer4"
     showguides="false" /><defs
     id="defs2" /><g
     inkscape:groupmode="layer"
     id="layer4"
     inkscape:label="drawing"
     style="display:inline;fill:#ffffff;fill-opacity:1"><circle
       style="display:none;fill:#ffffff;fill-opacity:1;stroke:none;stroke-width:2.065;stroke-dashoffset:2.31761"
       id="path5742"
       cx="95.982246"
       cy="193.24255"
       r="8.2818251"
       inkscape:label="center"
       transform="translate(6.9716674,-112.77607)" /><g
       inkscape:groupmode="layer"
       id="layer5"
       inkscape:label="pieces"
       style="display:inline;fill:#ffffff;fill-opacity:1"><path
         style="display:inline;fill:#ffffff;fill-opacity:1;stroke-width:0.2;stroke-linecap:round;stroke-linejoin:round;stroke-miterlimit:2.6"
         d="m 101.45919,85.518932 0.0604,3.523857 1.19783,1.514989 2.05596,-2.321171 z"
         id="path3698"
         sodipodi:nodetypes="ccccc"
         inkscape:label="path3698" /><path
         id="path356"
         style="display:inline;fill:#ffffff;fill-opacity:1;stroke:none;stroke-width:2.065;stroke-dashoffset:2.31761"
         d="m 93.915198,117.91787 -1.012342,0.0723 0.361735,48.29525 -3.637504,3.27267 1.757516,1.30999 3.904154,-3.57084 z m -18.833993,50.60879 -0.578259,0.90383 8.928654,8.71161 4.221964,-3.86127 -1.759065,-1.36477 -2.715597,2.44275 z"
         transform="translate(6.9716674,-112.77607)" /><path
         style="display:inline;fill:#ffffff;fill-opacity:1;stroke:none;stroke-width:2.065;stroke-dashoffset:2.31761"
         d="m 90.179868,158.53048 -0.40898,6.54367 -1.687039,0.56234 -8.844168,-22.59609 -0.562349,0.30674 7.668358,23.46516 2.300507,2.19827 3.118464,-3.06735 -1.022448,-7.56611 z"
         id="path1117"
         transform="translate(6.9716674,-112.77607)" /><path
         style="display:inline;fill:#ffffff;fill-opacity:1;stroke:none;stroke-width:2.065;stroke-dashoffset:2.31761"
         d="m 94.09073,181.4333 -0.07668,-6.82483 -7.745039,-6.13469 -3.348516,0.61347 -12.972219,-15.41795 -0.614532,0.32534 13.338971,17.89375 3.144962,-0.93988 5.458494,4.98856 -1.590553,1.80745 z"
         id="path1119"
         transform="translate(6.9716674,-112.77607)" /><path
         style="display:inline;fill:#ffffff;fill-opacity:1;stroke:none;stroke-width:2.065;stroke-dashoffset:2.31761"
         d="m 93.481254,172.79211 4.735518,-4.59092 -0.325343,-13.9535 -0.578381,0.14459 -0.650682,13.19438 -4.482473,4.04868 z"
         id="path1121"
         transform="translate(6.9716674,-112.77607)" /><path
         style="display:inline;fill:#ffffff;fill-opacity:1;stroke:none;stroke-width:2.065;stroke-dashoffset:2.31761"
         d="m 104.1452,153.45241 -4.807809,12.36295 v 3.86794 l -0.976025,-0.0361 -2.530427,2.42198 5.928431,-0.10845 -0.14459,-5.3139 3.1811,-13.08593 z"
         id="path1123"
         transform="translate(6.9716674,-112.77607)" /><path
         style="display:inline;fill:#ffffff;fill-opacity:1;stroke:none;stroke-width:2.065;stroke-dashoffset:2.31761"
         d="m 122.25584,138.88437 -19.59275,29.85906 0.0639,12.78871 4.80199,4.96738 4.06661,-0.0384 -6.86981,-6.37537 -0.0511,-9.77263 18.36806,-30.64155 z"
         id="path1125"
         transform="translate(6.9716674,-112.77607)" /><path
         style="display:inline;fill:#ffffff;fill-opacity:1;stroke:none;stroke-width:2.065;stroke-dashoffset:2.31761"
         d="m 105.7288,171.24829 0.11541,2.62829 1.66285,-1.80745 z"
         id="path1127"
         transform="translate(6.9716674,-112.77607)" /><path
         style="display:inline;fill:#ffffff;fill-opacity:1;stroke:none;stroke-width:2.065;stroke-dashoffset:2.31761"
         d="m 81.335199,177.78067 0.0723,2.16894 1.156767,-1.30137 z"
         id="path1129"
         transform="translate(6.9716674,-112.77607)" /><path
         id="path1131"
         style="display:inline;fill:#ffffff;fill-opacity:1;stroke:none;stroke-width:2.065;stroke-dashoffset:2.31761"
         d="m 45.258736,144.95757 -0.578776,0.57826 33.690967,32.82332 0.505912,13.73663 10.069995,0.02 1.312641,-2.85225 -1.839027,0.87995 -7.953003,0.14469 -0.07235,-12.86898 z"
         transform="translate(6.9716674,-112.77607)"
         sodipodi:nodetypes="cccccccccc" /><path
         style="display:inline;fill:#ffffff;fill-opacity:1;stroke:none;stroke-width:2.065;stroke-dashoffset:2.31761"
         d="m 77.512444,179.21759 -1.021208,1.2381 1.084469,0.57839 z"
         id="path1133"
         transform="translate(6.9716674,-112.77607)" /><path
         style="display:inline;fill:#ffffff;fill-opacity:1;stroke:none;stroke-width:2.065;stroke-dashoffset:2.31761"
         d="m 76.418939,178.72055 -1.301364,1.59055 2.602725,2.16894 0.216895,6.50681 -6.506816,-0.28919 v 3.4703 l -2.277385,0.0181 -0.09037,-5.09699 6.705635,-0.0542 0.0723,-2.96422 -3.614898,-2.60273 1.80745,-2.16893 -10.33861,-8.45886 0.289192,-0.50609 z"
         id="path1135"
         transform="translate(6.9716674,-112.77607)" /><path
         style="display:inline;fill:#ffffff;fill-opacity:1;stroke:none;stroke-width:2.065;stroke-dashoffset:2.31761"
         d="m 105.72107,175.55423 0.20449,4.19204 65.84562,-66.66358 -0.51123,-0.30673 z"
         id="path1139"
         transform="translate(6.9716674,-112.77607)" /><path
         id="path1141"
         style="display:inline;fill:#ffffff;fill-opacity:1;stroke:none;stroke-width:2.065;stroke-dashoffset:2.31761"
         d="m 101.63152,172.7936 -6.339662,0.20463 -0.423521,15.56393 6.697013,0.0896 z m -4.907708,2.04483 h 2.862358 l -0.04076,11.88206 -3.109824,-0.0987 z"
         transform="translate(6.9716674,-112.77607)"
         sodipodi:nodetypes="cccccccccc" /><path
         style="display:inline;fill:#ffffff;fill-opacity:1;stroke:none;stroke-width:2.065;stroke-dashoffset:2.31761"
         d="M 97.950469,175.75872 97.337,187.51687 98.768425,187.8236 98.461691,175.86097 Z"
         id="path1143"
         transform="translate(6.9716674,-112.77607)" /><path
         id="path1147"
         style="display:inline;fill:#ffffff;fill-opacity:1;stroke:none;stroke-width:2.065;stroke-dashoffset:2.31761"
         d="m 102.70226,183.19141 1.00717,11.16676 5.69268,-0.093 -0.0129,1.89136 2.63291,-0.0382 -0.0382,-3.57859 -7.01456,0.0579 -0.23099,-7.47913 z"
         transform="translate(6.9716674,-112.77607)"
         sodipodi:nodetypes="ccccccccc" /><path
         style="display:inline;fill:#ffffff;fill-opacity:1;stroke:none;stroke-width:2.065;stroke-dashoffset:2.31761"
         d="m 93.758434,185.26748 v -2.65836 l -4.721334,-4.096 -1.004374,0.92641 z"
         id="path1149"
         transform="translate(6.9716674,-112.77607)" /><path
         style="display:inline;fill:#ffffff;fill-opacity:1;stroke:none;stroke-width:2.065;stroke-dashoffset:2.31761"
         d="m 89.464154,176.06546 -1.124691,-1.32919 -6.850398,6.8504 7.054887,7.56611 0.204488,-2.96509 -4.703257,-4.60102 z"
         id="path1151"
         transform="translate(6.9716674,-112.77607)" /><path
         id="path1153"
         style="display:inline;fill:#ffffff;fill-opacity:1;stroke:none;stroke-width:2.065;stroke-dashoffset:2.31761"
         d="m 87.196745,180.23345 -1.690336,1.52136 5.760733,5.10456 0.06423,1.4785 2.323624,-0.022 -0.0948,-2.34507 z"
         transform="translate(6.9716674,-112.77607)"
         sodipodi:nodetypes="ccccccc" /><path
         style="display:inline;fill:#ffffff;fill-opacity:1;stroke:none;stroke-width:2.065;stroke-dashoffset:2.31761"
         d="m 86.788248,189.12903 -5.293514,-6.03296 -0.04802,6.06911 z"
         id="path1155"
         transform="translate(6.9716674,-112.77607)" /><path
         style="display:inline;fill:#ffffff;fill-opacity:1;stroke:none;stroke-width:2.065;stroke-dashoffset:2.31761"
         d="m 87.032176,192.82636 1.00055,18.92251 6.748156,-0.20449 -0.40898,-8.58856 -4.155676,-4.06046 -0.240849,2.3223 2.760609,2.35163 v 6.23693 h -2.862852 l -0.686588,-13.22533 2.17497,1.66235 -0.05835,-2.51966 z"
         id="path1157"
         transform="translate(6.9716674,-112.77607)"
         sodipodi:nodetypes="ccccccccccccc" /><path
         style="display:inline;fill:#ffffff;fill-opacity:1;stroke:none;stroke-width:2.065;stroke-dashoffset:2.31761"
         d="m 110.88889,82.248652 0.0655,1.82554 1.54091,-1.63591 z"
         id="path1159"
         sodipodi:nodetypes="cccc" /><path
         style="display:inline;fill:#ffffff;fill-opacity:1;stroke:none;stroke-width:2.065;stroke-dashoffset:2.31761"
         d="m 89.632086,186.79412 -0.167932,1.64295 1.358109,-0.35816 z"
         id="path1163"
         transform="translate(6.9716674,-112.77607)"
         sodipodi:nodetypes="cccc" /><path
         style="display:inline;fill:#ffffff;fill-opacity:1;stroke:none;stroke-width:2.065;stroke-dashoffset:2.31761"
         d="m 86.078738,192.88729 0.05989,2.17531 -11.202268,0.2192 -0.03952,-3.23622 -2.207034,0.0424 0.0062,-2.01495 5.145017,-0.0904 0.06947,2.95322 z"
         id="path1165"
         transform="translate(6.9716674,-112.77607)" /><path
         style="display:inline;fill:#ffffff;fill-opacity:1;stroke:none;stroke-width:2.065;stroke-dashoffset:2.31761"
         d="m 75.047646,196.20767 -0.07668,1.7126 4.243159,-0.10224 0.02556,1.04801 -2.735049,0.0767 -0.127807,9.63657 1.635916,2.04489 -44.987688,40.48892 0.817959,0.61347 46.930339,-41.00015 -2.453875,-3.06734 -0.20449,-6.92708 3.476322,-0.0256 -0.204488,-4.62657 z"
         id="path1167"
         transform="translate(6.9716674,-112.77607)" /><path
         style="display:inline;fill:#ffffff;fill-opacity:1;stroke:none;stroke-width:2.065;stroke-dashoffset:2.31761"
         d="m 82.307022,196.10543 0.511225,3.57856 3.578563,-3.57856 z"
         id="path1169"
         transform="translate(6.9716674,-112.77607)" /><path
         style="display:inline;fill:#ffffff;fill-opacity:1;stroke:none;stroke-width:2.065;stroke-dashoffset:2.31761"
         d="m 83.636203,203.16031 2.556119,-2.65836 -0.204489,-2.55612 -5.316728,5.62346 3.374078,3.27183 2.471947,-2.22511 -0.228235,-2.40017 -1.936978,1.86467 z"
         id="path1171"
         transform="translate(6.9716674,-112.77607)" /><path
         style="display:inline;fill:#ffffff;fill-opacity:1;stroke:none;stroke-width:2.065;stroke-dashoffset:2.31761"
         d="m 79.341923,201.83113 0.102246,1.32918 1.329182,-1.43142 z"
         id="path1173"
         transform="translate(6.9716674,-112.77607)" /><path
         style="display:inline;fill:#ffffff;fill-opacity:1;stroke:none;stroke-width:2.065;stroke-dashoffset:2.31761"
         d="m 79.515935,204.07998 0.127053,3.31472 5.015663,4.55866 -7.259378,20.34671 0.408979,0.15337 9.227588,-19.27314 -0.07759,-2.09602 z"
         id="path1175"
         transform="translate(6.9716674,-112.77607)" /><path
         style="display:inline;fill:#ffffff;fill-opacity:1;stroke:none;stroke-width:2.065;stroke-dashoffset:2.31761"
         d="m 70.855609,200.09297 4.498771,5.00999 -0.306734,2.55612 -14.109777,8.07734 -0.715713,-0.61347 12.985083,-8.69081 -5.009991,-5.93019 z"
         id="path1177"
         transform="translate(6.9716674,-112.77607)" /><path
         style="display:inline;fill:#ffffff;fill-opacity:1;stroke:none;stroke-width:2.065;stroke-dashoffset:2.31761"
         d="m 71.0601,197.33236 3.987546,2.65837 v 2.96509 l -4.192037,-4.08978 -17.279361,1.63591 0.102243,-0.51122 z"
         id="path1179"
         transform="translate(6.9716674,-112.77607)" /><path
         style="display:inline;fill:#ffffff;fill-opacity:1;stroke:none;stroke-width:2.065;stroke-dashoffset:2.31761"
         d="m 73.999637,197.61353 -0.102245,-4.24315 -80.8691893,0.53936 -8e-7,0.4601 78.5623091,1.67426 z"
         id="path1181"
         transform="translate(6.9716674,-112.77607)" /><path
         style="display:inline;fill:#ffffff;fill-opacity:1;stroke:none;stroke-width:2.065;stroke-dashoffset:2.31761"
         d="m 62.267051,187.51687 4.294281,1.73816 0.204488,2.24938 H 50.917884 l 17.177118,1.12469 -0.107915,-4.70325 z"
         id="path1183"
         transform="translate(6.9716674,-112.77607)" /><path
         style="display:inline;fill:#ffffff;fill-opacity:1;stroke:none;stroke-width:2.065;stroke-dashoffset:2.31761"
         d="m 75.085985,184.42396 0.03834,1.86597 -18.787474,-3.78306 0.511226,-0.20448 z"
         id="path1185"
         transform="translate(6.9716674,-112.77607)" /><path
         style="display:inline;fill:#ffffff;fill-opacity:1;stroke:none;stroke-width:2.065;stroke-dashoffset:2.31761"
         d="m 112.27661,175.32884 -1.32016,1.42522 2.96976,2.87719 -0.0767,7.63 -5.4701,0.0511 v 1.73816 l 5.62346,-0.20449 1.73816,-1.94265 -0.20448,-8.38407 z"
         id="path1187"
         transform="translate(6.9716674,-112.77607)" /><path
         style="display:inline;fill:#ffffff;fill-opacity:1;stroke:none;stroke-width:2.065;stroke-dashoffset:2.31761"
         d="m 110.11759,177.39464 -3.06734,3.06734 5.64903,5.39341 -0.0767,-3.6169 -2.40275,-1.87875 1.29923,-1.44667 z"
         id="path1189"
         transform="translate(6.9716674,-112.77607)" /><path
         style="display:inline;fill:#ffffff;fill-opacity:1;stroke:none;stroke-width:2.065;stroke-dashoffset:2.31761"
         d="m 112.22453,179.46689 -0.86663,0.91071 1.24494,0.99944 0.19252,-1.39551 z"
         id="path1191"
         transform="translate(6.9716674,-112.77607)"
         sodipodi:nodetypes="ccccc" /><path
         style="display:inline;fill:#ffffff;fill-opacity:1;stroke:none;stroke-width:2.065;stroke-dashoffset:2.31761"
         d="m 116.79735,180.45569 0.0362,5.96459 2.20508,1.84359 v -5.60309 l 8.71191,-7.0129 -0.36149,-0.61453 z"
         id="path1193"
         transform="translate(6.9716674,-112.77607)" /><path
         style="display:inline;fill:#ffffff;fill-opacity:1;stroke:none;stroke-width:2.065;stroke-dashoffset:2.31761"
         d="m 120.19535,184.28749 0.14459,5.35005 1.33752,1.15676 26.67967,-0.67019 -0.0256,-0.92021 -26.20225,0.23481 -0.0723,-4.37402 5.65732,-2.80155 -0.43379,-0.72298 z"
         id="path1195"
         transform="translate(6.9716674,-112.77607)" /><path
         style="display:inline;fill:#ffffff;fill-opacity:1;stroke:none;stroke-width:2.065;stroke-dashoffset:2.31761"
         d="m 123.59335,186.67332 0.0542,1.33751 3.27148,-0.12652 -1.9159,-1.68093 z"
         id="path1197"
         transform="translate(6.9716674,-112.77607)" /><path
         style="display:inline;fill:#ffffff;fill-opacity:1;stroke:none;stroke-width:2.065;stroke-dashoffset:2.31761"
         d="m 116.63467,187.75779 -1.37366,1.50018 4.98856,4.13906 84.72559,-2.09711 -0.0256,-0.5879 -83.78957,1.22693 z"
         id="path1925"
         transform="translate(6.9716674,-112.77607)" /><path
         style="display:inline;fill:#ffffff;fill-opacity:1;stroke:none;stroke-width:2.065;stroke-dashoffset:2.31761"
         d="m 126.78349,194.75068 1.55923,0.69015 1.07357,-0.86907 z"
         id="path1927"
         transform="translate(6.9716674,-112.77607)" /><path
         style="display:inline;fill:#ffffff;fill-opacity:1;stroke:none;stroke-width:2.065;stroke-dashoffset:2.31761"
         d="m 137.69811,200.16966 -0.66459,1.48254 -12.29493,-4.44764 -5.7257,-0.10225 -2.76061,-2.55612 h -1.12469 l -0.0767,4.29428 -8.19452,0.2681 -0.68683,-0.79528 0.0723,-2.67503 2.02435,-0.10844 0.0362,1.73515 4.62706,0.0361 -0.0361,-4.66322 h 4.37402 l 3.00037,2.42198 3.83179,-0.10845 z"
         id="path1929"
         transform="translate(6.9716674,-112.77607)" /><path
         style="display:inline;fill:#ffffff;fill-opacity:1;stroke:none;stroke-width:2.065;stroke-dashoffset:2.31761"
         d="m 115.85747,191.33654 -1.5544,-1.51826 -6.75986,0.10845 -0.0362,-2.63888 -1.7713,0.0362 0.18074,4.30173 z"
         id="path1931"
         transform="translate(6.9716674,-112.77607)" /><path
         style="display:inline;fill:#ffffff;fill-opacity:1;stroke:none;stroke-width:2.065;stroke-dashoffset:2.31761"
         d="m 116.21896,196.21665 0.1446,6.10917 57.86149,29.76976 0.30674,-0.71572 -56.36078,-30.75304 0.0362,-2.85577 z"
         id="path1933"
         transform="translate(6.9716674,-112.77607)" /><path
         style="display:inline;fill:#ffffff;fill-opacity:1;stroke:none;stroke-width:2.065;stroke-dashoffset:2.31761"
         d="m 119.36392,198.38559 -0.0361,1.33751 3.75949,2.13279 2.67502,-2.60273 -1.699,-0.93987 z"
         id="path1935"
         transform="translate(6.9716674,-112.77607)" /><path
         style="display:inline;fill:#ffffff;fill-opacity:1;stroke:none;stroke-width:2.065;stroke-dashoffset:2.31761"
         d="m 122.40044,209.62792 0.57838,-0.86758 -5.53079,-4.59092 -5.85614,4.91627 32.67545,24.44131 0.81796,-1.07357 -30.00884,-23.56741 2.45388,-2.45388 z"
         id="path1937"
         transform="translate(6.9716674,-112.77607)" /><path
         style="display:inline;fill:#ffffff;fill-opacity:1;stroke:none;stroke-width:2.065;stroke-dashoffset:2.31761"
         d="m 113.17215,199.82458 1.84041,1.48255 -0.0256,-1.58479 z"
         id="path1939"
         transform="translate(6.9716674,-112.77607)" /><path
         style="display:inline;fill:#ffffff;fill-opacity:1;stroke:none;stroke-width:2.065;stroke-dashoffset:2.31761"
         d="m 108.17494,200.22078 4.72882,3.69359 -3.46354,3.19515 1.15025,1.08635 5.82795,-4.7416 -4.83106,-3.27183 z"
         id="path1941"
         transform="translate(6.9716674,-112.77607)" /><path
         style="display:inline;fill:#ffffff;fill-opacity:1;stroke:none;stroke-width:2.065;stroke-dashoffset:2.31761"
         d="m 109.60637,202.78968 c 0,0 -0.10225,2.6967 -0.0128,2.6967 0.0895,0 1.68704,-1.49533 1.68704,-1.49533 z"
         id="path1943"
         transform="translate(6.9716674,-112.77607)" /><path
         style="display:inline;fill:#ffffff;fill-opacity:1;stroke:none;stroke-width:2.065;stroke-dashoffset:2.31761"
         d="m 105.03092,196.8467 v 2.27495 l 3.27183,2.60724 0.0767,4.24315 -6.77371,-6.56922 z"
         id="path2671"
         transform="translate(6.9716674,-112.77607)" /><path
         style="display:inline;fill:#ffffff;fill-opacity:1;stroke:none;stroke-width:2.065;stroke-dashoffset:2.31761"
         d="m 114.463,215.0207 0.86907,-0.89464 -14.51875,-14.00753 -4.882186,3.93643 0.05112,2.42831 5.137806,-3.62969 z"
         id="path3399"
         transform="translate(6.9716674,-112.77607)" /><path
         style="display:inline;fill:#ffffff;fill-opacity:1;stroke:none;stroke-width:2.065;stroke-dashoffset:2.31761"
         d="m 121.82462,226.16538 0.97132,-1.27806 -21.72701,-20.75568 -1.431423,1.17581 z"
         id="path3401"
         transform="translate(6.9716674,-112.77607)" /><path
         style="display:inline;fill:#ffffff;fill-opacity:1;stroke:none;stroke-width:2.065;stroke-dashoffset:2.31761"
         d="m 109.24851,216.96336 0.56235,-0.86909 -5.41897,-4.70325 -3.06735,2.81173 33.28067,64.00522 0.9202,-0.46011 -30.72454,-61.85808 1.32918,-1.02244 z"
         id="path3403"
         transform="translate(6.9716674,-112.77607)" /><path
         style="display:inline;fill:#ffffff;fill-opacity:1;stroke:none;stroke-width:2.065;stroke-dashoffset:2.31761"
         d="m 103.54837,223.17472 -3.11847,-7.84728 -3.169584,0.20449 1.584793,19.63099 1.022448,0.10224 -0.766836,-15.87349 0.817959,-0.74128 0.84352,0.12781 2.27494,4.65214 z"
         id="path4133"
         transform="translate(6.9716674,-112.77607)" /><path
         style="display:inline;fill:#ffffff;fill-opacity:1;stroke:none;stroke-width:2.065;stroke-dashoffset:2.31761"
         d="m 93.770446,215.48405 0.976024,42.80039 1.229064,-0.10845 v -42.61964 z"
         id="path4135"
         transform="translate(6.9716674,-112.77607)" /><path
         style="display:inline;fill:#ffffff;fill-opacity:1;stroke:none;stroke-width:2.065;stroke-dashoffset:2.31761"
         d="m 92.758275,217.5084 c 0.03615,-0.2169 -0.03615,-1.7713 -0.03615,-1.7713 l -1.7713,0.18074 z"
         id="path4137"
         transform="translate(6.9716674,-112.77607)" /><path
         style="display:inline;fill:#ffffff;fill-opacity:1;stroke:none;stroke-width:2.065;stroke-dashoffset:2.31761"
         d="m 99.156646,210.89313 c 0,0 -0.108448,3.5426 0.03615,3.43415 0.144598,-0.10844 2.132784,-1.84359 2.132784,-1.84359 z"
         id="path4139"
         transform="translate(6.9716674,-112.77607)" /><path
         style="display:inline;fill:#ffffff;fill-opacity:1;stroke:none;stroke-width:2.065;stroke-dashoffset:2.31761"
         d="m 102.08471,211.86915 c 0,0 1.59056,-1.01217 1.44596,-1.12061 -0.1446,-0.10845 -4.916261,-4.69937 -4.916261,-4.69937 l -2.78347,2.27739 0.289192,4.08483 -7.518987,0.32534 -1.337514,10.30246 0.614535,0.0723 2.530427,-8.42272 7.916627,-0.43378 -0.253045,-5.13316 0.650682,-0.36149 z"
         id="path4141"
         transform="translate(6.9716674,-112.77607)" /><path
         style="display:inline;fill:#ffffff;fill-opacity:1;stroke:none;stroke-width:2.065;stroke-dashoffset:2.31761"
         d="m 86.631025,206.17569 0.307266,3.36186 -1.933972,-1.7713 z"
         id="path4143"
         transform="translate(6.9716674,-112.77607)" /><path
         style="display:inline;fill:#ffffff;fill-opacity:1;stroke:none;stroke-width:2.065;stroke-dashoffset:2.31761"
         d="m 90.444742,203.15725 0.271116,5.81999 1.192916,-0.0723 -0.162671,-4.44632 z"
         id="path4145"
         transform="translate(6.9716674,-112.77607)" /><rect
         style="fill:#ffffff;fill-opacity:1;stroke-width:0.2;stroke-linecap:round;stroke-linejoin:round;stroke-miterlimit:2.6"
         id="rect947"
         width="9.6609764"
         height="1.6101626"
         x="98.13298"
         y="76.458633" /><path
         style="fill:#ffffff;fill-opacity:1;stroke-width:0.2;stroke-linecap:round;stroke-linejoin:round;stroke-miterlimit:2.6"
         d="m 103.61218,79.103456 h -5.666537 l -0.681223,1.764984 4.52085,0.03096 v 0.86701 h -2.53911 l 0.09289,5.728464 1.43986,1.346963 0.0465,-5.434298 h 2.78682 z"
         id="path3586"
         sodipodi:nodetypes="ccccccccccc" /><path
         style="fill:#ffffff;fill-opacity:1;stroke-width:0.2;stroke-linecap:round;stroke-linejoin:round;stroke-miterlimit:2.6"
         d="m 103.54273,84.849735 v 1.167909 l 2.47717,2.198492 2.44621,-2.167528 -0.0929,-1.455338 h -0.68122 l -1.51727,1.517269 -0.75864,-0.758634 2.60104,-2.601031 V 80.47497 Z"
         id="path3588"
         sodipodi:nodetypes="ccccccccccc" /><path
         style="fill:#ffffff;fill-opacity:1;stroke-width:0.2;stroke-linecap:round;stroke-linejoin:round;stroke-miterlimit:2.6"
         d="m 108.35997,76.546061 0.87581,9.108456 1.20424,-0.919605 -0.70065,-8.188851 z"
         id="path3694" /><path
         style="fill:#ffffff;fill-opacity:1;stroke-width:0.2;stroke-linecap:round;stroke-linejoin:round;stroke-miterlimit:2.6"
         d="m 102.97638,84.053958 -1.42586,-0.126973 -0.025,1.001872 1.40286,0.931865 z"
         id="path3703"
         sodipodi:nodetypes="ccccc" /><path
         style="fill:#ffffff;fill-opacity:1;stroke-width:0.2;stroke-linecap:round;stroke-linejoin:round;stroke-miterlimit:2.6"
         d="m 104.4626,79.282977 0.32843,2.977764 2.91208,-2.999661 z"
         id="path3705" /><path
         style="fill:#ffffff;fill-opacity:1;stroke-width:0.2;stroke-linecap:round;stroke-linejoin:round;stroke-miterlimit:2.6"
         d="m 96.531572,81.143232 0.98601,-2.434027 -1.989896,1.83329 z"
         id="path3720"
         sodipodi:nodetypes="cccc" /></g></g></svg>
