<?xml version="1.0" encoding="UTF-8" standalone="no"?>
<!-- Created with Inkscape (http://www.inkscape.org/) -->

<svg
   width="172.93672mm"
   height="246.94852mm"
   viewBox="0 0 172.93672 246.94852"
   version="1.1"
   id="svg5"
   xml:space="preserve"
   sodipodi:docname="timberheart_colours.svg"
   inkscape:export-filename="timberheart_white.svg"
   inkscape:export-xdpi="96"
   inkscape:export-ydpi="96"
   xmlns:inkscape="http://www.inkscape.org/namespaces/inkscape"
   xmlns:sodipodi="http://sodipodi.sourceforge.net/DTD/sodipodi-0.dtd"
   xmlns="http://www.w3.org/2000/svg"
   xmlns:svg="http://www.w3.org/2000/svg"><sodipodi:namedview
     id="namedview7"
     pagecolor="#505050"
     bordercolor="#ffffff"
     borderopacity="1"
     inkscape:showpageshadow="0"
     inkscape:pageopacity="0"
     inkscape:pagecheckerboard="1"
     inkscape:deskcolor="#505050"
     inkscape:document-units="mm"
     showgrid="false" /><defs
     id="defs2" /><g
     inkscape:groupmode="layer"
     id="layer3"
     inkscape:label="final"
     transform="translate(-14.748971,-40.284363)"><path
       id="ellipse2147"
       style="display:inline;fill:#ffffff;fill-opacity:1;stroke-width:0.321719"
       inkscape:label="ball"
       d="m 101.21708,71.310376 a 86.468346,86.891861 0 0 0 -86.468109,86.891854 86.468346,86.891861 0 0 0 14.042553,47.37695 h 2.992582 9.813355 35.580774 l 7.771619,-7.77213 v -35.78748 l 24.509096,-24.5091 h 48.43994 v 12.79715 h 12.50725 l 3.3786,-3.57342 8.5478,-9.0408 2.28461,-2.41639 A 86.468346,86.891861 0 0 0 101.21708,71.310376 Z m 85.14674,71.787864 -2.40192,2.40192 -5.07566,5.07566 -5.66012,5.66012 h -22.41259 v -12.83281 h -38.49842 l -20.424595,20.42408 v 25.37675 h 17.207215 l 13.66429,17.13435 h 15.39957 l 28.19621,-32.24506 h 4.48242 l 8.24187,-17.49609 h 5.90145 a 83.793327,83.793327 0 0 1 0.0269,2.09703 83.793327,83.793327 0 0 1 -55.66533,78.87064 l -1.08831,-1.65675 5.27771,-4.98832 v -9.97717 l 3.90416,-4.55476 v -2.96416 H 118.85786 L 106.49479,195.99992 H 91.890515 v 4.19303 l -11.85664,11.85716 H 45.551742 36.661845 33.396411 a 86.468346,86.891861 0 0 0 67.820669,33.04397 86.468346,86.891861 0 0 0 86.46862,-86.89185 86.468346,86.891861 0 0 0 -1.32188,-15.10399 z" /><path
       id="path1892"
       style="display:inline;fill:#ffffff;fill-opacity:1;stroke-width:0.264583"
       d="m 54.291777,48.157267 -33.945215,23.414075 4.227649,6.953064 -8.828402,6.133992 6.620268,10.349756 -3.962032,3.044776 4.259171,6.16241 -4.97489,4.06177 7.463627,12.57598 0.886768,-1.13947 4.259688,5.66167 54.701571,-41.156658 2.020548,2.507857 16.655832,-13.416752 -5.930388,-7.361824 -4.494816,3.620967 -7.263123,-9.653674 -7.313765,5.502506 -9.863481,-14.090612 -8.964828,5.36298 z"
       inkscape:label="ghysere" /><g
       id="g2236"
       inkscape:label="trees"
       style="display:inline"><path
         id="path2226"
         style="display:inline;fill:#ffffff;fill-opacity:1;stroke-width:0.394053"
         inkscape:label="middle top tree"
         d="m 171.91671,40.719649 -15.14378,6.207758 1.00071,2.441215 5.37992,-2.205351 0.89152,2.520672 -14.71596,7.063437 0.9976,2.635986 4.21591,-2.262837 0.96122,2.346255 -14.35416,9.294833 1.1597,2.527785 6.91738,-4.090729 1.50212,1.936886 -8.60332,14.022328 7.07752,4.646121 8.43485,-14.727299 2.50386,0.681644 -0.70464,7.133915 2.98886,0.292262 1.64347,-16.838816 1.78505,-0.228252 0.6182,4.838333 2.6958,-0.345165 -0.66935,-16.687118 2.12635,-0.272292 0.78617,6.143431 2.64596,-0.337669 z"
         sodipodi:nodetypes="cccccccccccccccccccccccccccc" /><path
         id="path2228"
         style="display:inline;fill:#ffffff;fill-opacity:1;stroke-width:0.264583"
         inkscape:label="left top tree"
         d="m 117.19801,40.284363 -7.77058,7.770585 1.25264,1.252637 2.76055,-2.760555 1.20561,1.330151 -7.28379,8.189681 1.30121,1.374076 2.02468,-2.494421 1.20355,1.204061 -6.48126,9.477974 1.37356,1.265039 3.22409,-4.326867 1.43247,0.810286 -2.27066,9.78855 6.79597,2.16886 0.77566,-11.30732 1.72754,-0.22686 1.41284,4.60127 1.92701,-0.593763 -3.34708,-10.855668 1.04645,-0.604097 1.63711,2.836519 1.58026,-0.912606 -4.74028,-10.16217 1.24644,-0.719853 2.07946,3.601331 1.55132,-0.895036 z" /><path
         id="path2230"
         style="display:inline;fill:#ffffff;fill-opacity:1;stroke-width:0.325089"
         inkscape:label="right top tree"
         d="m 187.26104,66.928245 -13.19256,2.87579 0.46359,2.126673 4.68675,-1.021648 0.36349,2.175598 -12.96745,3.63225 0.43319,2.284473 3.74923,-1.234983 0.44509,2.043868 -12.99292,5.496987 0.58037,2.219767 6.20578,-2.333375 0.94316,1.788696 -8.84566,8.613248 6.30242,7.111701 7.59248,-11.533837 1.93673,0.912248 -1.59371,5.695238 2.38652,0.665314 3.74576,-13.445813 1.48298,0.07009 -0.19034,4.01951 2.23968,0.105468 1.84494,-13.653645 1.76657,0.08316 -0.24069,5.103911 2.19811,0.104424 z"
         sodipodi:nodetypes="cccccccccccccccccccccccccccc" /><path
         id="path2232"
         style="display:inline;fill:#ffffff;fill-opacity:1;stroke-width:0.354866"
         inkscape:label="right bottom tree"
         d="m 86.837317,287.23289 10.259428,-10.58237 -1.705907,-1.65385 -3.644738,3.75948 -1.64443,-1.7588 9.597883,-11.13427 -1.773562,-1.81569 -2.663399,3.38724 -1.639066,-1.5897 8.494874,-12.84529 -1.86833,-1.66797 -4.233815,5.86963 -1.937878,-1.0569 2.841715,-13.17431 -10.025846,-2.66057 0.06165,15.07321 -2.312034,0.34014 -1.990333,-6.14127 -2.571901,0.83631 4.714233,14.48866 -1.390829,0.83187 -2.254421,-3.76994 -2.100267,1.25669 6.568185,13.52969 -1.656607,0.99124 -2.863538,-4.78645 -2.06185,1.23255 z"
         sodipodi:nodetypes="cccccccccccccccccccccccccccc" /><path
         id="path2234"
         style="display:inline;fill:#ffffff;fill-opacity:1;stroke-width:0.304512"
         inkscape:label="left bottom tree"
         d="m 52.996891,268.51718 10.754751,-6.65585 -1.072939,-1.7337 -3.820709,2.36455 -0.99979,-1.80814 10.319923,-7.25373 -1.095323,-1.88255 -2.926106,2.26046 -1.030764,-1.6663 9.760648,-8.90866 -1.205137,-1.77949 -4.753097,3.99701 -1.391066,-1.28557 5.12548,-10.36712 -7.785174,-4.31496 -3.107462,12.55568 -1.995175,-0.20149 -0.369227,-5.52738 -2.315394,0.15695 0.886554,13.04425 -1.331667,0.40076 -1.08592,-3.6095 -2.011032,0.60559 2.630231,12.63479 -1.586224,0.47767 -1.379758,-4.58299 -1.974006,0.59354 z"
         sodipodi:nodetypes="cccccccccccccccccccccccccccc" /></g></g></svg>
