<?xml version="1.0" encoding="UTF-8" standalone="no"?>
<!-- Created with Inkscape (http://www.inkscape.org/) -->

<svg
   width="179.58543mm"
   height="94.071266mm"
   viewBox="0 0 179.58543 94.071266"
   version="1.1"
   id="svg5"
   xml:space="preserve"
   inkscape:version="1.2.2 (732a01da63, 2022-12-09)"
   sodipodi:docname="orbital-probe-canon_wip.svg"
   inkscape:export-filename="orbital-probe-canon_white.png"
   inkscape:export-xdpi="424.31061"
   inkscape:export-ydpi="424.31061"
   xmlns:inkscape="http://www.inkscape.org/namespaces/inkscape"
   xmlns:sodipodi="http://sodipodi.sourceforge.net/DTD/sodipodi-0.dtd"
   xmlns="http://www.w3.org/2000/svg"
   xmlns:svg="http://www.w3.org/2000/svg"><sodipodi:namedview
     id="namedview7"
     pagecolor="#505050"
     bordercolor="#ffffff"
     borderopacity="1"
     inkscape:showpageshadow="0"
     inkscape:pageopacity="0"
     inkscape:pagecheckerboard="1"
     inkscape:deskcolor="#505050"
     inkscape:document-units="mm"
     showgrid="false"
     inkscape:zoom="0.4204826"
     inkscape:cx="244.95663"
     inkscape:cy="498.23702"
     inkscape:window-width="958"
     inkscape:window-height="1000"
     inkscape:window-x="0"
     inkscape:window-y="0"
     inkscape:window-maximized="0"
     inkscape:current-layer="g1723" /><defs
     id="defs2" /><g
     inkscape:groupmode="layer"
     id="g1723"
     inkscape:label="final"
     style="display:inline"
     transform="translate(-13.685986,-88.722234)"><g
       inkscape:groupmode="layer"
       id="g1721"
       inkscape:label="barrel"
       style="display:inline"><path
         id="path1717"
         style="display:inline;opacity:1;fill:#ffffff;fill-opacity:1;stroke:none;stroke-width:0.264583px;stroke-linecap:butt;stroke-linejoin:miter;stroke-opacity:1"
         inkscape:label="end stripes"
         d="m 68.451119,126.59227 c -3.615978,5.02522 -6.608607,9.56221 -9.625252,14.97067 -2.255438,-1.96678 -4.347976,-3.96043 -6.276103,-5.98672 l -1.645378,2.83342 c 2.083577,2.12077 4.182917,4.08882 6.386691,5.9769 -1.823409,3.43963 -3.70041,7.29022 -5.762956,11.8153 l 3.174483,0.96169 c 1.880389,-4.13209 3.561594,-7.60199 5.144906,-10.65826 1.905969,1.52725 3.911085,3.02057 6.057511,4.52272 l 0.957048,-3.05873 c -1.925355,-1.41556 -3.76989,-2.84096 -5.521627,-4.27984 3.316102,-6.1131 6.376072,-10.80199 10.263456,-16.81913 z" /><path
         id="path1655"
         style="display:inline;opacity:1;fill:#ffffff;fill-opacity:1;stroke:none;stroke-width:0.264583px;stroke-linecap:butt;stroke-linejoin:miter;stroke-opacity:1"
         inkscape:label="barrel "
         d="m 186.15711,99.256991 c -1.94619,0.384443 -3.98574,0.783379 -5.8508,1.155489 -0.92905,0.9872 -1.82626,1.95438 -2.68769,2.90628 -0.9452,-0.59275 -1.85969,-1.19679 -2.76004,-1.80609 -1.42353,0.28725 -2.89119,0.5809 -4.26796,0.86144 1.63737,1.17284 3.26791,2.27885 4.9196,3.32641 -2.00029,2.31185 -3.85197,4.6154 -5.63015,7.07606 -2.36607,-1.27598 -4.62122,-2.58823 -6.75721,-3.94395 1.10854,-1.73155 2.38581,-3.7168 3.6437,-5.67407 -1.30938,0.26949 -2.5622,0.5314 -3.83025,0.7953 -0.79427,1.10236 -1.56484,2.18597 -2.29909,3.24631 -1.03137,-0.70134 -2.02771,-1.41608 -2.99981,-2.14043 -1.41448,0.29941 -2.73337,0.58776 -4.09794,0.88108 1.79508,1.37345 3.56251,2.65646 5.33249,3.85661 -1.54323,2.32111 -3.00368,4.65929 -4.44934,7.1515 -2.59641,-1.25999 -5.06723,-2.56936 -7.39852,-3.93877 1.30839,-2.08015 2.71632,-4.26146 4.20905,-6.57376 -1.33522,0.28963 -2.70293,0.58299 -3.99304,0.86764 -0.98297,1.38879 -1.92362,2.7514 -2.83032,4.11138 -1.33593,-0.84768 -2.61532,-1.72108 -3.85455,-2.61328 -1.547,0.35271 -3.06832,0.70316 -4.55631,1.0511 -1.3896,1.90139 -2.69664,3.72878 -3.92792,5.52266 -1.61317,-1.13074 -3.15356,-2.28706 -4.62091,-3.47059 -1.32856,0.32787 -2.636,0.6555 -3.92689,0.98289 -1.55022,2.12951 -2.97813,4.15678 -4.33979,6.17585 -1.31507,-0.9052 -2.5835,-1.8251 -3.80545,-2.76055 0.308,-0.47892 0.66945,-1.05476 0.98805,-1.55236 -2.01456,0.53855 -3.99169,1.08135 -5.95105,1.62935 0.36438,0.2963 0.73041,0.59974 1.09347,0.88884 -1.30959,1.8012 -2.53165,3.52967 -3.7021,5.24412 -1.40568,-1.09099 -2.76032,-2.19389 -4.04988,-3.31401 0.22394,-0.34864 0.48289,-0.76118 0.71107,-1.11724 -1.6739,0.48936 -3.34234,0.98426 -5.008485,1.4888 0.1793,0.16362 0.359875,0.33835 0.538986,0.49971 -1.57112,2.15138 -3.020175,4.19826 -4.395598,6.22701 -1.467596,-1.16789 -2.867369,-2.35162 -4.204394,-3.55172 0.166403,-0.25867 0.365304,-0.57661 0.534851,-0.84078 -1.490385,0.47297 -3.00488,0.96503 -4.518071,1.45676 0.07064,0.0657 0.141786,0.13508 0.21239,0.2005 -1.257943,1.72943 -2.436333,3.39109 -3.56464,5.03742 -1.176865,-0.99432 -2.300725,-2.0008 -3.386356,-3.01687 -1.634542,0.54675 -3.304191,1.11123 -4.991944,1.68517 -1.13958,1.59725 -2.236994,3.16587 -3.275252,4.72013 -0.898311,-0.76546 -1.770227,-1.53737 -2.614828,-2.31562 0.09767,-0.15151 0.219184,-0.34078 0.318327,-0.49455 -1.512102,0.52142 -3.018189,1.03919 -4.587317,1.58492 -0.833837,1.22304 -1.642538,2.44163 -2.431376,3.67264 -0.737004,-0.68712 -1.450785,-1.37846 -2.148706,-2.07274 -0.979726,0.34282 -1.904271,0.66374 -2.909383,1.01648 -0.043,0.13808 -0.07433,0.26272 -0.115238,0.39842 1.149655,1.16132 2.304656,2.28159 3.480407,3.36465 -0.862189,1.41788 -1.713515,2.88726 -2.565218,4.41369 -0.72819,-0.63507 -1.433564,-1.27395 -2.128552,-1.91461 -0.134759,1.63085 -0.04256,3.0813 0.250631,4.4514 0.113285,0.0979 0.223618,0.1986 0.337447,0.29611 -0.06081,0.11469 -0.122526,0.23583 -0.183452,0.3514 0.355358,1.34394 0.914567,2.62809 1.635043,3.94808 0.368656,-0.73472 0.743376,-1.49309 1.101225,-2.18385 0.949652,0.76094 1.932159,1.51311 2.935221,2.2624 -0.567207,1.14663 -1.148018,2.35563 -1.737879,3.60133 0.433923,0.6368 0.886205,1.28986 1.373043,1.98334 0.486142,-0.0707 0.939297,-0.14129 1.420585,-0.21187 0.557959,-1.18961 1.104491,-2.33928 1.632459,-3.42253 1.223127,0.86332 2.505529,1.73205 3.831807,2.6081 1.704233,-0.25945 3.363882,-0.52275 5.018815,-0.78496 0.654731,-1.40088 1.290472,-2.73521 1.902727,-3.98529 1.455668,0.95847 2.998894,1.93698 4.60437,2.93264 1.680542,-0.28213 3.343016,-0.56946 4.99401,-0.86041 0.681983,-1.4734 1.336657,-2.85177 1.973006,-4.16616 1.618054,0.93613 3.342266,1.89208 5.136638,2.86701 1.446006,-0.2739 2.890238,-0.55398 4.333585,-0.83974 -0.02398,-0.013 -0.0489,-0.0258 -0.07286,-0.0388 0.874966,-1.91399 1.704652,-3.67266 2.503206,-5.32215 1.58909,0.91326 3.25947,1.84367 5.01623,2.79569 -0.16326,0.36487 -0.3382,0.76953 -0.50385,1.14257 2.01032,-0.42618 4.03518,-0.86755 6.08129,-1.32602 -0.50499,-0.26853 -1.01861,-0.53635 -1.51619,-0.80563 0.77867,-1.71404 1.53512,-3.35396 2.25154,-4.85552 1.8517,1.02061 3.80172,2.06163 5.87975,3.13624 -0.16021,0.3576 -0.33218,0.7554 -0.49455,1.12035 1.96134,-0.46203 3.9613,-0.94658 5.98827,-1.44488 -0.46761,-0.237 -0.94963,-0.47244 -1.4118,-0.71003 0.96375,-2.11786 1.87662,-4.06299 2.74815,-5.86269 1.84844,0.99163 3.81054,2.00852 5.88129,3.05459 -0.2805,0.63505 -0.56114,1.27014 -0.84646,1.92081 2.33779,-0.59743 4.72435,-1.21729 7.18458,-1.86913 -0.75648,-0.37014 -1.52121,-0.73934 -2.26343,-1.11105 0.99008,-2.21139 1.92811,-4.25029 2.81843,-6.12572 2.61209,1.1902 5.39375,2.40191 8.44238,3.67419 -0.18438,0.41228 -0.38141,0.86782 -0.56895,1.29088 2.11537,-0.57949 4.34788,-1.20494 6.5722,-1.82676 -0.6065,-0.24415 -1.21538,-0.48802 -1.81487,-0.73329 0.81889,-1.79915 1.60623,-3.49113 2.35696,-5.05654 2.17624,0.9526 4.49498,1.92442 6.96598,2.92696 -0.13657,0.27967 -0.27841,0.5787 -0.41548,0.86041 1.93781,-0.55138 3.84606,-1.09149 5.87355,-1.67535 -0.33739,-0.1326 -0.68111,-0.2638 -1.01596,-0.39688 1.15101,-2.1734 2.27661,-4.22668 3.37344,-6.119 1.90127,0.66997 3.87387,1.34047 5.98516,2.02261 -0.46272,0.79979 -0.9205,1.62735 -1.37563,2.47117 3.0856,-0.89864 6.3031,-1.84225 9.6082,-2.81637 -1.09282,-0.33043 -2.1863,-0.66049 -3.25406,-0.99787 1.07454,-1.66697 2.1567,-3.23227 3.24735,-4.71289 2.58269,1.06106 5.34289,2.13332 8.33489,3.24787 1.45289,-0.43152 2.95027,-0.87767 4.44624,-1.32344 -3.82731,-1.39512 -7.49742,-2.82462 -10.96884,-4.3062 1.80391,-2.28452 3.63422,-4.37459 5.49837,-6.35206 1.72193,0.80104 3.537,1.59427 5.43584,2.39055 -0.34485,-1.1013 -0.65282,-2.31314 -0.90847,-3.62097 -0.77114,-0.35184 -1.54232,-0.70366 -2.29288,-1.06143 0.6106,-0.61402 1.23025,-1.21546 1.85053,-1.81643 -0.20368,-1.48812 -0.36579,-2.88669 -0.44338,-4.14652 -1.60389,1.45141 -3.1544,2.89957 -4.64261,4.37286 -2.12907,-1.08086 -4.17863,-2.18649 -6.13606,-3.32382 1.74253,-1.9577 3.56476,-3.89694 5.4932,-5.901969 z m -7.58765,8.312669 c 1.91709,1.12054 3.89734,2.18438 5.96656,3.22151 -1.94804,2.04774 -3.80553,4.17456 -5.58984,6.45284 -2.00044,-0.90346 -3.9305,-1.82725 -5.80119,-2.76934 1.77614,-2.4597 3.56965,-4.71852 5.42447,-6.90501 z m -40.22958,3.6003 c 1.46654,1.01367 2.9148,1.97436 4.35219,2.87838 -1.19968,1.88689 -2.3625,3.8282 -3.52279,5.87509 -1.59401,-0.93732 -3.12604,-1.894 -4.60902,-2.86701 1.18338,-1.85573 2.43589,-3.80502 3.77962,-5.88646 z m 23.09678,0.31057 c 2.15291,1.36667 4.35324,2.64252 6.65075,3.8654 -1.24514,1.84846 -2.47487,3.80778 -3.7207,5.94537 -2.43842,-0.95836 -4.77672,-1.9518 -7.03213,-2.97604 1.35474,-2.38058 2.70025,-4.60072 4.10208,-6.83473 z m -35.74562,3.0608 c 1.54427,1.2109 3.08303,2.35448 4.63124,3.43907 -1.244,1.89112 -2.43785,3.80852 -3.61684,5.81204 -1.72388,-0.99803 -3.3914,-2.01147 -4.99091,-3.04529 1.24226,-1.96442 2.56775,-4.0257 3.97651,-6.20582 z m 19.67631,1.1343 c 2.45133,1.44172 4.92205,2.7656 7.51066,4.00492 -1.01011,1.83467 -2.02681,3.77115 -3.07372,5.86579 -2.73212,-1.31047 -5.35163,-2.65025 -7.83828,-4.02818 1.13943,-2.05133 2.26005,-3.97133 3.40134,-5.84253 z m 25.9948,1.34203 c 1.82612,0.89651 3.73643,1.77812 5.75055,2.65411 -1.14731,1.58183 -2.2644,3.24676 -3.35896,5.00692 -2.03943,-0.68026 -4.03731,-1.37278 -5.9707,-2.08617 1.20689,-1.9901 2.39502,-3.8356 3.57911,-5.57486 z m -57.6895,1.93064 c 1.25235,0.94776 2.50714,1.86645 3.77961,2.74091 -1.12646,1.74851 -2.2206,3.52672 -3.30264,5.39244 -1.34909,-0.90742 -2.66532,-1.82148 -3.92999,-2.74712 1.08592,-1.70869 2.23923,-3.50804 3.45302,-5.38623 z m 19.20399,0.76274 c 1.55517,1.01836 3.14287,1.99776 4.78369,2.94452 -0.92785,1.72174 -1.86778,3.54229 -2.83342,5.49631 -1.83616,-0.91611 -3.61337,-1.84683 -5.33611,-2.79105 1.11971,-1.95015 2.23526,-3.80348 3.38584,-5.64978 z m 22.94486,1.32292 c 2.22827,0.9859 4.57933,1.93166 7.0714,2.867 -1.0322,1.86539 -2.09088,3.88412 -3.18224,6.05235 -2.39152,-0.99006 -4.70789,-1.99573 -6.94737,-3.01997 1.06234,-2.14305 2.07233,-4.08439 3.05821,-5.89938 z m -53.77863,0.8294 c 1.32173,1.1324 2.65802,2.21825 4.01681,3.26647 -1.28965,1.97335 -2.53019,3.97407 -3.75636,6.08438 -1.47861,-1.01004 -2.917399,-2.02812 -4.293282,-3.05976 1.258779,-1.988 2.600442,-4.07394 4.032832,-6.29109 z m 18.00407,1.54823 c 1.65066,1.05935 3.34518,2.07854 5.1139,3.07578 -0.98349,1.76086 -1.97352,3.62213 -2.98483,5.61516 -1.84345,-1.07597 -3.62269,-2.16308 -5.3418,-3.2613 1.06965,-1.89281 2.13005,-3.66874 3.21273,-5.42964 z m 20.44629,0.82114 c 2.49577,1.34266 5.13468,2.65046 8.01243,3.96771 -0.77517,1.60649 -1.57649,3.31761 -2.40295,5.12631 -2.8872,-1.22545 -5.66913,-2.47033 -8.33593,-3.74034 0.94491,-1.92785 1.84911,-3.70026 2.72645,-5.35368 z m -50.817567,1.18184 c 1.380565,1.21756 2.771206,2.38532 4.187858,3.50573 -1.038826,1.60259 -2.049219,3.23333 -3.045292,4.92373 -1.530235,-1.09953 -2.994597,-2.21194 -4.408,-3.3352 1.029667,-1.61822 2.121142,-3.32369 3.265434,-5.09426 z m 18.871197,1.57251 c 1.31869,0.95304 2.66327,1.88878 4.06901,2.80758 -1.03393,1.87763 -2.07461,3.86093 -3.14762,6.01204 -1.54701,-0.92949 -3.03611,-1.86856 -4.49275,-2.81378 1.18663,-2.09708 2.36209,-4.05459 3.57136,-6.00584 z m -29.937705,0.98134 c 1.223471,1.12924 2.453542,2.20589 3.698483,3.25044 -1.226367,1.8681 -2.405823,3.76299 -3.569808,5.74281 -1.365374,-0.99603 -2.678771,-2.00264 -3.948597,-3.01842 1.198465,-1.90974 2.478449,-3.89907 3.819922,-5.97483 z m 49.381995,0.0646 c 1.75454,0.92771 3.60363,1.84601 5.54437,2.77038 -0.89151,1.86624 -1.81849,3.87611 -2.78226,6.01668 -1.97484,-1.02377 -3.88399,-2.05652 -5.7428,-3.09645 1.03079,-2.05658 2.01714,-3.93397 2.98069,-5.69061 z m -31.650261,2.78278 c 1.429718,1.05924 2.893878,2.09378 4.426091,3.11092 -0.845082,1.53195 -1.698351,3.15339 -2.565739,4.86017 -1.635909,-1.02597 -3.224827,-2.05919 -4.755265,-3.10266 0.960474,-1.6785 1.918795,-3.28402 2.894913,-4.86843 z m 19.010731,0.71417 c 1.73797,1.06995 3.57248,2.13648 5.50819,3.21685 -0.8993,1.83942 -1.82546,3.79674 -2.79208,5.90765 -1.9811,-1.05465 -3.91109,-2.11586 -5.77226,-3.18688 1.0616,-2.15301 2.07372,-4.11759 3.05615,-5.93762 z m -47.269471,0.8294 c 0.860457,0.77794 1.726896,1.53579 2.598808,2.27273 -0.867253,1.36132 -1.714807,2.75336 -2.5554,4.18528 -0.914717,-0.75121 -1.804916,-1.50628 -2.671671,-2.26498 0.847171,-1.39041 1.735915,-2.79097 2.628263,-4.19303 z m 16.639811,0.82166 c 1.465406,1.15302 2.976182,2.27231 4.542876,3.37033 -0.972106,1.73862 -1.950597,3.5758 -2.949174,5.53972 -1.70967,-1.08095 -3.366332,-2.17073 -4.958871,-3.27164 1.115155,-1.95323 2.224787,-3.80148 3.365169,-5.63841 z m 18.76785,2.49959 c 1.48358,0.92791 3.05079,1.85529 4.67671,2.78949 -0.73676,1.52973 -1.49745,3.15751 -2.28048,4.86947 -1.67864,-0.94171 -3.30808,-1.88978 -4.89582,-2.84324 0.85908,-1.71363 1.69034,-3.31834 2.49959,-4.81572 z m -30.365074,0.95136 c 1.315441,1.04186 2.662347,2.05801 4.055049,3.05149 -0.765555,1.37254 -1.535866,2.80274 -2.315621,4.31033 -1.454408,-1.04613 -2.852127,-2.09895 -4.211629,-3.15691 0.824159,-1.44949 1.642658,-2.83992 2.472201,-4.20491 z m 18.818489,1.73891 c 1.564168,1.03122 3.199554,2.06013 4.923214,3.09439 -0.828269,1.69271 -1.67483,3.46815 -2.559017,5.38882 -1.791286,-1.00681 -3.52187,-2.02162 -5.208985,-3.0422 0.981914,-1.95802 1.92484,-3.75767 2.844788,-5.44101 z M 63.817293,139.299 c 0.892901,0.77 1.798331,1.53071 2.730583,2.27893 -0.774838,1.39221 -1.554948,2.84852 -2.345077,4.38061 -0.977047,-0.75554 -1.928078,-1.51493 -2.856156,-2.27738 0.834618,-1.53832 1.652558,-2.98252 2.47065,-4.38216 z m 16.028996,2.22622 c 1.628571,1.09104 3.32504,2.17392 5.124752,3.26285 -0.70761,1.44585 -1.429451,2.95548 -2.176611,4.5651 -1.801256,-1.14997 -3.553816,-2.3038 -5.239474,-3.46387 0.783191,-1.54072 1.546594,-2.99777 2.291333,-4.36408 z m -10.719759,2.05621 c 1.386288,1.04538 2.84376,2.08516 4.359424,3.13004 -0.693241,1.39619 -1.406309,2.88298 -2.134754,4.43229 -1.551996,-1.05901 -3.051896,-2.12347 -4.506185,-3.19309 0.779877,-1.54057 1.541079,-3.00429 2.281515,-4.36924 z" /><path
         style="display:inline;opacity:1;fill:#ffffff;fill-opacity:1;stroke:none;stroke-width:0.264583px;stroke-linecap:butt;stroke-linejoin:miter;stroke-opacity:1"
         d="m 54.216379,151.54748 1.492124,5.97312 22.260228,-5.70129 z"
         id="path1707"
         inkscape:label="left lower pillar"
         sodipodi:nodetypes="cccc" /><path
         style="display:inline;opacity:1;fill:#ffffff;fill-opacity:1;stroke:none;stroke-width:0.264583px;stroke-linecap:butt;stroke-linejoin:miter;stroke-opacity:1"
         d="m 52.082482,132.74342 0.30344,5.66642 22.536676,-11.59155 z"
         id="path1709"
         inkscape:label="right upper pillar"
         sodipodi:nodetypes="cccc" /><path
         style="display:inline;opacity:1;fill:#ffffff;fill-opacity:1;stroke:none;stroke-width:0.265;stroke-linecap:butt;stroke-linejoin:miter;stroke-dasharray:none;stroke-opacity:1"
         d="m 61.846374,126.13991 -5.116784,8.89876 59.01944,-20.35033 z"
         id="path1711"
         sodipodi:nodetypes="cccc"
         inkscape:label="upper pillar" /><path
         style="display:inline;opacity:1;fill:#ffffff;fill-opacity:1;stroke:none;stroke-width:0.264583px;stroke-linecap:butt;stroke-linejoin:miter;stroke-opacity:1"
         d="m 116.35128,144.1599 -45.383678,16.90764 -12.9032,-6.00666 z"
         id="path1713"
         inkscape:label="lower pillar"
         sodipodi:nodetypes="cccc" /></g><path
       id="path436"
       style="display:inline;opacity:1;fill:#ffffff;fill-opacity:1;stroke:none;stroke-width:0.264583px;stroke-linecap:butt;stroke-linejoin:miter;stroke-opacity:1"
       inkscape:label="triangle"
       d="M 67.013997,88.722233 C 52.698877,137.33072 57.802883,129.8828 13.685986,152.90488 l 0.252698,1.67587 c 9.741695,-4.47682 15.122221,-6.61705 21.336165,-9.5095 l 3.492294,11.50007 c -6.399808,0.52657 -14.627423,2.04267 -24.050212,3.16312 l 0.227376,1.5074 c 40.403745,-3.57292 43.789867,-7.92507 80.385275,21.55165 l 1.145149,-2.03553 -15.959232,-14.92674 4.418852,-3.87573 12.415779,17.24649 0.797884,-1.41852 C 93.171051,169.58868 89.328171,162.48254 86.280522,155.96257 L 70.888696,161.69659 57.985608,155.69024 77.556506,152.03 c -4.835773,0.78776 -9.839165,1.55165 -15.138094,2.32182 -5.040852,-7.18041 -7.344945,-10.89546 -4.578532,-20.29437 l -1.55546,0.5364 5.117,-8.89868 14.12937,-3.00188 c -1.908636,-9.62642 -3.309276,-20.06552 -5.528345,-33.341638 l -0.685229,-0.144177 3.782715,31.161925 -8.163843,-4.07779 2.98328,-27.378691 z" /></g></svg>
