<?xml version="1.0" encoding="UTF-8" standalone="no"?>
<!-- Created with Inkscape (http://www.inkscape.org/) -->

<svg
   width="198.88715mm"
   height="198.92407mm"
   viewBox="0 0 198.88715 198.92407"
   version="1.1"
   id="svg5"
   xml:space="preserve"
   inkscape:version="1.3 (0e150ed6c4, 2023-07-21)"
   sodipodi:docname="hollows-lantern_wip.svg"
   inkscape:export-filename="hollows-lantern.png"
   inkscape:export-xdpi="510.84247"
   inkscape:export-ydpi="510.84247"
   xmlns:inkscape="http://www.inkscape.org/namespaces/inkscape"
   xmlns:sodipodi="http://sodipodi.sourceforge.net/DTD/sodipodi-0.dtd"
   xmlns="http://www.w3.org/2000/svg"
   xmlns:svg="http://www.w3.org/2000/svg"><sodipodi:namedview
     id="namedview7"
     pagecolor="#505050"
     bordercolor="#ffffff"
     borderopacity="1"
     inkscape:showpageshadow="0"
     inkscape:pageopacity="0"
     inkscape:pagecheckerboard="1"
     inkscape:deskcolor="#505050"
     inkscape:document-units="mm"
     showgrid="false"
     inkscape:zoom="0.64693625"
     inkscape:cx="324.60694"
     inkscape:cy="289.05476"
     inkscape:window-width="1280"
     inkscape:window-height="1366"
     inkscape:window-x="0"
     inkscape:window-y="0"
     inkscape:window-maximized="0"
     inkscape:current-layer="g2080" /><defs
     id="defs2"><inkscape:path-effect
       effect="fillet_chamfer"
       id="path-effect9"
       is_visible="true"
       lpeversion="1"
       nodesatellites_param="F,1,0,1,0,0,0,1 @ F,1,1,1,0,0.51,0,1 @ F,1,0,1,0,0,0,1 @ F,1,0,1,0,0,0,1 @ F,1,0,1,0,0,0,1 @ F,1,0,1,0,0,0,1 @ F,1,0,1,0,0,0,1 @ F,1,0,1,0,0,0,1 @ F,1,1,1,0,0.51,0,1 @ F,1,0,1,0,0,0,1 @ F,1,0,1,0,0,0,1 @ F,1,0,1,0,0,0,1 @ F,1,0,1,0,0,0,1 @ F,1,0,1,0,0,0,1 | F,1,1,1,0,0.51,0,1 @ F,1,0,1,0,0,0,1 @ F,1,0,1,0,0,0,1 @ F,1,0,1,0,0,0,1 @ F,1,0,1,0,0,0,1 @ F,1,0,1,0,0,0,1 @ F,1,0,1,0,0,0,1 @ F,1,1,1,0,0.51,0,1 @ F,1,0,1,0,0,0,1 @ F,1,0,1,0,0,0,1 @ F,1,0,1,0,0,0,1 @ F,1,0,1,0,0,0,1 @ F,1,0,1,0,0,0,1 @ F,1,0,1,0,0,0,1 | F,1,0,1,0,0,0,1 @ F,1,1,1,0,0.51,0,1 @ F,1,0,1,0,0,0,1 @ F,1,0,1,0,0,0,1 @ F,1,0,1,0,0,0,1 @ F,1,0,1,0,0,0,1 @ F,1,0,1,0,0,0,1 @ F,1,1,1,0,0.51,0,1 @ F,1,0,1,0,0,0,1 @ F,1,0,1,0,0,0,1 @ F,1,0,1,0,0,0,1 @ F,1,0,1,0,0,0,1 | F,1,1,1,0,0.51,0,1 @ F,1,0,1,0,0,0,1 @ F,1,0,1,0,0,0,1 @ F,1,0,1,0,0,0,1 @ F,1,0,1,0,0,0,1 @ F,1,0,1,0,0,0,1 @ F,1,1,1,0,0.51,0,1 @ F,1,0,1,0,0,0,1 @ F,1,0,1,0,0,0,1 @ F,1,0,1,0,0,0,1 @ F,1,0,1,0,0,0,1 @ F,1,0,1,0,0,0,1 | F,1,0,1,0,0,0,1 @ F,1,1,1,0,0.51,0,1 @ F,1,0,1,0,0,0,1 @ F,1,0,1,0,0,0,1 @ F,1,0,1,0,0,0,1 @ F,1,0,1,0,0,0,1 @ F,1,0,1,0,0,0,1 @ F,1,1,1,0,0.51,0,1 @ F,1,0,1,0,0,0,1 @ F,1,0,1,0,0,0,1 @ F,1,0,1,0,0,0,1 @ F,1,0,1,0,0,0,1 | F,1,1,1,0,0.51,0,1 @ F,1,0,1,0,0,0,1 @ F,1,0,1,0,0,0,1 @ F,1,0,1,0,0,0,1 @ F,1,0,1,0,0,0,1 @ F,1,0,1,0,0,0,1 @ F,1,1,1,0,0.51,0,1 @ F,1,0,1,0,0,0,1 @ F,1,0,1,0,0,0,1 @ F,1,0,1,0,0,0,1 @ F,1,0,1,0,0,0,1 @ F,1,0,1,0,0,0,1 | F,1,1,1,0,0.51,0,1 @ F,1,0,1,0,0,0,1 @ F,1,0,1,0,0,0,1 @ F,1,0,1,0,0,0,1 @ F,1,0,1,0,0,0,1 @ F,1,0,1,0,0,0,1 @ F,1,1,1,0,0.51,0,1 @ F,1,0,1,0,0,0,1 @ F,1,0,1,0,0,0,1 @ F,1,0,1,0,0,0,1 @ F,1,0,1,0,0,0,1 @ F,1,0,1,0,0,0,1 | F,1,0,1,0,0,0,1 @ F,1,1,1,0,0.51,0,1 @ F,1,0,1,0,0,0,1 @ F,1,0,1,0,0,0,1 @ F,1,0,1,0,0,0,1 @ F,1,0,1,0,0,0,1 @ F,1,0,1,0,0,0,1 @ F,1,1,1,0,0.51,0,1 @ F,1,0,1,0,0,0,1 @ F,1,0,1,0,0,0,1 @ F,1,0,1,0,0,0,1 @ F,1,0,1,0,0,0,1 @ F,1,0,1,0,0,0,1 | F,1,1,1,0,0.51,0,1 @ F,1,0,1,0,0,0,1 @ F,1,0,1,0,0,0,1 @ F,1,0,1,0,0,0,1 @ F,1,0,1,0,0,0,1 @ F,1,0,1,0,0,0,1 @ F,1,0,1,0,0,0,1 @ F,1,1,1,0,0.51,0,1 @ F,1,0,1,0,0,0,1 @ F,1,0,1,0,0,0,1 @ F,1,0,1,0,0,0,1 @ F,1,0,1,0,0,0,1 @ F,1,0,1,0,0,0,1 | F,1,0,1,0,0,0,1 @ F,1,1,1,0,0.51,0,1 @ F,1,0,1,0,0,0,1 @ F,1,0,1,0,0,0,1 @ F,1,0,1,0,0,0,1 @ F,1,0,1,0,0,0,1 @ F,1,0,1,0,0,0,1 @ F,1,1,1,0,0.51,0,1 @ F,1,0,1,0,0,0,1 @ F,1,0,1,0,0,0,1 @ F,1,0,1,0,0,0,1 @ F,1,0,1,0,0,0,1 | F,1,1,1,0,0.51,0,1 @ F,1,0,1,0,0,0,1 @ F,1,0,1,0,0,0,1 @ F,1,0,1,0,0,0,1 @ F,1,0,1,0,0,0,1 @ F,1,0,1,0,0,0,1 @ F,1,1,1,0,0.51,0,1 @ F,1,0,1,0,0,0,1 @ F,1,0,1,0,0,0,1 @ F,1,0,1,0,0,0,1 @ F,1,0,1,0,0,0,1 @ F,1,0,1,0,0,0,1 | F,1,0,1,0,0,0,1 @ F,1,1,1,0,0.51,0,1 @ F,1,0,1,0,0,0,1 @ F,1,0,1,0,0,0,1 @ F,1,0,1,0,0,0,1 @ F,1,0,1,0,0,0,1 @ F,1,0,1,0,0,0,1 @ F,1,1,1,0,0.51,0,1 @ F,1,0,1,0,0,0,1 @ F,1,0,1,0,0,0,1 @ F,1,0,1,0,0,0,1 @ F,1,0,1,0,0,0,1 @ F,1,0,1,0,0,0,1"
       radius="51"
       unit="px"
       method="auto"
       mode="F"
       chamfer_steps="1"
       flexible="true"
       use_knot_distance="true"
       apply_no_radius="true"
       apply_with_radius="true"
       only_selected="true"
       hide_knots="false" /><inkscape:path-effect
       effect="fillet_chamfer"
       id="path-effect8"
       is_visible="true"
       lpeversion="1"
       nodesatellites_param="F,1,0,1,0,0.26,0,1 @ F,1,0,1,0,0,0,1 @ F,1,0,1,0,0,0,1 @ F,1,0,1,0,0,0,1 @ F,1,0,1,0,0,0,1 @ F,1,0,1,0,0,0,1 @ F,1,0,1,0,0.26,0,1 @ F,1,0,1,0,0,0,1 @ F,1,0,1,0,0,0,1 @ F,1,0,1,0,0,0,1 @ F,1,0,1,0,0,0,1 @ F,1,0,1,0,0,0,1 | F,1,0,1,0,0,0,1 @ F,1,0,1,0,0,0,1 @ F,1,0,1,0,0,0,1 @ F,1,0,1,0,0,0,1 @ F,1,0,1,0,0,0,1 @ F,1,0,1,0,0.26,0,1 @ F,1,0,1,0,0,0,1 @ F,1,0,1,0,0,0,1 @ F,1,0,1,0,0,0,1 @ F,1,0,1,0,0,0,1 @ F,1,0,1,0,0,0,1 @ F,1,0,1,0,0.26,0,1 | F,1,0,1,0,0.26,0,1 @ F,1,0,1,0,0,0,1 @ F,1,0,1,0,0,0,1 @ F,1,0,1,0,0,0,1 @ F,1,0,1,0,0,0,1 @ F,1,0,1,0,0.26,0,1 @ F,1,0,1,0,0,0,1 @ F,1,0,1,0,0,0,1 @ F,1,0,1,0,0,0,1 @ F,1,0,1,0,0,0,1 | F,1,0,1,0,0,0,1 @ F,1,0,1,0,0,0,1 @ F,1,0,1,0,0,0,1 @ F,1,0,1,0,0,0,1 @ F,1,0,1,0,0.26,0,1 @ F,1,0,1,0,0,0,1 @ F,1,0,1,0,0,0,1 @ F,1,0,1,0,0,0,1 @ F,1,0,1,0,0,0,1 @ F,1,0,1,0,0.26,0,1 | F,1,0,1,0,0.26,0,1 @ F,1,0,1,0,0,0,1 @ F,1,0,1,0,0,0,1 @ F,1,0,1,0,0,0,1 @ F,1,0,1,0,0,0,1 @ F,1,0,1,0,0.26,0,1 @ F,1,0,1,0,0,0,1 @ F,1,0,1,0,0,0,1 @ F,1,0,1,0,0,0,1 @ F,1,0,1,0,0,0,1 | F,1,0,1,0,0,0,1 @ F,1,0,1,0,0,0,1 @ F,1,0,1,0,0,0,1 @ F,1,0,1,0,0,0,1 @ F,1,0,1,0,0.26,0,1 @ F,1,0,1,0,0,0,1 @ F,1,0,1,0,0,0,1 @ F,1,0,1,0,0,0,1 @ F,1,0,1,0,0,0,1 @ F,1,0,1,0,0.26,0,1 | F,1,0,1,0,0,0,1 @ F,1,0,1,0,0,0,1 @ F,1,0,1,0,0,0,1 @ F,1,0,1,0,0,0,1 @ F,1,0,1,0,0.26,0,1 @ F,1,0,1,0,0,0,1 @ F,1,0,1,0,0,0,1 @ F,1,0,1,0,0,0,1 @ F,1,0,1,0,0,0,1 @ F,1,0,1,0,0.26,0,1 | F,1,0,1,0,0.26,0,1 @ F,1,0,1,0,0,0,1 @ F,1,0,1,0,0,0,1 @ F,1,0,1,0,0,0,1 @ F,1,0,1,0,0,0,1 @ F,1,0,1,0,0.26,0,1 @ F,1,0,1,0,0,0,1 @ F,1,0,1,0,0,0,1 @ F,1,0,1,0,0,0,1 @ F,1,0,1,0,0,0,1 @ F,1,0,1,0,0,0,1 | F,1,0,1,0,0,0,1 @ F,1,0,1,0,0,0,1 @ F,1,0,1,0,0,0,1 @ F,1,0,1,0,0,0,1 @ F,1,0,1,0,0,0,1 @ F,1,0,1,0,0.26,0,1 @ F,1,0,1,0,0,0,1 @ F,1,0,1,0,0,0,1 @ F,1,0,1,0,0,0,1 @ F,1,0,1,0,0,0,1 @ F,1,0,1,0,0.26,0,1 | F,1,0,1,0,0.26,0,1 @ F,1,0,1,0,0,0,1 @ F,1,0,1,0,0,0,1 @ F,1,0,1,0,0,0,1 @ F,1,0,1,0,0,0,1 @ F,1,0,1,0,0.26,0,1 @ F,1,0,1,0,0,0,1 @ F,1,0,1,0,0,0,1 @ F,1,0,1,0,0,0,1 @ F,1,0,1,0,0,0,1 | F,1,0,1,0,0,0,1 @ F,1,0,1,0,0,0,1 @ F,1,0,1,0,0,0,1 @ F,1,0,1,0,0,0,1 @ F,1,0,1,0,0.26,0,1 @ F,1,0,1,0,0,0,1 @ F,1,0,1,0,0,0,1 @ F,1,0,1,0,0,0,1 @ F,1,0,1,0,0,0,1 @ F,1,0,1,0,0.26,0,1 | F,1,0,1,0,0.26,0,1 @ F,1,0,1,0,0,0,1 @ F,1,0,1,0,0,0,1 @ F,1,0,1,0,0,0,1 @ F,1,0,1,0,0,0,1 @ F,1,0,1,0,0.26,0,1 @ F,1,0,1,0,0,0,1 @ F,1,0,1,0,0,0,1 @ F,1,0,1,0,0,0,1 @ F,1,0,1,0,0,0,1 @ F,1,0,1,0,0,0,1"
       radius="31"
       unit="px"
       method="auto"
       mode="F"
       chamfer_steps="1"
       flexible="true"
       use_knot_distance="true"
       apply_no_radius="true"
       apply_with_radius="true"
       only_selected="true"
       hide_knots="false" /><inkscape:path-effect
       effect="fillet_chamfer"
       id="path-effect2093"
       is_visible="true"
       lpeversion="1"
       nodesatellites_param="F,0,0,1,0,1.0583333,0,1 @ F,0,0,1,0,1.0583333,0,1 @ F,0,0,1,0,1.0583333,0,1 | F,0,0,1,0,1.0583333,0,1 @ F,0,0,1,0,1.0583333,0,1 @ F,0,0,1,0,1.0583333,0,1"
       unit="px"
       method="auto"
       mode="F"
       radius="4"
       chamfer_steps="1"
       flexible="false"
       use_knot_distance="true"
       apply_no_radius="true"
       apply_with_radius="true"
       only_selected="false"
       hide_knots="false" /><inkscape:path-effect
       effect="fillet_chamfer"
       id="path-effect2091"
       is_visible="true"
       lpeversion="1"
       nodesatellites_param="F,0,0,1,0,1.3229167,0,1 @ F,0,0,1,0,1.3229167,0,1 @ F,0,0,1,0,1.3229167,0,1 @ F,0,0,1,0,1.3229167,0,1 | F,0,0,1,0,1.3229167,0,1 @ F,0,0,1,0,1.3229167,0,1 @ F,0,0,1,0,1.3229167,0,1 @ F,0,0,1,0,1.3229167,0,1 | F,0,0,1,0,1.3229167,0,1 @ F,0,0,1,0,1.3229167,0,1 @ F,0,0,1,0,1.3229167,0,1 | F,0,0,1,0,1.3229167,0,1 @ F,0,0,1,0,1.3229167,0,1 @ F,0,0,1,0,1.3229167,0,1 @ F,0,0,1,0,1.3229167,0,1 @ F,0,0,1,0,1.3229167,0,1 @ F,0,0,1,0,1.3229167,0,1 | F,0,0,1,0,1.3229167,0,1 @ F,0,0,1,0,1.3229167,0,1 @ F,0,0,1,0,1.3229167,0,1 @ F,0,0,1,0,1.3229167,0,1"
       unit="px"
       method="auto"
       mode="F"
       radius="5"
       chamfer_steps="1"
       flexible="false"
       use_knot_distance="true"
       apply_no_radius="true"
       apply_with_radius="true"
       only_selected="false"
       hide_knots="false" /></defs><g
     inkscape:groupmode="layer"
     id="g2080"
     inkscape:label="drawing"
     style="display:inline"
     transform="translate(-4.8031048,-56.800289)"><path
       id="path2086"
       style="opacity:1;fill:#ffffff;fill-opacity:1;stroke-width:5;stroke-linecap:square;stroke-linejoin:bevel;stroke-miterlimit:2.6;stroke-dasharray:38.75, 12.5;stroke-dashoffset:48.5"
       inkscape:label="core"
       d="m 104.26495,100.8879 a 55.391846,55.391846 0 0 0 -55.391964,55.39145 55.391846,55.391846 0 0 0 55.391964,55.39197 55.391846,55.391846 0 0 0 55.39197,-55.39197 55.391846,55.391846 0 0 0 -55.39197,-55.39145 z m -0.0775,22.5795 28.19621,48.83733 H 75.991227 Z" /><path
       style="color:#000000;opacity:1;fill:#ffffff;fill-opacity:1;stroke-linecap:square;stroke-linejoin:round;stroke-miterlimit:2.6;stroke-dasharray:36.5, 14.25;stroke-dashoffset:43.5;-inkscape-stroke:none"
       d="m 108.16918,58.018164 -0.15444,2.420791 a 1.2741028,1.2741028 48.639877 0 0 1.19086,1.352666 l 1.22213,0.07752 c 8.22256,0.525659 16.37828,2.131373 24.17969,4.773437 h 0.002 c 3.42197,1.158129 6.77588,2.512142 10.04102,4.056641 l 1.08489,0.513844 c 0.6488,0.307297 1.42387,0.0303 1.73093,-0.61861 l 1.03717,-2.191778 A 1.2756672,1.2756672 70.333908 0 0 147.8964,66.70414 l -1.10729,-0.524453 c -3.43937,-1.626913 -6.97286,-3.053859 -10.57617,-4.273437 h -0.002 c -8.22089,-2.783949 -16.80468,-4.473833 -25.46289,-5.027344 l -1.1986,-0.07597 c -0.71668,-0.04542 -1.33455,0.498571 -1.38027,1.215226 z m -10.797617,-1.117729 -1.221172,0.09762 c -3.396048,0.272909 -6.777294,0.721962 -10.126954,1.341797 v -0.002 c -8.925617,1.650044 -17.618186,4.537122 -25.757812,8.554687 l -1.074294,0.530123 c -0.64393,0.317754 -0.908346,1.097355 -0.590589,1.741283 l 1.073745,2.175921 a 1.2740583,1.2740583 18.735321 0 0 1.706314,0.578728 l 1.097715,-0.54168 c 7.724789,-3.81281 15.981923,-6.555055 24.453125,-8.121094 h 0.002 c 3.181514,-0.58872 6.392514,-1.014299 9.617187,-1.273437 l 1.196807,-0.09661 c 0.715492,-0.05776 1.248773,-0.68447 1.191267,-1.399983 l -0.194175,-2.415986 a 1.2756191,1.2756191 40.417302 0 0 -1.373164,-1.169369 z m 59.324807,16.168984 -1.34568,2.016153 a 1.2756619,1.2756619 78.724189 0 0 0.35273,1.76914 l 1.01924,0.680449 c 8.01958,5.35066 15.21938,11.937196 21.26562,19.447266 1.38768,1.723407 2.71432,3.493893 3.97656,5.308603 l 0.685,0.98393 c 0.4103,0.58934 1.22051,0.73478 1.81016,0.32493 l 1.99092,-1.38379 a 1.2748123,1.2748123 100.18944 0 0 0.31898,-1.77471 l -0.69959,-1.005838 c -1.33026,-1.912498 -2.72779,-3.776987 -4.1875,-5.589844 C 175.51639,85.937942 167.94198,79.010088 159.49609,73.375 l -0.99691,-0.66523 c -0.59715,-0.398477 -1.40427,-0.237463 -1.80281,0.359649 z m -108.008929,0.528789 -1.007754,0.696719 c -1.674856,1.157321 -3.312687,2.366363 -4.912109,3.623047 -8.21424,6.452873 -15.40746,14.194644 -21.232422,22.867196 l -0.668514,0.99668 c -0.399953,0.59628 -0.241028,1.40386 0.355038,1.80414 l 2.013052,1.35182 a 1.2753955,1.2753955 168.89805 0 0 1.769448,-0.34721 l 0.68332,-1.01637 c 5.530651,-8.234362 12.36694,-15.59635 20.167969,-21.724616 1.520417,-1.194608 3.076683,-2.343181 4.666015,-3.441406 l 0.987425,-0.682664 c 0.590567,-0.408293 0.738452,-1.217966 0.330349,-1.808664 l -1.378111,-1.994708 a 1.2747435,1.2747435 10.350852 0 0 -1.773706,-0.323964 z m 142.547089,36.740482 -2.17113,1.07988 a 1.2749241,1.2749241 108.555 0 0 -0.57375,1.70929 l 0.54551,1.09676 c 3.70575,7.45067 6.41612,15.39977 8.03125,23.5625 0.68567,3.46175 1.17674,6.96375 1.4707,10.48047 l 0.10027,1.19484 c 0.06,0.71551 0.68861,1.24697 1.40414,1.18723 l 2.41594,-0.20172 a 1.2750189,1.2750189 130.21682 0 0 1.16448,-1.37715 l -0.10241,-1.22117 c -0.30955,-3.70319 -0.82681,-7.38793 -1.54883,-11.0332 -1.70183,-8.60094 -4.5547,-16.96854 -8.45898,-24.81836 l -0.53437,-1.07437 c -0.31972,-0.64281 -1.10001,-0.90473 -1.74282,-0.585 z m -176.406425,2.02569 -0.527324,1.10633 c -1.59566,3.34522 -3.001272,6.78089 -4.210937,10.28321 -2.8670812,8.29699 -4.6163695,16.97291 -5.2031253,25.7285 l -0.080627,1.19722 c -0.048232,0.71619 0.4934058,1.3358 1.2096116,1.38376 l 2.4192836,0.16198 a 1.2753883,1.2753883 138.84165 0 0 1.3577086,-1.18684 L 9.875,149.81641 c 0.557147,-8.31378 2.218796,-16.55642 4.939453,-24.42969 1.148863,-3.32656 2.485216,-6.58801 4,-9.76367 l 0.516272,-1.0822 c 0.309241,-0.64823 0.03452,-1.42442 -0.613655,-1.73378 l -2.188919,-1.04472 a 1.2749352,1.2749352 160.49939 0 0 -1.700046,0.60203 z m 183.874175,49.75429 -0.089,1.22117 c -0.60889,8.30337 -2.32283,16.52877 -5.08984,24.37891 -1.1716,3.32564 -2.52853,6.58597 -4.06641,9.75781 l -0.52416,1.0802 c -0.31347,0.646 -0.0438,1.42379 0.60236,1.73703 l 2.18269,1.05819 a 1.2745828,1.2745828 160.85452 0 0 1.70313,-0.59128 l 0.53403,-1.1025 c 1.62038,-3.342 3.05139,-6.77523 4.28515,-10.27734 2.91591,-8.27255 4.7181,-16.93075 5.35938,-25.67578 l 0.0871,-1.19571 c 0.0522,-0.7161 -0.48587,-1.33899 -1.20196,-1.39144 l -2.4189,-0.17718 a 1.273924,1.273924 139.1789 0 0 -1.36362,1.17792 z m -190.2467722,-0.81695 -2.418863,0.18759 a 1.2747986,1.2747986 130.56439 0 0 -1.1724065,1.3696 l 0.094746,1.22117 c 0.2864685,3.70819 0.7807187,7.39989 1.4804687,11.05273 1.647252,8.6082 4.4458779,16.98965 8.2988279,24.86133 l 0.528015,1.07854 c 0.315667,0.64479 1.094317,0.91154 1.739056,0.59577 l 2.17816,-1.06682 a 1.2743068,1.2743068 108.90057 0 0 0.583812,-1.70512 l -0.538808,-1.09963 c -3.656957,-7.47125 -6.315555,-15.43376 -7.878907,-23.60351 v -0.002 c -0.664536,-3.46903 -1.134195,-6.97448 -1.4062496,-10.49611 l -0.091906,-1.19756 c -0.05494,-0.71589 -0.6801082,-1.2515 -1.3959458,-1.19598 z m 174.7413622,47.16816 -0.68906,1.01254 c -5.57687,8.1907 -12.45387,15.50104 -20.2832,21.57617 v 0.002 c -1.53582,1.19188 -3.10624,2.33591 -4.71094,3.42968 l -0.99222,0.67618 c -0.59322,0.40426 -0.74631,1.21292 -0.34192,1.80605 l 1.36572,2.00313 a 1.2755941,1.2755941 10.720257 0 0 1.77229,0.33552 l 1.01254,-0.69002 c 1.69138,-1.15286 3.34548,-2.35764 4.96094,-3.61132 8.24412,-6.39699 15.47607,-14.08649 21.3496,-22.7129 l 0.67483,-0.99163 c 0.40399,-0.59364 0.25039,-1.40235 -0.34311,-1.80654 l -2.00465,-1.36519 a 1.274332,1.274332 169.24591 0 0 -1.77082,0.33633 z m -159.460268,-0.0197 -1.998875,1.3711 a 1.2753799,1.2753799 100.54044 0 0 -0.330012,1.77359 l 0.693847,1.01063 c 1.211535,1.76547 2.479241,3.48984 3.800782,5.17187 6.387894,8.13166 14.041013,15.26091 22.607422,21.05469 l 0.99375,0.67219 c 0.594569,0.40217 1.40259,0.24621 1.804765,-0.34836 l 1.358065,-2.00774 A 1.2761107,1.2761107 79.093626 0 0 52.325,235.3766 l -1.014453,-0.68715 c -8.133957,-5.5013 -15.410069,-12.27943 -21.476563,-20.00195 -1.256372,-1.59909 -2.46184,-3.23705 -3.611328,-4.91211 l -0.678513,-0.98872 c -0.406259,-0.59199 -1.215458,-0.74264 -1.807541,-0.33652 z m 122.876658,32.46118 -1.10154,0.53594 c -7.74642,3.76241 -16.01779,6.45052 -24.49609,7.96289 -3.18781,0.56922 -6.40578,0.97383 -9.63477,1.21289 l -1.19578,0.089 c -0.71608,0.0533 -1.25345,0.67687 -1.20043,1.39297 l 0.17906,2.41882 a 1.2739997,1.2739997 40.754065 0 0 1.36512,1.17643 l 1.22117,-0.0909 c 3.39976,-0.2517 6.78698,-0.67823 10.14258,-1.27734 8.93295,-1.59346 17.64212,-4.42414 25.80469,-8.38867 l 1.07845,-0.52377 c 0.64591,-0.3137 0.91516,-1.09166 0.60135,-1.73752 l -1.06009,-2.18175 a 1.2743363,1.2743363 19.070519 0 0 -1.70372,-0.58899 z m -86.09244,0.77777 -1.05023,2.18475 a 1.275752,1.275752 70.679287 0 0 0.596871,1.70242 l 1.104414,0.53115 c 3.435571,1.65182 6.965559,3.1035 10.568359,4.34766 8.1976,2.8328 16.763501,4.57414 25.41211,5.18164 l 1.197187,0.0844 c 0.716288,0.0505 1.337877,-0.48926 1.388359,-1.20554 l 0.170508,-2.41932 a 1.2751663,1.2751663 49.031397 0 0 -1.182363,-1.36166 l -1.222129,-0.0861 c -8.212469,-0.57687 -16.352007,-2.22988 -24.130859,-4.91797 v -0.002 c -3.420819,-1.18132 -6.773921,-2.55896 -10.035156,-4.12696 l -1.082475,-0.52057 c -0.646933,-0.31112 -1.423584,-0.0388 -1.734596,0.60816 z"
       id="circle4307"
       inkscape:path-effect="#path-effect8;#path-effect9"
       inkscape:original-d="m 108.25195,56.720703 -0.31836,4.990234 2.49414,0.158204 c 8.22256,0.525659 16.37828,2.131373 24.17969,4.773437 a 2.50025,2.50025 0 0 0 0.002,0 c 3.42197,1.158129 6.77588,2.512142 10.04102,4.056641 l 2.25977,1.070312 2.13867,-4.519531 -2.25977,-1.070313 c -3.43937,-1.626913 -6.97286,-3.053859 -10.57617,-4.273437 h -0.002 c -8.22089,-2.783949 -16.80468,-4.473833 -25.46289,-5.027344 z m -9.609372,0.07813 -2.492187,0.199219 c -3.396048,0.272909 -6.777294,0.721962 -10.126954,1.341797 v -0.002 c -8.925617,1.650044 -17.618186,4.537122 -25.757812,8.554687 l -2.240234,1.105469 2.21289,4.484375 2.240235,-1.105469 c 7.724789,-3.81281 15.981923,-6.555055 24.453125,-8.121094 a 2.50025,2.50025 0 0 0 0.002,0 c 3.181514,-0.58872 6.392514,-1.014299 9.617187,-1.273437 l 2.492188,-0.201172 z m 58.775392,15.189453 -2.77539,4.158203 2.08008,1.388672 c 8.01958,5.35066 15.21938,11.937196 21.26562,19.447266 1.38768,1.723407 2.71432,3.493893 3.97656,5.308603 l 1.42774,2.05078 4.10547,-2.85352 -1.42774,-2.052738 c -1.33026,-1.912498 -2.72779,-3.776987 -4.1875,-5.589844 C 175.51639,85.937942 167.94198,79.010088 159.49609,73.375 Z m -107.681642,0.884766 -2.056641,1.421875 c -1.674856,1.157321 -3.312687,2.366363 -4.912109,3.623047 -8.21424,6.452873 -15.40746,14.194644 -21.232422,22.867196 l -1.392578,2.07617 4.150391,2.78711 1.394531,-2.07422 c 5.530651,-8.234362 12.36694,-15.59635 20.167969,-21.724616 1.520417,-1.194608 3.076683,-2.343181 4.666015,-3.441406 l 2.056641,-1.421875 z m 142.662112,36.886728 -4.47657,2.22656 1.11329,2.23828 c 3.70575,7.45067 6.41612,15.39977 8.03125,23.5625 0.68567,3.46175 1.17674,6.96375 1.4707,10.48047 l 0.20898,2.49023 4.98243,-0.41601 -0.20899,-2.49219 c -0.30955,-3.70319 -0.82681,-7.38793 -1.54883,-11.0332 -1.70183,-8.60094 -4.5547,-16.96854 -8.45898,-24.81836 z m -177.021487,1.45312 -1.076172,2.25781 c -1.59566,3.34522 -3.001272,6.78089 -4.210937,10.28321 -2.8670812,8.29699 -4.6163695,16.97291 -5.2031253,25.7285 L 4.71875,151.97656 9.7070313,152.31055 9.875,149.81641 c 0.557147,-8.31378 2.218796,-16.55642 4.939453,-24.42969 1.148863,-3.32656 2.485216,-6.58801 4,-9.76367 l 1.076172,-2.25586 z m 183.417967,49.63476 -0.18164,2.49218 c -0.60889,8.30337 -2.32283,16.52877 -5.08984,24.37891 -1.1716,3.32564 -2.52853,6.58597 -4.06641,9.75781 l -1.0918,2.25 4.5,2.18164 1.08985,-2.25 c 1.62038,-3.342 3.05139,-6.77523 4.28515,-10.27734 2.91591,-8.27255 4.7181,-16.93075 5.35938,-25.67578 l 0.18164,-2.49219 z m -189.0429669,0.35351 -4.9863281,0.38672 0.1933594,2.49219 c 0.2864685,3.70819 0.7807187,7.39989 1.4804687,11.05273 1.647252,8.6082 4.4458779,16.98965 8.2988279,24.86133 l 1.09961,2.2461 4.490234,-2.19921 -1.099609,-2.24415 c -3.656957,-7.47125 -6.315555,-15.43376 -7.878907,-23.60351 a 2.50025,2.50025 0 0 0 0,-0.002 c -0.664536,-3.46903 -1.134195,-6.97448 -1.4062496,-10.49611 z m 174.1621069,46.21485 -1.40625,2.0664 c -5.57687,8.1907 -12.45387,15.50104 -20.2832,21.57617 a 2.50025,2.50025 0 0 0 0,0.002 c -1.53582,1.19188 -3.10624,2.33591 -4.71094,3.42968 l -2.0664,1.40821 2.8164,4.13086 2.06641,-1.40821 c 1.69138,-1.15286 3.34548,-2.35764 4.96094,-3.61132 8.24412,-6.39699 15.47607,-14.08649 21.3496,-22.7129 l 1.40625,-2.0664 z m -159.105466,0.29882 -4.123047,2.82813 1.416015,2.0625 c 1.211535,1.76547 2.479241,3.48984 3.800782,5.17187 6.387894,8.13166 14.041013,15.26091 22.607422,21.05469 l 2.070312,1.40039 2.800781,-4.14062 -2.070312,-1.40235 c -8.133957,-5.5013 -15.410069,-12.27943 -21.476563,-20.00195 -1.256372,-1.59909 -2.46184,-3.23705 -3.611328,-4.91211 z m 122.951176,32.63868 -2.24805,1.09375 c -7.74642,3.76241 -16.01779,6.45052 -24.49609,7.96289 -3.18781,0.56922 -6.40578,0.97383 -9.63477,1.21289 l -2.49219,0.18554 0.36914,4.98633 2.49219,-0.18555 c 3.39976,-0.2517 6.78698,-0.67823 10.14258,-1.27734 8.93295,-1.59346 17.64212,-4.42414 25.80469,-8.38867 l 2.24804,-1.0918 z m -86.675786,0.16406 -2.166015,4.50586 2.253906,1.08398 c 3.435571,1.65182 6.965559,3.1035 10.568359,4.34766 8.1976,2.8328 16.763501,4.57414 25.41211,5.18164 l 2.49414,0.17578 0.351563,-4.98828 -2.494141,-0.17578 c -8.212469,-0.57687 -16.352007,-2.22988 -24.130859,-4.91797 a 2.50025,2.50025 0 0 0 0,-0.002 c -3.420819,-1.18132 -6.773921,-2.55896 -10.035156,-4.12696 z" /><path
       id="path2064"
       style="opacity:1;fill:#ffffff;fill-opacity:0.979239;stroke-width:4.99999;stroke-linecap:square;stroke-linejoin:bevel;stroke-miterlimit:2.6;stroke-dasharray:38.7501, 12.5;stroke-dashoffset:48.5"
       d="M 84.365377,91.147655 69.053166,115.59115 a 0.65281945,0.65281945 58.32933 0 0 0.614734,0.99648 l 21.137609,-2.00022 a 11.6218,11.6218 168.10022 0 0 2.572362,-0.54207 l 19.318499,-6.42411 a 0.60475253,0.60475253 96.17299 0 0 0.11829,-1.09364 L 86.204719,90.702742 a 1.3538588,1.3538588 166.4021 0 0 -1.839342,0.444913 z m 51.044233,22.408995 17.6133,25.43097 a 0.53676466,0.53676466 167.37834 0 0 0.97073,-0.21736 l 2.63252,-15.79422 a 3.0763865,3.0763865 76.194055 0 0 -0.58003,-2.3604 l -5.35801,-7.09105 a 2.657701,2.657701 26.462621 0 0 -2.12045,-1.05549 l -12.58837,0 a 0.69298376,0.69298376 117.64691 0 0 -0.56969,1.08755 z M 51.391888,153.33028 38.88994,171.39874 a 1.3847676,1.3847676 80.988735 0 0 0.29965,1.88951 l 21.922708,16.699 a 0.457213,0.457213 146.36295 0 0 0.719555,-0.47874 l -9.354404,-35.98576 a 0.60639884,0.60639884 10.054387 0 0 -1.085561,-0.19247 z m 105.201682,0.119 -9.72452,11.28719 a 10.462951,10.462951 123.54052 0 0 -1.45035,2.18787 l -18.96872,38.3224 a 0.58932437,0.58932437 50.346086 0 0 0.68706,0.82892 l 20.45747,-5.72807 a 2.1953614,2.1953614 133.28478 0 0 1.55375,-1.64968 l 2.40554,-11.11501 a 3.4747736,3.4747736 123.05461 0 1 1.3487,-2.07249 l 16.36862,-11.93731 a 1.41275,1.41275 100.77825 0 0 0.36117,-1.89722 l -11.46753,-18.11114 a 0.98047306,0.98047306 4.2028455 0 0 -1.57119,-0.11546 z m -65.453848,54.19468 6.464591,7.59634 a 2.8284496,2.8284496 24.535435 0 0 2.180237,0.99522 l 8.3965,-0.0778 a 2.9929546,2.9929546 155.62318 0 0 2.20424,-0.99881 l 5.08798,-5.69516 a 0.64896596,0.64896596 67.907835 0 0 -0.43825,-1.07972 l -23.433043,-1.65438 a 0.55560526,0.55560526 116.82009 0 0 -0.462255,0.91431 z"
       inkscape:path-effect="#path-effect2091"
       inkscape:original-d="m 85.067676,90.026546 -16.716809,26.685714 23.771675,-2.24948 21.829158,-7.25899 z m 49.588704,22.442554 19.11976,27.60607 3.06752,-18.40404 -6.95307,-9.20203 z m -82.511759,39.77329 -14.007414,20.24424 24.027474,18.30224 z m 105.312439,0.20464 -11.4515,13.29169 -20.14244,40.69364 23.00531,-6.44147 2.9652,-13.70097 18.50636,-13.49633 z m -67.174715,54.18945 8.179345,9.6113 11.04222,-0.10232 6.85074,-7.66826 z" /><path
       id="path2076"
       style="opacity:1;fill:#ffffff;fill-opacity:1;stroke-width:4.99999;stroke-linecap:square;stroke-linejoin:bevel;stroke-miterlimit:2.6;stroke-dasharray:38.7501, 12.5;stroke-dashoffset:48.5"
       inkscape:transform-center-x="1.311309e-06"
       inkscape:transform-center-y="-8.168231"
       d="m 103.65826,143.07737 -10.949181,18.9641 a 0.6110219,0.6110219 60.000289 0 0 0.529157,0.91654 h 21.898404 a 0.61102208,0.61102208 119.99972 0 0 0.52915,-0.91654 l -10.94917,-18.9641 a 0.61104306,0.61104306 7.2317363e-6 0 0 -1.05836,0 z m 1.05834,9.11832 3.05202,5.28636 a 0.61103512,0.61103512 120.00025 0 1 -0.52917,0.91655 h -6.10454 a 0.61099647,0.61099647 60.001321 0 1 -0.52912,-0.91652 l 3.05244,-5.28642 a 0.61105545,0.61105545 0.00156928 0 1 1.05837,3e-5 z"
       inkscape:path-effect="#path-effect2093"
       inkscape:original-d="m 104.18744,142.16083 -12.007537,20.79718 h 24.015067 z m 0,9.11831 4.11034,7.11946 h -8.2212 z" /></g></svg>
