<?xml version="1.0" encoding="UTF-8" standalone="no"?>
<!-- Created with Inkscape (http://www.inkscape.org/) -->

<svg
   width="199.16475mm"
   height="199.09021mm"
   viewBox="0 0 199.16475 199.09021"
   version="1.1"
   id="svg5"
   xml:space="preserve"
   sodipodi:docname="hollows-lantern_white.svg"
   inkscape:export-filename="hollows-lantern_white.png"
   inkscape:export-xdpi="510.13043"
   inkscape:export-ydpi="510.13043"
   xmlns:inkscape="http://www.inkscape.org/namespaces/inkscape"
   xmlns:sodipodi="http://sodipodi.sourceforge.net/DTD/sodipodi-0.dtd"
   xmlns="http://www.w3.org/2000/svg"
   xmlns:svg="http://www.w3.org/2000/svg"><sodipodi:namedview
     id="namedview9"
     pagecolor="#505050"
     bordercolor="#ffffff"
     borderopacity="1"
     inkscape:showpageshadow="0"
     inkscape:pageopacity="0"
     inkscape:pagecheckerboard="1"
     inkscape:deskcolor="#505050"
     inkscape:document-units="mm"
     showgrid="false" /><defs
     id="defs2" /><g
     id="g2080"
     style="display:inline"
     transform="translate(-4.7118749,-56.77848)"><path
       id="path2086"
       style="opacity:1;fill:#ffffff;fill-opacity:1;stroke-width:5;stroke-linecap:square;stroke-linejoin:bevel;stroke-miterlimit:2.6;stroke-dasharray:38.75, 12.5;stroke-dashoffset:48.5"
       d="m 104.26495,100.8879 a 55.391846,55.391846 0 0 0 -55.391964,55.39145 55.391846,55.391846 0 0 0 55.391964,55.39197 55.391846,55.391846 0 0 0 55.39197,-55.39197 55.391846,55.391846 0 0 0 -55.39197,-55.39145 z m -0.0775,22.5795 28.19621,48.83733 H 75.991227 Z" /><path
       style="color:#000000;opacity:1;fill:#ffffff;fill-opacity:1;stroke-linecap:square;stroke-linejoin:bevel;stroke-miterlimit:2.6;stroke-dasharray:38.75, 12.5;stroke-dashoffset:48.5;-inkscape-stroke:none"
       d="m 98.851151,56.812071 c -0.503528,0.03152 -1.621196,0.100121 -2.495243,0.16882 -3.143798,0.247099 -6.275599,0.643725 -9.382352,1.187872 -0.863595,0.151258 -1.561447,0.28542 -1.561447,0.284315 -9.370956,1.937685 -16.984092,4.51553 -24.179901,7.9695 -0.790405,0.379391 -2.06139,1.016103 -2.845718,1.407924 a 1.2942878,1.2942878 93.326402 0 0 -0.106226,1.827635 l 0.816425,1.63285 a 1.5869462,1.5869462 18.424943 0 0 2.129607,0.709456 c 0.451046,-0.22572 1.451809,-0.727839 2.242555,-1.106514 6.784248,-3.248864 13.963178,-5.677838 21.326118,-7.217114 0.858188,-0.179411 1.557488,-0.311628 1.558593,-0.311628 4.459858,-0.790671 7.381733,-1.160494 10.314943,-1.393461 0.873988,-0.06941 2.292854,-0.156802 3.167893,-0.211578 a 1.2950665,1.2950665 116.33376 0 0 0.812462,-1.641465 l -0.11407,-1.821397 a 1.5875557,1.5875557 41.417084 0 0 -1.683639,-1.485215 z m 9.299729,1.492899 -0.11622,1.821676 a 1.5869209,1.5869209 48.639877 0 0 1.48325,1.684773 c 0.50249,0.03187 1.61927,0.101666 2.49316,0.172342 7.15771,0.578879 14.25064,1.976003 21.08847,4.162441 0.83508,0.267024 1.50878,0.496364 1.50988,0.496364 4.59234,1.62697 7.62706,2.894411 10.58691,4.317565 0.79015,0.37992 2.06008,1.018757 2.84372,1.411947 a 1.2947137,1.2947137 146.53179 0 0 1.52741,-1.009749 l 0.81831,-1.630932 a 1.587498,1.587498 71.645119 0 0 -0.70697,-2.130843 c -0.45038,-0.225978 -1.45015,-0.729186 -2.23997,-1.109806 -3.16707,-1.526248 -6.41515,-2.883182 -9.72634,-4.063508 -0.82584,-0.294385 -1.50045,-0.521002 -1.50155,-0.521002 -8.76383,-2.824135 -16.2862,-4.305809 -23.8795,-4.913389 -0.87395,-0.06993 -2.29271,-0.158912 -3.16771,-0.214369 a 1.2956529,1.2956529 123.5649 0 0 -1.01285,1.52649 z M 49.496633,73.062881 c -0.418836,0.281325 -1.349003,0.904814 -2.068634,1.405622 -1.643433,1.143705 -3.251485,2.33712 -4.822513,3.577211 -0.688181,0.543216 -1.790126,1.441363 -2.460833,2.006012 -6.984874,5.880371 -13.158434,12.71829 -18.293691,20.269124 -0.493047,0.72497 -1.272739,1.91361 -1.754478,2.64616 a 1.293858,1.293858 63.172156 0 0 0.825983,1.6332 l 1.52616,1.00269 a 1.5864656,1.5864656 168.28658 0 0 2.197594,-0.45563 c 0.276294,-0.42113 0.889373,-1.35736 1.383052,-2.0819 4.852826,-7.122167 10.685134,-13.581521 17.274019,-19.138123 0.670224,-0.565221 1.772175,-1.463379 2.46088,-2.00593 1.452158,-1.143989 2.937192,-2.24531 4.45321,-3.30196 0.71927,-0.501324 1.89997,-1.293012 2.627782,-1.781872 A 1.294865,1.294865 86.020665 0 0 52.71807,75.010486 l -1.018171,-1.515137 a 1.5878455,1.5878455 11.105131 0 0 -2.203266,-0.432468 z m 107.465387,0.516967 -1.01974,1.512159 a 1.5880169,1.5880169 79.003612 0 0 0.42831,2.204202 c 0.41773,0.281905 1.34639,0.906804 2.06482,1.409332 7.05511,4.934917 13.436,10.837995 18.90788,17.486105 0.55716,0.676935 1.44208,1.789546 1.97642,2.484641 1.13215,1.472763 2.22133,2.978453 3.26448,4.514603 0.49254,0.72532 1.26989,1.91551 1.75004,2.64909 a 1.2947712,1.2947712 176.68545 0 0 1.82802,-0.10586 l 1.52706,-0.99951 a 1.5874992,1.5874992 101.79405 0 0 0.45888,-2.19766 c -0.27601,-0.42169 -0.88792,-1.35898 -1.37975,-2.08477 -1.12852,-1.665305 -2.30755,-3.296144 -3.53423,-4.889509 -0.53484,-0.694713 -1.41975,-1.807314 -1.97634,-2.48472 -5.79088,-7.047807 -12.54733,-13.297191 -20.02715,-18.519457 -0.71887,-0.501901 -1.89825,-1.295536 -2.62532,-1.785505 a 1.2947557,1.2947557 153.85008 0 0 -1.64338,0.806859 z M 15.033983,111.95681 c -0.220486,0.45318 -0.711399,1.45911 -1.082239,2.25356 -1.487277,3.18621 -2.804134,6.4518 -3.943504,9.77788 -0.2841257,0.82942 -0.7232965,2.18149 -0.9806666,3.01961 -2.2369727,7.28461 -3.6234776,14.82493 -4.1380458,22.42506 -0.059225,0.87474 -0.1317871,2.29443 -0.1776527,3.16999 a 1.2943623,1.2943623 32.896212 0 0 1.5375764,0.99455 l 1.823363,0.0941 a 1.5874656,1.5874656 137.95462 0 0 1.6671993,-1.50355 c 0.026011,-0.50406 0.082406,-1.62259 0.1423934,-2.49728 0.49137,-7.16479 1.800006,-14.27508 3.901655,-21.13975 0.256659,-0.83833 0.695846,-2.1904 0.980689,-3.01958 1.067065,-3.10624 2.297174,-6.15631 3.683697,-9.13328 0.370163,-0.79477 0.993364,-2.07244 1.376944,-2.86083 A 1.2947578,1.2947578 55.834769 0 0 18.7971,112.02227 l -1.641075,-0.79844 a 1.5875018,1.5875018 160.94451 0 0 -2.122042,0.73298 z m 176.410467,-0.59461 -1.64085,0.79513 a 1.5877729,1.5877729 109.15077 0 0 -0.73657,2.121 c 0.21971,0.45359 0.7091,1.4603 1.07799,2.25566 3.1678,6.83001 5.50942,14.04634 6.95745,21.43493 0.16862,0.86037 0.41844,2.25986 0.55804,3.12542 0.46745,2.89812 0.79962,5.81889 0.99634,8.74865 0.0587,0.87477 0.12925,2.29457 0.17378,3.17019 a 1.2949913,1.2949913 26.97732 0 0 1.6318,0.83063 l 1.82123,-0.0919 a 1.5881217,1.5881217 132.1219 0 0 1.50608,-1.66553 c -0.0252,-0.50291 -0.0801,-1.62054 -0.13813,-2.49536 -0.20828,-3.13934 -0.56463,-6.26924 -1.06852,-9.37569 -0.14037,-0.86543 -0.39019,-2.26491 -0.55805,-3.12543 -1.52947,-7.84082 -4.01168,-15.49154 -7.37938,-22.73588 -0.36959,-0.79503 -0.9911,-2.07352 -1.37386,-2.86232 a 1.2957186,1.2957186 4.0531495 0 0 -1.82735,-0.12948 z m 7.41447,46.68565 c -0.0138,0.5043 -0.0431,1.62367 -0.0817,2.49956 -0.31672,7.17425 -1.44788,14.31432 -3.3783,21.22807 -0.23578,0.84445 -0.64131,2.207 -0.90553,3.04298 -0.99011,3.13267 -2.14483,6.2129 -3.45789,9.22401 -0.35045,0.80366 -0.94163,2.09646 -1.30526,2.89425 a 1.2957918,1.2957918 54.439125 0 0 1.06538,1.49025 l 1.65872,0.75739 a 1.5875488,1.5875488 159.54299 0 0 2.10351,-0.78467 c 0.20967,-0.45914 0.67597,-1.47741 1.02706,-2.28079 1.40843,-3.22286 2.64352,-6.52027 3.70021,-9.87445 0.26344,-0.83622 0.66897,-2.19876 0.90551,-3.04299 2.05574,-7.33715 3.25575,-14.90824 3.5853,-22.51731 0.0379,-0.87592 0.0761,-2.29696 0.1007,-3.17336 a 1.2941739,1.2941739 31.494592 0 0 -1.56123,-0.95652 l -1.82613,-0.0499 a 1.5875249,1.5875249 136.56677 0 0 -1.63033,1.54352 z m -190.7037145,3.02957 -1.8201766,0.13617 a 1.5868364,1.5868364 130.70943 0 0 -1.4639768,1.70147 c 0.037778,0.50212 0.1200466,1.61808 0.1993215,2.49124 0.2857578,3.14739 0.7214846,6.28129 1.3054845,9.38751 0.1619975,0.86164 0.3049095,1.55775 0.3038325,1.55775 2.0536001,9.33968 4.7231244,16.91297 8.2625354,24.05971 0.389101,0.78567 1.041803,2.04852 1.443727,2.82772 a 1.2952917,1.2952917 2.6374361 0 0 1.829725,0.0843 l 1.621384,-0.83599 a 1.5883351,1.5883351 107.7393 0 0 0.684221,-2.13888 c -0.23073,-0.44807 -0.74471,-1.44245 -1.133113,-2.22846 -3.329722,-6.73838 -5.84667,-13.88067 -7.476953,-21.21777 -0.190172,-0.85587 -0.474991,-2.24866 -0.636235,-3.11045 -0.542233,-2.89803 -0.948591,-5.82223 -1.217625,-8.75853 -0.079995,-0.87309 -0.1848959,-2.29076 -0.2506736,-3.16505 A 1.2949971,1.2949971 25.585079 0 0 8.1552055,161.07742 Z M 185.11672,205.44183 c -0.26618,0.42801 -0.85633,1.37919 -1.33208,2.11563 -4.68576,7.25328 -10.37178,13.86417 -16.83904,19.58795 -0.65653,0.58106 -1.73672,1.50528 -2.41216,2.06425 -1.41126,1.1679 -2.85589,2.29536 -4.33189,3.37923 -0.70668,0.51892 -1.86753,1.33944 -2.58305,1.84612 a 1.2945455,1.2945455 84.59261 0 0 0.17256,1.82303 l 1.0546,1.48783 a 1.5892292,1.5892292 9.7017856 0 0 2.21416,0.37855 c 0.41139,-0.29093 1.32564,-0.93658 2.03272,-1.45496 1.60013,-1.1731 3.16442,-2.39447 4.69136,-3.66042 0.67494,-0.55958 1.75512,-1.48379 2.41216,-2.06429 6.85595,-6.05724 12.87488,-13.0544 17.8333,-20.74435 0.47511,-0.73685 1.2253,-1.94433 1.6888,-2.68855 a 1.294762,1.294762 61.822203 0 0 -0.86479,-1.61433 l -1.55049,-0.96496 a 1.5869701,1.5869701 166.88676 0 0 -2.18616,0.50927 z m -161.481614,3.37821 -1.502634,1.03766 a 1.5876586,1.5876586 100.37561 0 0 -0.404357,2.20846 c 0.286078,0.41436 0.920641,1.336 1.43021,2.04946 1.158463,1.62197 2.365709,3.20848 3.618788,4.75763 0.55138,0.68166 1.462631,1.77279 2.03524,2.43672 5.969107,6.92104 12.886725,13.01883 20.507544,18.06626 0.730957,0.48413 1.92953,1.24848 2.668478,1.72033 a 1.2958177,1.2958177 152.49469 0 0 1.624815,-0.84601 l 0.982604,-1.53626 a 1.5880194,1.5880194 77.612765 0 0 -0.481685,-2.19316 c -0.424388,-0.27163 -1.367986,-0.87361 -2.098527,-1.35836 -7.188227,-4.76977 -13.724241,-10.52973 -19.364813,-17.05833 -0.573185,-0.66343 -1.484442,-1.75457 -2.035278,-2.43667 -1.156177,-1.43169 -2.270869,-2.8964 -3.341357,-4.39241 -0.510199,-0.713 -1.31636,-1.88387 -1.81417,-2.60559 a 1.2943858,1.2943858 175.29244 0 0 -1.824858,0.15027 z m 125.722554,30.65491 c -0.44456,0.23604 -1.43201,0.76209 -2.21317,1.16017 -6.86692,3.49941 -14.16921,6.15086 -21.68192,7.86973 -0.85466,0.19554 -1.55136,0.34085 -1.55246,0.34085 -4.26265,0.83879 -6.99196,1.24389 -9.73416,1.52888 -0.87204,0.0906 -2.28837,0.21241 -3.16183,0.28839 a 1.2952435,1.2952435 114.95902 0 0 -0.77297,1.66074 l 0.15823,1.81743 a 1.5874966,1.5874966 40.024424 0 0 1.7192,1.44383 c 0.50188,-0.0437 1.61695,-0.13937 2.48908,-0.22919 2.94405,-0.30322 5.87458,-0.73737 8.77982,-1.30208 0.86063,-0.16729 2.25161,-0.4608 3.10644,-0.65559 7.97237,-1.8166 15.71483,-4.62758 22.99655,-8.34635 0.78081,-0.39877 2.03566,-1.06672 2.81003,-1.47788 a 1.2941763,1.2941763 91.88566 0 0 0.0602,-1.82939 l -0.85625,-1.61203 a 1.5877482,1.5877482 17.0286 0 0 -2.14681,-0.65751 z m -88.298599,2.81044 -0.778278,1.64992 a 1.5872374,1.5872374 70.248823 0 0 0.758625,2.11281 c 0.456101,0.21505 1.468206,0.69367 2.267182,1.05466 3.204483,1.44784 6.48586,2.72372 9.825933,3.82175 0.832891,0.27381 2.190292,0.69621 3.031522,0.94321 7.31201,2.14695 14.869054,3.44143 22.474871,3.86356 0.875395,0.0486 2.295894,0.10312 3.171984,0.13738 a 1.2951956,1.2951956 122.14507 0 0 0.97439,-1.5506 l 0.072,-1.82358 a 1.5868468,1.5868468 47.249234 0 0 -1.52366,-1.64824 c -0.50356,-0.0197 -1.622058,-0.0623 -2.497411,-0.11163 -7.170245,-0.40404 -14.295734,-1.62454 -21.185644,-3.64091 -0.841447,-0.24625 -2.198861,-0.66865 -3.031495,-0.94323 -3.119587,-1.02877 -6.185243,-2.2217 -9.179414,-3.57164 -0.799263,-0.36035 -2.084695,-0.96738 -2.877969,-1.34076 a 1.2956804,1.2956804 145.12451 0 0 -1.502636,1.0473 z"
       id="circle2062" /><path
       id="path2064"
       style="opacity:1;fill:#ffffff;fill-opacity:1;stroke-width:4.99999;stroke-linecap:square;stroke-linejoin:bevel;stroke-miterlimit:2.6;stroke-dasharray:38.7501, 12.5;stroke-dashoffset:48.5"
       d="M 84.365377,91.147655 69.053166,115.59115 a 0.65281945,0.65281945 58.32933 0 0 0.614734,0.99648 l 21.137609,-2.00022 a 11.6218,11.6218 168.10022 0 0 2.572362,-0.54207 l 19.318499,-6.42411 a 0.60475253,0.60475253 96.17299 0 0 0.11829,-1.09364 L 86.204719,90.702742 a 1.3538588,1.3538588 166.4021 0 0 -1.839342,0.444913 z m 51.044233,22.408995 17.6133,25.43097 a 0.53676466,0.53676466 167.37834 0 0 0.97073,-0.21736 l 2.63252,-15.79422 a 3.0763865,3.0763865 76.194055 0 0 -0.58003,-2.3604 l -5.35801,-7.09105 a 2.657701,2.657701 26.462621 0 0 -2.12045,-1.05549 H 135.9793 a 0.69298376,0.69298376 117.64691 0 0 -0.56969,1.08755 z M 51.391888,153.33028 38.88994,171.39874 a 1.3847676,1.3847676 80.988735 0 0 0.29965,1.88951 l 21.922708,16.699 a 0.457213,0.457213 146.36295 0 0 0.719555,-0.47874 l -9.354404,-35.98576 a 0.60639884,0.60639884 10.054387 0 0 -1.085561,-0.19247 z m 105.201682,0.119 -9.72452,11.28719 a 10.462951,10.462951 123.54052 0 0 -1.45035,2.18787 l -18.96872,38.3224 a 0.58932437,0.58932437 50.346086 0 0 0.68706,0.82892 l 20.45747,-5.72807 a 2.1953614,2.1953614 133.28478 0 0 1.55375,-1.64968 l 2.40554,-11.11501 a 3.4747736,3.4747736 123.05461 0 1 1.3487,-2.07249 l 16.36862,-11.93731 a 1.41275,1.41275 100.77825 0 0 0.36117,-1.89722 l -11.46753,-18.11114 a 0.98047306,0.98047306 4.2028455 0 0 -1.57119,-0.11546 z m -65.453848,54.19468 6.464591,7.59634 a 2.8284496,2.8284496 24.535435 0 0 2.180237,0.99522 l 8.3965,-0.0778 a 2.9929546,2.9929546 155.62318 0 0 2.20424,-0.99881 l 5.08798,-5.69516 a 0.64896596,0.64896596 67.907835 0 0 -0.43825,-1.07972 l -23.433043,-1.65438 a 0.55560526,0.55560526 116.82009 0 0 -0.462255,0.91431 z" /><path
       id="path2076"
       style="opacity:1;fill:#ffffff;fill-opacity:1;stroke-width:4.99999;stroke-linecap:square;stroke-linejoin:bevel;stroke-miterlimit:2.6;stroke-dasharray:38.7501, 12.5;stroke-dashoffset:48.5"
       d="m 103.65826,143.07737 -10.949181,18.9641 a 0.6110219,0.6110219 60.000289 0 0 0.529157,0.91654 h 21.898404 a 0.61102208,0.61102208 119.99972 0 0 0.52915,-0.91654 l -10.94917,-18.9641 a 0.61104306,0.61104306 7.2317363e-6 0 0 -1.05836,0 z m 1.05834,9.11832 3.05202,5.28636 a 0.61103512,0.61103512 120.00025 0 1 -0.52917,0.91655 h -6.10454 a 0.61099647,0.61099647 60.001321 0 1 -0.52912,-0.91652 l 3.05244,-5.28642 a 0.61105545,0.61105545 0.00156928 0 1 1.05837,3e-5 z" /></g></svg>
