<?xml version="1.0" encoding="UTF-8" standalone="no"?>
<!-- Created with Inkscape (http://www.inkscape.org/) -->

<svg
   width="198.88715mm"
   height="198.92407mm"
   viewBox="0 0 198.88715 198.92407"
   version="1.1"
   id="svg5"
   xml:space="preserve"
   inkscape:version="1.3 (0e150ed6c4, 2023-07-21)"
   sodipodi:docname="sun-station_v0_wip.svg"
   inkscape:export-filename="sun-station_v0.png"
   inkscape:export-xdpi="510.84247"
   inkscape:export-ydpi="510.84247"
   xmlns:inkscape="http://www.inkscape.org/namespaces/inkscape"
   xmlns:sodipodi="http://sodipodi.sourceforge.net/DTD/sodipodi-0.dtd"
   xmlns="http://www.w3.org/2000/svg"
   xmlns:svg="http://www.w3.org/2000/svg"><sodipodi:namedview
     id="namedview7"
     pagecolor="#505050"
     bordercolor="#ffffff"
     borderopacity="1"
     inkscape:showpageshadow="0"
     inkscape:pageopacity="0"
     inkscape:pagecheckerboard="1"
     inkscape:deskcolor="#505050"
     inkscape:document-units="mm"
     showgrid="false"
     inkscape:zoom="1.2938725"
     inkscape:cx="417.73822"
     inkscape:cy="394.16558"
     inkscape:window-width="2560"
     inkscape:window-height="1366"
     inkscape:window-x="0"
     inkscape:window-y="0"
     inkscape:window-maximized="1"
     inkscape:current-layer="g2080" /><defs
     id="defs2"><inkscape:path-effect
       effect="fillet_chamfer"
       id="path-effect9"
       is_visible="true"
       lpeversion="1"
       nodesatellites_param="F,1,0,1,0,0,0,1 @ F,1,1,1,0,0.51,0,1 @ F,1,0,1,0,0,0,1 @ F,1,0,1,0,0,0,1 @ F,1,0,1,0,0,0,1 @ F,1,0,1,0,0,0,1 @ F,1,0,1,0,0,0,1 @ F,1,0,1,0,0,0,1 @ F,1,1,1,0,0.51,0,1 @ F,1,0,1,0,0,0,1 @ F,1,0,1,0,0,0,1 @ F,1,0,1,0,0,0,1 @ F,1,0,1,0,0,0,1 @ F,1,0,1,0,0,0,1 | F,1,1,1,0,0.51,0,1 @ F,1,0,1,0,0,0,1 @ F,1,0,1,0,0,0,1 @ F,1,0,1,0,0,0,1 @ F,1,0,1,0,0,0,1 @ F,1,0,1,0,0,0,1 @ F,1,0,1,0,0,0,1 @ F,1,1,1,0,0.51,0,1 @ F,1,0,1,0,0,0,1 @ F,1,0,1,0,0,0,1 @ F,1,0,1,0,0,0,1 @ F,1,0,1,0,0,0,1 @ F,1,0,1,0,0,0,1 @ F,1,0,1,0,0,0,1 | F,1,0,1,0,0,0,1 @ F,1,1,1,0,0.51,0,1 @ F,1,0,1,0,0,0,1 @ F,1,0,1,0,0,0,1 @ F,1,0,1,0,0,0,1 @ F,1,0,1,0,0,0,1 @ F,1,0,1,0,0,0,1 @ F,1,1,1,0,0.51,0,1 @ F,1,0,1,0,0,0,1 @ F,1,0,1,0,0,0,1 @ F,1,0,1,0,0,0,1 @ F,1,0,1,0,0,0,1 | F,1,1,1,0,0.51,0,1 @ F,1,0,1,0,0,0,1 @ F,1,0,1,0,0,0,1 @ F,1,0,1,0,0,0,1 @ F,1,0,1,0,0,0,1 @ F,1,0,1,0,0,0,1 @ F,1,1,1,0,0.51,0,1 @ F,1,0,1,0,0,0,1 @ F,1,0,1,0,0,0,1 @ F,1,0,1,0,0,0,1 @ F,1,0,1,0,0,0,1 @ F,1,0,1,0,0,0,1 | F,1,0,1,0,0,0,1 @ F,1,1,1,0,0.51,0,1 @ F,1,0,1,0,0,0,1 @ F,1,0,1,0,0,0,1 @ F,1,0,1,0,0,0,1 @ F,1,0,1,0,0,0,1 @ F,1,0,1,0,0,0,1 @ F,1,1,1,0,0.51,0,1 @ F,1,0,1,0,0,0,1 @ F,1,0,1,0,0,0,1 @ F,1,0,1,0,0,0,1 @ F,1,0,1,0,0,0,1 | F,1,1,1,0,0.51,0,1 @ F,1,0,1,0,0,0,1 @ F,1,0,1,0,0,0,1 @ F,1,0,1,0,0,0,1 @ F,1,0,1,0,0,0,1 @ F,1,0,1,0,0,0,1 @ F,1,1,1,0,0.51,0,1 @ F,1,0,1,0,0,0,1 @ F,1,0,1,0,0,0,1 @ F,1,0,1,0,0,0,1 @ F,1,0,1,0,0,0,1 @ F,1,0,1,0,0,0,1 | F,1,1,1,0,0.51,0,1 @ F,1,0,1,0,0,0,1 @ F,1,0,1,0,0,0,1 @ F,1,0,1,0,0,0,1 @ F,1,0,1,0,0,0,1 @ F,1,0,1,0,0,0,1 @ F,1,1,1,0,0.51,0,1 @ F,1,0,1,0,0,0,1 @ F,1,0,1,0,0,0,1 @ F,1,0,1,0,0,0,1 @ F,1,0,1,0,0,0,1 @ F,1,0,1,0,0,0,1 | F,1,0,1,0,0,0,1 @ F,1,1,1,0,0.51,0,1 @ F,1,0,1,0,0,0,1 @ F,1,0,1,0,0,0,1 @ F,1,0,1,0,0,0,1 @ F,1,0,1,0,0,0,1 @ F,1,0,1,0,0,0,1 @ F,1,1,1,0,0.51,0,1 @ F,1,0,1,0,0,0,1 @ F,1,0,1,0,0,0,1 @ F,1,0,1,0,0,0,1 @ F,1,0,1,0,0,0,1 @ F,1,0,1,0,0,0,1 | F,1,1,1,0,0.51,0,1 @ F,1,0,1,0,0,0,1 @ F,1,0,1,0,0,0,1 @ F,1,0,1,0,0,0,1 @ F,1,0,1,0,0,0,1 @ F,1,0,1,0,0,0,1 @ F,1,0,1,0,0,0,1 @ F,1,1,1,0,0.51,0,1 @ F,1,0,1,0,0,0,1 @ F,1,0,1,0,0,0,1 @ F,1,0,1,0,0,0,1 @ F,1,0,1,0,0,0,1 @ F,1,0,1,0,0,0,1 | F,1,0,1,0,0,0,1 @ F,1,1,1,0,0.51,0,1 @ F,1,0,1,0,0,0,1 @ F,1,0,1,0,0,0,1 @ F,1,0,1,0,0,0,1 @ F,1,0,1,0,0,0,1 @ F,1,0,1,0,0,0,1 @ F,1,1,1,0,0.51,0,1 @ F,1,0,1,0,0,0,1 @ F,1,0,1,0,0,0,1 @ F,1,0,1,0,0,0,1 @ F,1,0,1,0,0,0,1 | F,1,1,1,0,0.51,0,1 @ F,1,0,1,0,0,0,1 @ F,1,0,1,0,0,0,1 @ F,1,0,1,0,0,0,1 @ F,1,0,1,0,0,0,1 @ F,1,0,1,0,0,0,1 @ F,1,1,1,0,0.51,0,1 @ F,1,0,1,0,0,0,1 @ F,1,0,1,0,0,0,1 @ F,1,0,1,0,0,0,1 @ F,1,0,1,0,0,0,1 @ F,1,0,1,0,0,0,1 | F,1,0,1,0,0,0,1 @ F,1,1,1,0,0.51,0,1 @ F,1,0,1,0,0,0,1 @ F,1,0,1,0,0,0,1 @ F,1,0,1,0,0,0,1 @ F,1,0,1,0,0,0,1 @ F,1,0,1,0,0,0,1 @ F,1,1,1,0,0.51,0,1 @ F,1,0,1,0,0,0,1 @ F,1,0,1,0,0,0,1 @ F,1,0,1,0,0,0,1 @ F,1,0,1,0,0,0,1 @ F,1,0,1,0,0,0,1"
       radius="51"
       unit="px"
       method="auto"
       mode="F"
       chamfer_steps="1"
       flexible="true"
       use_knot_distance="true"
       apply_no_radius="true"
       apply_with_radius="true"
       only_selected="true"
       hide_knots="false" /><inkscape:path-effect
       effect="fillet_chamfer"
       id="path-effect8"
       is_visible="true"
       lpeversion="1"
       nodesatellites_param="F,1,0,1,0,0.26,0,1 @ F,1,0,1,0,0,0,1 @ F,1,0,1,0,0,0,1 @ F,1,0,1,0,0,0,1 @ F,1,0,1,0,0,0,1 @ F,1,0,1,0,0,0,1 @ F,1,0,1,0,0.26,0,1 @ F,1,0,1,0,0,0,1 @ F,1,0,1,0,0,0,1 @ F,1,0,1,0,0,0,1 @ F,1,0,1,0,0,0,1 @ F,1,0,1,0,0,0,1 | F,1,0,1,0,0,0,1 @ F,1,0,1,0,0,0,1 @ F,1,0,1,0,0,0,1 @ F,1,0,1,0,0,0,1 @ F,1,0,1,0,0,0,1 @ F,1,0,1,0,0.26,0,1 @ F,1,0,1,0,0,0,1 @ F,1,0,1,0,0,0,1 @ F,1,0,1,0,0,0,1 @ F,1,0,1,0,0,0,1 @ F,1,0,1,0,0,0,1 @ F,1,0,1,0,0.26,0,1 | F,1,0,1,0,0.26,0,1 @ F,1,0,1,0,0,0,1 @ F,1,0,1,0,0,0,1 @ F,1,0,1,0,0,0,1 @ F,1,0,1,0,0,0,1 @ F,1,0,1,0,0.26,0,1 @ F,1,0,1,0,0,0,1 @ F,1,0,1,0,0,0,1 @ F,1,0,1,0,0,0,1 @ F,1,0,1,0,0,0,1 | F,1,0,1,0,0,0,1 @ F,1,0,1,0,0,0,1 @ F,1,0,1,0,0,0,1 @ F,1,0,1,0,0,0,1 @ F,1,0,1,0,0.26,0,1 @ F,1,0,1,0,0,0,1 @ F,1,0,1,0,0,0,1 @ F,1,0,1,0,0,0,1 @ F,1,0,1,0,0,0,1 @ F,1,0,1,0,0.26,0,1 | F,1,0,1,0,0.26,0,1 @ F,1,0,1,0,0,0,1 @ F,1,0,1,0,0,0,1 @ F,1,0,1,0,0,0,1 @ F,1,0,1,0,0,0,1 @ F,1,0,1,0,0.26,0,1 @ F,1,0,1,0,0,0,1 @ F,1,0,1,0,0,0,1 @ F,1,0,1,0,0,0,1 @ F,1,0,1,0,0,0,1 | F,1,0,1,0,0,0,1 @ F,1,0,1,0,0,0,1 @ F,1,0,1,0,0,0,1 @ F,1,0,1,0,0,0,1 @ F,1,0,1,0,0.26,0,1 @ F,1,0,1,0,0,0,1 @ F,1,0,1,0,0,0,1 @ F,1,0,1,0,0,0,1 @ F,1,0,1,0,0,0,1 @ F,1,0,1,0,0.26,0,1 | F,1,0,1,0,0,0,1 @ F,1,0,1,0,0,0,1 @ F,1,0,1,0,0,0,1 @ F,1,0,1,0,0,0,1 @ F,1,0,1,0,0.26,0,1 @ F,1,0,1,0,0,0,1 @ F,1,0,1,0,0,0,1 @ F,1,0,1,0,0,0,1 @ F,1,0,1,0,0,0,1 @ F,1,0,1,0,0.26,0,1 | F,1,0,1,0,0.26,0,1 @ F,1,0,1,0,0,0,1 @ F,1,0,1,0,0,0,1 @ F,1,0,1,0,0,0,1 @ F,1,0,1,0,0,0,1 @ F,1,0,1,0,0.26,0,1 @ F,1,0,1,0,0,0,1 @ F,1,0,1,0,0,0,1 @ F,1,0,1,0,0,0,1 @ F,1,0,1,0,0,0,1 @ F,1,0,1,0,0,0,1 | F,1,0,1,0,0,0,1 @ F,1,0,1,0,0,0,1 @ F,1,0,1,0,0,0,1 @ F,1,0,1,0,0,0,1 @ F,1,0,1,0,0,0,1 @ F,1,0,1,0,0.26,0,1 @ F,1,0,1,0,0,0,1 @ F,1,0,1,0,0,0,1 @ F,1,0,1,0,0,0,1 @ F,1,0,1,0,0,0,1 @ F,1,0,1,0,0.26,0,1 | F,1,0,1,0,0.26,0,1 @ F,1,0,1,0,0,0,1 @ F,1,0,1,0,0,0,1 @ F,1,0,1,0,0,0,1 @ F,1,0,1,0,0,0,1 @ F,1,0,1,0,0.26,0,1 @ F,1,0,1,0,0,0,1 @ F,1,0,1,0,0,0,1 @ F,1,0,1,0,0,0,1 @ F,1,0,1,0,0,0,1 | F,1,0,1,0,0,0,1 @ F,1,0,1,0,0,0,1 @ F,1,0,1,0,0,0,1 @ F,1,0,1,0,0,0,1 @ F,1,0,1,0,0.26,0,1 @ F,1,0,1,0,0,0,1 @ F,1,0,1,0,0,0,1 @ F,1,0,1,0,0,0,1 @ F,1,0,1,0,0,0,1 @ F,1,0,1,0,0.26,0,1 | F,1,0,1,0,0.26,0,1 @ F,1,0,1,0,0,0,1 @ F,1,0,1,0,0,0,1 @ F,1,0,1,0,0,0,1 @ F,1,0,1,0,0,0,1 @ F,1,0,1,0,0.26,0,1 @ F,1,0,1,0,0,0,1 @ F,1,0,1,0,0,0,1 @ F,1,0,1,0,0,0,1 @ F,1,0,1,0,0,0,1 @ F,1,0,1,0,0,0,1"
       radius="31"
       unit="px"
       method="auto"
       mode="F"
       chamfer_steps="1"
       flexible="true"
       use_knot_distance="true"
       apply_no_radius="true"
       apply_with_radius="true"
       only_selected="true"
       hide_knots="false" /><inkscape:path-effect
       effect="fillet_chamfer"
       id="path-effect2123-1"
       is_visible="true"
       lpeversion="1"
       nodesatellites_param="F,0,0,1,0,0.79375,0,1 @ F,0,0,1,0,0.79375,0,1 @ F,0,0,1,0,0.79375,0,1 @ F,0,0,1,0,0.79375,0,1 | F,0,0,1,0,0.79375,0,1 @ F,0,0,1,0,0.79375,0,1 @ F,0,0,1,0,0.79375,0,1 | F,0,0,1,0,0.79375,0,1 @ F,0,0,1,0,0.79375,0,1 @ F,0,0,1,0,0.79375,0,1 | F,0,0,1,0,0.79375,0,1 @ F,0,0,1,0,0.79375,0,1 @ F,0,0,1,0,0.79375,0,1 | F,0,0,1,0,0.79375,0,1 @ F,0,0,1,0,0.79375,0,1 @ F,0,0,1,0,0.79375,0,1 | F,0,0,1,0,0.79375,0,1 @ F,0,0,1,0,0.79375,0,1 @ F,0,0,1,0,0.79375,0,1 | F,0,0,1,0,0.79375,0,1 @ F,0,0,1,0,0.79375,0,1 @ F,0,0,1,0,0.79375,0,1 @ F,0,0,1,0,0.79375,0,1 | F,0,0,1,0,0.79375,0,1 @ F,0,0,1,0,0.79375,0,1 @ F,0,0,1,0,0.79375,0,1 @ F,0,0,1,0,0.79375,0,1 | F,0,0,1,0,0.79375,0,1 @ F,0,0,1,0,0.79375,0,1 @ F,0,0,1,0,0.79375,0,1 | F,0,0,1,0,0.79375,0,1 @ F,0,0,1,0,0.79375,0,1 @ F,0,0,1,0,0.79375,0,1 | F,0,0,1,0,0.79375,0,1 @ F,0,0,1,0,0.79375,0,1 @ F,0,0,1,0,0.79375,0,1 | F,0,0,1,0,0.79375,0,1 @ F,0,0,1,0,0.79375,0,1 @ F,0,0,1,0,0.79375,0,1 | F,0,0,1,0,0.79375,0,1 @ F,0,0,1,0,0.79375,0,1 @ F,0,0,1,0,0.79375,0,1 | F,0,0,1,0,0.79375,0,1 @ F,0,0,1,0,0.79375,0,1 @ F,0,0,1,0,0.79375,0,1 @ F,0,0,1,0,0.79375,0,1"
       unit="px"
       method="auto"
       mode="F"
       radius="3"
       chamfer_steps="1"
       flexible="false"
       use_knot_distance="true"
       apply_no_radius="true"
       apply_with_radius="true"
       only_selected="false"
       hide_knots="false" /><inkscape:path-effect
       effect="fillet_chamfer"
       id="path-effect2121-2"
       is_visible="true"
       lpeversion="1"
       nodesatellites_param="F,0,0,1,0,1.0583333,0,1 @ F,0,0,1,0,1.0583333,0,1 @ F,0,0,1,0,1.0583333,0,1 | F,0,0,1,0,1.0583333,0,1 @ F,0,0,1,0,1.0583333,0,1 @ F,0,0,1,0,1.0583333,0,1"
       unit="px"
       method="auto"
       mode="F"
       radius="4"
       chamfer_steps="1"
       flexible="false"
       use_knot_distance="true"
       apply_no_radius="true"
       apply_with_radius="true"
       only_selected="false"
       hide_knots="false" /></defs><g
     inkscape:groupmode="layer"
     id="g2080"
     inkscape:label="final"
     style="display:inline"
     transform="translate(-4.8031048,-56.800289)"><path
       style="color:#000000;display:inline;opacity:1;fill:#ffffff;fill-opacity:1;stroke-linecap:square;stroke-linejoin:round;stroke-miterlimit:2.6;stroke-dasharray:36.5, 14.25;stroke-dashoffset:43.5;-inkscape-stroke:none"
       d="m 108.16918,58.018164 -0.15444,2.420791 a 1.2741028,1.2741028 48.639877 0 0 1.19086,1.352666 l 1.22213,0.07752 c 8.22256,0.525659 16.37828,2.131373 24.17969,4.773437 h 0.002 c 3.42197,1.158129 6.77588,2.512142 10.04102,4.056641 l 1.08489,0.513844 c 0.6488,0.307297 1.42387,0.0303 1.73093,-0.61861 l 1.03717,-2.191778 A 1.2756672,1.2756672 70.333908 0 0 147.8964,66.70414 l -1.10729,-0.524453 c -3.43937,-1.626913 -6.97286,-3.053859 -10.57617,-4.273437 h -0.002 c -8.22089,-2.783949 -16.80468,-4.473833 -25.46289,-5.027344 l -1.1986,-0.07597 c -0.71668,-0.04542 -1.33455,0.498571 -1.38027,1.215226 z m -10.797617,-1.117729 -1.221172,0.09762 c -3.396048,0.272909 -6.777294,0.721962 -10.126954,1.341797 v -0.002 c -8.925617,1.650044 -17.618186,4.537122 -25.757812,8.554687 l -1.074294,0.530123 c -0.64393,0.317754 -0.908346,1.097355 -0.590589,1.741283 l 1.073745,2.175921 a 1.2740583,1.2740583 18.735321 0 0 1.706314,0.578728 l 1.097715,-0.54168 c 7.724789,-3.81281 15.981923,-6.555055 24.453125,-8.121094 h 0.002 c 3.181514,-0.58872 6.392514,-1.014299 9.617187,-1.273437 l 1.196807,-0.09661 c 0.715492,-0.05776 1.248773,-0.68447 1.191267,-1.399983 l -0.194175,-2.415986 a 1.2756191,1.2756191 40.417302 0 0 -1.373164,-1.169369 z m 59.324807,16.168984 -1.34568,2.016153 a 1.2756619,1.2756619 78.724189 0 0 0.35273,1.76914 l 1.01924,0.680449 c 8.01958,5.35066 15.21938,11.937196 21.26562,19.447266 1.38768,1.723407 2.71432,3.493893 3.97656,5.308603 l 0.685,0.98393 c 0.4103,0.58934 1.22051,0.73478 1.81016,0.32493 l 1.99092,-1.38379 a 1.2748123,1.2748123 100.18944 0 0 0.31898,-1.77471 l -0.69959,-1.005838 c -1.33026,-1.912498 -2.72779,-3.776987 -4.1875,-5.589844 C 175.51639,85.937942 167.94198,79.010088 159.49609,73.375 l -0.99691,-0.66523 c -0.59715,-0.398477 -1.40427,-0.237463 -1.80281,0.359649 z m -108.008929,0.528789 -1.007754,0.696719 c -1.674856,1.157321 -3.312687,2.366363 -4.912109,3.623047 -8.21424,6.452873 -15.40746,14.194644 -21.232422,22.867196 l -0.668514,0.99668 c -0.399953,0.59628 -0.241028,1.40386 0.355038,1.80414 l 2.013052,1.35182 a 1.2753955,1.2753955 168.89805 0 0 1.769448,-0.34721 l 0.68332,-1.01637 c 5.530651,-8.234362 12.36694,-15.59635 20.167969,-21.724616 1.520417,-1.194608 3.076683,-2.343181 4.666015,-3.441406 l 0.987425,-0.682664 c 0.590567,-0.408293 0.738452,-1.217966 0.330349,-1.808664 l -1.378111,-1.994708 a 1.2747435,1.2747435 10.350852 0 0 -1.773706,-0.323964 z m 142.547089,36.740482 -2.17113,1.07988 a 1.2749241,1.2749241 108.555 0 0 -0.57375,1.70929 l 0.54551,1.09676 c 3.70575,7.45067 6.41612,15.39977 8.03125,23.5625 0.68567,3.46175 1.17674,6.96375 1.4707,10.48047 l 0.10027,1.19484 c 0.06,0.71551 0.68861,1.24697 1.40414,1.18723 l 2.41594,-0.20172 a 1.2750189,1.2750189 130.21682 0 0 1.16448,-1.37715 l -0.10241,-1.22117 c -0.30955,-3.70319 -0.82681,-7.38793 -1.54883,-11.0332 -1.70183,-8.60094 -4.5547,-16.96854 -8.45898,-24.81836 l -0.53437,-1.07437 c -0.31972,-0.64281 -1.10001,-0.90473 -1.74282,-0.585 z m -176.406425,2.02569 -0.527324,1.10633 c -1.59566,3.34522 -3.001272,6.78089 -4.210937,10.28321 -2.8670812,8.29699 -4.6163695,16.97291 -5.2031253,25.7285 l -0.080627,1.19722 c -0.048232,0.71619 0.4934058,1.3358 1.2096116,1.38376 l 2.4192836,0.16198 a 1.2753883,1.2753883 138.84165 0 0 1.3577086,-1.18684 L 9.875,149.81641 c 0.557147,-8.31378 2.218796,-16.55642 4.939453,-24.42969 1.148863,-3.32656 2.485216,-6.58801 4,-9.76367 l 0.516272,-1.0822 c 0.309241,-0.64823 0.03452,-1.42442 -0.613655,-1.73378 l -2.188919,-1.04472 a 1.2749352,1.2749352 160.49939 0 0 -1.700046,0.60203 z m 183.874175,49.75429 -0.089,1.22117 c -0.60889,8.30337 -2.32283,16.52877 -5.08984,24.37891 -1.1716,3.32564 -2.52853,6.58597 -4.06641,9.75781 l -0.52416,1.0802 c -0.31347,0.646 -0.0438,1.42379 0.60236,1.73703 l 2.18269,1.05819 a 1.2745828,1.2745828 160.85452 0 0 1.70313,-0.59128 l 0.53403,-1.1025 c 1.62038,-3.342 3.05139,-6.77523 4.28515,-10.27734 2.91591,-8.27255 4.7181,-16.93075 5.35938,-25.67578 l 0.0871,-1.19571 c 0.0522,-0.7161 -0.48587,-1.33899 -1.20196,-1.39144 l -2.4189,-0.17718 a 1.273924,1.273924 139.1789 0 0 -1.36362,1.17792 z m -190.2467722,-0.81695 -2.418863,0.18759 a 1.2747986,1.2747986 130.56439 0 0 -1.1724065,1.3696 l 0.094746,1.22117 c 0.2864685,3.70819 0.7807187,7.39989 1.4804687,11.05273 1.647252,8.6082 4.4458779,16.98965 8.2988279,24.86133 l 0.528015,1.07854 c 0.315667,0.64479 1.094317,0.91154 1.739056,0.59577 l 2.17816,-1.06682 a 1.2743068,1.2743068 108.90057 0 0 0.583812,-1.70512 l -0.538808,-1.09963 c -3.656957,-7.47125 -6.315555,-15.43376 -7.878907,-23.60351 v -0.002 c -0.664536,-3.46903 -1.134195,-6.97448 -1.4062496,-10.49611 l -0.091906,-1.19756 c -0.05494,-0.71589 -0.6801082,-1.2515 -1.3959458,-1.19598 z m 174.7413622,47.16816 -0.68906,1.01254 c -5.57687,8.1907 -12.45387,15.50104 -20.2832,21.57617 v 0.002 c -1.53582,1.19188 -3.10624,2.33591 -4.71094,3.42968 l -0.99222,0.67618 c -0.59322,0.40426 -0.74631,1.21292 -0.34192,1.80605 l 1.36572,2.00313 a 1.2755941,1.2755941 10.720257 0 0 1.77229,0.33552 l 1.01254,-0.69002 c 1.69138,-1.15286 3.34548,-2.35764 4.96094,-3.61132 8.24412,-6.39699 15.47607,-14.08649 21.3496,-22.7129 l 0.67483,-0.99163 c 0.40399,-0.59364 0.25039,-1.40235 -0.34311,-1.80654 l -2.00465,-1.36519 a 1.274332,1.274332 169.24591 0 0 -1.77082,0.33633 z m -159.460268,-0.0197 -1.998875,1.3711 a 1.2753799,1.2753799 100.54044 0 0 -0.330012,1.77359 l 0.693847,1.01063 c 1.211535,1.76547 2.479241,3.48984 3.800782,5.17187 6.387894,8.13166 14.041013,15.26091 22.607422,21.05469 l 0.99375,0.67219 c 0.594569,0.40217 1.40259,0.24621 1.804765,-0.34836 l 1.358065,-2.00774 A 1.2761107,1.2761107 79.093626 0 0 52.325,235.3766 l -1.014453,-0.68715 c -8.133957,-5.5013 -15.410069,-12.27943 -21.476563,-20.00195 -1.256372,-1.59909 -2.46184,-3.23705 -3.611328,-4.91211 l -0.678513,-0.98872 c -0.406259,-0.59199 -1.215458,-0.74264 -1.807541,-0.33652 z m 122.876658,32.46118 -1.10154,0.53594 c -7.74642,3.76241 -16.01779,6.45052 -24.49609,7.96289 -3.18781,0.56922 -6.40578,0.97383 -9.63477,1.21289 l -1.19578,0.089 c -0.71608,0.0533 -1.25345,0.67687 -1.20043,1.39297 l 0.17906,2.41882 a 1.2739997,1.2739997 40.754065 0 0 1.36512,1.17643 l 1.22117,-0.0909 c 3.39976,-0.2517 6.78698,-0.67823 10.14258,-1.27734 8.93295,-1.59346 17.64212,-4.42414 25.80469,-8.38867 l 1.07845,-0.52377 c 0.64591,-0.3137 0.91516,-1.09166 0.60135,-1.73752 l -1.06009,-2.18175 a 1.2743363,1.2743363 19.070519 0 0 -1.70372,-0.58899 z m -86.09244,0.77777 -1.05023,2.18475 a 1.275752,1.275752 70.679287 0 0 0.596871,1.70242 l 1.104414,0.53115 c 3.435571,1.65182 6.965559,3.1035 10.568359,4.34766 8.1976,2.8328 16.763501,4.57414 25.41211,5.18164 l 1.197187,0.0844 c 0.716288,0.0505 1.337877,-0.48926 1.388359,-1.20554 l 0.170508,-2.41932 a 1.2751663,1.2751663 49.031397 0 0 -1.182363,-1.36166 l -1.222129,-0.0861 c -8.212469,-0.57687 -16.352007,-2.22988 -24.130859,-4.91797 v -0.002 c -3.420819,-1.18132 -6.773921,-2.55896 -10.035156,-4.12696 l -1.082475,-0.52057 c -0.646933,-0.31112 -1.423584,-0.0388 -1.734596,0.60816 z"
       id="circle4307"
       inkscape:label="orbit outline"
       inkscape:original-d="m 108.25195,56.720703 -0.31836,4.990234 2.49414,0.158204 c 8.22256,0.525659 16.37828,2.131373 24.17969,4.773437 a 2.50025,2.50025 0 0 0 0.002,0 c 3.42197,1.158129 6.77588,2.512142 10.04102,4.056641 l 2.25977,1.070312 2.13867,-4.519531 -2.25977,-1.070313 c -3.43937,-1.626913 -6.97286,-3.053859 -10.57617,-4.273437 h -0.002 c -8.22089,-2.783949 -16.80468,-4.473833 -25.46289,-5.027344 z m -9.609372,0.07813 -2.492187,0.199219 c -3.396048,0.272909 -6.777294,0.721962 -10.126954,1.341797 v -0.002 c -8.925617,1.650044 -17.618186,4.537122 -25.757812,8.554687 l -2.240234,1.105469 2.21289,4.484375 2.240235,-1.105469 c 7.724789,-3.81281 15.981923,-6.555055 24.453125,-8.121094 a 2.50025,2.50025 0 0 0 0.002,0 c 3.181514,-0.58872 6.392514,-1.014299 9.617187,-1.273437 l 2.492188,-0.201172 z m 58.775392,15.189453 -2.77539,4.158203 2.08008,1.388672 c 8.01958,5.35066 15.21938,11.937196 21.26562,19.447266 1.38768,1.723407 2.71432,3.493893 3.97656,5.308603 l 1.42774,2.05078 4.10547,-2.85352 -1.42774,-2.052738 c -1.33026,-1.912498 -2.72779,-3.776987 -4.1875,-5.589844 C 175.51639,85.937942 167.94198,79.010088 159.49609,73.375 Z m -107.681642,0.884766 -2.056641,1.421875 c -1.674856,1.157321 -3.312687,2.366363 -4.912109,3.623047 -8.21424,6.452873 -15.40746,14.194644 -21.232422,22.867196 l -1.392578,2.07617 4.150391,2.78711 1.394531,-2.07422 c 5.530651,-8.234362 12.36694,-15.59635 20.167969,-21.724616 1.520417,-1.194608 3.076683,-2.343181 4.666015,-3.441406 l 2.056641,-1.421875 z m 142.662112,36.886728 -4.47657,2.22656 1.11329,2.23828 c 3.70575,7.45067 6.41612,15.39977 8.03125,23.5625 0.68567,3.46175 1.17674,6.96375 1.4707,10.48047 l 0.20898,2.49023 4.98243,-0.41601 -0.20899,-2.49219 c -0.30955,-3.70319 -0.82681,-7.38793 -1.54883,-11.0332 -1.70183,-8.60094 -4.5547,-16.96854 -8.45898,-24.81836 z m -177.021487,1.45312 -1.076172,2.25781 c -1.59566,3.34522 -3.001272,6.78089 -4.210937,10.28321 -2.8670812,8.29699 -4.6163695,16.97291 -5.2031253,25.7285 L 4.71875,151.97656 9.7070313,152.31055 9.875,149.81641 c 0.557147,-8.31378 2.218796,-16.55642 4.939453,-24.42969 1.148863,-3.32656 2.485216,-6.58801 4,-9.76367 l 1.076172,-2.25586 z m 183.417967,49.63476 -0.18164,2.49218 c -0.60889,8.30337 -2.32283,16.52877 -5.08984,24.37891 -1.1716,3.32564 -2.52853,6.58597 -4.06641,9.75781 l -1.0918,2.25 4.5,2.18164 1.08985,-2.25 c 1.62038,-3.342 3.05139,-6.77523 4.28515,-10.27734 2.91591,-8.27255 4.7181,-16.93075 5.35938,-25.67578 l 0.18164,-2.49219 z m -189.0429669,0.35351 -4.9863281,0.38672 0.1933594,2.49219 c 0.2864685,3.70819 0.7807187,7.39989 1.4804687,11.05273 1.647252,8.6082 4.4458779,16.98965 8.2988279,24.86133 l 1.09961,2.2461 4.490234,-2.19921 -1.099609,-2.24415 c -3.656957,-7.47125 -6.315555,-15.43376 -7.878907,-23.60351 a 2.50025,2.50025 0 0 0 0,-0.002 c -0.664536,-3.46903 -1.134195,-6.97448 -1.4062496,-10.49611 z m 174.1621069,46.21485 -1.40625,2.0664 c -5.57687,8.1907 -12.45387,15.50104 -20.2832,21.57617 a 2.50025,2.50025 0 0 0 0,0.002 c -1.53582,1.19188 -3.10624,2.33591 -4.71094,3.42968 l -2.0664,1.40821 2.8164,4.13086 2.06641,-1.40821 c 1.69138,-1.15286 3.34548,-2.35764 4.96094,-3.61132 8.24412,-6.39699 15.47607,-14.08649 21.3496,-22.7129 l 1.40625,-2.0664 z m -159.105466,0.29882 -4.123047,2.82813 1.416015,2.0625 c 1.211535,1.76547 2.479241,3.48984 3.800782,5.17187 6.387894,8.13166 14.041013,15.26091 22.607422,21.05469 l 2.070312,1.40039 2.800781,-4.14062 -2.070312,-1.40235 c -8.133957,-5.5013 -15.410069,-12.27943 -21.476563,-20.00195 -1.256372,-1.59909 -2.46184,-3.23705 -3.611328,-4.91211 z m 122.951176,32.63868 -2.24805,1.09375 c -7.74642,3.76241 -16.01779,6.45052 -24.49609,7.96289 -3.18781,0.56922 -6.40578,0.97383 -9.63477,1.21289 l -2.49219,0.18554 0.36914,4.98633 2.49219,-0.18555 c 3.39976,-0.2517 6.78698,-0.67823 10.14258,-1.27734 8.93295,-1.59346 17.64212,-4.42414 25.80469,-8.38867 l 2.24804,-1.0918 z m -86.675786,0.16406 -2.166015,4.50586 2.253906,1.08398 c 3.435571,1.65182 6.965559,3.1035 10.568359,4.34766 8.1976,2.8328 16.763501,4.57414 25.41211,5.18164 l 2.49414,0.17578 0.351563,-4.98828 -2.494141,-0.17578 c -8.212469,-0.57687 -16.352007,-2.22988 -24.130859,-4.91797 a 2.50025,2.50025 0 0 0 0,-0.002 c -3.420819,-1.18132 -6.773921,-2.55896 -10.035156,-4.12696 z"
       inkscape:path-effect="#path-effect8;#path-effect9" /><g
       inkscape:groupmode="layer"
       id="g1956"
       inkscape:label="sun"
       style="display:inline"
       transform="matrix(0.71105652,0,0,0.71105652,29.427756,42.149814)"><path
         id="path1920"
         style="display:inline;opacity:1;fill:#ffffff;fill-opacity:1;stroke-width:4.99999;stroke-linecap:square;stroke-linejoin:bevel;stroke-miterlimit:2.6;stroke-dasharray:38.7501, 12.5;stroke-dashoffset:48.5"
         inkscape:label="rays"
         d="M 118.42169,63.874035 101.01143,80.08772 c -0.3208,0.298758 -0.22642,0.515124 0.21113,0.488263 1.03405,-0.06348 2.06926,-0.106248 3.10503,-0.128278 0.43827,-0.0093 1.14903,-0.01318 1.58738,-0.0086 8.53031,0.0889 16.98768,1.583629 25.03171,4.424032 0.41336,0.145961 0.56828,-0.03901 0.34771,-0.417849 L 119.40194,64.019043 a 0.63417232,0.63417232 8.4147572 0 0 -0.98025,-0.145008 z m -42.778153,3.339501 -8.91592,22.874438 c -0.159203,0.408446 0.01952,0.561874 0.401644,0.347048 9.049708,-5.087581 19.028347,-8.307787 29.344851,-9.469874 0.435619,-0.04907 0.494699,-0.283708 0.131412,-0.529056 L 76.589589,66.918221 a 0.63433817,0.63433817 162.66401 0 0 -0.946052,0.295315 z m 82.491023,11.542791 -22.89375,7.216826 c -0.4181,0.131797 -0.42789,0.372669 -0.0238,0.542623 9.41218,3.958633 17.95079,9.73579 25.12628,17.000234 0.30806,0.31189 0.52709,0.21328 0.49279,-0.22376 L 158.9537,79.309004 a 0.63127908,0.63127908 34.007862 0 0 -0.81914,-0.552677 z m -118.312037,9.515709 1.803212,24.382684 c 0.03233,0.43718 0.262653,0.50066 0.518509,0.1447 6.080823,-8.46 13.802944,-15.609138 22.705761,-21.020975 0.374594,-0.227708 0.328968,-0.461867 -0.104498,-0.527294 L 40.548841,87.598914 a 0.63349488,0.63349488 137.17691 0 0 -0.726318,0.673122 z M 163.24826,106.62975 c 6.84338,7.73485 12.07419,16.75793 15.38576,26.54021 0.14057,0.41523 0.37988,0.42208 0.53928,0.0137 l 8.80205,-22.55122 a 0.63432978,0.63432978 59.951697 0 0 -0.49625,-0.85787 l -23.97497,-3.61816 c -0.43347,-0.0654 -0.54635,0.14501 -0.25587,0.47333 z m -124.115212,9.64058 -23.104088,7.28346 a 0.63417274,0.63417274 111.12615 0 0 -0.357148,0.92432 l 12.362752,21.19835 c 0.220845,0.37869 0.452811,0.33425 0.523054,-0.0985 1.665304,-10.25864 5.374189,-20.07845 10.9065,-28.87655 0.233354,-0.3711 0.08702,-0.56292 -0.33107,-0.43112 z m 140.772342,21.04168 c 1.80191,6.4951 2.74999,13.19728 2.82032,19.93732 0.005,0.43836 0.002,1.14912 -0.005,1.58744 -0.0476,2.90284 -0.25807,5.80073 -0.63039,8.67999 -0.0562,0.43475 0.15479,0.54505 0.47626,0.24701 l 17.68482,-16.3956 a 0.62987924,0.62987924 85.600094 0 0 -0.0757,-0.9839 L 180.34708,136.9925 c -0.36329,-0.24535 -0.55888,-0.10291 -0.44169,0.31951 z M 27.668057,148.39343 10.123952,164.73216 a 0.63610817,0.63610817 85.745966 0 0 0.07364,0.99003 l 19.834915,13.60898 c 0.361474,0.24802 0.553492,0.10834 0.433697,-0.31334 -1.865888,-6.56807 -2.856855,-13.35368 -2.947226,-20.18104 -0.0058,-0.43834 -0.0046,-1.1491 0.0026,-1.58742 0.04749,-2.87937 0.255204,-5.75387 0.622183,-8.61015 0.05586,-0.4348 -0.154887,-0.54456 -0.47569,-0.24579 z m 153.843223,23.31913 c -1.85625,10.31759 -5.78364,20.1523 -11.54506,28.91039 -0.24093,0.36624 -0.10014,0.5558 0.31863,0.42617 l 23.72744,-7.34507 a 0.63127718,0.63127718 111.29515 0 0 0.35887,-0.92067 L 182.04721,171.6166 c -0.22057,-0.37884 -0.45831,-0.33548 -0.53593,0.096 z m -150.644854,10.37975 -9.187223,23.57052 a 0.63350477,0.63350477 59.888572 0 0 0.496806,0.85664 l 24.836523,3.7041 c 0.43358,0.0647 0.545586,-0.1455 0.2539,-0.47275 -7.145521,-8.01669 -12.549593,-17.42926 -15.870175,-27.64198 -0.135549,-0.41689 -0.370629,-0.42498 -0.529831,-0.0165 z M 168.1674,203.19232 c -6.11435,8.53361 -13.8966,15.73813 -22.8756,21.17739 -0.37494,0.22713 -0.3295,0.4602 0.10408,0.52486 l 24.49494,3.65295 a 0.63173277,0.63173277 136.99778 0 0 0.72298,-0.67424 l -1.92531,-24.53722 c -0.0343,-0.43703 -0.26576,-0.50009 -0.52109,-0.14374 z m -119.170228,9.12124 1.841939,24.89996 a 0.63172286,0.63172286 34.284607 0 0 0.816809,0.55687 l 24.040076,-7.4417 c 0.418771,-0.12963 0.427823,-0.36555 0.0221,-0.53157 -9.865956,-4.03714 -18.794574,-10.06362 -26.228842,-17.70346 -0.305722,-0.31418 -0.524425,-0.21728 -0.492085,0.2199 z m 93.370428,13.7727 c -9.23096,5.06378 -19.39592,8.19638 -29.87595,9.20707 -0.43635,0.0421 -0.49742,0.2732 -0.13594,0.5212 l 20.45191,14.03174 a 0.62988313,0.62988313 162.88728 0 0 0.94312,-0.29037 l 9.02221,-23.11553 c 0.15939,-0.40837 -0.021,-0.56495 -0.40535,-0.35411 z m -64.46081,5.10419 12.320343,21.12447 a 0.63613365,0.63613365 8.4578231 0 0 0.981985,0.14602 l 17.746292,-16.45195 c 0.32148,-0.29804 0.2276,-0.51444 -0.21,-0.48836 -0.94273,0.0562 -1.88641,0.0952 -2.83056,0.11692 -0.43826,0.0101 -1.14901,0.0138 -1.58734,0.008 -8.907196,-0.11158 -17.728779,-1.75582 -26.078067,-4.86064 -0.410883,-0.1528 -0.563508,0.0265 -0.342653,0.4052 z"
         inkscape:path-effect="#path-effect2123-1"
         inkscape:original-d="m 119.00256,63.333085 -18.572,17.295585 a 77.608658,77.608658 0 0 1 4.69067,-0.193786 77.608658,77.608658 0 0 1 26.57254,4.696354 z m -43.070761,3.140894 -9.492444,24.353552 a 77.608658,77.608658 0 0 1 30.823959,-9.947197 z m 82.959791,12.043709 -24.40781,7.694104 a 77.608658,77.608658 0 0 1 26.41441,17.871778 z m -119.127609,8.96276 1.920296,25.965862 A 77.608658,77.608658 0 0 1 65.530367,91.369617 Z M 162.71927,106.03797 a 77.608658,77.608658 0 0 1 16.16542,27.88512 l 9.37927,-24.03006 z m -122.829198,9.99371 -24.618136,7.76076 13.162504,22.56969 a 77.608658,77.608658 0 0 1 11.455632,-30.33045 z m 139.799218,20.51657 a 77.608658,77.608658 0 0 1 3.04064,21.49482 77.608658,77.608658 0 0 1 -0.74517,10.26035 l 18.84898,-17.4749 z M 28.248922,147.85247 9.5430868,165.27312 30.687016,179.78024 a 77.608658,77.608658 0 0 1 -3.174483,-21.73717 77.608658,77.608658 0 0 1 0.736389,-10.1906 z m 153.398908,23.07818 a 77.608658,77.608658 0 0 1 -12.12123,30.35319 l 25.24394,-7.81451 z m -150.493143,10.4221 -9.763745,25.04964 26.406657,3.93826 A 77.608658,77.608658 0 0 1 31.154687,181.35275 Z M 168.6264,202.54474 a 77.608658,77.608658 0 0 1 -24.01559,22.23275 l 26.06508,3.88711 z m -119.687785,8.97723 1.959053,26.48314 25.55658,-7.91114 a 77.608658,77.608658 0 0 1 -27.515633,-18.572 z m 94.122935,14.17898 a 77.608658,77.608658 0 0 1 -31.36036,9.66453 l 21.76095,14.92984 z m -65.554653,4.80384 13.120129,22.49579 18.910474,-17.53123 a 77.608658,77.608658 0 0 1 -4.41627,0.18242 77.608658,77.608658 0 0 1 -27.614333,-5.14698 z" /><path
         id="path1965"
         style="display:inline;opacity:1;fill:#ffffff;fill-opacity:1;stroke-width:4.99999;stroke-linecap:square;stroke-linejoin:bevel;stroke-miterlimit:2.6;stroke-dasharray:38.7501, 12.5;stroke-dashoffset:48.5"
         inkscape:label="outer ring"
         d="m 105.12123,82.275081 a 75.768257,75.768257 0 0 0 -19.303212,2.559017 l 9.193237,15.869832 a 58.272152,58.272152 0 0 1 10.109975,-0.932759 58.272152,58.272152 0 0 1 5.13612,0.229439 l 9.4263,-16.272387 a 75.768257,75.768257 0 0 0 -14.56242,-1.453142 z m 15.33808,1.633492 -9.38444,16.199527 a 58.272152,58.272152 0 0 1 4.16512,0.54829 l 9.17102,-15.83056 a 75.768257,75.768257 0 0 0 -3.9517,-0.917257 z m 5.78208,1.407666 -9.12709,15.755631 a 58.272152,58.272152 0 0 1 46.27934,56.9712 58.272152,58.272152 0 0 1 -2.97811,18.38027 h 18.20768 a 75.768257,75.768257 0 0 0 2.26652,-18.38027 75.768257,75.768257 0 0 0 -54.64834,-72.726831 z m -42.235148,0.04031 A 75.768257,75.768257 0 0 0 80.48501,86.44692 l 8.974646,15.49259 a 58.272152,58.272152 0 0 1 3.638021,-0.88883 z m -4.252971,1.346688 A 75.768257,75.768257 0 0 0 29.35273,158.04307 75.768257,75.768257 0 0 0 47.911287,207.62454 L 57.3288,191.36765 A 58.272152,58.272152 0 0 1 46.849337,158.04307 58.272152,58.272152 0 0 1 88.715515,102.17413 Z M 159.8259,178.11058 a 58.272152,58.272152 0 0 1 -1.47278,3.57859 h 18.69809 a 75.768257,75.768257 0 0 0 1.12913,-3.57859 z m -1.83606,4.39611 a 58.272152,58.272152 0 0 1 -8.16643,12.81627 l 9.19841,15.8781 a 75.768257,75.768257 0 0 0 17.77152,-28.69437 z m -100.161328,9.51621 -9.377723,16.18816 a 75.768257,75.768257 0 0 0 2.750737,2.99052 l 9.175667,-15.83883 a 58.272152,58.272152 0 0 1 -2.548681,-3.33985 z m 3.836458,4.76767 -9.123991,15.75046 a 75.768257,75.768257 0 0 0 52.580251,21.27054 75.768257,75.768257 0 0 0 45.10371,-14.95103 l -8.84132,-15.26211 a 58.272152,58.272152 0 0 1 -36.26239,12.71705 58.272152,58.272152 0 0 1 -43.45626,-19.52491 z m 86.90839,0.0243 a 58.272152,58.272152 0 0 1 -6.58048,6.31693 l 8.84236,15.26366 a 75.768257,75.768257 0 0 0 6.8218,-5.89989 z" /><path
         id="path1971"
         style="display:inline;opacity:1;fill:#ffffff;fill-opacity:1;stroke-width:4.99999;stroke-linecap:square;stroke-linejoin:bevel;stroke-miterlimit:2.6;stroke-dasharray:38.7501, 12.5;stroke-dashoffset:48.5"
         inkscape:label="inner ring"
         d="m 105.12123,101.65116 c -1.45774,7.1e-4 -2.9149,0.0579 -4.36821,0.17157 l 6.90552,11.92071 6.53397,-11.27838 c -1.0798,-0.18236 -2.16495,-0.33044 -3.6597,-0.52093 -1.49474,-0.19049 -3.45249,-0.29277 -5.41158,-0.29297 z m -5.193996,0.26458 c -1.31175,0.12384 -2.618767,0.29362 -3.918624,0.50902 l 9.10332,15.7148 2.10685,-3.63647 z m 16.194876,0.86868 -7.40575,12.78475 35.25211,60.85417 h 14.46217 c 2.03998,-5.91333 3.08188,-12.12496 3.08302,-18.38027 -0.024,-26.88467 -19.02341,-50.01407 -45.39155,-55.25865 z m -25.071337,0.69712 c -24.894713,6.41432 -42.300391,28.85373 -42.321964,54.56153 0.01154,4.66497 0.60189,9.31055 1.757515,13.83016 h 15.27297 L 98.21416,115.84719 Z m 17.225827,12.84676 -2.10685,3.63699 32.70549,56.45805 h 4.2137 z m -9.622157,0.27905 -32.015617,55.26588 h 7.345805 l 28.342459,-48.92621 z m -47.921622,56.18624 c 0.332065,1.22214 0.705213,2.43274 1.118794,3.62975 h 19.497002 l 2.102714,-3.62975 z m 1.7632,5.31699 c 2.137986,5.58892 5.151925,10.80199 8.928653,15.4435 l 8.946741,-15.4435 z m 19.990511,0 -2.073259,3.57859 H 139.8111 l -2.07325,-3.57859 z m 67.366428,0 2.07274,3.57859 h 4.21422 l -2.07326,-3.57859 z m 5.09323,0 2.07274,3.57859 h 9.25422 c 0.54514,-1.17514 1.04963,-2.36874 1.51257,-3.57859 z m -75.006273,4.39611 -7.258988,12.52998 c 10.682352,12.29057 26.156285,19.36346 42.440301,19.39882 16.37461,-1.4e-4 31.8312,-7.11439 42.47493,-19.30735 l -7.3117,-12.62145 z m 72.459663,0 6.45025,11.13524 c 0.82873,-1.01821 1.62887,-2.06513 2.39055,-3.14761 l -4.62711,-7.98763 z m 5.09323,0 4.22403,7.29206 c 1.56644,-2.3239 2.95746,-4.76134 4.1615,-7.29206 z"
         sodipodi:nodetypes="cccccccccccccccccccccccccccccccccccccccccccccccccccccccccccccccccccccccc" /><path
         id="path1950"
         style="display:inline;opacity:1;fill:#ffffff;fill-opacity:1;stroke-width:4.99999;stroke-linecap:square;stroke-linejoin:bevel;stroke-miterlimit:2.6;stroke-dasharray:38.7501, 12.5;stroke-dashoffset:48.5"
         inkscape:transform-center-x="1.3061451e-06"
         inkscape:transform-center-y="-9.0713788"
         d="m 103.32678,146.25147 -10.57352,18.31399 a 0.61103122,0.61103122 59.999911 0 0 0.529169,0.91655 h 21.147031 a 0.61103106,0.61103106 120.00008 0 0 0.52917,-0.91655 L 104.3851,146.25147 a 0.61102477,0.61102477 179.99999 0 0 -1.05832,0 z m 1.05832,7.11997 4.4075,7.63404 a 0.61103037,0.61103037 120.00006 0 1 -0.52917,0.91654 l -8.814452,0 a 0.61105972,0.61105972 59.998753 0 1 -0.529206,-0.91657 l 4.407038,-7.63398 a 0.61099696,0.61099696 179.99881 0 1 1.05829,-3e-5 z"
         transform="translate(1.1567673,-0.57838364)"
         inkscape:label="center triangle"
         inkscape:path-effect="#path-effect2121-2"
         inkscape:original-d="m 103.85594,145.33492 -11.631844,20.14709 h 23.263694 z m 0,7.11998 5.46582,9.46712 H 98.390645 Z" /></g></g></svg>
