<?xml version="1.0" encoding="UTF-8" standalone="no"?>
<!-- Created with Inkscape (http://www.inkscape.org/) -->

<svg
   width="210mm"
   height="297mm"
   viewBox="0 0 210 297"
   version="1.1"
   id="svg5"
   xml:space="preserve"
   inkscape:version="1.2 (dc2aedaf03, 2022-05-15)"
   sodipodi:docname="sun-station_white.svg"
   inkscape:export-filename="sun-station_white.png"
   inkscape:export-xdpi="509.29739"
   inkscape:export-ydpi="509.29739"
   xmlns:inkscape="http://www.inkscape.org/namespaces/inkscape"
   xmlns:sodipodi="http://sodipodi.sourceforge.net/DTD/sodipodi-0.dtd"
   xmlns="http://www.w3.org/2000/svg"
   xmlns:svg="http://www.w3.org/2000/svg"><sodipodi:namedview
     id="namedview7"
     pagecolor="#505050"
     bordercolor="#ffffff"
     borderopacity="1"
     inkscape:showpageshadow="0"
     inkscape:pageopacity="0"
     inkscape:pagecheckerboard="1"
     inkscape:deskcolor="#505050"
     inkscape:document-units="mm"
     showgrid="false"
     inkscape:zoom="1.2426901"
     inkscape:cx="265.55293"
     inkscape:cy="514.20704"
     inkscape:window-width="2498"
     inkscape:window-height="1417"
     inkscape:window-x="2552"
     inkscape:window-y="-8"
     inkscape:window-maximized="1"
     inkscape:current-layer="svg5" /><defs
     id="defs2" /><g
     inkscape:groupmode="layer"
     id="g1066"
     inkscape:label="final"
     style="display:inline;fill:#ffffff;fill-opacity:1"><g
       inkscape:groupmode="layer"
       id="g1024"
       inkscape:label="control"
       style="fill:#ffffff;fill-opacity:1"><g
         inkscape:groupmode="layer"
         id="g998"
         inkscape:label="stingx"
         style="fill:#ffffff;fill-opacity:1"><path
           id="path980"
           style="display:inline;fill:#ffffff;fill-opacity:1;stroke:none;stroke-width:0.2;stroke-linecap:round;stroke-linejoin:round;stroke-miterlimit:2.6;stroke-dasharray:none"
           inkscape:label="main"
           d="m 41.570589,130.75171 1.423169,8.96586 v 64.05604 l 1.494999,-0.40049 1.243852,-2.15439 h 1.475362 l 1.243852,2.15439 1.494482,0.40049 v -64.05604 l 1.397331,-8.80411 -4.83278,7.28999 z" /><path
           style="fill:#ffffff;fill-opacity:1;stroke:none;stroke-width:0.2;stroke-linecap:round;stroke-linejoin:round;stroke-miterlimit:2.6;stroke-dasharray:none"
           d="m 43.402895,140.0753 -3.220709,2.55612 v 2.9651 l 3.731934,-1.78928 z"
           id="path982"
           inkscape:label="1left" /><path
           style="fill:#ffffff;fill-opacity:1;stroke:none;stroke-width:0.2;stroke-linecap:round;stroke-linejoin:round;stroke-miterlimit:2.6;stroke-dasharray:none"
           d="m 43.351772,167.937 -3.016218,2.30051 v 0.84351 h -3.757496 v 1.99378 h 1.303621 v 1.09913 h 5.572339 z"
           id="path984"
           inkscape:label="2left" /><path
           style="fill:#ffffff;fill-opacity:1;stroke:none;stroke-width:0.2;stroke-linecap:round;stroke-linejoin:round;stroke-miterlimit:2.6;stroke-dasharray:none"
           d="m 43.198407,188.30926 -2.453876,1.91709 v 2.12158 l 2.862855,-0.94576 z"
           id="path986"
           inkscape:label="3left" /><path
           style="fill:#ffffff;fill-opacity:1;stroke:none;stroke-width:0.2;stroke-linecap:round;stroke-linejoin:round;stroke-miterlimit:2.6;stroke-dasharray:none"
           d="m 43.351772,198.32925 -2.377188,1.86597 v 2.40275 l 2.351627,-1.2525 z"
           id="path988"
           inkscape:label="4left" /><path
           style="fill:#ffffff;fill-opacity:1;stroke:none;stroke-width:0.2;stroke-linecap:round;stroke-linejoin:round;stroke-miterlimit:2.6;stroke-dasharray:none"
           d="m 49.546095,140.0753 3.220709,2.55612 v 2.9651 l -3.731934,-1.78928 z"
           id="path990"
           inkscape:label="1light" /><path
           style="fill:#ffffff;fill-opacity:1;stroke:none;stroke-width:0.2;stroke-linecap:round;stroke-linejoin:round;stroke-miterlimit:2.6;stroke-dasharray:none"
           d="m 49.597218,167.937 3.016218,2.30051 v 0.84351 h 3.757496 v 1.99378 h -1.303621 v 1.09913 h -5.572339 z"
           id="path992"
           inkscape:label="2right" /><path
           style="fill:#ffffff;fill-opacity:1;stroke:none;stroke-width:0.2;stroke-linecap:round;stroke-linejoin:round;stroke-miterlimit:2.6;stroke-dasharray:none"
           d="m 49.750583,188.30926 2.453876,1.91709 v 2.12158 l -2.862855,-0.94576 z"
           id="path994"
           inkscape:label="3right" /><path
           style="fill:#ffffff;fill-opacity:1;stroke:none;stroke-width:0.2;stroke-linecap:round;stroke-linejoin:round;stroke-miterlimit:2.6;stroke-dasharray:none"
           d="m 49.597218,198.32925 2.377188,1.86597 v 2.40275 l -2.351627,-1.2525 z"
           id="path996"
           inkscape:label="4right" /></g><g
         inkscape:groupmode="layer"
         id="g1004"
         inkscape:label="control deco"
         style="fill:#ffffff;fill-opacity:1"><path
           style="fill:#ffffff;fill-opacity:1;stroke:none;stroke-width:0.2;stroke-linecap:round;stroke-linejoin:round;stroke-miterlimit:2.6;stroke-dasharray:none"
           d="m 31.389957,137.79212 -3.500321,7.64048 0.715121,7.86631 1.656064,1.43024 -0.790395,-8.16741 4.704731,2.33354 z"
           id="path1000" /><path
           style="fill:#ffffff;fill-opacity:1;stroke:none;stroke-width:0.2;stroke-linecap:round;stroke-linejoin:round;stroke-miterlimit:2.6;stroke-dasharray:none"
           d="m 33.986967,152.0945 -3.274491,7.11355 0.978582,6.43607 1.279687,1.43024 -0.451655,-6.62426 3.011028,1.91953 -0.489292,-10.53859 z"
           id="path1002" /></g><path
         style="fill:#ffffff;fill-opacity:1;stroke:none;stroke-width:0.2;stroke-linecap:round;stroke-linejoin:round;stroke-miterlimit:2.6;stroke-dasharray:none"
         d="m 36.620823,123.54205 v 13.20053 h -1.064559 v 25.60264 l -1.916205,-1.06456 v -12.77471 l -5.535707,-19.4282 -3.300133,0.0532 -8.782609,-25.86879 h -4.417919 l 0.745191,4.31147 H 7.7712791 L 6.3873527,97.140989 21.344404,91.179461 h 5.109882 z"
         id="path1006"
         sodipodi:nodetypes="cccccccccccccccc"
         inkscape:label="left" /><path
         id="path1008"
         style="fill:#ffffff;fill-opacity:1;stroke:none;stroke-width:0.2;stroke-linecap:round;stroke-linejoin:round;stroke-miterlimit:2.6;stroke-dasharray:none"
         d="m 38.968681,89.504614 -6.795968,4.410584 2.313554,24.075012 12.024589,18.1374 12.024589,-18.1374 2.313554,-24.075012 -6.795968,-4.410584 h -6.264217 -2.555916 z"
         sodipodi:nodetypes="cccccccccc"
         inkscape:label="center" /><path
         id="path1010"
         style="fill:#ffffff;fill-opacity:1;stroke:none;stroke-width:0.2;stroke-linecap:round;stroke-linejoin:round;stroke-miterlimit:2.6;stroke-dasharray:none"
         d="m 23.749972,89.504614 1.445906,35.028866 h 42.636674 l 1.445907,-35.028866 z"
         inkscape:label="block"
         sodipodi:nodetypes="ccccc" /><g
         inkscape:groupmode="layer"
         id="g1020"
         inkscape:label="sphere"
         style="display:inline;fill:#ffffff;fill-opacity:1"><path
           style="fill:#ffffff;fill-opacity:1;stroke:none;stroke-width:0.2;stroke-linecap:round;stroke-linejoin:round;stroke-miterlimit:2.6;stroke-dasharray:none"
           d="m 46.867201,71.378666 h -0.873763 l -0.16937,21.041043 1.467874,0.07528 z"
           id="path1012"
           inkscape:label="spere deco center" /><path
           id="path1014"
           style="display:inline;fill:#ffffff;fill-opacity:1;stroke:none;stroke-width:0.2;stroke-linecap:round;stroke-linejoin:round;stroke-miterlimit:2.6;stroke-dasharray:none"
           inkscape:label="sphere deco"
           d="m 41.198519,71.644722 -0.206189,7.215581 c -3.345649,1.543175 -10.007652,5.489192 -12.387358,11.282515 0,0 0.22723,0.589685 0.70125,1.212846 1.374126,-5.327226 7.345264,-9.418357 14.807881,-10.145634 L 42.901774,78.51097 42.63564,73.241524 Z m 10.383862,0 -1.437121,1.596802 -0.266134,5.269446 -1.206645,2.686658 c 7.450408,0.690215 13.449682,4.73491 14.890564,10.03918 0.414099,-0.577175 0.612883,-1.09399 0.612883,-1.09399 -2.379706,-5.793323 -9.041709,-9.73934 -12.387358,-11.282515 z"
           sodipodi:nodetypes="cccccccccccccccc" /><ellipse
           style="fill:#ffffff;fill-opacity:1;stroke:none;stroke-width:0.191517;stroke-linecap:round;stroke-linejoin:round;stroke-miterlimit:2.6;stroke-dasharray:none"
           id="ellipse1016"
           cx="46.445091"
           cy="94.175217"
           rx="16.702089"
           ry="12.016711"
           inkscape:label="sphere small" /><ellipse
           style="display:none;fill:#ffffff;fill-opacity:1;stroke:none;stroke-width:0.2;stroke-linecap:round;stroke-linejoin:round;stroke-miterlimit:2.6;stroke-dasharray:none"
           id="ellipse1018"
           cx="46.445091"
           cy="93.642937"
           rx="17.441908"
           ry="12.54899"
           inkscape:label="sphere" /></g><path
         id="path1022"
         style="fill:#ffffff;fill-opacity:1;stroke:none;stroke-width:0.2;stroke-linecap:round;stroke-linejoin:round;stroke-miterlimit:2.6;stroke-dasharray:none"
         inkscape:label="left"
         d="m 66.437805,91.179447 -8.251693,20.770313 -4.975406,12.52378 13.120129,-0.0346 -0.02635,4.82089 1.783354,-0.12867 11.76724,-34.640267 -8.307503,-3.311426 z"
         sodipodi:nodetypes="ccccccccc" /></g><g
       inkscape:groupmode="layer"
       id="g1046"
       inkscape:label="connection"
       style="fill:#ffffff;fill-opacity:1"><path
         id="path1026"
         style="fill:#ffffff;fill-opacity:1;stroke:none;stroke-width:0.2;stroke-linecap:round;stroke-linejoin:round;stroke-miterlimit:2.6;stroke-dasharray:none"
         inkscape:label="upper connection"
         d="m 155.77757,78.023661 -78.225198,14.685926 3.237529,1.290877 75.731809,-14.293185 -0.74414,-0.844392 z" /><path
         id="path1028"
         style="fill:#ffffff;fill-opacity:1;stroke:none;stroke-width:0.2;stroke-linecap:round;stroke-linejoin:round;stroke-miterlimit:2.6;stroke-dasharray:none"
         inkscape:label="lower connection"
         d="m 52.341506,130.50263 -0.263033,1.65674 112.439657,1.66089 -0.18346,-1.70688 z" /><path
         id="path1030"
         style="fill:#ffffff;fill-opacity:1;stroke-width:0.2;stroke-linecap:round;stroke-linejoin:round;stroke-miterlimit:2.6"
         inkscape:label="bridge"
         d="M 82.026001 94.320341 L 78.113578 105.83747 L 97.078312 105.83747 L 93.165889 94.320341 L 82.026001 94.320341 z M 95.098071 94.320341 L 99.010494 105.83747 L 109.9814 105.83747 L 113.89382 94.320341 L 95.098071 94.320341 z M 115.82549 94.320341 L 111.91307 105.83747 L 130.77186 105.83747 L 126.85944 94.320341 L 115.82549 94.320341 z M 128.79162 94.320341 L 132.70404 105.83747 L 143.24862 105.83747 L 147.16104 94.320341 L 128.79162 94.320341 z M 149.09323 94.320341 L 145.1808 105.83747 L 162.81487 105.83747 L 158.90245 94.320341 L 149.09323 94.320341 z " /></g><g
       inkscape:groupmode="layer"
       id="g1064"
       inkscape:label="warp"
       style="display:inline;fill:#ffffff;fill-opacity:1"><path
         id="path1048"
         style="fill:#ffffff;fill-opacity:1;stroke:none;stroke-width:0.2;stroke-linecap:round;stroke-linejoin:round;stroke-miterlimit:2.6;stroke-dasharray:none"
         d="m 143.92817,69.622107 0.48834,2.002462 h 60.97302 l 0.48834,-2.002462 z"
         inkscape:label="platform"
         sodipodi:nodetypes="ccccc" /><path
         id="path1050"
         style="fill:#ffffff;fill-opacity:1;stroke:none;stroke-width:0.2;stroke-linecap:round;stroke-linejoin:round;stroke-miterlimit:2.6;stroke-dasharray:none"
         inkscape:label="string"
         d="m 171.46757,135.53746 0.61857,9.16275 0.77153,0.66508 0.26613,-6.12108 h 0.71882 v 22.03638 h 1.75648 v -22.03638 h 0.7183 l 0.26614,6.12108 0.77204,-0.66508 0.61857,-9.16275 h -1.52601 l -0.21445,1.98645 h -3.05253 l -0.21446,-1.98645 z" /><path
         id="path1052"
         style="fill:#ffffff;fill-opacity:1;stroke:none;stroke-width:0.2;stroke-linecap:round;stroke-linejoin:round;stroke-miterlimit:2.6;stroke-dasharray:none"
         d="m 167.93394,129.95589 -0.13333,1.6769 h -2.50114 l 0.53227,4.95009 h 0.87798 l 0.26613,-1.96939 h 6.78667 l 0.21291,1.96939 h 1.46399 l 0.21291,-1.96939 h 6.78666 l 0.26614,1.96939 h 0.87798 l 0.53227,-4.95009 h -2.50114 l -0.13333,-1.6769 h -1.17099 l -0.39584,1.6769 h -10.41332 l -0.39584,-1.6769 z"
         inkscape:label="lower bar"
         sodipodi:nodetypes="ccccccccccccccccccccc" /><path
         style="fill:#ffffff;fill-opacity:1;stroke-width:0.2;stroke-linecap:round;stroke-linejoin:round;stroke-miterlimit:2.6"
         d="m 166.07117,93.308576 h -3.35336 l 3.93887,17.778134 z"
         id="path1054"
         inkscape:label="bridge wall" /><path
         style="fill:#ffffff;fill-opacity:1;stroke-width:0.170622;stroke-linecap:round;stroke-linejoin:round;stroke-miterlimit:2.6"
         d="m 181.25944,120.23407 v 4.81637 h 2.22867 v -1.14986 h -1.12738 v -1.76381 h 2.91723 v 4.66361 h -5.79264 V 121.39 Z"
         id="path1056"
         sodipodi:nodetypes="ccccccccccc"
         inkscape:label="decoration" /><path
         id="path1058"
         style="display:inline;fill:#ffffff;fill-opacity:1;stroke:none;stroke-width:0.220262;stroke-linecap:round;stroke-linejoin:round;stroke-miterlimit:2.6;stroke-dasharray:none"
         inkscape:label="bridge door"
         d="m 160.85995,94.320341 4.30878,12.683899 h 1.74689 l -2.96051,-12.683899 z"
         sodipodi:nodetypes="ccccc" /><path
         id="path1062"
         style="display:inline;fill:#ffffff;fill-opacity:1;stroke:none;stroke-width:0.2;stroke-linecap:round;stroke-linejoin:round;stroke-miterlimit:2.6;stroke-dasharray:none"
         inkscape:label="main"
         d="M 156.75632 73.081844 L 156.75632 78.298063 L 163.0903 85.484188 L 167.71431 120.10223 L 170.61233 123.82862 L 171.15596 130.64112 L 178.12556 130.64112 L 178.6692 123.82862 L 181.56773 120.10223 L 186.19122 85.484188 L 192.52572 78.298063 L 192.52572 73.081844 L 156.75632 73.081844 z M 165.85809 78.298063 L 167.51122 78.298063 L 167.489 79.908818 L 168.78608 84.499235 L 174.69476 121.89178 L 174.73869 121.89178 L 174.74386 121.89178 L 180.65254 84.499235 L 181.94962 79.908818 L 181.92688 78.298063 L 183.58053 78.298063 L 183.58053 79.895382 L 182.32737 84.571582 L 175.86213 127.05529 L 173.57649 127.05529 L 167.11125 84.571582 L 165.85809 79.895382 L 165.85809 78.298063 z " /></g></g></svg>
