<?xml version="1.0" encoding="UTF-8" standalone="no"?>
<!-- Created with Inkscape (http://www.inkscape.org/) -->

<svg
   width="199.16473mm"
   height="199.09019mm"
   viewBox="0 0 199.16473 199.09019"
   version="1.1"
   id="svg5"
   xml:space="preserve"
   inkscape:version="1.2.2 (732a01da63, 2022-12-09)"
   sodipodi:docname="sun-station02_wip.svg"
   inkscape:export-filename="sun-station02_wip.png"
   inkscape:export-xdpi="96"
   inkscape:export-ydpi="96"
   xmlns:inkscape="http://www.inkscape.org/namespaces/inkscape"
   xmlns:sodipodi="http://sodipodi.sourceforge.net/DTD/sodipodi-0.dtd"
   xmlns="http://www.w3.org/2000/svg"
   xmlns:svg="http://www.w3.org/2000/svg"><sodipodi:namedview
     id="namedview7"
     pagecolor="#505050"
     bordercolor="#ffffff"
     borderopacity="1"
     inkscape:showpageshadow="0"
     inkscape:pageopacity="0"
     inkscape:pagecheckerboard="1"
     inkscape:deskcolor="#505050"
     inkscape:document-units="mm"
     showgrid="false"
     inkscape:zoom="0.91490602"
     inkscape:cx="108.20784"
     inkscape:cy="439.38939"
     inkscape:window-width="1920"
     inkscape:window-height="1129"
     inkscape:window-x="1912"
     inkscape:window-y="-8"
     inkscape:window-maximized="1"
     inkscape:current-layer="layer3" /><defs
     id="defs2"><inkscape:path-effect
       effect="fillet_chamfer"
       id="path-effect2100"
       is_visible="true"
       lpeversion="1"
       nodesatellites_param="F,0,0,1,0,1.5875,0,1 @ F,0,0,1,0,1.5875,0,1 @ F,0,0,1,0,1.5875,0,1 @ F,0,0,1,0,1.5875,0,1 @ F,0,0,1,0,1.5875,0,1 @ F,0,0,1,0,1.5875,0,1 @ F,0,0,1,0,1.5875,0,1 @ F,0,0,1,0,1.5875,0,1 @ F,0,0,1,0,1.5875,0,1 @ F,0,0,1,0,1.5875,0,1 @ F,0,0,1,0,1.5875,0,1 @ F,0,0,1,0,1.5875,0,1 | F,0,0,1,0,1.5875,0,1 @ F,0,0,1,0,1.5875,0,1 @ F,0,0,1,0,1.5875,0,1 @ F,0,0,1,0,1.5875,0,1 @ F,0,0,1,0,1.5875,0,1 @ F,0,0,1,0,1.5875,0,1 @ F,0,0,1,0,1.5875,0,1 @ F,0,0,1,0,1.5875,0,1 @ F,0,0,1,0,1.5875,0,1 @ F,0,0,1,0,1.5875,0,1 @ F,0,0,1,0,1.5875,0,1 @ F,0,0,1,0,1.5875,0,1 | F,0,0,1,0,1.5875,0,1 @ F,0,0,1,0,1.5875,0,1 @ F,0,0,1,0,1.5875,0,1 @ F,0,0,1,0,1.5875,0,1 @ F,0,0,1,0,1.5875,0,1 @ F,0,0,1,0,1.5875,0,1 @ F,0,0,1,0,1.5875,0,1 @ F,0,0,1,0,1.5875,0,1 @ F,0,0,1,0,1.5875,0,1 @ F,0,0,1,0,1.5875,0,1 | F,0,0,1,0,1.5875,0,1 @ F,0,0,1,0,1.5875,0,1 @ F,0,0,1,0,1.5875,0,1 @ F,0,0,1,0,1.5875,0,1 @ F,0,0,1,0,1.5875,0,1 @ F,0,0,1,0,1.5875,0,1 @ F,0,0,1,0,1.5875,0,1 @ F,0,0,1,0,1.5875,0,1 @ F,0,0,1,0,1.5875,0,1 @ F,0,0,1,0,1.5875,0,1 | F,0,0,1,0,1.5875,0,1 @ F,0,0,1,0,1.5875,0,1 @ F,0,0,1,0,1.5875,0,1 @ F,0,0,1,0,1.5875,0,1 @ F,0,0,1,0,1.5875,0,1 @ F,0,0,1,0,1.5875,0,1 @ F,0,0,1,0,1.5875,0,1 @ F,0,0,1,0,1.5875,0,1 @ F,0,0,1,0,1.5875,0,1 @ F,0,0,1,0,1.5875,0,1 | F,0,0,1,0,1.5875,0,1 @ F,0,0,1,0,1.5875,0,1 @ F,0,0,1,0,1.5875,0,1 @ F,0,0,1,0,1.5875,0,1 @ F,0,0,1,0,1.5875,0,1 @ F,0,0,1,0,1.5875,0,1 @ F,0,0,1,0,1.5875,0,1 @ F,0,0,1,0,1.5875,0,1 @ F,0,0,1,0,1.5875,0,1 @ F,0,0,1,0,1.5875,0,1 | F,0,0,1,0,1.5875,0,1 @ F,0,0,1,0,1.5875,0,1 @ F,0,0,1,0,1.5875,0,1 @ F,0,0,1,0,1.5875,0,1 @ F,0,0,1,0,1.5875,0,1 @ F,0,0,1,0,1.5875,0,1 @ F,0,0,1,0,1.5875,0,1 @ F,0,0,1,0,1.5875,0,1 @ F,0,0,1,0,1.5875,0,1 @ F,0,0,1,0,1.5875,0,1 | F,0,0,1,0,1.5875,0,1 @ F,0,0,1,0,1.5875,0,1 @ F,0,0,1,0,1.5875,0,1 @ F,0,0,1,0,1.5875,0,1 @ F,0,0,1,0,1.5875,0,1 @ F,0,0,1,0,1.5875,0,1 @ F,0,0,1,0,1.5875,0,1 @ F,0,0,1,0,1.5875,0,1 @ F,0,0,1,0,1.5875,0,1 @ F,0,0,1,0,1.5875,0,1 @ F,0,0,1,0,1.5875,0,1 | F,0,0,1,0,1.5875,0,1 @ F,0,0,1,0,1.5875,0,1 @ F,0,0,1,0,1.5875,0,1 @ F,0,0,1,0,1.5875,0,1 @ F,0,0,1,0,1.5875,0,1 @ F,0,0,1,0,1.5875,0,1 @ F,0,0,1,0,1.5875,0,1 @ F,0,0,1,0,1.5875,0,1 @ F,0,0,1,0,1.5875,0,1 @ F,0,0,1,0,1.5875,0,1 | F,0,0,1,0,1.5875,0,1 @ F,0,0,1,0,1.5875,0,1 @ F,0,0,1,0,1.5875,0,1 @ F,0,0,1,0,1.5875,0,1 @ F,0,0,1,0,1.5875,0,1 @ F,0,0,1,0,1.5875,0,1 @ F,0,0,1,0,1.5875,0,1 @ F,0,0,1,0,1.5875,0,1 @ F,0,0,1,0,1.5875,0,1 @ F,0,0,1,0,1.5875,0,1 | F,0,0,1,0,1.5875,0,1 @ F,0,0,1,0,1.5875,0,1 @ F,0,0,1,0,1.5875,0,1 @ F,0,0,1,0,1.5875,0,1 @ F,0,0,1,0,1.5875,0,1 @ F,0,0,1,0,1.5875,0,1 @ F,0,0,1,0,1.5875,0,1 @ F,0,0,1,0,1.5875,0,1 @ F,0,0,1,0,1.5875,0,1 @ F,0,0,1,0,1.5875,0,1 @ F,0,0,1,0,1.5875,0,1 | F,0,0,1,0,1.5875,0,1 @ F,0,0,1,0,1.5875,0,1 @ F,0,0,1,0,1.5875,0,1 @ F,0,0,1,0,1.5875,0,1 @ F,0,0,1,0,1.5875,0,1 @ F,0,0,1,0,1.5875,0,1 @ F,0,0,1,0,1.5875,0,1 @ F,0,0,1,0,1.5875,0,1 @ F,0,0,1,0,1.5875,0,1 @ F,0,0,1,0,1.5875,0,1"
       unit="px"
       method="auto"
       mode="F"
       radius="6"
       chamfer_steps="1"
       flexible="false"
       use_knot_distance="true"
       apply_no_radius="true"
       apply_with_radius="true"
       only_selected="false"
       hide_knots="false" /><inkscape:path-effect
       effect="fillet_chamfer"
       id="path-effect2093"
       is_visible="true"
       lpeversion="1"
       nodesatellites_param="F,0,0,1,0,1.0583333,0,1 @ F,0,0,1,0,1.0583333,0,1 @ F,0,0,1,0,1.0583333,0,1 | F,0,0,1,0,1.0583333,0,1 @ F,0,0,1,0,1.0583333,0,1 @ F,0,0,1,0,1.0583333,0,1"
       unit="px"
       method="auto"
       mode="F"
       radius="4"
       chamfer_steps="1"
       flexible="false"
       use_knot_distance="true"
       apply_no_radius="true"
       apply_with_radius="true"
       only_selected="false"
       hide_knots="false" /><inkscape:path-effect
       effect="fillet_chamfer"
       id="path-effect2091"
       is_visible="true"
       lpeversion="1"
       nodesatellites_param="F,0,0,1,0,1.3229167,0,1 @ F,0,0,1,0,1.3229167,0,1 @ F,0,0,1,0,1.3229167,0,1 @ F,0,0,1,0,1.3229167,0,1 | F,0,0,1,0,1.3229167,0,1 @ F,0,0,1,0,1.3229167,0,1 @ F,0,0,1,0,1.3229167,0,1 @ F,0,0,1,0,1.3229167,0,1 | F,0,0,1,0,1.3229167,0,1 @ F,0,0,1,0,1.3229167,0,1 @ F,0,0,1,0,1.3229167,0,1 | F,0,0,1,0,1.3229167,0,1 @ F,0,0,1,0,1.3229167,0,1 @ F,0,0,1,0,1.3229167,0,1 @ F,0,0,1,0,1.3229167,0,1 @ F,0,0,1,0,1.3229167,0,1 @ F,0,0,1,0,1.3229167,0,1 | F,0,0,1,0,1.3229167,0,1 @ F,0,0,1,0,1.3229167,0,1 @ F,0,0,1,0,1.3229167,0,1 @ F,0,0,1,0,1.3229167,0,1"
       unit="px"
       method="auto"
       mode="F"
       radius="5"
       chamfer_steps="1"
       flexible="false"
       use_knot_distance="true"
       apply_no_radius="true"
       apply_with_radius="true"
       only_selected="false"
       hide_knots="false" /><inkscape:path-effect
       effect="fillet_chamfer"
       id="path-effect1946"
       is_visible="true"
       lpeversion="1"
       nodesatellites_param="F,0,0,1,0,0.79375,0,1 @ F,0,0,1,0,0.79375,0,1 @ F,0,0,1,0,0.79375,0,1 @ F,0,0,1,0,0.79375,0,1 @ F,0,0,1,0,0.79375,0,1 @ F,0,0,1,0,0.79375,0,1 @ F,0,0,1,0,0.79375,0,1 @ F,0,0,1,0,0.79375,0,1 | F,0,0,1,0,0.79375,0,1 @ F,0,0,1,0,0.79375,0,1 @ F,0,0,1,0,0.79375,0,1 @ F,0,0,1,0,0.79375,0,1 @ F,0,0,1,0,0.79375,0,1 @ F,0,0,1,0,0.79375,0,1 | F,0,0,1,0,0.79375,0,1 @ F,0,0,1,0,0.79375,0,1 @ F,0,0,1,0,0.79375,0,1 @ F,0,0,1,0,0.79375,0,1 @ F,0,0,1,0,0.79375,0,1 @ F,0,0,1,0,0.79375,0,1 | F,0,0,1,0,0.79375,0,1 @ F,0,0,1,0,0.79375,0,1 @ F,0,0,1,0,0.79375,0,1 @ F,0,0,1,0,0.79375,0,1 @ F,0,0,1,0,0.79375,0,1 @ F,0,0,1,0,0.79375,0,1"
       unit="px"
       method="auto"
       mode="F"
       radius="3"
       chamfer_steps="1"
       flexible="false"
       use_knot_distance="true"
       apply_no_radius="true"
       apply_with_radius="true"
       only_selected="false"
       hide_knots="false" /><inkscape:path-effect
       effect="fillet_chamfer"
       id="path-effect1944"
       is_visible="true"
       lpeversion="1"
       nodesatellites_param="F,0,0,1,0,1.0583333,0,1 @ F,0,0,1,0,1.0583333,0,1 @ F,0,0,1,0,1.0583333,0,1 @ F,0,0,1,0,1.0583333,0,1 @ F,0,0,1,0,1.0583333,0,1 @ F,0,0,1,0,1.0583333,0,1 @ F,0,0,1,0,1.0583333,0,1 @ F,0,0,1,0,1.0583333,0,1 @ F,0,0,1,0,1.0583333,0,1 @ F,0,0,1,0,1.0583333,0,1 @ F,0,0,1,0,1.0583333,0,1 @ F,0,0,1,0,1.0583333,0,1 | F,0,0,1,0,1.0583333,0,1 @ F,0,0,1,0,1.0583333,0,1 @ F,0,0,1,0,1.0583333,0,1 @ F,0,0,1,0,1.0583333,0,1 @ F,0,0,1,0,1.0583333,0,1 @ F,0,0,1,0,1.0583333,0,1 @ F,0,0,1,0,1.0583333,0,1 @ F,0,0,1,0,1.0583333,0,1 @ F,0,0,1,0,1.0583333,0,1 @ F,0,0,1,0,1.0583333,0,1 @ F,0,0,1,0,1.0583333,0,1 @ F,0,0,1,0,1.0583333,0,1 | F,0,0,1,0,1.0583333,0,1 @ F,0,0,1,0,1.0583333,0,1 @ F,0,0,1,0,1.0583333,0,1 @ F,0,0,1,0,1.0583333,0,1 @ F,0,0,1,0,1.0583333,0,1 @ F,0,0,1,0,1.0583333,0,1 @ F,0,0,1,0,1.0583333,0,1 @ F,0,0,1,0,1.0583333,0,1 @ F,0,0,1,0,1.0583333,0,1 @ F,0,0,1,0,1.0583333,0,1 | F,0,0,1,0,1.0583333,0,1 @ F,0,0,1,0,1.0583333,0,1 @ F,0,0,1,0,1.0583333,0,1 @ F,0,0,1,0,1.0583333,0,1 @ F,0,0,1,0,1.0583333,0,1 @ F,0,0,1,0,1.0583333,0,1 @ F,0,0,1,0,1.0583333,0,1 @ F,0,0,1,0,1.0583333,0,1 @ F,0,0,1,0,1.0583333,0,1 @ F,0,0,1,0,1.0583333,0,1 | F,0,0,1,0,1.0583333,0,1 @ F,0,0,1,0,1.0583333,0,1 @ F,0,0,1,0,1.0583333,0,1 @ F,0,0,1,0,1.0583333,0,1 @ F,0,0,1,0,1.0583333,0,1 @ F,0,0,1,0,1.0583333,0,1 @ F,0,0,1,0,1.0583333,0,1 @ F,0,0,1,0,1.0583333,0,1 @ F,0,0,1,0,1.0583333,0,1 @ F,0,0,1,0,1.0583333,0,1 | F,0,0,1,0,1.0583333,0,1 @ F,0,0,1,0,1.0583333,0,1 @ F,0,0,1,0,1.0583333,0,1 @ F,0,0,1,0,1.0583333,0,1 @ F,0,0,1,0,1.0583333,0,1 @ F,0,0,1,0,1.0583333,0,1 @ F,0,0,1,0,1.0583333,0,1 @ F,0,0,1,0,1.0583333,0,1 @ F,0,0,1,0,1.0583333,0,1 @ F,0,0,1,0,1.0583333,0,1 | F,0,0,1,0,1.0583333,0,1 @ F,0,0,1,0,1.0583333,0,1 @ F,0,0,1,0,1.0583333,0,1 @ F,0,0,1,0,1.0583333,0,1 @ F,0,0,1,0,1.0583333,0,1 @ F,0,0,1,0,1.0583333,0,1 @ F,0,0,1,0,1.0583333,0,1 @ F,0,0,1,0,1.0583333,0,1 @ F,0,0,1,0,1.0583333,0,1 @ F,0,0,1,0,1.0583333,0,1 | F,0,0,1,0,1.0583333,0,1 @ F,0,0,1,0,1.0583333,0,1 @ F,0,0,1,0,1.0583333,0,1 @ F,0,0,1,0,1.0583333,0,1 @ F,0,0,1,0,1.0583333,0,1 @ F,0,0,1,0,1.0583333,0,1 @ F,0,0,1,0,1.0583333,0,1 @ F,0,0,1,0,1.0583333,0,1 @ F,0,0,1,0,1.0583333,0,1 @ F,0,0,1,0,1.0583333,0,1 @ F,0,0,1,0,1.0583333,0,1 | F,0,0,1,0,1.0583333,0,1 @ F,0,0,1,0,1.0583333,0,1 @ F,0,0,1,0,1.0583333,0,1 @ F,0,0,1,0,1.0583333,0,1 @ F,0,0,1,0,1.0583333,0,1 @ F,0,0,1,0,1.0583333,0,1 @ F,0,0,1,0,1.0583333,0,1 @ F,0,0,1,0,1.0583333,0,1 @ F,0,0,1,0,1.0583333,0,1 @ F,0,0,1,0,1.0583333,0,1 | F,0,0,1,0,1.0583333,0,1 @ F,0,0,1,0,1.0583333,0,1 @ F,0,0,1,0,1.0583333,0,1 @ F,0,0,1,0,1.0583333,0,1 @ F,0,0,1,0,1.0583333,0,1 @ F,0,0,1,0,1.0583333,0,1 @ F,0,0,1,0,1.0583333,0,1 @ F,0,0,1,0,1.0583333,0,1 @ F,0,0,1,0,1.0583333,0,1 @ F,0,0,1,0,1.0583333,0,1 | F,0,0,1,0,1.0583333,0,1 @ F,0,0,1,0,1.0583333,0,1 @ F,0,0,1,0,1.0583333,0,1 @ F,0,0,1,0,1.0583333,0,1 @ F,0,0,1,0,1.0583333,0,1 @ F,0,0,1,0,1.0583333,0,1 @ F,0,0,1,0,1.0583333,0,1 @ F,0,0,1,0,1.0583333,0,1 @ F,0,0,1,0,1.0583333,0,1 @ F,0,0,1,0,1.0583333,0,1 @ F,0,0,1,0,1.0583333,0,1 | F,0,0,1,0,1.0583333,0,1 @ F,0,0,1,0,1.0583333,0,1 @ F,0,0,1,0,1.0583333,0,1 @ F,0,0,1,0,1.0583333,0,1 @ F,0,0,1,0,1.0583333,0,1 @ F,0,0,1,0,1.0583333,0,1 @ F,0,0,1,0,1.0583333,0,1 @ F,0,0,1,0,1.0583333,0,1 @ F,0,0,1,0,1.0583333,0,1 @ F,0,0,1,0,1.0583333,0,1"
       unit="px"
       method="auto"
       mode="F"
       radius="4"
       chamfer_steps="1"
       flexible="false"
       use_knot_distance="true"
       apply_no_radius="true"
       apply_with_radius="true"
       only_selected="false"
       hide_knots="false" /><inkscape:path-effect
       effect="fillet_chamfer"
       id="path-effect1938"
       is_visible="true"
       lpeversion="1"
       nodesatellites_param="F,0,0,1,0,0,0,1 @ F,0,0,1,0,0,0,1 @ F,0,0,1,0,0,0,1 @ F,0,0,1,0,0,0,1"
       unit="px"
       method="auto"
       mode="F"
       radius="0"
       chamfer_steps="1"
       flexible="false"
       use_knot_distance="true"
       apply_no_radius="true"
       apply_with_radius="true"
       only_selected="false"
       hide_knots="false" /><inkscape:path-effect
       effect="fillet_chamfer"
       id="path-effect2123"
       is_visible="true"
       lpeversion="1"
       nodesatellites_param="F,0,0,1,0,0.79375,0,1 @ F,0,0,1,0,0.79375,0,1 @ F,0,0,1,0,0.79375,0,1 @ F,0,0,1,0,0.79375,0,1 | F,0,0,1,0,0.79375,0,1 @ F,0,0,1,0,0.79375,0,1 @ F,0,0,1,0,0.79375,0,1 | F,0,0,1,0,0.79375,0,1 @ F,0,0,1,0,0.79375,0,1 @ F,0,0,1,0,0.79375,0,1 | F,0,0,1,0,0.79375,0,1 @ F,0,0,1,0,0.79375,0,1 @ F,0,0,1,0,0.79375,0,1 | F,0,0,1,0,0.79375,0,1 @ F,0,0,1,0,0.79375,0,1 @ F,0,0,1,0,0.79375,0,1 | F,0,0,1,0,0.79375,0,1 @ F,0,0,1,0,0.79375,0,1 @ F,0,0,1,0,0.79375,0,1 | F,0,0,1,0,0.79375,0,1 @ F,0,0,1,0,0.79375,0,1 @ F,0,0,1,0,0.79375,0,1 @ F,0,0,1,0,0.79375,0,1 | F,0,0,1,0,0.79375,0,1 @ F,0,0,1,0,0.79375,0,1 @ F,0,0,1,0,0.79375,0,1 @ F,0,0,1,0,0.79375,0,1 | F,0,0,1,0,0.79375,0,1 @ F,0,0,1,0,0.79375,0,1 @ F,0,0,1,0,0.79375,0,1 | F,0,0,1,0,0.79375,0,1 @ F,0,0,1,0,0.79375,0,1 @ F,0,0,1,0,0.79375,0,1 | F,0,0,1,0,0.79375,0,1 @ F,0,0,1,0,0.79375,0,1 @ F,0,0,1,0,0.79375,0,1 | F,0,0,1,0,0.79375,0,1 @ F,0,0,1,0,0.79375,0,1 @ F,0,0,1,0,0.79375,0,1 | F,0,0,1,0,0.79375,0,1 @ F,0,0,1,0,0.79375,0,1 @ F,0,0,1,0,0.79375,0,1 | F,0,0,1,0,0.79375,0,1 @ F,0,0,1,0,0.79375,0,1 @ F,0,0,1,0,0.79375,0,1 @ F,0,0,1,0,0.79375,0,1"
       unit="px"
       method="auto"
       mode="F"
       radius="3"
       chamfer_steps="1"
       flexible="false"
       use_knot_distance="true"
       apply_no_radius="true"
       apply_with_radius="true"
       only_selected="false"
       hide_knots="false" /><inkscape:path-effect
       effect="fillet_chamfer"
       id="path-effect2121"
       is_visible="true"
       lpeversion="1"
       nodesatellites_param="F,0,0,1,0,1.0583333,0,1 @ F,0,0,1,0,1.0583333,0,1 @ F,0,0,1,0,1.0583333,0,1 | F,0,0,1,0,1.0583333,0,1 @ F,0,0,1,0,1.0583333,0,1 @ F,0,0,1,0,1.0583333,0,1"
       unit="px"
       method="auto"
       mode="F"
       radius="4"
       chamfer_steps="1"
       flexible="false"
       use_knot_distance="true"
       apply_no_radius="true"
       apply_with_radius="true"
       only_selected="false"
       hide_knots="false" /></defs><g
     inkscape:groupmode="layer"
     id="layer3"
     inkscape:label="final"
     style="display:inline"
     transform="translate(-4.7118749,-56.77848)"><path
       id="path1965"
       style="display:inline;fill:#ffffff;fill-opacity:0.97923899;stroke-width:3.56352;stroke-linecap:square;stroke-linejoin:bevel;stroke-miterlimit:2.6;stroke-dasharray:27.6175, 8.90878;stroke-dashoffset:34.5663"
       inkscape:label="big circly"
       d="m 104.92361,100.27878 a 54.000468,54.000468 0 0 0 -13.757501,1.82383 l 6.552067,11.31051 a 41.530895,41.530895 0 0 1 7.205434,-0.66479 41.530895,41.530895 0 0 1 3.66054,0.16353 l 6.71818,-11.59741 a 54.000468,54.000468 0 0 0 -10.37872,-1.03567 z m 10.93154,1.1642 -6.68834,11.54549 a 41.530895,41.530895 0 0 1 2.9685,0.39078 l 6.53624,-11.28253 a 54.000468,54.000468 0 0 0 -2.8164,-0.65374 z m 4.12093,1.00326 -6.50494,11.22912 a 41.530895,41.530895 0 0 1 32.98356,40.60369 41.530895,41.530895 0 0 1 -2.12253,13.09972 h 12.97672 a 54.000468,54.000468 0 0 0 1.61537,-13.09972 54.000468,54.000468 0 0 0 -38.94818,-51.83281 z m -30.101238,0.0287 a 54.000468,54.000468 0 0 0 -2.509601,0.77711 l 6.396285,11.04164 a 41.530895,41.530895 0 0 1 2.592839,-0.63347 z m -3.031115,0.95979 a 54.000468,54.000468 0 0 0 -35.920752,50.84429 54.000468,54.000468 0 0 0 13.226791,35.337 l 6.711913,-11.58637 a 41.530895,41.530895 0 0 1 -7.46877,-23.75063 41.530895,41.530895 0 0 1 29.838265,-39.8181 z m 57.068213,65.14652 a 41.530895,41.530895 0 0 1 -1.04966,2.55048 h 13.32624 a 54.000468,54.000468 0 0 0 0.80474,-2.55048 z m -1.30856,3.13314 a 41.530895,41.530895 0 0 1 -5.82027,9.13422 l 6.55576,11.31641 a 54.000468,54.000468 0 0 0 12.66587,-20.45065 z m -71.385556,6.78226 -6.683554,11.53738 a 54.000468,54.000468 0 0 0 1.960469,2.13138 l 6.539545,-11.28843 a 41.530895,41.530895 0 0 1 -1.81646,-2.38033 z m 2.734268,3.39794 -6.50272,11.22545 a 54.000468,54.000468 0 0 0 37.474238,15.15963 54.000468,54.000468 0 0 0 32.14567,-10.65567 l -6.30126,-10.87741 a 41.530895,41.530895 0 0 1 -25.84441,9.06352 41.530895,41.530895 0 0 1 -30.971518,-13.91551 z m 61.940098,0.0174 a 41.530895,41.530895 0 0 1 -4.68994,4.50213 l 6.302,10.87849 a 54.000468,54.000468 0 0 0 4.86193,-4.20489 z" /><path
       id="path1920"
       style="display:inline;fill:#ffffff;fill-opacity:0.97923899;stroke-width:3.56352;stroke-linecap:square;stroke-linejoin:bevel;stroke-miterlimit:2.6;stroke-dasharray:27.6175, 8.90878;stroke-dashoffset:34.5663"
       inkscape:label="spikies"
       d="m 114.23605,87.319663 -12.07463,11.244761 c -0.3208,0.298758 -0.22643,0.514953 0.21123,0.489896 0.58536,-0.03351 1.17122,-0.05772 1.75735,-0.0726 0.43823,-0.01113 1.14901,-0.01498 1.58733,-0.0086 5.92627,0.0862 11.80024,1.124339 17.39705,3.074699 0.41395,0.14426 0.56883,-0.0405 0.34826,-0.41939 L 115.2163,87.464671 a 0.63417243,0.63417243 8.4147542 0 0 -0.98025,-0.145008 z m -30.404168,2.43714 -6.1888,15.877797 c -0.159203,0.40845 0.01944,0.56172 0.402449,0.34848 6.330525,-3.52464 13.292025,-5.77119 20.488679,-6.611902 0.435411,-0.05087 0.494519,-0.285334 0.131232,-0.530682 L 84.777934,89.461488 a 0.63433824,0.63433824 162.66402 0 0 -0.946052,0.295315 z m 58.657138,8.082702 -15.88152,5.006355 c -0.4181,0.1318 -0.42781,0.37252 -0.0244,0.54413 6.55518,2.78888 12.51002,6.81788 17.53702,11.86541 0.30935,0.31061 0.52826,0.21213 0.49396,-0.22491 l -1.30589,-16.638308 a 0.63127878,0.63127878 34.007863 0 0 -0.81914,-0.552677 z m -84.087345,6.940755 1.251524,16.92283 c 0.03233,0.43718 0.262519,0.50056 0.51984,0.14565 4.268526,-5.88726 9.656176,-10.87514 15.854432,-14.67801 0.37365,-0.22925 0.328121,-0.46327 -0.105345,-0.5287 l -16.794133,-2.53489 a 0.6334949,0.6334949 137.1769 0 0 -0.726318,0.67312 z m 88.100165,13.02732 c 4.75329,5.41734 8.40212,11.71154 10.74119,18.52844 0.14228,0.41464 0.38143,0.42155 0.54083,0.0132 l 6.10745,-15.64754 a 0.63432954,0.63432954 59.951696 0 0 -0.49625,-0.85787 l -16.63613,-2.51062 c -0.43347,-0.0654 -0.54621,0.1449 -0.25709,0.47441 z m -88.825868,6.76836 -16.031433,5.05384 a 0.63417315,0.63417315 111.12616 0 0 -0.357148,0.92432 l 8.581238,14.71422 c 0.220845,0.37869 0.452643,0.33421 0.524669,-0.0982 1.191773,-7.15499 3.779295,-14.00584 7.615128,-20.16218 0.23182,-0.37206 0.08564,-0.5638 -0.332454,-0.432 z m 100.607238,15.14783 c 1.22494,4.48708 1.879,9.11078 1.9467,13.76156 0.006,0.43832 0.004,1.14911 -0.005,1.58739 -0.0393,1.91661 -0.17829,3.82988 -0.4163,5.73207 -0.0544,0.43498 0.15642,0.54526 0.47789,0.24722 l 12.26961,-11.37516 a 0.62987936,0.62987936 85.60009 0 0 -0.0757,-0.9839 l -13.75419,-9.28913 c -0.36329,-0.24535 -0.55871,-0.10294 -0.44327,0.31995 z M 49.555418,147.55712 37.385397,158.891 a 0.63610815,0.63610815 85.745948 0 0 0.07364,0.99003 l 13.760385,9.44116 c 0.361474,0.24802 0.553325,0.10838 0.43527,-0.3138 -1.269407,-4.53951 -1.953337,-9.22269 -2.035157,-13.93564 -0.0076,-0.4383 -0.0065,-1.14909 0.0026,-1.58737 0.03917,-1.89988 0.176222,-3.79649 0.41061,-5.68226 0.05407,-0.43503 -0.15651,-0.54477 -0.477313,-0.246 z M 159.3264,164.24575 c -1.32545,7.19685 -4.06589,14.05929 -8.06246,20.18946 -0.23941,0.36722 -0.0988,0.5567 0.32,0.42707 l 16.47499,-5.10001 a 0.63127745,0.63127745 111.29514 0 0 0.35887,-0.92067 l -8.55386,-14.69153 c -0.22057,-0.37884 -0.45814,-0.33545 -0.53754,0.0957 z m -107.407421,7.38581 -6.382156,16.3739 a 0.63350463,0.63350463 59.888576 0 0 0.496805,0.85664 l 17.250044,2.57266 c 0.43358,0.0647 0.545452,-0.14539 0.255119,-0.47384 -4.967297,-5.61937 -8.73995,-12.19041 -11.088423,-19.31333 -0.137266,-0.41633 -0.372186,-0.42448 -0.531389,-0.016 z m 97.804811,15.01072 c -4.29282,5.93947 -9.72325,10.96676 -15.97558,14.78959 -0.37401,0.22867 -0.32866,0.4616 0.10492,0.52626 l 17.00659,2.53621 a 0.63173305,0.63173305 136.9978 0 0 0.72298,-0.67424 l -1.33649,-17.03313 c -0.0343,-0.43703 -0.26563,-0.49998 -0.52242,-0.14469 z m -84.78329,6.54308 1.279119,17.2915 a 0.6317232,0.6317232 34.284606 0 0 0.816809,0.55687 l 16.697817,-5.16887 c 0.418771,-0.12963 0.42775,-0.36539 0.02272,-0.53308 -6.877666,-2.84749 -13.109943,-7.05404 -18.323204,-12.36746 -0.307013,-0.31291 -0.5256,-0.21614 -0.49326,0.22104 z m 66.32866,9.69772 c -6.45883,3.50853 -13.55234,5.69458 -20.86567,6.43031 -0.43617,0.0439 -0.49727,0.27483 -0.13579,0.52283 l 14.20012,9.7425 a 0.62988278,0.62988278 162.8873 0 0 0.94312,-0.29037 l 6.26436,-16.04972 c 0.15939,-0.40837 -0.0209,-0.5648 -0.40614,-0.35555 z m -45.626542,3.72551 8.551007,14.66156 a 0.63613336,0.63613336 8.4578078 0 0 0.981985,0.14602 l 12.31341,-11.41533 c 0.32148,-0.29804 0.2276,-0.51427 -0.2101,-0.48999 -0.52024,0.0289 -1.04087,0.0504 -1.56173,0.0645 -0.43821,0.0119 -1.14898,0.0156 -1.58729,0.008 -6.194709,-0.10315 -12.328149,-1.24635 -18.144055,-3.38184 -0.411509,-0.1511 -0.564082,0.028 -0.343227,0.40673 z"
       inkscape:path-effect="#path-effect2123"
       inkscape:original-d="m 114.81692,86.778713 -13.23637,12.326661 a 55.312133,55.312133 0 0 1 3.34306,-0.138112 55.312133,55.312133 0 0 1 18.93841,3.347118 z M 84.120144,89.017246 77.35482,106.37416 a 55.312133,55.312133 0 0 1 21.968412,-7.089422 z m 59.125906,8.58362 -17.39558,5.483634 a 55.312133,55.312133 0 0 1 18.82569,12.73731 z m -84.902917,6.387804 1.368608,18.50601 A 55.312133,55.312133 0 0 1 76.706986,106.7605 Z m 87.630937,13.22605 a 55.312133,55.312133 0 0 1 11.52118,19.8739 l 6.68467,-17.12638 z m -87.541074,7.12257 -17.545481,5.53114 9.38099,16.08556 a 55.312133,55.312133 0 0 1 8.164491,-21.6167 z m 99.635694,14.62228 a 55.312133,55.312133 0 0 1 2.16708,15.31948 55.312133,55.312133 0 0 1 -0.53108,7.31261 l 13.43377,-12.45446 z m -107.932407,8.05659 -13.331751,12.4158 15.069399,10.3393 a 55.312133,55.312133 0 0 1 -2.262477,-15.49221 55.312133,55.312133 0 0 1 0.524829,-7.26289 z m 109.328277,16.44796 a 55.312133,55.312133 0 0 1 -8.63887,21.63288 l 17.99149,-5.56945 z m -107.257319,7.42788 -6.95868,17.85302 18.820178,2.80682 A 55.312133,55.312133 0 0 1 52.207241,170.892 Z m 97.976879,15.10365 a 55.312133,55.312133 0 0 1 -17.11606,15.8454 l 18.57673,2.77037 z m -85.302177,6.39812 1.396233,18.87468 18.214321,-5.63831 A 55.312133,55.312133 0 0 1 64.881943,192.39377 Z m 67.081957,10.10544 a 55.312133,55.312133 0 0 1 -22.35072,6.88796 l 15.50916,10.6406 z m -46.721175,3.42372 9.350793,16.03288 13.477592,-12.49461 a 55.312133,55.312133 0 0 1 -3.1475,0.13002 55.312133,55.312133 0 0 1 -19.680885,-3.66829 z" /><path
       id="path1971"
       style="display:inline;fill:#ffffff;fill-opacity:0.97923899;stroke-width:3.56352;stroke-linecap:square;stroke-linejoin:bevel;stroke-miterlimit:2.6;stroke-dasharray:27.6175, 8.90878;stroke-dashoffset:34.5663"
       inkscape:label="smul circle"
       d="m 104.92361,114.08821 c -1.03893,5.2e-4 -2.07745,0.0413 -3.11324,0.12229 l 4.9216,8.49596 4.6568,-8.03817 c -0.76959,-0.12996 -1.54298,-0.23551 -2.6083,-0.37127 -1.06531,-0.13576 -2.4606,-0.20867 -3.85686,-0.20881 z m -3.70179,0.18857 c -0.93489,0.0883 -1.866402,0.20927 -2.79282,0.36279 l 6.48798,11.20003 1.50156,-2.59175 z m 11.54218,0.61912 -5.27811,9.11177 25.12437,43.3711 h 10.30728 c 1.4539,-4.21447 2.19647,-8.64151 2.19729,-13.09972 -0.0172,-19.16086 -13.5581,-35.64531 -32.35083,-39.38315 z m -17.86848,0.49684 c -17.742603,4.57152 -30.14773,20.56421 -30.163103,38.88631 0.0082,3.32476 0.428971,6.6357 1.252588,9.85685 h 10.885133 l 23.130772,-39.93009 z m 12.27695,9.15596 -1.50157,2.5921 23.30938,40.23797 h 3.00315 z m -6.85778,0.19888 -22.817699,39.38832 h 5.235394 l 20.199835,-34.86999 z m -34.154004,40.04426 c 0.236669,0.87102 0.502608,1.73382 0.797369,2.58693 h 13.89563 l 1.498614,-2.58693 z m 1.256643,3.78944 c 1.523758,3.98325 3.671809,7.69865 6.363499,11.00668 l 6.376394,-11.00668 z m 14.24735,0 -1.477623,2.55047 h 49.460224 l -1.47761,-2.55047 z m 48.012441,0 1.47726,2.55047 h 3.00348 l -1.47762,-2.55047 z m 3.62997,0 1.47725,2.55047 h 6.59554 c 0.38853,-0.83752 0.74807,-1.6882 1.07802,-2.55047 z m -53.457395,3.13313 -5.173523,8.93019 c 7.613372,8.75955 18.641731,13.80045 30.247438,13.82565 11.67028,-1e-4 22.68629,-5.07045 30.27213,-13.76046 l -5.21109,-8.99538 z m 51.642415,0 4.59713,7.93616 c 0.59063,-0.72569 1.1609,-1.47184 1.70375,-2.24332 l -3.29776,-5.69284 z m 3.62997,0 3.01049,5.19709 c 1.11641,-1.65624 2.1078,-3.39342 2.96593,-5.19709 z"
       sodipodi:nodetypes="cccccccccccccccccccccccccccccccccccccccccccccccccccccccccccccccccccccccc" /><path
       id="path1950"
       style="display:inline;fill:#ffffff;fill-opacity:0.97923899;stroke-width:3.56352;stroke-linecap:square;stroke-linejoin:bevel;stroke-miterlimit:2.6;stroke-dasharray:27.6175, 8.90878;stroke-dashoffset:34.5663"
       inkscape:transform-center-y="-6.3774538"
       d="m 104.31711,145.72621 -7.231753,12.52586 a 0.61103172,0.61103172 59.99989 0 0 0.52917,0.91655 h 14.463503 a 0.61103121,0.61103121 120.00009 0 0 0.52917,-0.91655 l -7.23177,-12.52586 a 0.61102412,0.61102412 179.99998 0 0 -1.05832,0 z m 1.05832,5.07444 2.8372,4.9142 a 0.61103089,0.61103089 120.00008 0 1 -0.52917,0.91654 h -5.67401 a 0.61105991,0.61105991 59.998746 0 1 -0.5292,-0.91657 l 2.83689,-4.91414 a 0.61099624,0.61099624 179.99882 0 1 1.05829,-3e-5 z"
       inkscape:label="triangle"
       inkscape:path-effect="#path-effect2121"
       inkscape:original-d="m 104.84627,144.80966 -8.290076,14.35896 h 16.580166 z m 0,5.07445 3.89552,6.74728 h -7.79067 z" /><path
       style="color:#000000;display:inline;opacity:1;fill:#ffffff;fill-opacity:1;stroke-linecap:square;stroke-linejoin:bevel;stroke-miterlimit:2.6;stroke-dasharray:38.75, 12.5;stroke-dashoffset:48.5;-inkscape-stroke:none"
       d="m 98.851151,56.812071 c -0.503528,0.03152 -1.621196,0.100121 -2.495243,0.16882 -3.143798,0.247099 -6.275599,0.643725 -9.382352,1.187872 -0.863595,0.151258 -1.561447,0.28542 -1.561447,0.284315 -9.370956,1.937685 -16.984092,4.51553 -24.179901,7.9695 -0.790405,0.379391 -2.06139,1.016103 -2.845718,1.407924 a 1.2942878,1.2942878 93.326402 0 0 -0.106226,1.827635 l 0.816425,1.63285 a 1.5869462,1.5869462 18.424943 0 0 2.129607,0.709456 c 0.451046,-0.22572 1.451809,-0.727839 2.242555,-1.106514 6.784248,-3.248864 13.963178,-5.677838 21.326118,-7.217114 0.858188,-0.179411 1.557488,-0.311628 1.558593,-0.311628 4.459858,-0.790671 7.381733,-1.160494 10.314943,-1.393461 0.873988,-0.06941 2.292854,-0.156802 3.167893,-0.211578 a 1.2950665,1.2950665 116.33376 0 0 0.812462,-1.641465 l -0.11407,-1.821397 a 1.5875557,1.5875557 41.417084 0 0 -1.683639,-1.485215 z m 9.299729,1.492899 -0.11622,1.821676 a 1.5869209,1.5869209 48.639877 0 0 1.48325,1.684773 c 0.50249,0.03187 1.61927,0.101666 2.49316,0.172342 7.15771,0.578879 14.25064,1.976003 21.08847,4.162441 0.83508,0.267024 1.50878,0.496364 1.50988,0.496364 4.59234,1.62697 7.62706,2.894411 10.58691,4.317565 0.79015,0.37992 2.06008,1.018757 2.84372,1.411947 a 1.2947137,1.2947137 146.53179 0 0 1.52741,-1.009749 l 0.81831,-1.630932 a 1.587498,1.587498 71.645119 0 0 -0.70697,-2.130843 c -0.45038,-0.225978 -1.45015,-0.729186 -2.23997,-1.109806 -3.16707,-1.526248 -6.41515,-2.883182 -9.72634,-4.063508 -0.82584,-0.294385 -1.50045,-0.521002 -1.50155,-0.521002 -8.76383,-2.824135 -16.2862,-4.305809 -23.8795,-4.913389 -0.87395,-0.06993 -2.29271,-0.158912 -3.16771,-0.214369 a 1.2956529,1.2956529 123.5649 0 0 -1.01285,1.52649 z M 49.496633,73.062881 c -0.418836,0.281325 -1.349003,0.904814 -2.068634,1.405622 -1.643433,1.143705 -3.251485,2.33712 -4.822513,3.577211 -0.688181,0.543216 -1.790126,1.441363 -2.460833,2.006012 -6.984874,5.880371 -13.158434,12.71829 -18.293691,20.269124 -0.493047,0.72497 -1.272739,1.91361 -1.754478,2.64616 a 1.293858,1.293858 63.172156 0 0 0.825983,1.6332 l 1.52616,1.00269 a 1.5864656,1.5864656 168.28658 0 0 2.197594,-0.45563 c 0.276294,-0.42113 0.889373,-1.35736 1.383052,-2.0819 4.852826,-7.122167 10.685134,-13.581521 17.274019,-19.138123 0.670224,-0.565221 1.772175,-1.463379 2.46088,-2.00593 1.452158,-1.143989 2.937192,-2.24531 4.45321,-3.30196 0.71927,-0.501324 1.89997,-1.293012 2.627782,-1.781872 A 1.294865,1.294865 86.020665 0 0 52.71807,75.010486 l -1.018171,-1.515137 a 1.5878455,1.5878455 11.105131 0 0 -2.203266,-0.432468 z m 107.465387,0.516967 -1.01974,1.512159 a 1.5880169,1.5880169 79.003612 0 0 0.42831,2.204202 c 0.41773,0.281905 1.34639,0.906804 2.06482,1.409332 7.05511,4.934917 13.436,10.837995 18.90788,17.486105 0.55716,0.676935 1.44208,1.789546 1.97642,2.484641 1.13215,1.472763 2.22133,2.978453 3.26448,4.514603 0.49254,0.72532 1.26989,1.91551 1.75004,2.64909 a 1.2947712,1.2947712 176.68545 0 0 1.82802,-0.10586 l 1.52706,-0.99951 a 1.5874992,1.5874992 101.79405 0 0 0.45888,-2.19766 c -0.27601,-0.42169 -0.88792,-1.35898 -1.37975,-2.08477 -1.12852,-1.665305 -2.30755,-3.296144 -3.53423,-4.889509 -0.53484,-0.694713 -1.41975,-1.807314 -1.97634,-2.48472 -5.79088,-7.047807 -12.54733,-13.297191 -20.02715,-18.519457 -0.71887,-0.501901 -1.89825,-1.295536 -2.62532,-1.785505 a 1.2947557,1.2947557 153.85008 0 0 -1.64338,0.806859 z M 15.033983,111.95681 c -0.220486,0.45318 -0.711399,1.45911 -1.082239,2.25356 -1.487277,3.18621 -2.804134,6.4518 -3.943504,9.77788 -0.2841257,0.82942 -0.7232965,2.18149 -0.9806666,3.01961 -2.2369727,7.28461 -3.6234776,14.82493 -4.1380458,22.42506 -0.059225,0.87474 -0.1317871,2.29443 -0.1776527,3.16999 a 1.2943623,1.2943623 32.896212 0 0 1.5375764,0.99455 l 1.823363,0.0941 a 1.5874656,1.5874656 137.95462 0 0 1.6671993,-1.50355 c 0.026011,-0.50406 0.082406,-1.62259 0.1423934,-2.49728 0.49137,-7.16479 1.800006,-14.27508 3.901655,-21.13975 0.256659,-0.83833 0.695846,-2.1904 0.980689,-3.01958 1.067065,-3.10624 2.297174,-6.15631 3.683697,-9.13328 0.370163,-0.79477 0.993364,-2.07244 1.376944,-2.86083 A 1.2947578,1.2947578 55.834769 0 0 18.7971,112.02227 l -1.641075,-0.79844 a 1.5875018,1.5875018 160.94451 0 0 -2.122042,0.73298 z m 176.410467,-0.59461 -1.64085,0.79513 a 1.5877729,1.5877729 109.15077 0 0 -0.73657,2.121 c 0.21971,0.45359 0.7091,1.4603 1.07799,2.25566 3.1678,6.83001 5.50942,14.04634 6.95745,21.43493 0.16862,0.86037 0.41844,2.25986 0.55804,3.12542 0.46745,2.89812 0.79962,5.81889 0.99634,8.74865 0.0587,0.87477 0.12925,2.29457 0.17378,3.17019 a 1.2949913,1.2949913 26.97732 0 0 1.6318,0.83063 l 1.82123,-0.0919 a 1.5881217,1.5881217 132.1219 0 0 1.50608,-1.66553 c -0.0252,-0.50291 -0.0801,-1.62054 -0.13813,-2.49536 -0.20828,-3.13934 -0.56463,-6.26924 -1.06852,-9.37569 -0.14037,-0.86543 -0.39019,-2.26491 -0.55805,-3.12543 -1.52947,-7.84082 -4.01168,-15.49154 -7.37938,-22.73588 -0.36959,-0.79503 -0.9911,-2.07352 -1.37386,-2.86232 a 1.2957186,1.2957186 4.0531495 0 0 -1.82735,-0.12948 z m 7.41447,46.68565 c -0.0138,0.5043 -0.0431,1.62367 -0.0817,2.49956 -0.31672,7.17425 -1.44788,14.31432 -3.3783,21.22807 -0.23578,0.84445 -0.64131,2.207 -0.90553,3.04298 -0.99011,3.13267 -2.14483,6.2129 -3.45789,9.22401 -0.35045,0.80366 -0.94163,2.09646 -1.30526,2.89425 a 1.2957918,1.2957918 54.439125 0 0 1.06538,1.49025 l 1.65872,0.75739 a 1.5875488,1.5875488 159.54299 0 0 2.10351,-0.78467 c 0.20967,-0.45914 0.67597,-1.47741 1.02706,-2.28079 1.40843,-3.22286 2.64352,-6.52027 3.70021,-9.87445 0.26344,-0.83622 0.66897,-2.19876 0.90551,-3.04299 2.05574,-7.33715 3.25575,-14.90824 3.5853,-22.51731 0.0379,-0.87592 0.0761,-2.29696 0.1007,-3.17336 a 1.2941739,1.2941739 31.494592 0 0 -1.56123,-0.95652 l -1.82613,-0.0499 a 1.5875249,1.5875249 136.56677 0 0 -1.63033,1.54352 z m -190.7037145,3.02957 -1.8201766,0.13617 a 1.5868364,1.5868364 130.70943 0 0 -1.4639768,1.70147 c 0.037778,0.50212 0.1200466,1.61808 0.1993215,2.49124 0.2857578,3.14739 0.7214846,6.28129 1.3054845,9.38751 0.1619975,0.86164 0.3049095,1.55775 0.3038325,1.55775 2.0536001,9.33968 4.7231244,16.91297 8.2625354,24.05971 0.389101,0.78567 1.041803,2.04852 1.443727,2.82772 a 1.2952917,1.2952917 2.6374361 0 0 1.829725,0.0843 l 1.621384,-0.83599 a 1.5883351,1.5883351 107.7393 0 0 0.684221,-2.13888 c -0.23073,-0.44807 -0.74471,-1.44245 -1.133113,-2.22846 -3.329722,-6.73838 -5.84667,-13.88067 -7.476953,-21.21777 -0.190172,-0.85587 -0.474991,-2.24866 -0.636235,-3.11045 -0.542233,-2.89803 -0.948591,-5.82223 -1.217625,-8.75853 -0.079995,-0.87309 -0.1848959,-2.29076 -0.2506736,-3.16505 A 1.2949971,1.2949971 25.585079 0 0 8.1552055,161.07742 Z M 185.11672,205.44183 c -0.26618,0.42801 -0.85633,1.37919 -1.33208,2.11563 -4.68576,7.25328 -10.37178,13.86417 -16.83904,19.58795 -0.65653,0.58106 -1.73672,1.50528 -2.41216,2.06425 -1.41126,1.1679 -2.85589,2.29536 -4.33189,3.37923 -0.70668,0.51892 -1.86753,1.33944 -2.58305,1.84612 a 1.2945455,1.2945455 84.59261 0 0 0.17256,1.82303 l 1.0546,1.48783 a 1.5892292,1.5892292 9.7017856 0 0 2.21416,0.37855 c 0.41139,-0.29093 1.32564,-0.93658 2.03272,-1.45496 1.60013,-1.1731 3.16442,-2.39447 4.69136,-3.66042 0.67494,-0.55958 1.75512,-1.48379 2.41216,-2.06429 6.85595,-6.05724 12.87488,-13.0544 17.8333,-20.74435 0.47511,-0.73685 1.2253,-1.94433 1.6888,-2.68855 a 1.294762,1.294762 61.822203 0 0 -0.86479,-1.61433 l -1.55049,-0.96496 a 1.5869701,1.5869701 166.88676 0 0 -2.18616,0.50927 z m -161.481614,3.37821 -1.502634,1.03766 a 1.5876586,1.5876586 100.37561 0 0 -0.404357,2.20846 c 0.286078,0.41436 0.920641,1.336 1.43021,2.04946 1.158463,1.62197 2.365709,3.20848 3.618788,4.75763 0.55138,0.68166 1.462631,1.77279 2.03524,2.43672 5.969107,6.92104 12.886725,13.01883 20.507544,18.06626 0.730957,0.48413 1.92953,1.24848 2.668478,1.72033 a 1.2958177,1.2958177 152.49469 0 0 1.624815,-0.84601 l 0.982604,-1.53626 a 1.5880194,1.5880194 77.612765 0 0 -0.481685,-2.19316 c -0.424388,-0.27163 -1.367986,-0.87361 -2.098527,-1.35836 -7.188227,-4.76977 -13.724241,-10.52973 -19.364813,-17.05833 -0.573185,-0.66343 -1.484442,-1.75457 -2.035278,-2.43667 -1.156177,-1.43169 -2.270869,-2.8964 -3.341357,-4.39241 -0.510199,-0.713 -1.31636,-1.88387 -1.81417,-2.60559 a 1.2943858,1.2943858 175.29244 0 0 -1.824858,0.15027 z m 125.722554,30.65491 c -0.44456,0.23604 -1.43201,0.76209 -2.21317,1.16017 -6.86692,3.49941 -14.16921,6.15086 -21.68192,7.86973 -0.85466,0.19554 -1.55136,0.34085 -1.55246,0.34085 -4.26265,0.83879 -6.99196,1.24389 -9.73416,1.52888 -0.87204,0.0906 -2.28837,0.21241 -3.16183,0.28839 a 1.2952435,1.2952435 114.95902 0 0 -0.77297,1.66074 l 0.15823,1.81743 a 1.5874966,1.5874966 40.024424 0 0 1.7192,1.44383 c 0.50188,-0.0437 1.61695,-0.13937 2.48908,-0.22919 2.94405,-0.30322 5.87458,-0.73737 8.77982,-1.30208 0.86063,-0.16729 2.25161,-0.4608 3.10644,-0.65559 7.97237,-1.8166 15.71483,-4.62758 22.99655,-8.34635 0.78081,-0.39877 2.03566,-1.06672 2.81003,-1.47788 a 1.2941763,1.2941763 91.88566 0 0 0.0602,-1.82939 l -0.85625,-1.61203 a 1.5877482,1.5877482 17.0286 0 0 -2.14681,-0.65751 z m -88.298599,2.81044 -0.778278,1.64992 a 1.5872374,1.5872374 70.248823 0 0 0.758625,2.11281 c 0.456101,0.21505 1.468206,0.69367 2.267182,1.05466 3.204483,1.44784 6.48586,2.72372 9.825933,3.82175 0.832891,0.27381 2.190292,0.69621 3.031522,0.94321 7.31201,2.14695 14.869054,3.44143 22.474871,3.86356 0.875395,0.0486 2.295894,0.10312 3.171984,0.13738 a 1.2951956,1.2951956 122.14507 0 0 0.97439,-1.5506 l 0.072,-1.82358 a 1.5868468,1.5868468 47.249234 0 0 -1.52366,-1.64824 c -0.50356,-0.0197 -1.622058,-0.0623 -2.497411,-0.11163 -7.170245,-0.40404 -14.295734,-1.62454 -21.185644,-3.64091 -0.841447,-0.24625 -2.198861,-0.66865 -3.031495,-0.94323 -3.119587,-1.02877 -6.185243,-2.2217 -9.179414,-3.57164 -0.799263,-0.36035 -2.084695,-0.96738 -2.877969,-1.34076 a 1.2956804,1.2956804 145.12451 0 0 -1.502636,1.0473 z"
       id="circle2062"
       inkscape:original-d="m 100.43555,56.712891 -2.496097,0.15625 c -4.203639,0.262921 -8.389783,0.79316 -12.527344,1.585937 v -0.002 c -8.879439,1.699198 -17.519312,4.624844 -25.605468,8.667969 l -2.236329,1.117187 2.236329,4.472656 2.236328,-1.11914 c 7.674253,-3.837171 15.881349,-6.613898 24.308593,-8.226563 h 0.002 c 3.928727,-0.752764 7.905142,-1.256094 11.898437,-1.505859 l 2.496101,-0.15625 z m 7.8164,0.0078 -0.31836,4.990234 2.49414,0.158204 c 8.22256,0.525659 16.37828,2.131373 24.17969,4.773437 h 0.002 c 4.1139,1.392295 8.13059,3.069716 12.01172,5.017578 l 2.23438,1.121094 2.24219,-4.46875 -2.23438,-1.121094 c -4.08826,-2.051816 -8.31819,-3.818889 -12.65039,-5.285156 h -0.002 c -8.22089,-2.783949 -16.80468,-4.473833 -25.46289,-5.027344 z m -57.437497,15.457031 -2.076172,1.394532 c -2.54065,1.707842 -4.999639,3.533721 -7.371094,5.466796 -7.898512,6.437142 -14.803129,14.084311 -20.398437,22.60157 l -1.373047,2.08789 4.179688,2.74609 1.371093,-2.08984 c 5.312745,-8.087135 11.877554,-15.357246 19.378907,-21.47071 2.253794,-1.837165 4.590232,-3.570231 7.001953,-5.191406 l 2.076172,-1.394531 z m 107.035157,0.08594 -2.79492,4.144531 2.07226,1.398438 c 8.0144,5.406931 15.19683,12.051958 21.21485,19.61914 1.81539,2.282264 3.52698,4.647449 5.12304,7.085939 l 1.36914,2.0918 4.1836,-2.73829 -1.36914,-2.09179 C 185.96695,99.204443 184.16602,96.713905 182.25586,94.3125 175.91909,86.344521 168.3622,79.354445 159.92187,73.660156 Z M 15.728516,110.5293 l -1.09375,2.24804 c -2.001478,4.11363 -3.7163,8.36642 -5.1289066,12.7168 -2.6820949,8.25496 -4.2629792,16.85924 -4.7109375,25.52344 l -0.1308594,2.49804 4.9941406,0.25782 0.1289063,-2.49805 c 0.4254516,-8.22888 1.9292006,-16.40453 4.4746096,-24.23828 1.341232,-4.13057 2.969386,-8.16771 4.86914,-12.07227 l 1.09375,-2.24804 z m 177.144534,0.14062 -4.49805,2.17969 1.08984,2.25 c 3.74518,7.72696 6.42175,15.97607 7.92969,24.42969 0.70229,3.93113 1.15427,7.90874 1.35547,11.89843 l 0.12695,2.4961 4.99219,-0.25196 -0.125,-2.49609 c -0.21176,-4.19892 -0.68809,-8.38519 -1.42773,-12.52539 -1.58882,-8.90696 -4.40523,-17.58849 -8.35157,-25.73047 z m 6.02929,45.79102 -0.0684,2.5 c -0.22558,8.23639 -1.5249,16.44642 -3.875,24.33984 -1.23875,4.16363 -2.76703,8.24028 -4.57031,12.19141 l -1.03711,2.27539 4.54688,2.07617 1.03906,-2.27539 c 1.89996,-4.16296 3.50783,-8.4566 4.8125,-12.8418 2.47661,-8.31836 3.84454,-16.95783 4.08203,-25.6289 l 0.0703,-2.5 z m -189.1640587,4.49804 -4.9863282,0.37305 0.1875,2.49219 c 0.3143445,4.20685 0.8964184,8.39386 1.7421875,12.52734 h -0.00195 c 1.8091699,8.85134 4.8390654,17.44664 8.9785154,25.47656 l 1.146484,2.22266 4.44336,-2.29101 -1.144531,-2.22266 c -3.92873,-7.62116 -6.806444,-15.78714 -8.523438,-24.1875 -0.803093,-3.92492 -1.355737,-7.90283 -1.6542966,-11.89844 z m 176.2167987,43.13477 -1.32031,2.12305 c -5.12148,8.22955 -11.52033,15.66852 -18.88672,21.9707 -2.19609,1.87923 -4.4767,3.66006 -6.83399,5.33008 l -2.04101,1.44531 2.89062,4.07813 2.04102,-1.44336 c 2.48294,-1.75905 4.88255,-3.63393 7.19336,-5.61133 7.75617,-6.63566 14.48658,-14.45904 19.88086,-23.12696 l 1.32226,-2.12304 z m -161.013674,3.82422 -4.115234,2.8418 1.419922,2.05664 c 1.733693,2.51196 3.583576,4.94195 5.539062,7.2832 6.536777,7.82791 14.272111,14.64727 22.865235,20.14258 l 2.107421,1.3457 2.69336,-4.21094 -2.105469,-1.34765 c -8.158855,-5.21759 -15.514466,-11.70034 -21.722656,-19.13477 -1.858445,-2.22506 -3.615894,-4.53332 -5.261719,-6.91797 z m 125.818364,30.8125 -2.20704,1.17187 c -7.74072,4.11194 -16.06456,7.13456 -24.64062,8.94336 h -0.002 c -3.73319,0.78817 -7.51328,1.34917 -11.31446,1.67969 l -2.49218,0.2168 0.43359,4.98047 2.49023,-0.2168 c 4.00285,-0.34806 7.98468,-0.93757 11.91602,-1.76758 9.03677,-1.90597 17.79931,-5.08751 25.95508,-9.41992 l 2.20703,-1.17188 z m -89.023442,2.11914 -2.132812,4.52148 2.261718,1.06641 c 4.138341,1.95077 8.411462,3.612 12.779297,4.9707 8.287828,2.57988 16.911164,4.05582 25.580079,4.39844 l 2.49805,0.0977 0.19726,-4.9961 -2.49804,-0.0976 c -8.233503,-0.32541 -16.426593,-1.72771 -24.291021,-4.17578 -4.147137,-1.29006 -8.204933,-2.86915 -12.132812,-4.72071 z"
       inkscape:path-effect="#path-effect2100"
       inkscape:label="circle" /></g></svg>
