<?xml version="1.0" encoding="UTF-8" standalone="no"?>
<!-- Created with Inkscape (http://www.inkscape.org/) -->

<svg
   width="193.85587mm"
   height="234.38969mm"
   viewBox="0 0 193.85587 234.38969"
   version="1.1"
   id="svg5"
   xml:space="preserve"
   sodipodi:docname="brittlehollow_wip.svg"
   inkscape:version="1.2 (dc2aedaf03, 2022-05-15)"
   inkscape:export-filename="brittlehollow_colours.svg"
   inkscape:export-xdpi="96"
   inkscape:export-ydpi="96"
   xmlns:inkscape="http://www.inkscape.org/namespaces/inkscape"
   xmlns:sodipodi="http://sodipodi.sourceforge.net/DTD/sodipodi-0.dtd"
   xmlns="http://www.w3.org/2000/svg"
   xmlns:svg="http://www.w3.org/2000/svg"><sodipodi:namedview
     id="namedview7"
     pagecolor="#505050"
     bordercolor="#ffffff"
     borderopacity="1"
     inkscape:showpageshadow="0"
     inkscape:pageopacity="0"
     inkscape:pagecheckerboard="1"
     inkscape:deskcolor="#505050"
     inkscape:document-units="mm"
     showgrid="false"
     inkscape:zoom="0.914906"
     inkscape:cx="284.1822"
     inkscape:cy="607.7127"
     inkscape:window-width="2498"
     inkscape:window-height="1417"
     inkscape:window-x="2552"
     inkscape:window-y="-8"
     inkscape:window-maximized="1"
     inkscape:current-layer="g3699" /><defs
     id="defs2" /><g
     inkscape:groupmode="layer"
     id="g3699"
     inkscape:label="drawing"
     inkscape:highlight-color="#8aed36"
     transform="translate(-8.5886232,-36.149215)"><g
       id="g3697"
       inkscape:label="nothern ruins"><path
         style="fill:#ffffff;fill-opacity:1;stroke-width:2.065;stroke-dashoffset:2.31761"
         d="m 128.36828,250.29514 6.49254,17.73947 -4.08979,0.0511 -3.68081,-2.55612 -3.32295,-8.94641 -3.01622,5.31672 -2.14714,-3.98755 1.89152,-6.03243 z"
         id="path3691"
         inkscape:label="right ruin" /><path
         style="fill:#ffffff;fill-opacity:1;stroke-width:2.065;stroke-dashoffset:2.31761"
         d="m 90.047103,252.17527 2.675024,18.32753 -3.289556,0.0361 -2.638878,-2.71116 -1.518256,-10.7724 -3.940238,5.81998 -8.422711,1.59056 9.940967,-13.91736 z"
         id="path3693"
         inkscape:label="center ruin" /><path
         style="fill:#ffffff;fill-opacity:1;stroke-width:2.065;stroke-dashoffset:2.31761"
         d="m 110.67994,253.15799 -3.37408,8.99754 -3.52744,2.14714 -1.78929,-0.56234 3.78306,-10.42897 z"
         id="path3695"
         inkscape:label="left ruin" /></g><path
       id="path3677"
       style="display:inline;fill:#ffffff;fill-opacity:1;stroke-width:2.065;stroke-dashoffset:2.31761"
       inkscape:label="observatory"
       d="M 105.5548,36.149215 A 32.678677,32.678677 0 0 0 73.255477,63.883956 H 137.8567 A 32.678677,32.678677 0 0 0 105.5548,36.149215 Z" /><path
       id="path3675"
       style="display:inline;fill:#ffffff;fill-opacity:1;stroke-width:2.065;stroke-dashoffset:2.31761"
       inkscape:label="ball"
       d="m 71.268518,67.39847 a 96.928024,96.928024 0 0 0 -12.15533,5.592424 l 11.521777,12.176001 v 26.533265 h 8.603609 v -10.70012 h 25.737966 v 7.37474 l 24.94266,0.43357 22.99085,-25.665621 13.66428,11.567769 5.78673,-6.751009 A 96.928024,96.928024 0 0 0 139.77235,67.39847 Z M 55.096895,75.359741 A 96.928024,96.928024 0 0 0 23.809399,105.93927 l 16.424321,13.82241 8.422742,-8.42274 H 66.586633 V 87.046883 Z m 98.680795,12.988355 -10.48308,11.350728 32.94786,35.097086 19.75332,-11.40499 A 96.928024,96.928024 0 0 0 175.17122,90.723661 l -8.37985,9.481079 z m -12.88448,14.305584 -8.84391,9.9689 -26.89034,0.20464 v 26.58339 h 9.30382 l 21.31808,38.34185 h 31.08234 l 8.07754,-10.02006 -4.19199,-15.64453 3.90726,-14.58102 z m -57.256971,2.3518 v 9.81542 H 51.684701 l -9.202023,9.20202 0.153479,18.14825 h 6.03219 l 12.064897,11.55381 17.995284,-14.31437 h 21.318082 v -34.40513 z m -62.288188,5.09943 A 96.928024,96.928024 0 0 0 8.588623,158.07045 96.928024,96.928024 0 0 0 24.929228,211.8465 l 6.303491,-6.30349 19.08669,16.62844 h 8.024833 v -13.59193 l 12.36307,-9.3984 V 176.98558 H 58.055371 V 157.17594 L 47.282902,146.40347 h -9.398909 v -22.84615 z m 176.022849,17.20877 -19.08101,11.01638 -3.52433,13.1532 4.60592,17.1881 -10.91716,13.8808 h -5.5671 v 14.89367 h 14.74897 v 13.77125 h 8.90488 a 96.928024,96.928024 0 0 0 15.90342,-53.14663 96.928024,96.928024 0 0 0 -5.07359,-30.75677 z M 81.624475,143.26981 62.97135,157.97124 v 14.24254 l 13.013676,0.14469 v 29.06386 l 11.350728,14.53141 H 109.5313 V 201.7112 l 22.26789,-22.26789 -20.88503,-36.1735 z m 53.066525,39.4994 -20.53259,22.05085 v 16.26722 l -26.316227,0.0724 v 17.062 h 52.198877 l 12.14603,-12.14602 v -17.3514 l 6.5071,-9.10952 v -16.84548 z m 28.19622,18.86964 -6.05442,8.17005 v 18.67121 l -12.2716,12.27212 v 5.9924 a 96.928024,96.928024 0 0 0 39.39398,-31.80271 h -9.93376 v -13.30307 z m -90.444613,1.95234 -9.832475,7.73596 v 14.38724 H 46.77699 l -15.008386,-13.92422 -4.060218,4.06022 a 96.928024,96.928024 0 0 0 43.381332,32.8073 l 12.486576,-10.36371 v -19.37556 z m 12.651941,39.69163 -8.948291,7.10293 a 96.928024,96.928024 0 0 0 29.370303,4.61264 96.928024,96.928024 0 0 0 33.29564,-5.91902 v -5.79655 z" /></g></svg>
