<?xml version="1.0" encoding="UTF-8" standalone="no"?>
<!-- Created with Inkscape (http://www.inkscape.org/) -->

<svg
   width="253.07152mm"
   height="234.38969mm"
   viewBox="0 0 253.07152 234.38969"
   version="1.1"
   id="svg5"
   xml:space="preserve"
   sodipodi:docname="brittlehollow_wip.svg"
   inkscape:version="1.2 (dc2aedaf03, 2022-05-15)"
   inkscape:export-filename="brittlehollow_colours_v2.svg"
   inkscape:export-xdpi="96"
   inkscape:export-ydpi="96"
   xmlns:inkscape="http://www.inkscape.org/namespaces/inkscape"
   xmlns:sodipodi="http://sodipodi.sourceforge.net/DTD/sodipodi-0.dtd"
   xmlns="http://www.w3.org/2000/svg"
   xmlns:svg="http://www.w3.org/2000/svg"><sodipodi:namedview
     id="namedview7"
     pagecolor="#505050"
     bordercolor="#ffffff"
     borderopacity="1"
     inkscape:showpageshadow="0"
     inkscape:pageopacity="0"
     inkscape:pagecheckerboard="1"
     inkscape:deskcolor="#505050"
     inkscape:document-units="mm"
     showgrid="false"
     inkscape:zoom="1.2938725"
     inkscape:cx="203.65222"
     inkscape:cy="615.98034"
     inkscape:window-width="2498"
     inkscape:window-height="1417"
     inkscape:window-x="2552"
     inkscape:window-y="-8"
     inkscape:window-maximized="1"
     inkscape:current-layer="g3699" /><defs
     id="defs2" /><g
     inkscape:groupmode="layer"
     id="g3699"
     inkscape:label="drawing"
     inkscape:highlight-color="#8aed36"
     style="display:inline"
     transform="translate(24.285813,-36.149215)"><g
       id="g3697"
       inkscape:label="nothern ruins"
       style="fill:#ffffff;fill-opacity:1"><path
         style="fill:#ffffff;fill-opacity:1;stroke-width:2.065;stroke-dashoffset:2.31761"
         d="m 128.36828,250.29514 6.49254,17.73947 -4.08979,0.0511 -3.68081,-2.55612 -3.32295,-8.94641 -3.01622,5.31672 -2.14714,-3.98755 1.89152,-6.03243 z"
         id="path3691"
         inkscape:label="right ruin" /><path
         style="fill:#ffffff;fill-opacity:1;stroke-width:2.065;stroke-dashoffset:2.31761"
         d="m 90.047103,252.17527 2.675024,18.32753 -3.289556,0.0361 -2.638878,-2.71116 -1.518256,-10.7724 -3.940238,5.81998 -8.422711,1.59056 9.940967,-13.91736 z"
         id="path3693"
         inkscape:label="center ruin" /><path
         style="fill:#ffffff;fill-opacity:1;stroke-width:2.065;stroke-dashoffset:2.31761"
         d="m 110.67994,253.15799 -3.37408,8.99754 -3.52744,2.14714 -1.78929,-0.56234 3.78306,-10.42897 z"
         id="path3695"
         inkscape:label="left ruin" /></g><path
       id="path3677"
       style="display:inline;fill:#ffffff;fill-opacity:1;stroke-width:2.065;stroke-dashoffset:2.31761"
       inkscape:label="observatory"
       d="M 105.5548,36.149215 A 32.678677,32.678677 0 0 0 73.255477,63.883956 H 137.8567 A 32.678677,32.678677 0 0 0 105.5548,36.149215 Z" /><path
       id="path3675"
       style="display:inline;fill:#ffffff;fill-opacity:1;stroke-width:2.065;stroke-dashoffset:2.31761"
       inkscape:label="ball"
       d="m 71.268518,67.39847 a 96.928024,96.928024 0 0 0 -12.15533,5.592424 l 11.521777,12.176001 v 26.533265 h 8.603609 v -10.70012 h 25.737966 v 7.37474 l 24.94266,0.43357 22.99085,-25.665621 13.66428,11.567769 5.78673,-6.751009 A 96.928024,96.928024 0 0 0 139.77235,67.39847 Z M 55.096895,75.359741 A 96.928024,96.928024 0 0 0 23.809399,105.93927 l 16.424321,13.82241 8.422742,-8.42274 H 66.586633 V 87.046883 Z m 98.680795,12.988355 -10.48308,11.350728 32.94786,35.097086 19.75332,-11.40499 A 96.928024,96.928024 0 0 0 175.17122,90.723661 l -8.37985,9.481079 z m -12.88448,14.305584 -8.84391,9.9689 -26.89034,0.20464 v 26.58339 h 9.30382 l 21.31808,38.34185 h 31.08234 l 8.07754,-10.02006 -4.19199,-15.64453 3.90726,-14.58102 z m -57.256971,2.3518 v 9.81542 H 51.684701 l -9.202023,9.20202 0.153479,18.14825 h 6.03219 l 12.064897,11.55381 17.995284,-14.31437 h 21.318082 v -34.40513 z m -62.288188,5.09943 A 96.928024,96.928024 0 0 0 8.588623,158.07045 96.928024,96.928024 0 0 0 24.929228,211.8465 l 6.303491,-6.30349 19.08669,16.62844 h 8.024833 v -13.59193 l 12.36307,-9.3984 V 176.98558 H 58.055371 V 157.17594 L 47.282902,146.40347 h -9.398909 v -22.84615 z m 176.022849,17.20877 -19.08101,11.01638 -3.52433,13.1532 4.60592,17.1881 -10.91716,13.8808 h -5.5671 v 14.89367 h 14.74897 v 13.77125 h 8.90488 a 96.928024,96.928024 0 0 0 15.90342,-53.14663 96.928024,96.928024 0 0 0 -5.07359,-30.75677 z M 81.624475,143.26981 62.97135,157.97124 v 14.24254 l 13.013676,0.14469 v 29.06386 l 11.350728,14.53141 H 109.5313 V 201.7112 l 22.26789,-22.26789 -20.88503,-36.1735 z m 53.066525,39.4994 -20.53259,22.05085 v 16.26722 l -26.316227,0.0724 v 17.062 h 52.198877 l 12.14603,-12.14602 v -17.3514 l 6.5071,-9.10952 v -16.84548 z m 28.19622,18.86964 -6.05442,8.17005 v 18.67121 l -12.2716,12.27212 v 5.9924 a 96.928024,96.928024 0 0 0 39.39398,-31.80271 h -9.93376 v -13.30307 z m -90.444613,1.95234 -9.832475,7.73596 v 14.38724 H 46.77699 l -15.008386,-13.92422 -4.060218,4.06022 a 96.928024,96.928024 0 0 0 43.381332,32.8073 l 12.486576,-10.36371 v -19.37556 z m 12.651941,39.69163 -8.948291,7.10293 a 96.928024,96.928024 0 0 0 29.370303,4.61264 96.928024,96.928024 0 0 0 33.29564,-5.91902 v -5.79655 z" /><path
       id="path9160"
       style="display:inline;fill:#ffffff;fill-opacity:1;stroke:none;stroke-width:1.28883;stroke-dasharray:none;stroke-dashoffset:0;stroke-opacity:1"
       inkscape:label="gravity canon"
       d="m 10.707057,145.55824 c -0.505138,0.37463 -1.6698778,1.17711 -2.9436206,2.05036 -0.046225,-0.0442 -0.085898,-0.0836 -0.1333241,-0.12857 -0.5650959,-0.5366 -1.3845036,-1.30669 -2.2902997,-2.09493 -2.4453546,-0.0239 -5.1301582,0.0145 -7.9629927,0.15381 -0.8119774,0.55616 -1.6460491,1.12668 -2.395471,1.64314 -0.4904233,-0.41559 -1.0639415,-0.886 -1.662545,-1.35794 -0.00803,-0.006 -0.016147,-0.0122 -0.024191,-0.0185 -1.3758996,0.11433 -2.772804,0.25559 -4.1819169,0.42733 l -0.05937,0.19833 c -0.138993,-0.0417 0.341487,0.17204 0.815374,0.49634 0.4738859,0.32431 1.0514744,0.75956 1.6241063,1.21103 0.3388234,0.26713 0.6727247,0.53913 0.99337,0.80482 -1.3517911,0.99758 -3.1101723,2.32322 -4.8268913,3.68682 -1.067836,-0.97987 -2.14188,-1.93255 -3.242973,-2.99601 -0.02703,-0.0261 -0.06232,-0.0584 -0.09264,-0.0869 0.416685,-0.31126 0.816571,-0.60814 1.171976,-0.86933 0.586525,-0.43103 2.001582,-1.40056 3.507539,-2.43156 -2.177978,0.26781 -4.382705,0.60938 -6.578426,1.04045 -0.140965,0.1055 -0.255711,0.18878 -0.401429,0.29838 -0.072,-0.0579 -0.146035,-0.11625 -0.219016,-0.17444 -1.262429,0.25788 -2.5202,0.54605 -3.767118,0.86713 0.02979,0.0195 0.05755,0.0353 0.08745,0.0557 0.434848,0.29757 0.957895,0.68974 1.483486,1.10094 -1.090024,0.84985 -2.194381,1.73296 -3.194734,2.57613 -0.02617,0.022 -0.05083,0.0442 -0.07687,0.0663 l -0.622344,5.79757 c 0.761136,0.69608 1.500301,1.38512 2.218371,2.11222 0.232851,0.23577 0.471178,0.48183 0.711086,0.73116 -0.40482,0.4115 -0.841941,0.8664 -1.288955,1.34967 -0.506296,0.54738 -1.001783,1.10488 -1.420335,1.61967 1.111152,0.25133 2.206172,0.48895 3.285554,0.71338 0.10093,-0.11129 0.195855,-0.22039 0.299043,-0.33195 0.384882,-0.41611 0.776954,-0.82084 1.143697,-1.19377 0.694596,0.75918 1.358634,1.50143 1.978769,2.20234 2.363603,0.44665 4.637416,0.83023 6.81342,1.15929 0.8120327,-0.84851 1.5886356,-1.60893 1.8387683,-1.83009 0.6662314,-0.58903 1.2780962,-1.15665 1.8749062,-1.71477 0.2481647,0.2838 0.4856286,0.55656 0.7018455,0.80682 0.5225912,0.60485 1.7533242,2.13138 3.0258544,3.70854 1.5476903,0.16893 3.0275326,0.31132 4.4254421,0.42742 0.4844577,-0.48826 0.9020938,-0.8966 1.0674101,-1.04274 1.4531133,-1.28475 2.687337,-2.49243 3.9403023,-3.63854 1.0765977,1.31146 2.809021,3.47421 4.1941771,5.17493 1.517468,0.033 2.80739,0.0351 3.847285,0.0229 -0.997751,-1.15596 -4.11997,-5.08448 -5.8084493,-7.1297 1.3474412,-1.10776 2.8389943,-2.26899 4.1943633,-3.29674 0.411586,0.51044 0.834725,1.0246 1.279997,1.53996 1.138149,1.3173 2.32519,2.90024 3.568132,4.33211 l 0.148811,-4.4611 c -0.488695,-0.60648 -0.982944,-1.21563 -1.487535,-1.79966 -0.389583,-0.4509 -0.767792,-0.91036 -1.142339,-1.37508 0.539864,-0.39126 1.622496,-1.13523 2.800956,-1.94242 l 0.122472,-3.66614 c -1.88327,1.28888 -3.880288,2.65304 -4.763647,3.30035 -0.478458,-0.59387 -0.969256,-1.18894 -1.48976,-1.77974 -0.673422,-0.76436 -1.24686,-1.42175 -1.9126077,-2.13406 1.0888737,-0.7498 2.0551647,-1.42211 2.5827217,-1.81337 z m -9.0632705,0.62855 c 0.3242238,0.23596 0.6601257,0.49297 0.9881388,0.76387 0.9778685,0.80767 1.9342488,1.6917 2.6462314,2.36322 -1.2979918,0.89027 -2.5125766,1.72727 -3.1185464,2.1726 -0.4169444,0.30641 -0.888294,0.65638 -1.38436035,1.02789 -1.17811666,-1.13799 -2.35465795,-2.1737 -3.55479545,-3.28595 1.4724622,-1.00945 3.13320199,-2.14308 4.423332,-3.04163 z m -12.8494315,0.94731 -3.422047,2.53407 2.274326,1.93491 3.5350458,-2.5274 z m 18.6271763,4.29195 c 0.764105,0.80097 1.3694648,1.49913 2.1595361,2.39589 0.4551856,0.51666 0.8963086,1.05211 1.3364076,1.59798 -1.3762669,1.04378 -2.8909426,2.22303 -4.2776287,3.36497 -1.1244578,-1.27647 -2.459144,-2.75559 -3.7784785,-4.14768 0.3690571,-0.27529 0.7247858,-0.53885 1.0436902,-0.77322 0.5881188,-0.4322 2.0070566,-1.40488 3.5164733,-2.43794 z m -12.6797361,-0.47711 c 1.2895672,1.21494 2.4994984,2.2756 3.6587875,3.37459 -1.2112998,0.93881 -2.4580573,1.93148 -3.575488,2.87331 -0.5049611,0.42562 -0.9864615,0.85182 -1.4569133,1.27933 -1.1438233,-1.26636 -2.378743,-2.59681 -3.5366984,-3.76934 -0.0061,-0.006 -0.01238,-0.012 -0.01848,-0.0182 1.702623,-1.34371 3.4482326,-2.65641 4.72755,-3.59658 0.049386,-0.0363 0.1410527,-0.0999 0.2012465,-0.14314 z m 12.4570122,1.48418 -3.0768189,2.43879 2.463751,2.62531 2.8324707,-2.11249 z m -25.2655924,-1.07055 c 0.195437,0.17193 0.35248,0.31343 0.433975,0.39215 1.042722,1.0071 2.031577,1.89464 2.983054,2.7627 -1.623595,1.37772 -3.015716,2.76244 -4.562522,4.17689 -0.255286,-0.26539 -0.509238,-0.5274 -0.758821,-0.78014 -0.943118,-0.95497 -1.881689,-1.81514 -2.827469,-2.67528 0.365196,-0.32878 0.733378,-0.65333 1.111693,-0.97222 1.113957,-0.93892 2.385894,-1.9502 3.62009,-2.9041 z m 18.5647172,5.06664 c 1.3427236,1.40892 2.7402071,2.95704 3.9096567,4.28417 -1.3255332,1.20774 -2.563066,2.42616 -3.97006274,3.67013 -0.27086396,0.23947 -0.67290381,0.62439 -1.13941382,1.09324 -1.28664354,-1.59402 -2.57343054,-3.186 -3.19660944,-3.90728 -0.2370242,-0.27432 -0.4993348,-0.57574 -0.7730057,-0.88852 0.4580254,-0.41742 0.9193294,-0.82668 1.3957558,-1.22825 1.1603937,-0.97804 2.49228141,-2.03506 3.7736792,-3.02349 z m -12.9877162,0.1263 c 0.07448,0.0741 0.148573,0.14825 0.222674,0.22329 1.121184,1.13529 2.3414405,2.45108 3.4753674,3.70705 -0.6046391,0.56661 -1.2168004,1.13556 -1.8684424,1.7117 -0.533805,0.47193 -1.571202,1.50761 -2.620016,2.64152 -0.06452,0.0697 -0.128198,0.13944 -0.192233,0.20946 -0.08198,-0.0972 -0.161344,-0.19138 -0.22877,-0.26942 -0.931709,-1.07836 -2.179827,-2.49546 -3.495818,-3.93259 1.624455,-1.48351 3.013105,-2.86513 4.556196,-4.16577 0.04873,-0.0411 0.101736,-0.0839 0.151042,-0.12524 z m 5.577098,7.57578 -2.1590969,2.32292 c 1.4783205,0.2114 2.9063081,0.39752 4.2836741,0.56116 z" /><g
       id="g9249"
       inkscape:label="escape pod"
       transform="matrix(1.0685535,0,0,1.0685535,-14.87414,-18.233595)"
       style="fill:#ffffff;fill-opacity:1"><path
         style="display:inline;fill:#ffffff;fill-opacity:1;stroke:none;stroke-width:2.66499;stroke-dasharray:none;stroke-dashoffset:0;stroke-opacity:1"
         d="m 201.4944,158.54941 6.21762,-0.14459 -0.21689,7.44669 6.65141,1.30136 -1.25175,3.38047 15.13296,6.59665 -1.66285,2.67502 c 0,0 -2.84238,-2.05934 -4.48248,-2.60272 -0.80589,-0.267 -1.68286,-0.33785 -2.53043,-0.28919 -1.06217,0.061 -2.12734,0.31231 -3.10881,0.72298 -1.28905,0.53937 -2.30895,1.58498 -3.5426,2.24123 -0.95269,0.50679 -1.9131,1.05718 -2.96421,1.30136 -1.6447,0.38208 -3.42205,0.62352 -5.06086,0.2169 -1.43616,-0.35634 -2.77965,-1.20079 -3.83179,-2.24124 -0.89926,-0.88927 -1.63708,-2.02856 -1.95205,-3.25341 -0.32433,-1.26122 -0.0683,-2.61936 0.1446,-3.90409 0.20569,-1.24109 0.46299,-2.5211 1.08447,-3.61489 0.38761,-0.68219 1.31593,-1.00016 1.59055,-1.73515 0.94506,-2.5293 -0.21689,-8.09738 -0.21689,-8.09738 z"
         id="path9245"
         inkscape:label="pod"
         sodipodi:nodetypes="cccccccsssssssssssc" /><path
         style="display:none;fill:none;fill-opacity:1;stroke:#ffffff;stroke-width:1.165;stroke-dasharray:6.99, 1.165;stroke-dashoffset:0;stroke-opacity:1"
         d="m 204.02483,162.4535 31.92963,0.004"
         id="path9251"
         sodipodi:nodetypes="cc"
         inkscape:label="beakon v1" /><g
         id="g1707"
         inkscape:label="beacon v2"
         style="fill:#ffffff;fill-opacity:1"><path
           id="path391"
           style="color:#000000;fill:#ffffff;fill-opacity:1"
           d="m 208.72489,158.43397 -0.0372,1.28302 a 2.4432516,2.4432516 0 0 1 2.27007,2.43692 2.4432516,2.4432516 0 0 1 -2.4108,2.44223 l -0.0368,1.28496 c 10e-4,0 0.003,0 0.004,0 2.05013,0 3.72671,-1.67659 3.72671,-3.72671 0,-1.97952 -1.56316,-3.61041 -3.51634,-3.72042 z" /><circle
           style="fill:#ffffff;fill-opacity:1;stroke:none;stroke-width:0.809505"
           id="circle393"
           cx="207.86664"
           cy="162.16983"
           r="1.6682739" /></g></g></g></svg>
