<?xml version="1.0" encoding="UTF-8" standalone="no"?>
<!-- Created with Inkscape (http://www.inkscape.org/) -->

<svg
   width="218.51402mm"
   height="219.86702mm"
   viewBox="0 0 218.51402 219.86702"
   version="1.1"
   id="svg5"
   xml:space="preserve"
   xmlns="http://www.w3.org/2000/svg"
   xmlns:svg="http://www.w3.org/2000/svg"
   xmlns:rdf="http://www.w3.org/1999/02/22-rdf-syntax-ns#"
   xmlns:cc="http://creativecommons.org/ns#"
   xmlns:dc="http://purl.org/dc/elements/1.1/"><title
     id="title6698">Stranger Eye - WIP</title><defs
     id="defs2" /><g
     id="layer5"
     style="display:inline;fill:#ffffff;fill-opacity:1"
     transform="matrix(0.74060356,0,0,0.74060356,39.845552,31.299366)"><path
       style="fill:#ffffff;fill-opacity:1;stroke:none;stroke-width:8.00899;stroke-linecap:round;stroke-linejoin:round;stroke-opacity:0.262976"
       d="m 207.61465,31.731425 c 0.71343,-1.183256 1.42687,-2.366513 1.9924,-3.236559 0.56553,-0.870047 0.98314,-1.426861 1.54868,-1.827083 0.56553,-0.400221 1.27895,-0.643828 1.86188,-1.070154 0.58293,-0.426325 1.03535,-1.035344 1.47037,-1.531271 0.43503,-0.495927 1.11179,-1.116291 1.30327,-1.479447 0.19149,-0.363157 1.44186,-3.599429 1.59187,-4.128857 0.15,-0.529429 0.15,-1.36072 0.15,-1.917546 -1.18326,2.001094 -2.99582,5.066459 -3.39092,5.575602 -0.39509,0.509143 -1.44868,0.872451 -1.71135,0.432086 -0.26267,-0.440364 -1.74683,-5.159205 -1.78536,-5.711463 -0.0385,-0.552258 0.85096,-2.133568 1.85224,-3.372329 1.00128,-1.238762 3.83473,-4.4236495 6.07944,-6.9467688 -2.2099,1.5312723 -5.98368,4.1461738 -6.4008,4.5200568 -0.41712,0.373882 -1.51657,2.127057 -2.16041,3.049309 -0.64384,0.922253 -1.82301,2.420116 -1.84354,2.664919 -0.0205,0.244803 0.92781,5.192602 0.8836,5.940235 -0.0442,0.747633 -0.95414,2.513961 -1.61538,3.479714 -0.66124,0.965754 -1.39206,1.748776 -2.1229,2.531813 z"
       id="path11"
       transform="matrix(0.34301682,0.85653098,-0.85570341,0.34334856,160.53355,-155.48742)" /><path
       style="fill:#ffffff;fill-opacity:1;stroke:none;stroke-width:8.00899;stroke-linecap:round;stroke-linejoin:round;stroke-opacity:0.262976"
       d="m 189.67721,13.424669 c 0.41955,-2.547987 -1.0008,-6.5126271 -2.01859,-9.9345688 -1.01779,-3.42194174 -1.98822,-7.9635597 -2.11705,-8.8705973 -0.12884,-0.9070377 -0.1203,-3.1146306 0.0672,-4.3019235 0.18747,-1.1872924 0.69793,-2.4845304 0.74635,-3.2458074 0.0484,-0.761278 -0.23099,-3.171326 -0.29251,-4.721672 -0.0615,-1.550347 0.0523,-3.713701 0.0129,-4.192376 -0.0394,-0.478674 -0.41896,-1.541385 -0.64043,-2.267343 -0.22148,-0.725958 -0.41834,-1.488807 -0.61521,-2.25167 -0.0246,0.81208 -0.0492,1.624161 2e-5,2.214769 0.0492,0.590607 0.17227,0.959727 0.17227,2.190171 -1e-5,1.230444 -0.12305,3.322124 -0.27132,5.249941 -0.14827,1.927817 -0.33088,3.784452 -0.91529,3.924363 -0.5844,0.139912 -1.29142,-0.839382 -2.43295,-2.726502 -1.14154,-1.88712 -1.84213,-3.384282 -2.26658,-4.41606 -0.42446,-1.031778 -3.71675,-9.43281 -4.30232,-10.597251 -0.58557,-1.164441 -7.88607,-13.643921 -8.29098,-14.224063 -0.40492,-0.580141 -2.80689,-2.581789 -4.13575,-3.689171 0.95973,1.427292 1.91946,2.854584 3.48212,5.561556 1.56266,2.706972 3.72816,6.693464 5.30311,9.991026 1.57496,3.297562 2.55927,5.906008 3.53008,8.267827 0.97081,2.361819 2.44901,5.627967 2.10693,6.244834 -0.34208,0.616866 -5.68785,1.903831 -6.30455,1.94292 -0.6167,0.03909 -1.7422,-0.448695 -2.95294,-1.195041 -1.21074,-0.746346 -2.21508,-1.541087 -2.78777,-2.455343 -0.57268,-0.914256 -2.20226,-4.581767 -3.33301,-7.126634 0.17102,1.806612 0.46867,4.950773 0.64102,5.421709 0.17235,0.470935 2.78833,4.589715 3.34227,5.235426 0.55393,0.645711 2.79789,2.345535 3.56705,2.54681 0.76916,0.201274 2.01736,0.0418 3.99598,-0.378745 1.97861,-0.420542 2.95345,-0.744178 3.42034,-0.670457 0.4669,0.07372 1.70275,1.038387 2.42212,1.975015 0.71937,0.936628 1.33457,2.167026 1.83904,3.483593 0.50448,1.3165667 0.89821,2.7192231 1.19351,4.3064875 0.2953,1.5872644 0.49217,3.3590386 0.67674,5.13086648 0.18456,1.77182792 0.35682,3.54360322 0.52908,5.31541362 0.56356,4.3577248 1.12712,8.7154464 2.53863,10.3286374 1.41151,1.61319 3.67096,0.481848 4.09051,-2.06614 z"
       id="path12"
       transform="matrix(-0.61552754,0.45502745,0.35076631,0.47449077,296.96977,-82.8538)" /><path
       style="fill:#ffffff;fill-opacity:1;stroke:none;stroke-width:8.00899;stroke-linecap:round;stroke-linejoin:round;stroke-opacity:0.262976"
       d="m 159.7972,-9.8217359 c 0,2.3317101 0,4.6634201 0.16531,6.7080343 0.16531,2.0446141 0.78184,5.3219976 0.75362,5.5877674 -0.0282,0.2657698 -1.42356,4.3219835 -2.29361,6.1229832 -0.87005,1.801 -1.86188,3.22784 -2.84503,4.550314 -0.98316,1.322474 -1.95758,2.540505 -2.93203,3.758563 1.09625,-2.262107 2.1925,-4.524214 2.97554,-6.194703 0.78304,-1.6704892 1.25286,-2.7493207 1.54867,-4.4633245 0.29582,-1.7140038 0.41762,-4.0630675 0.36542,-5.95977203 -0.0522,-1.89670447 -0.27841,-3.34094437 -0.58293,-4.70692127 -0.30452,-1.3659768 -0.68733,-2.6536112 -1.28767,-3.8716795 -0.60033,-1.2180683 -1.41816,-2.3665037 -1.69657,-3.2713507 -0.27841,-0.904847 -0.0174,-1.566067 1.04407,-1.235437 1.06147,0.330629 2.92332,1.653064 4.78521,2.9755261 z"
       id="path13"
       transform="matrix(0.52010628,0,0,0.52010628,67.329399,-5.4992753)" /><path
       style="fill:#ffffff;fill-opacity:1;stroke:none;stroke-width:8.00899;stroke-linecap:round;stroke-linejoin:round;stroke-opacity:0.262976"
       d="m 150.43993,-13.408271 c -0.63945,0.01543 -1.91835,0.0463 -2.99461,0.0925 -1.07627,0.0462 -1.94985,0.107717 -3.06955,0.39072 -1.1197,0.283003 -2.48544,0.787465 -3.92505,1.494967 -1.43961,0.707502 -2.953,1.6179963 -4.3557,2.6331088 -1.4027,1.0151125 -2.69462,2.1347771 -3.6482,3.131427 -0.95358,0.9966499 -1.56879,1.8702376 -2.15324,2.8791956 -0.58446,1.008958 -1.13814,2.15322977 -1.7226,3.42057916 -0.58445,1.26734944 -1.19966,2.65770034 -1.79026,4.09115924 -0.59061,1.433459 -1.1566,2.9099376 -1.61801,4.1096113 -0.46141,1.1996739 -0.81823,2.1224739 -1.1689,3.2544759 -0.35068,1.132002 -0.69519,2.473139 -0.91667,3.912749 -0.22148,1.43961 -0.31991,2.977612 -0.38758,4.571027 -0.0677,1.593415 -0.10459,3.242149 -0.0738,4.970913 0.0308,1.728763 0.12919,3.537451 0.20917,4.817099 0.08,1.279647 0.1415,2.030193 0.23378,2.842282 0.0923,0.812089 0.21533,1.685671 0.33837,2.559272 -0.78747,-1.574942 -1.57494,-3.149885 -2.02405,-4.774061 -0.4491,-1.624177 -0.55984,-3.297519 -0.65212,-5.783008 -0.0923,-2.485489 -0.16611,-5.78296 -0.19073,-7.96082 -0.0246,-2.177861 0.0169,-3.963773 0.0995,-4.328745 0.0826,-0.364972 0.93403,-2.524707 1.53079,-4.1242767 0.59676,-1.5995696 1.28578,-3.5189914 1.92561,-5.4200164 0.63983,-1.9010249 1.23042,-3.78353534 1.45804,-4.8786153 0.22763,-1.09508 0.0923,-1.4026785 -0.19687,-1.5995478 -0.28915,-0.1968694 -0.73209,-0.2829971 -1.45805,-0.2706917 -0.72596,0.012305 -1.73489,0.1230412 -2.63926,0.3014552 -0.90437,0.178414 -1.70413,0.4244946 -2.49776,0.7505608 -0.79363,0.3260661 -1.58109,0.7320989 -2.1717,1.236577 -0.5906,0.50447813 -0.98433,1.10737419 -1.34731,1.74104991 -0.36298,0.63367569 -0.69519,1.29808869 -1.07047,2.18400599 -0.37528,0.8859172 -0.79362,1.9932782 -1.22427,3.1991058 -0.43065,1.2058275 -0.8736,2.5100514 -1.31655,3.8143007 0.0123,-1.1565984 0.0246,-2.3131969 0.12919,-3.3098493 0.10458,-0.9966523 0.30145,-1.8333225 0.58445,-2.8299768 0.283,-0.9966542 0.65212,-2.1532299 1.04586,-3.21140411 0.39374,-1.05817419 0.81208,-2.01788749 1.38423,-2.75614759 0.57216,-0.7382602 1.29809,-1.2550254 2.0425,-1.7164386 0.74442,-0.4614133 1.50727,-0.8674459 2.20861,-1.181205 0.70135,-0.3137592 1.34116,-0.535232 2.23938,-0.7567102 0.89822,-0.2214782 2.0548,-0.4429506 3.20526,-0.6152108 1.15045,-0.1722603 2.29472,-0.2953001 2.953,-0.5167793 0.65828,-0.2214792 0.83054,-0.5413844 0.95973,-0.8428367 0.1292,-0.3014523 0.21533,-0.5844529 0.30146,-0.8674504 1.10738,-0.5659949 2.21476,-1.1319898 4.10349,-2.3255187 1.88872,-1.193528 5.5727,-3.706105 6.374,-4.49595 0.80129,-0.789846 0.68245,-1.791499 0.59632,-2.517449 3.77666,1.556378 7.55333,3.112757 9.44166,3.890946 1.88833,0.778188 1.88837,0.778185 1.24892,0.79362 z"
       id="path14"
       transform="matrix(0.50595415,0,0,0.50595415,64.71618,-8.7108372)" /><path
       style="fill:#ffffff;fill-opacity:1;stroke:none;stroke-width:8.00899;stroke-linecap:round;stroke-linejoin:round;stroke-opacity:0.262976"
       d="m 101.13364,-25.848828 c -0.78022,-0.594921 -2.340658,-1.784763 -3.490652,-2.810363 -1.149995,-1.025599 -1.889515,-1.886922 -2.198378,-2.43505 -0.308863,-0.548128 -0.187059,-0.783036 0.05221,-1.165859 0.239264,-0.382822 0.595974,-0.913538 0.896141,-1.32681 0.300166,-0.413272 0.543772,-0.709079 0.922245,-0.926591 0.378473,-0.217513 0.891786,-0.356717 1.570428,-0.443721 0.678642,-0.087 1.52256,-0.121806 2.41436,-0.108755 0.89181,0.01305 1.83143,0.07395 2.83199,-0.02176 1.00056,-0.09571 2.06199,-0.348015 2.95814,-0.700386 0.89615,-0.35237 1.62696,-0.804778 2.10549,-1.265907 0.47853,-0.461128 0.70473,-0.930939 0.89614,-1.370314 0.19141,-0.439374 0.34802,-0.848286 0.40457,-1.744443 0.0566,-0.896157 0.0131,-2.279493 -0.30017,-3.667222 -0.31322,-1.387729 -0.89614,-2.779768 -1.47907,-4.171834 0.13051,1.339863 0.26101,2.679727 0.33062,4.045706 0.0696,1.36598 0.0783,2.758015 -0.0522,3.715066 -0.13051,0.95705 -0.40022,1.479066 -0.90485,1.909739 -0.50463,0.430673 -1.24415,0.769984 -2.51443,0.983144 -1.27028,0.213161 -3.07123,0.300163 -4.25014,0.291461 -1.17891,-0.0087 -1.975464,-0.158057 -2.064644,-0.279442 -0.08918,-0.121384 0.259318,-0.581898 0.576886,-0.886415 0.317568,-0.304517 0.709078,-0.591624 1.322468,-0.983149 0.61339,-0.391525 1.44861,-0.887437 2.10114,-1.226754 0.65254,-0.339318 1.12236,-0.522023 1.59218,-0.704731 -0.64383,0.0435 -1.28767,0.08701 -1.80969,0.16966 -0.52203,0.08265 -0.92224,0.204457 -1.47037,0.426321 -0.54814,0.221863 -1.24416,0.543773 -1.861894,0.926595 -0.617733,0.382822 -1.157148,0.826535 -1.835788,1.470374 -0.67864,0.643838 -1.496462,1.487761 -2.148997,2.236003 -0.652536,0.748241 -1.139749,1.40076 -1.474717,1.744426 -0.334968,0.343667 -0.517671,0.378467 -0.81349,0.113099 -0.295819,-0.265369 -0.70473,-0.830884 -1.07015,-1.535625 -0.36542,-0.704742 -0.687328,-1.548666 -0.922241,-2.218602 -0.234913,-0.669937 -0.382817,-1.16585 -0.456771,-1.744433 -0.07395,-0.578583 -0.07395,-1.239803 0.03045,-1.918442 0.104408,-0.67864 0.313213,-1.374658 0.704738,-2.088099 0.391524,-0.71344 0.965739,-1.444259 2.135962,-2.731939 1.170223,-1.287679 2.936371,-3.13213 4.702555,-4.976617 -1.505171,1.035349 -3.010344,2.070699 -4.054399,2.827639 -1.044055,0.756941 -1.62697,1.235454 -2.357814,1.905394 -0.730843,0.66994 -1.609568,1.531263 -2.170747,2.440466 -0.561179,0.909202 -0.804785,1.866229 -0.974443,2.77543 -0.169659,0.909201 -0.265362,1.770525 -0.313215,2.27515 -0.04785,0.504626 -0.04785,0.652528 0.117459,1.15281 0.165311,0.500282 0.49592,1.352907 0.952698,2.544879 0.456778,1.191972 1.410197,3.696472 1.590916,4.054741 0.18072,0.358269 0.849544,1.069785 1.267167,1.587465 0.417624,0.51768 0.843936,1.117996 1.287661,1.896692 0.443726,0.778697 0.904838,1.735724 1.365959,2.692769 2.212969,-0.04562 4.425939,-0.09123 5.532427,-0.114042 1.10648,-0.02281 1.10649,-0.02281 0.32627,-0.617729 z"
       id="path15"
       transform="matrix(0.57305052,0,0,0.57305052,57.171599,-10.593706)" /><path
       style="fill:#ffffff;fill-opacity:1;stroke:none;stroke-width:8.00899;stroke-linecap:round;stroke-linejoin:round;stroke-opacity:0.262976"
       d="m 73.484914,-21.901001 c -0.0062,0.362974 -0.01846,1.088924 0.07998,2.639282 0.09844,1.550358 0.307603,3.92503 0.695192,5.395392 0.387589,1.470361 0.953573,2.036345 1.931774,2.774609 0.9782,0.738263 3.39642,2.3218756 3.560031,2.6442857 0.163611,0.3224101 -0.07179,3.0402628 -0.23175,4.3383701 -0.159957,1.2981074 -0.344517,2.3316431 -0.529081,3.36519918 -0.184564,-0.94742628 -0.369127,-1.89485228 -0.486018,-2.87920188 -0.116891,-0.9843496 -0.198395,-2.6755689 -0.342286,-2.9633511 -0.143891,-0.2877822 -1.44798,-1.3677307 -2.223154,-1.8660554 -0.775173,-0.4983247 -1.939396,-1.0241028 -2.169699,-0.9104085 -0.230304,0.1136944 -0.549529,1.3718203 -0.924814,2.2638873 -0.375285,0.892067 -0.916661,1.8517779 -1.439596,2.7438434 -0.522936,0.8920654 -1.027399,1.7164326 -1.642619,2.5039116 -0.615219,0.7874789 -1.341154,1.53802235 -1.98098,2.2147616 -0.639825,0.6767392 -1.193505,1.2796352 -1.777963,1.8394835 -0.584458,0.5598482 -1.199657,1.0766156 -1.814869,1.5933937 0,0 0.701342,-1.6610724 0.701342,-1.6610724 0.578299,-0.4060398 1.156597,-0.8120792 1.722598,-1.36577695 0.566,-0.55369776 1.11968,-1.25502555 1.673377,-2.23322525 0.553696,-0.9781996 1.107376,-2.2332068 1.605702,-3.4390336 0.498326,-1.2058269 0.94127,-2.3624023 1.199659,-3.45749 0.25839,-1.0950877 0.332214,-2.128623 0.381431,-3.291386 0.04922,-1.162764 0.07382,-2.454683 0.0246,-3.395963 -0.04922,-0.94128 -0.172259,-1.531872 -0.436804,-2.116329 -0.264545,-0.584456 -0.670577,-1.162746 -1.304254,-1.76566 -0.633677,-0.602914 -1.494956,-1.230417 -0.910484,-1.790264 0.584472,-0.559848 2.614631,-1.052007 3.62973,-1.298092 1.015099,-0.246084 1.015101,-0.246084 1.008949,0.11689 z"
       id="path16"
       transform="matrix(0.79572852,0,0,0.79572852,13.625968,-2.2167741)" /><path
       style="fill:#ffffff;fill-opacity:1;stroke:none;stroke-width:8.00899;stroke-linecap:round;stroke-linejoin:round;stroke-opacity:0.262976"
       d="m 31.213702,-6.3730533 c 0.639821,-0.4244972 0.676733,-0.5352345 0.738255,-1.0950867 0.06152,-0.5598523 0.14765,-1.5687799 0.350674,-2.737696 0.203023,-1.168916 0.522927,-2.497747 0.910515,-3.789704 0.387588,-1.291957 0.842836,-2.546966 1.335011,-3.27907 0.492174,-0.732104 1.021247,-0.941272 1.661074,-0.99664 0.639828,-0.05537 1.390371,0.04306 1.925609,0.184565 0.535237,0.1415 0.855142,0.32606 1.175052,0.510624 1.402683,-0.935123 2.805341,-1.870228 3.592826,-2.503908 0.787485,-0.63368 0.959741,-0.965888 1.132,-1.298102 -0.738254,0.344518 -1.476507,0.689036 -2.307053,0.996645 -0.830545,0.307609 -2.47299,0.789394 -2.674807,0.796166 -0.201818,0.0068 -2.455215,-0.510898 -2.490864,-0.627225 -0.03565,-0.116326 1.111434,-1.054848 2.212679,-1.946918 1.101245,-0.89207 2.626937,-2.122468 4.251114,-3.322143 1.624176,-1.199676 3.346736,-2.368556 5.06933,-3.537459 -1.427291,0.5783 -2.854581,1.156599 -4.45415,1.96869 -1.59957,0.812091 -3.371344,1.857929 -4.761733,2.768451 -1.39039,0.910522 -2.399317,1.685673 -3.519015,2.626958 -1.119698,0.941285 -3.406493,2.9994 -3.547456,3.283067 -0.140964,0.283667 -1.558791,5.68056 -2.174008,8.018383 -0.615216,2.3378233 -1.082768,4.1095984 -1.550329,5.8814088 1.242728,-0.7382543 2.485456,-1.4765089 3.125276,-1.9010061 z"
       id="path17"
       transform="matrix(0.93572531,0,0,0.88630834,49.434303,-16.542185)" /><path
       style="fill:#ffffff;fill-opacity:1;stroke:none;stroke-width:8.00899;stroke-linecap:round;stroke-linejoin:round;stroke-opacity:0.262976"
       d="m 7.7495193,13.43062 c 0.5413865,0.63982 1.3243445,1.565134 1.9069396,1.90924 0.5825951,0.344106 3.6806421,1.539415 4.4393621,1.710555 0.758721,0.17114 4.245861,0.447101 5.017071,0.330808 0.77121,-0.116294 3.324504,-1.223475 4.004812,-1.719361 0.680307,-0.495887 1.550143,-1.677551 2.060773,-2.446573 0.51063,-0.769021 0.879749,-1.421132 1.248876,-2.073257 0.996643,-0.393736 1.993287,-0.787472 3.045311,-1.1504501 1.052023,-0.3629784 2.159383,-0.6951863 3.119121,-0.9474249 0.959739,-0.2522385 1.771802,-0.4244944 2.583882,-0.5967537 -1.008947,0.5782992 -2.017895,1.1565986 -3.094527,1.7349037 -1.076632,0.578305 -2.220904,1.156593 -3.199099,1.931769 -0.978195,0.775177 -1.790258,1.747192 -2.540823,2.694628 -0.750566,0.947435 -1.43959,1.870235 -2.153243,2.546973 -0.713654,0.676737 -1.513562,1.14335 -1.58122,1.442175 -0.06766,0.298826 0.57228,0.538803 1.144432,0.711063 0.572153,0.172261 1.125833,0.295301 2.134795,0.289147 1.008962,-0.0062 2.473137,-0.141497 3.420568,-0.282998 0.94743,-0.1415 1.37807,-0.289147 1.808718,-0.436798 -0.893837,0.628753 -1.787657,1.257493 -2.673579,1.786586 -0.885922,0.529092 -1.763878,0.958495 -2.641851,1.387907 -1.980983,-0.590603 -3.961965,-1.181207 -5.616899,-1.556488 -1.654933,-0.375281 -2.983764,-0.535233 -4.2142,-0.627516 -1.230435,-0.09228 -3.247156,-0.136127 -3.478268,-0.207342 -0.231112,-0.07121 -2.4979527,-1.516322 -3.2061649,-1.739927 -0.7082123,-0.223605 -3.7122748,-0.69024 -5.686924,-0.996972 z"
       id="path18"
       transform="matrix(0.96480968,0,0,0.98838888,-4.8884821,7.4891887)" /><path
       style="fill:#ffffff;fill-opacity:1;stroke:none;stroke-width:8.00899;stroke-linecap:round;stroke-linejoin:round;stroke-opacity:0.262976"
       d="m -0.55584166,20.850076 c -0.13534663,-0.762863 -0.27069327,-1.525726 -0.32606211,-2.73771 -0.0553688,-1.211984 -0.0307609,-2.873023 0.0676748,-4.435676 0.0984356,-1.562653 0.27069155,-3.026828 0.74441247,-4.1465214 C 0.40390441,8.4104751 1.1790559,7.6353237 2.0588188,6.7740175 2.9385817,5.9127112 3.922901,4.9653038 4.6180946,4.399307 5.3132882,3.8333101 5.71932,3.6487502 6.5621732,2.732068 7.4050263,1.8153857 8.6846415,0.16665081 10.093492,-1.5128949 c 1.408851,-1.6795458 3.970384,-4.5279705 4.254386,-5.0157128 0.284002,-0.4877422 0.550404,-2.4960079 0.987212,-4.8830663 0.436807,-2.387058 1.150439,-5.955216 1.864085,-9.523445 -1.316554,3.814314 -2.633107,7.628628 -3.537474,10.058726 -0.904366,2.4300973 -1.396526,3.4759369 -2.122486,4.6263956 -0.725959,1.1504588 -1.6856708,2.4054662 -2.6084976,3.4451827 C 8.0078907,-1.7650983 7.1220033,-0.9407308 5.7316053,-0.01175039 4.3412073,0.91723001 1.3845493,2.5299526 0.9869766,2.4650427 0.5894039,2.4001329 0.72379912,0.32660593 0.87760429,-1.6297938 1.0314095,-3.5861936 1.379593,-7.6483356 1.3611666,-8.6249371 1.3427402,-9.6015387 0.85914573,-12.715887 0.68688605,-15.299809 c -0.17225968,-2.583923 -0.20917166,-5.770657 -0.21532353,-7.770104 -0.006152,-1.999447 0.0184561,-2.811509 -0.25224301,-4.39878 -0.27069906,-1.587271 -0.83668294,-3.949638 -1.37807451,-6.933451 -0.5413915,-2.983814 -1.0581589,-6.588882 -1.5749369,-10.194024 -0.307606,-0.541387 -0.6152119,-1.082774 -0.9228179,-1.624161 0.3937356,5.130868 0.7874711,10.261735 1.0212524,13.479307 0.2337813,3.217571 0.3076054,4.521795 0.3752793,7.284138 0.067674,2.762343 0.1672329,9.592094 -0.1192488,10.12279 -0.2864817,0.530696 -3.7838189,-2.69126 -4.2843869,-3.194167 -0.500568,-0.502907 -2.234502,-2.456075 -3.3418952,-3.95721 -1.107393,-1.501135 -2.251664,-3.297517 -3.395958,-5.093936 0.947426,2.448543 1.894852,4.897086 2.540829,6.465884 0.645976,1.568798 0.990487,2.25782 1.3411613,2.897646 0.3506743,0.639827 0.7074908,1.230419 1.384234,2.024052 0.6767433,0.793634 1.6733662,1.790257 2.5654314,2.688475 0.8920652,0.898217 1.679521,1.697977 2.1163223,2.257823 0.4368013,0.559846 0.522929,0.879749 0.6090596,1.5072747 0.086131,0.6275257 0.1722586,1.5626293 0.043061,4.0727348 -0.1291979,2.5101055 -0.4737097,6.59503108 -0.7751661,10.1140728 -0.3014565,3.5190418 -0.5598404,6.4719997 -0.8859067,9.1789567 -0.3260663,2.706957 -0.7197941,5.167756 -1.2242739,7.671694 -0.5044799,2.503938 -1.1196795,5.050865 -1.7348914,7.597842 z"
       id="path19"
       transform="matrix(0.67297708,-0.10131133,0.08041871,0.53419444,-10.004183,14.821285)" /><path
       style="fill:#ffffff;fill-opacity:1;stroke:none;stroke-width:8.00899;stroke-linecap:round;stroke-linejoin:round;stroke-opacity:0.262976"
       d="m -12.523136,37.160481 c -1.096252,-1.513871 -2.833836,-3.913393 -3.241819,-4.7438 -0.407983,-0.830407 -2.292988,-6.221523 -2.551478,-7.335581 -0.258491,-1.114057 -0.836416,-5.599853 -0.95822,-8.418814 -0.121805,-2.818961 -2e-6,-5.620437 0.0609,-8.0565728 0.0609,-2.4361358 0.0609,-4.5067921 0.0609,-6.5774898 -0.539425,2.9407389 -1.078851,5.8814777 -1.44427,8.7700426 -0.365419,2.888564 -0.556824,5.724842 -0.504619,8.160977 0.05221,2.436135 0.551939,5.875474 0.376268,6.040334 -0.17567,0.164859 -2.586174,-1.48134 -3.464919,-2.107772 -0.878745,-0.626433 -1.462903,-1.118354 -1.771173,-1.150803 -0.30827,-0.03245 -4.397415,-0.03245 -6.711724,-0.03245 1.548673,0.469822 3.097345,0.939644 4.385017,1.461675 1.287671,0.52203 2.314299,1.096246 3.497568,1.870593 1.183269,0.774346 2.523104,1.748772 3.358347,2.479611 0.835244,0.73084 1.165853,1.218053 1.792291,2.714549 0.626439,1.496495 2.040201,5.337659 2.462781,6.235643 0.422581,0.897983 1.78301,2.951966 2.670452,4.291829 z"
       id="path20"
       transform="matrix(0.609795,0,0,0.56001027,-17.860682,36.92469)" /><path
       style="fill:#ffffff;fill-opacity:1;stroke:none;stroke-width:8.00899;stroke-linecap:round;stroke-linejoin:round;stroke-opacity:0.262976"
       d="m -28.444887,82.942043 c 1.687879,-1.218058 4.360408,-3.146688 5.194134,-4.179784 0.833727,-1.033096 4.498123,-6.956743 6.13381,-9.584282 1.635686,-2.627539 3.405179,-5.426554 3.597075,-5.623707 0.191895,-0.197154 3.119631,-2.224048 5.2425585,-3.659633 2.122927,-1.435586 4.7851997,-3.210434 7.4475254,-4.985317 -3.0973463,2.74933 -8.8976666,7.897928 -9.0560813,8.094006 -0.1584146,0.196078 0.9821,0.815214 1.4114084,1.108919 0.4293083,0.293705 0.6788857,0.55049 0.835493,0.863704 0.1566074,0.313215 0.2202396,0.682854 0.2838718,1.052493 -0.5394254,-0.400218 -1.2757537,-0.946526 -1.7342923,-1.084639 -0.4585386,-0.138114 -2.3593185,-0.21122 -2.6077125,-0.07092 -0.248394,0.140297 -1.939692,2.043008 -3.079458,3.783113 -1.139767,1.740105 -3.378488,5.829502 -3.581507,6.302388 -0.203019,0.472886 -0.483871,2.639453 -0.355546,3.024427 0.128325,0.384975 1.318242,1.87929 2.501514,3.175667 1.183272,1.296378 2.801516,2.949423 4.419793,4.602501 -1.044049,-0.330616 -2.088099,-0.661231 -3.14956,-1.235467 -1.061461,-0.574235 -2.140291,-1.392057 -3.088644,-2.166401 -0.948353,-0.774344 -2.251736,-1.93907 -2.585655,-1.904328 -0.333919,0.03474 -2.144844,2.012167 -2.574082,2.392547 -0.429237,0.380381 -2.530799,1.971019 -3.518611,2.825159 -0.987812,0.85414 -1.64903,1.56756 -2.310262,2.280994 z"
       id="path21"
       transform="matrix(1.0912301,0,0,-1.0798484,4.341188,169.66744)" /><path
       style="fill:#ffffff;fill-opacity:1;stroke:none;stroke-width:8.00899;stroke-linecap:round;stroke-linejoin:round;stroke-opacity:0.262976"
       d="m -31.039592,94.669356 c -0.03076,-0.04306 -0.09228,-0.129194 -1.396557,-0.239934 -1.304276,-0.110739 -3.851203,-0.246083 -5.862961,-0.535238 -2.011758,-0.289154 -4.612881,-1.069492 -4.778549,-1.183847 -0.165669,-0.114355 -0.01394,-1.02476 0.210401,-1.525198 0.224338,-0.500437 0.855238,-1.34286 0.82168,-1.609725 -0.03356,-0.266864 -1.114127,-3.000316 -1.756812,-4.240944 -0.642685,-1.240627 -1.307099,-2.151122 -1.971528,-3.061635 0.467561,1.980982 0.935122,3.961964 1.255032,5.223149 0.31991,1.261184 0.59432,2.123621 0.559266,2.353973 -0.03505,0.230353 -0.583875,1.171191 -0.768438,1.626451 -0.184563,0.455261 -0.22268,0.95081 -0.380815,1.003522 -0.158136,0.05271 -1.336752,-0.09729 -1.814159,-0.243786 -0.477406,-0.146494 -1.015685,-0.440997 -1.633519,-1.044947 -0.617834,-0.603951 -1.164971,-1.340933 -1.669126,-2.161986 -0.504155,-0.821052 -1.011319,-1.822376 -1.405058,-2.978988 -0.393739,-1.156613 -0.901318,-3.410265 -0.914233,-4.290651 -0.01291,-0.880385 0.37285,-6.930801 0.60663,-10.597464 -0.553691,2.313196 -1.107382,4.626393 -1.494968,6.638153 -0.387586,2.011761 -0.783952,5.072592 -0.745135,5.48665 0.03882,0.414058 1.565903,6.172437 1.739135,6.551537 0.173231,0.379101 3.121994,4.343547 3.325938,4.465586 0.203944,0.122038 3.85623,0.76521 5.77571,1.15895 1.919481,0.39374 3.801992,0.836683 5.260055,1.291945 1.458063,0.455261 2.491597,0.922812 3.408272,1.691838 0.916674,0.769026 1.716433,1.839473 2.25167,2.510053 0.535238,0.67059 0.805922,0.94127 0.99664,-0.16613 0.190719,-1.107407 0.301455,-3.592813 0.356824,-4.835541 0.05537,-1.242728 0.05536,-1.242728 0.02461,-1.285793 z"
       id="path22"
       transform="translate(0.37961995,33.671043)" /><path
       style="fill:#ffffff;fill-opacity:1;stroke:none;stroke-width:8.00899;stroke-linecap:round;stroke-linejoin:round;stroke-opacity:0.262976"
       d="m -20.747097,156.06136 c -0.799776,1.43959 -1.599553,2.87919 -2.263986,4.40493 -0.664434,1.52574 -1.193504,3.13756 -1.538024,4.59563 -0.344521,1.45806 -0.504474,2.76229 -0.535234,4.74945 -0.03076,1.98716 0.06767,4.65712 0.20302,6.6012 0.135349,1.94409 0.307605,3.16218 0.922827,4.25112 0.615222,1.08893 1.673363,2.04864 2.854585,2.98378 1.181221,0.93513 3.628456,2.64358 3.754709,2.82687 0.126254,0.1833 1.511493,4.03888 1.972904,5.82917 0.461412,1.79028 0.645971,3.31597 0.738253,4.45412 0.09228,1.13815 0.09228,1.88869 0.09228,2.63925 -0.516778,-1.63646 -1.033557,-3.27293 -1.562644,-4.82327 -0.529087,-1.55035 -1.070464,-3.01453 -1.710292,-4.19574 -0.639828,-1.18122 -1.378066,-2.07941 -2.177851,-2.85458 -0.799785,-0.77518 -1.661065,-1.42729 -2.257823,-1.75335 -0.596759,-0.32606 -0.928965,-0.32606 -0.953571,0.44297 -0.02461,0.76903 0.258385,2.30703 0.621365,3.83277 0.362979,1.52574 0.805923,3.03913 1.310403,4.47874 0.50448,1.43961 1.070463,2.80535 2.073273,5.48771 1.002811,2.68237 2.442377,6.68116 3.881973,10.68004 -1.107381,-1.77181 -2.214763,-3.54362 -3.143739,-5.1801 -0.928976,-1.63647 -1.679521,-3.13756 -2.417784,-4.68176 -0.738263,-1.5442 -1.464197,-3.13141 -2.263981,-5.18009 -0.799785,-2.04868 -1.67337,-4.5587 -2.343955,-6.35513 -0.670586,-1.79643 -1.138136,-2.87918 -1.605697,-3.96195 -0.123043,-2.59619 -0.246085,-5.19239 -0.381434,-7.24106 -0.135348,-2.04867 -0.282995,-3.54976 -0.504474,-5.21085 -0.221479,-1.66109 -0.516775,-3.48208 -0.572143,-4.76788 -0.05537,-1.2858 0.129193,-2.03635 0.406042,-3.14374 0.276849,-1.1074 0.645968,-2.57157 0.996643,-3.86968 0.350674,-1.29811 0.682883,-2.43008 1.101231,-3.81432 0.418348,-1.38424 0.922811,-3.02067 1.193505,-4.43567 0.270694,-1.415 0.307606,-2.60849 0.953591,-2.03632 0.645985,0.57217 1.900993,2.90993 3.156026,5.24774 z"
       id="path23"
       transform="matrix(0.71367338,0,0,0.71367338,-13.19585,35.076201)" /><path
       style="fill:#ffffff;fill-opacity:1;stroke:none;stroke-width:8.00899;stroke-linecap:round;stroke-linejoin:round;stroke-opacity:0.262976"
       d="m -1.0110986,186.90808 c 0.65212466,-0.0861 1.9563739,-0.25839 3.1006792,-0.62752 1.1443052,-0.36914 2.1286237,-0.93512 2.8299688,-1.4642 0.7013451,-0.52909 1.1196808,-1.02125 1.8764021,-1.42114 0.7567213,-0.39989 1.8517765,-0.70749 2.6946234,-1.24274 0.8428471,-0.53524 1.4334351,-1.29808 1.8333261,-2.0548 0.399891,-0.75672 0.609061,-1.50727 0.633667,-2.39318 0.02461,-0.88592 -0.135346,-1.90715 -0.504478,-2.8915 -0.369131,-0.98434 -0.94742,-1.93175 -1.285789,-2.55312 -0.3383686,-0.62137 -0.4367993,-0.91666 -0.3875802,-1.5811 0.049219,-0.66444 0.2460822,-1.69797 0.4552562,-2.67617 0.209175,-0.9782 0.430647,-1.901 0.898213,-2.71924 0.467566,-0.81823 1.181204,-1.53187 2.184011,-2.42393 1.002807,-0.89207 2.294727,-1.96252 3.266769,-2.72539 0.972043,-0.76287 1.928471,-1.43056 2.164716,-1.81118 0.236244,-0.38061 0.579122,-1.80626 1.038634,-2.71241 0.459511,-0.90614 1.144728,-1.74637 1.77011,-2.46666 0.625382,-0.72029 1.190899,-1.32061 1.808633,-1.87744 0.617735,-0.55683 1.287655,-1.07015 1.957587,-1.58347 -0.539425,0.72213 -1.078852,1.44427 -1.57913,2.0881 -0.500278,0.64384 -0.961393,1.20936 -1.352915,1.80969 -0.391521,0.60034 -0.713427,1.23545 -0.917888,1.79229 -0.204461,0.55683 -0.346979,1.34068 -0.213159,1.35013 0.13382,0.009 1.487771,-0.68891 2.201211,-1.03693 0.71344,-0.34802 1.313753,-0.61773 2.514428,-1.07885 1.200676,-0.46113 3.001625,-1.11365 4.80261,-1.76618 -1.183256,0.81784 -2.366511,1.63568 -3.654186,2.41437 -1.287676,0.7787 -2.679709,1.51822 -4.167497,2.47092 -1.487787,0.95271 -3.071229,2.11854 -4.450256,3.18 -1.379027,1.06146 -2.553561,2.01849 -3.514964,2.98424 -0.961403,0.96576 -1.70962,1.94018 -2.122891,2.86679 -0.413272,0.9266 -0.491574,1.80532 -0.535076,2.54921 -0.0435,0.74389 -0.0522,1.35291 0.178364,2.18381 0.230565,0.8309 0.700379,1.88363 1.091901,2.84938 0.391522,0.96576 0.95566,2.54848 1.057733,2.60644 0.102073,0.058 1.387077,-0.47485 2.087468,-0.91857 0.700391,-0.44373 1.387707,-1.03534 1.974991,-1.9228 0.587283,-0.88745 1.074496,-2.07068 1.561719,-3.25394 -0.330615,1.53997 -0.661231,3.07995 -1.004899,4.12835 -0.343668,1.0484 -0.700379,1.60522 -1.583485,2.28386 -0.883106,0.67864 -2.292544,1.47906 -3.114736,2.12725 -0.822191,0.64818 -1.0571,1.1441 -1.18108,1.57042 -0.12398,0.42633 -0.143674,0.96465 -0.05185,1.04366 0.09182,0.079 0.676108,0.0265 1.326473,-0.0562 0.650365,-0.0827 1.563891,-0.21316 2.342584,-0.34802 0.778692,-0.13486 1.422509,-0.27406 2.127248,-0.1392 0.70474,0.13486 1.470364,0.54377 2.440471,1.01795 0.970106,0.47417 2.144641,1.01359 3.227852,1.3616 1.08321,0.34802 2.075038,0.50462 3.119098,0.50897 1.04406,0.004 2.14029,-0.14355 3.375761,-0.52203 1.235472,-0.37847 2.610108,-0.98748 3.984788,-1.70962 1.37468,-0.72215 2.749316,-1.55737 3.771621,-2.31866 1.022306,-0.7613 1.692225,-1.44862 2.148998,-2.14901 0.456773,-0.70039 0.700381,-1.41381 0.804785,-2.23166 0.104404,-0.81784 0.0696,-1.74007 0.100056,-2.79283 0.03045,-1.05276 0.126154,-2.23599 0.40022,-3.2583 0.274066,-1.0223 0.726481,-1.88363 1.131053,-2.63622 0.404573,-0.75259 0.761283,-1.39641 1.583484,-2.48398 0.822201,-1.08756 2.109837,-2.61881 3.397498,-4.15008 -0.765636,1.29636 -1.531269,2.59272 -2.122901,3.64983 -0.591633,1.05711 -1.009245,1.87493 -1.400768,2.9016 -0.391523,1.02666 -0.756932,2.26209 -0.978794,3.28874 -0.221861,1.02666 -0.300163,1.84448 -0.295812,2.59273 0.0044,0.74824 0.09135,1.42686 0.33932,1.74877 0.247966,0.32192 0.656876,0.28711 1.82275,-0.73085 1.165874,-1.01797 3.088624,-3.01902 4.524204,-4.52421 1.43558,-1.50518 2.383902,-2.5144 3.749886,-4.19361 1.365984,-1.6792 3.14953,-4.02826 4.933114,-6.37737 -0.191409,0.71343 -0.382817,1.42686 -0.830896,2.40132 -0.448079,0.97446 -1.152797,2.20989 -2.070701,3.56282 -0.917905,1.35293 -2.048935,2.82327 -3.227853,4.24145 -1.178918,1.41818 -2.405653,2.78412 -3.380107,3.87603 -0.974453,1.09191 -1.696571,1.90973 -2.557921,2.78413 -0.86135,0.8744 -1.861881,1.80533 -2.771079,2.74933 -0.909199,0.944 -1.727022,1.90103 -2.497017,2.83199 -0.769994,0.93095 -1.492113,1.83577 -2.462222,2.56226 -0.970108,0.72649 -2.188143,1.2746 -3.771635,1.92279 -1.583493,0.64819 -3.532347,1.39641 -4.994025,2.0272 -1.461678,0.63078 -3.066838,1.47636 -3.473465,1.4871 -0.406627,0.0107 -2.59941,-0.73453 -3.800078,-1.1652 -1.200667,-0.43067 -2.270797,-0.83958 -3.075592,-1.15715 -0.804795,-0.31757 -1.344208,-0.54377 -2.135955,-0.67428 -0.791748,-0.1305 -1.835777,-0.16531 -3.258312,-0.0131 -1.422534,0.15226 -3.223483,0.49157 -4.61556,0.8657 -1.3920757,0.37412 -2.3752015,0.78303 -3.3366057,1.30941 -0.9614042,0.52638 -1.9010311,1.1702 -2.510062,1.81839 -0.609031,0.64818 -0.8874397,1.3007 -1.1658528,1.95323 -1.1023909,-0.45746 -2.2047843,-0.91491 -3.02667859,-1.72196 -0.82189434,-0.80704 -1.36326751,-1.96361 -1.90465411,-3.12021 0,0 -2e-6,0 0.6521226,-0.0861 z"
       id="path24"
       transform="matrix(0.5383248,0.04855726,-0.04960634,0.52944793,13.282485,95.019962)" /><path
       style="fill:#ffffff;fill-opacity:1;stroke:none;stroke-width:8.00899;stroke-linecap:round;stroke-linejoin:round;stroke-opacity:0.262976"
       d="m 26.685742,214.04508 c -0.369128,0.39989 -1.107379,1.19966 -1.802575,2.17171 -0.695195,0.97204 -1.347311,2.11632 -2.054813,2.90379 -0.707501,0.78748 -1.47035,1.21811 -2.602354,1.83949 -1.132003,0.62137 -2.633087,1.43344 -3.863521,2.24552 -1.230435,0.81209 -2.190145,1.62415 -3.211409,2.15324 -1.021263,0.52908 -2.104014,0.77516 -3.3529089,0.83053 -1.2488946,0.0554 -2.6638542,-0.08 -2.866864,-0.27069 -0.2030098,-0.19072 0.8059172,-0.4368 1.6118509,-0.63367 0.8059337,-0.19687 1.4088301,-0.34452 2.036353,-0.566 0.627524,-0.22148 1.279634,-0.51677 1.205801,-0.69518 -0.07383,-0.17841 -0.873593,-0.23994 -1.667223,-0.31376 -0.7936293,-0.0738 -1.5810883,-0.15996 -2.583896,-0.53524 -1.0028076,-0.37529 -2.2209015,-1.0397 -3.0391384,-1.51957 -0.818237,-0.47987 -1.236574,-0.77517 -1.538029,-1.22428 -0.3014551,-0.44911 -0.4860137,-1.052 -0.5782959,-1.64877 -0.092282,-0.59676 -0.092282,-1.18735 0.1353512,-1.04584 0.2276335,0.14151 0.6828802,1.01509 1.2119685,1.69798 0.5290883,0.68289 1.1319839,1.17505 2.0425092,1.55033 0.9105253,0.37528 2.1286217,0.63367 3.4144277,0.73826 1.2858057,0.10458 2.6392447,0.0554 4.2080547,-0.30146 1.56881,-0.35683 3.352887,-1.02125 4.706363,-1.74721 1.353475,-0.72596 2.276271,-1.51341 3.069903,-2.55314 0.793632,-1.03972 1.458044,-2.33163 1.796412,-3.31598 0.338368,-0.98435 0.350671,-1.66107 0.978197,-1.63645 0.627527,0.0246 1.870233,0.75055 2.491597,1.11353 0.621364,0.36297 0.621367,0.36297 0.252239,0.76286 z"
       id="path25"
       transform="matrix(0.42013861,-0.63712656,0.63712656,0.42013861,-132.53617,133.9699)" /><path
       style="fill:#ffffff;fill-opacity:1;stroke:none;stroke-width:8.00899;stroke-linecap:round;stroke-linejoin:round;stroke-opacity:0.262976"
       d="m 40.589532,220.64015 c -0.0123,-0.1292 -0.03692,-0.38758 -0.172266,-0.72595 -0.135352,-0.33838 -0.381429,-0.75671 -0.565994,-1.59341 -0.184564,-0.8367 -0.307605,-2.09171 -0.362972,-3.58054 -0.05537,-1.48883 -0.03958,-3.69903 -0.03138,-4.66992 0.0082,-0.97089 0.02608,-2.64083 0.236362,-3.34783 0.210286,-0.70699 1.202116,-2.70082 1.916643,-3.99813 0.714527,-1.29731 1.440462,-2.47849 2.166412,-3.6597 -1.095077,1.07047 -2.190153,2.14094 -3.088368,3.16835 -0.898215,1.02741 -1.599545,2.01173 -2.202458,2.99608 -0.602914,0.98435 -1.356002,2.45379 -1.446485,3.06221 -0.09048,0.60843 0.129935,2.72078 0.259131,3.97582 0.129195,1.25504 0.239933,2.3501 0.246084,3.54362 0.0062,1.19352 -0.09228,2.48544 -0.190715,3.77739 1.082772,0.39373 2.165547,0.78747 2.706933,0.98433 0.541386,0.19687 0.54138,0.19687 0.529075,0.0677 z"
       id="path26"
       transform="matrix(0.7527803,-0.31471532,0.31471532,0.7527803,-46.54839,71.86732)" /><path
       style="fill:#ffffff;fill-opacity:1;stroke:none;stroke-width:8.00899;stroke-linecap:round;stroke-linejoin:round;stroke-opacity:0.262976"
       d="m 59.907189,230.32974 c 0.95973,0.66443 2.879193,1.99329 4.521821,3.23602 1.642627,1.24274 3.008371,2.39932 4.011173,3.34675 1.002802,0.94744 1.64261,1.68568 2.140934,2.44239 0.498324,0.75672 0.855144,1.53188 1.156598,2.22092 0.301455,0.68904 0.547535,1.29194 0.756709,2.44856 0.209174,1.15661 0.481374,3.85916 0.357405,4.3757 -0.12397,0.51654 -1.32944,1.70257 -2.129224,2.18859 -0.799784,0.48602 -2.208954,0.85904 -2.319681,0.9853 -0.110727,0.12627 0.11723,1.10027 0.492515,1.91851 0.375284,0.81824 0.990483,1.87638 1.501114,2.69462 0.510631,0.81824 0.916663,1.39653 1.433448,1.86409 0.516786,0.46757 1.144286,0.82438 3.033018,1.4396 1.888732,0.61522 5.038555,1.48881 8.18844,2.36241 -1.156599,-0.5783 -2.313196,-1.1566 -3.752809,-1.79027 -1.439612,-0.63368 -4.062216,-1.68272 -4.617437,-2.0323 -0.555222,-0.34959 -1.473147,-1.52978 -1.922254,-2.34802 -0.449107,-0.81824 -0.910505,-2.16398 -0.872824,-2.43853 0.03768,-0.27454 0.76824,-0.88975 1.371156,-1.24043 0.602915,-0.35067 1.65213,-0.78785 2.164867,-0.76648 0.512736,0.0214 1.981654,0.56347 3.058286,1.06179 1.076633,0.49833 2.196298,1.11353 3.24217,1.80873 1.045872,0.6952 2.566002,1.90745 3.04626,2.09795 0.480258,0.19049 2.404505,0.34443 3.979466,0.60283 1.574962,0.25839 3.494386,0.67673 4.79249,1.0397 1.298105,0.36298 1.974826,0.67058 2.774608,0.70749 0.799783,0.0369 1.722585,-0.19687 3.002243,-0.2953 1.279659,-0.0984 4.021649,-0.0366 4.668309,-0.18029 0.64666,-0.1437 5.97045,-2.23419 6.46261,-2.47143 0.49215,-0.23724 0.57039,-0.6089 0.61961,-0.84268 -1.19351,0.283 -2.38702,0.56599 -3.61745,0.77517 -1.23044,0.20917 -2.49776,0.34451 -3.85739,0.41834 -1.35963,0.0738 -2.8115,0.0861 -4.651007,-0.0677 -1.839508,-0.15381 -4.066529,-0.47371 -5.979853,-0.8613 -1.913325,-0.38759 -3.512845,-0.84283 -5.032433,-1.43344 -1.519587,-0.59061 -2.959156,-1.31655 -4.288027,-2.0302 -1.328871,-0.71366 -2.546965,-1.41498 -3.598985,-2.3009 -1.05202,-0.88591 -1.937908,-1.95636 -2.51621,-3.03915 -0.578303,-1.08278 -1.010225,-2.8301 -0.945547,-3.06892 0.06468,-0.23882 1.007069,-0.37625 1.862225,-0.43777 0.855156,-0.0615 1.974818,-0.0984 2.989928,0.0738 1.015109,0.17226 1.925605,0.55368 2.836129,1.06431 0.910524,0.51064 1.821017,1.15045 2.73153,1.79027 0,-0.36913 0,-0.97995 -0.104071,-1.13075 -0.104071,-0.15079 -1.101743,-0.98558 -2.036878,-1.69309 -0.935136,-0.7075 -2.961884,-2.16361 -3.348972,-2.32141 -0.387087,-0.15779 -1.44967,0.039 -2.249453,0.0636 -0.799784,0.0246 -2.318111,-0.0953 -2.646861,-0.34298 -0.32875,-0.24772 -1.647308,-2.26551 -2.650118,-3.55132 -1.00281,-1.28581 -2.196294,-2.61463 -3.389806,-3.94349 -3.875834,-1.02125 -7.751671,-2.04251 -9.689587,-2.55313 -1.937916,-0.51063 -1.937916,-0.51062 -0.978185,0.15381 z"
       id="path27"
       transform="matrix(0.69127218,0,0,0.69127218,20.731249,73.601658)" /><path
       style="fill:#ffffff;fill-opacity:1;stroke:none;stroke-width:8.00899;stroke-linecap:round;stroke-linejoin:round;stroke-opacity:0.262976"
       d="m 140.27348,228.43031 c -0.43502,-1.25286 -0.87005,-2.50572 -1.03535,-3.7586 -0.16531,-1.25287 -0.0609,-2.5057 0.1131,-3.69766 0.17401,-1.19197 0.41762,-2.323 0.69604,-3.34096 0.27841,-1.01796 0.59162,-1.92278 1.00925,-2.92334 0.41762,-1.00056 0.93964,-2.09679 1.51387,-3.14085 0.57423,-1.04406 1.20065,-2.03588 2.0707,-3.26265 0.87005,-1.22678 1.98368,-2.68842 2.89723,-3.75858 0.91356,-1.07015 1.89969,-2.00818 2.14692,-2.41667 0.24724,-0.40848 0.3675,-1.2984 0.35009,-2.84709 -0.0174,-1.5487 -0.1392,-4.00217 -0.37412,-7.16045 -0.23491,-3.15829 -0.58292,-7.0212 -0.93094,-10.88418 -0.15661,1.54867 -0.31321,3.09735 -0.41762,4.86355 -0.1044,1.7662 -0.18656,4.88791 -0.35717,5.23655 -0.17061,0.34864 -1.34811,-0.19903 -1.88754,-0.59056 -0.53942,-0.39152 -0.87003,-0.82653 -1.20935,-1.56607 -0.33932,-0.73955 -0.68733,-1.78358 -1.03535,-2.82763 -0.17401,0.46982 -0.45382,1.22534 -0.44018,1.60383 0.0136,0.37849 0.5634,3.67709 0.76209,3.97972 0.1987,0.30263 1.66179,0.73295 2.32303,1.19408 0.66123,0.46113 1.30134,1.4341 1.37952,2.09626 0.0782,0.66216 -0.2159,4.55853 -0.45956,5.18954 -0.24366,0.63101 -2.24243,3.37219 -3.4779,5.02529 -1.23548,1.65309 -3.24,4.27011 -3.51843,4.37452 -0.27843,0.10441 -0.58132,-2.31875 -0.78427,-2.63977 -0.20294,-0.32103 -1.91204,-1.15739 -2.28846,-1.58457 -0.37643,-0.42718 -1.48282,-2.48191 -2.04835,-3.89139 -0.56553,-1.40948 -0.96573,-2.87109 -1.12234,-4.5503 -0.15661,-1.67922 -0.0696,-3.57587 0.0174,-5.47256 -0.26101,0.46982 -0.66548,1.19786 -0.75561,1.53095 -0.0901,0.33309 -0.30584,1.89702 -0.47115,2.96718 -0.16531,1.07016 -0.44961,2.75007 -0.41378,3.39493 0.0358,0.64487 0.52688,2.68664 0.7705,3.90471 0.24361,1.21807 0.40021,2.2795 0.55682,3.34095 0.74824,0.36542 1.49647,0.73083 2.17511,1.40077 0.67864,0.66994 1.50467,1.99161 1.69508,2.64122 0.1904,0.64961 0.1668,2.0657 -0.18122,3.12716 -0.34803,1.06146 -1.4838,2.86705 -1.60306,3.18506 -0.11926,0.31802 -0.23907,2.31501 -0.41683,2.5224 -0.17776,0.20739 -1.88074,0.64148 -2.61437,0.61091 -0.73362,-0.0306 -2.96498,-0.61266 -3.4461,-0.96777 -0.48112,-0.35511 -2.47564,-2.97948 -2.84647,-3.5191 -0.37083,-0.53962 -0.79997,-1.33066 -1.1032,-2.33783 -0.30323,-1.00717 -0.44724,-2.06367 -0.42172,-2.73387 0.0255,-0.6702 0.30598,-2.11927 0.51479,-3.19812 -0.40022,0.46982 -0.80043,0.93965 -1.13105,1.58348 -0.33062,0.64384 -0.59163,1.46167 -0.66993,2.36652 -0.0783,0.90485 0.0261,1.89668 0.1044,2.60141 0.0783,0.70474 0.13051,1.12235 0.18271,1.53997 0.45242,0.67863 0.90484,1.35727 1.37467,2.24472 0.46982,0.88745 0.95703,1.98368 1.31376,2.87113 0.35672,0.88745 0.70821,1.94193 0.88677,2.07002 0.17856,0.1281 1.07082,-0.0341 1.85387,-0.0776 0.78304,-0.0435 1.77487,-0.0261 2.76673,0.13921 0.99185,0.16531 2.67573,0.69706 2.85982,0.84696 0.18409,0.14991 0.47417,1.02015 0.68351,2.37473 0.20935,1.35458 0.25004,2.07685 0.31964,3.31231 z"
       id="path28"
       transform="matrix(0.74962288,0.27631432,-0.35278637,0.5871302,101.64253,57.405412)" /><path
       style="fill:#ffffff;fill-opacity:1;stroke:none;stroke-width:8.00899;stroke-linecap:round;stroke-linejoin:round;stroke-opacity:0.262976"
       d="m 163.13815,218.14642 c -0.19141,-0.60903 -0.38281,-1.21806 -0.29581,-2.09681 0.087,-0.87875 0.58574,-2.44617 0.64652,-2.98222 0.0608,-0.53605 -0.1767,-1.27227 -0.0375,-2.13362 0.13921,-0.86135 0.83573,-2.683 0.9439,-3.15974 0.10816,-0.47673 0.14291,-2.24886 -0.003,-2.86735 -0.14636,-0.61848 -0.95785,-2.64721 -1.51468,-4.03927 0.16381,1.49138 0.37827,3.44384 0.36947,4.23401 -0.009,0.79017 -0.25662,1.83252 -0.46904,2.38321 -0.21241,0.55069 -0.5763,1.0221 -0.93868,0.94108 -0.36239,-0.081 -3.2908,-1.50768 -3.72221,-1.63913 -0.43142,-0.13144 -1.83445,-0.1595 -2.58269,-0.0986 -0.74824,0.0609 -1.37466,0.20011 -2.00109,0.33932 -0.24361,0.27841 -0.48722,0.55683 -0.73083,0.83524 0.62643,-0.0348 1.25286,-0.0696 1.89669,0.009 0.64384,0.0783 1.30506,0.26971 2.07941,0.57423 0.77434,0.30452 1.66176,0.72213 2.3404,1.08755 0.67864,0.36542 1.14845,0.67863 1.42686,1.29636 0.27841,0.61774 0.36542,1.53997 0.32191,2.46222 -0.0435,0.92226 -0.2175,1.84448 -0.61773,2.81024 -0.40022,0.96575 -1.02664,1.97498 -1.57477,2.76672 -0.54813,0.79175 -1.01795,1.36596 -1.48777,1.94019 z"
       id="path29"
       transform="matrix(1.0089939,-0.557262,-0.70240334,-0.76587515,129.90041,489.00074)" /><path
       style="fill:#ffffff;fill-opacity:1;stroke:none;stroke-width:8.00899;stroke-linecap:round;stroke-linejoin:round;stroke-opacity:0.262976"
       d="m 177.5111,209.28949 c 0.39374,0.60291 0.78748,1.20582 1.40885,2.0056 0.62137,0.79979 1.47034,1.79641 2.16554,2.61465 0.69519,0.81824 1.23657,1.45805 1.75335,2.09787 0.51678,0.63983 1.00894,1.27964 1.67338,1.8764 0.66444,0.59676 1.50111,1.15044 2.36857,1.618 0.86745,0.46757 1.76565,0.84899 2.86689,1.20582 1.10124,0.35682 2.40546,0.68903 3.70972,0.79977 1.30427,0.11074 2.60849,0 3.91274,-0.11074 -0.38143,0.31991 -0.9835,0.82487 -1.44513,0.98566 -0.46163,0.1608 -4.58555,1.17074 -4.99131,1.18543 -0.40575,0.0147 -1.95505,-0.57154 -2.88403,-0.86069 -0.92898,-0.28916 -2.49215,-0.67487 -2.58691,-0.4832 -0.0948,0.19167 0.57518,2.38421 0.95662,3.81766 0.38143,1.43346 0.73825,2.97146 1.11353,5.73995 0.37528,2.7685 0.76901,6.7673 1.16274,10.76618 -0.49217,-1.89485 -0.98434,-3.78971 -1.4273,-5.58614 -0.44295,-1.79644 -0.83668,-3.49439 -1.34731,-5.27237 -0.51063,-1.77798 -1.13813,-3.63588 -1.67337,-5.17392 -0.53524,-1.53805 -0.97819,-2.75614 -1.56265,-3.99273 -0.58445,-1.23659 -1.31039,-2.4916 -2.07326,-3.73434 -0.76287,-1.24274 -1.56263,-2.47314 -2.15324,-3.27907 -0.59061,-0.80593 -0.97203,-1.18736 -1.75951,-1.5811 -0.78749,-0.39374 -1.98097,-0.79977 -3.17448,-1.20581 z"
       id="path30" /><path
       style="fill:#ffffff;fill-opacity:1;stroke:none;stroke-width:8.00899;stroke-linecap:round;stroke-linejoin:round;stroke-opacity:0.262976"
       d="m 188.53877,200.56395 c -0.3476,0.7401 -0.18764,0.65396 -0.0277,0.56783 1.4396,-0.68904 2.87919,-1.37807 4.28804,-1.94407 1.40885,-0.566 2.7869,-1.00895 4.09116,-1.13199 1.30426,-0.12304 2.53466,0.0738 3.87583,0.50449 1.34118,0.43065 2.79305,1.09506 4.4849,1.87639 1.69186,0.78133 3.62358,1.67952 5.33389,2.45469 1.7103,0.77518 3.19909,1.42729 4.6879,2.07941 3.08836,0.18456 6.17673,0.36913 8.79756,0.39373 2.62082,0.0246 4.77401,-0.11073 6.69964,-0.40604 1.92563,-0.2953 3.62359,-0.75055 5.32157,-1.20581 -1.1689,0.0615 -2.33781,0.12305 -4.25729,0.13535 -1.91949,0.0123 -4.58946,-0.0246 -6.60737,-0.10459 -2.01791,-0.08 -3.38365,-0.20302 -4.59562,-0.4245 -1.21198,-0.22147 -2.27013,-0.54138 -3.69744,-1.0274 -1.42731,-0.48603 -3.22369,-1.13814 -4.76174,-1.75951 -1.53804,-0.62137 -2.81765,-1.21196 -4.09115,-1.91331 -1.2735,-0.70135 -2.54081,-1.51341 -3.38981,-2.12863 -0.849,-0.61521 -1.27964,-1.03355 -1.00279,-1.52573 0.27686,-0.49217 1.26118,-1.05816 3.05762,-2.07327 1.79645,-1.01511 4.4049,-2.47929 6.23209,-3.5067 1.82719,-1.02741 3.64741,-2.0553 3.89813,-2.26609 0.25072,-0.21079 1.79257,-2.00962 2.99225,-3.48 1.19968,-1.47038 2.71307,-3.3775 4.18584,-5.30107 1.47277,-1.92358 2.90484,-3.8635 4.02111,-5.30331 1.11628,-1.43981 1.9167,-2.37944 3.09997,-3.20598 1.18327,-0.82655 2.74932,-1.53997 4.52422,-2.149 1.7749,-0.60903 3.75855,-1.11365 5.47255,-1.30505 1.714,-0.19141 3.15823,-0.0696 4.44591,0.2088 1.28767,0.27842 2.4187,0.71343 2.5579,0.61772 0.13919,-0.0957 -0.71343,-0.72212 -1.56608,-1.20065 -0.85265,-0.47853 -1.70527,-0.80913 -2.49702,-1.08755 -0.79174,-0.27842 -1.87078,-0.6124 -2.42192,-0.60329 -0.55114,0.009 -2.5808,0.39448 -4.2513,0.85561 -1.6705,0.46113 -5.00452,1.58231 -5.24287,1.54258 -0.23835,-0.0397 0.44026,-1.60349 0.87529,-2.64755 0.43502,-1.04406 0.90484,-2.20989 1.42687,-3.49757 0.52203,-1.28767 1.09624,-2.69711 1.74008,-3.88038 0.64384,-1.18326 1.35726,-2.14029 2.22731,-3.15825 0.87005,-1.01796 1.89668,-2.09679 3.17566,-3.19305 1.27897,-1.09626 2.81021,-2.20989 4.34148,-3.32354 -1.09625,0.50462 -2.1925,1.00925 -3.09735,1.39207 -0.90485,0.38282 -1.99772,0.78264 -2.39279,1.07589 -0.39508,0.29325 -1.8878,1.81264 -3.02757,2.8828 -1.13977,1.07016 -3.17968,2.86529 -3.55981,3.49249 -0.38012,0.62721 -1.0601,3.31992 -1.76484,5.13832 -0.70475,1.81841 -1.67917,3.73246 -2.86244,5.60307 -1.18327,1.87061 -2.57531,3.69766 -4.36761,5.89889 -1.79231,2.20122 -3.98477,4.7765 -5.89018,6.7254 -1.9054,1.94891 -3.52364,3.27134 -5.58567,4.72432 -2.06202,1.45299 -4.56769,3.03643 -6.6906,4.3067 -2.12292,1.27027 -3.86297,2.2273 -5.25505,2.86243 -1.39207,0.63513 -2.4361,0.94834 -3.16694,0.93964 -0.73084,-0.009 -1.14845,-0.33931 -1.56607,-0.66993 -2.0533,1.75748 -4.10659,3.51497 -5.56082,5.17688 -1.45423,1.66192 -2.30936,3.22821 -2.65695,3.96831 z"
       id="path31"
       transform="matrix(0.65193289,0,0,0.65193289,68.88834,68.885147)" /><path
       style="fill:#ffffff;fill-opacity:1;stroke:none;stroke-width:8.00899;stroke-linecap:round;stroke-linejoin:round;stroke-opacity:0.262976"
       d="m 223.01022,65.863763 c -0.92225,0.591628 -1.84449,1.18325 -2.81895,2.018501 -0.97446,0.835251 -2.0011,1.914087 -2.74933,2.766734 -0.74824,0.852647 -1.48944,1.84091 -1.92305,2.020971 -0.43362,0.180061 -2.93177,0.536939 -5.0895,0.536937 -2.15773,-2e-6 -6.98538,-0.399743 -7.53645,-0.582083 -0.55107,-0.18234 -4.08728,-2.550064 -5.82737,-3.959545 -1.7401,-1.409481 -4.19733,-3.866708 -4.5833,-4.364644 -0.38598,-0.497936 -1.71579,-2.926284 -2.51623,-4.387953 1.04405,1.113652 2.0881,2.227305 3.47148,3.488879 1.38339,1.261575 3.10604,2.671014 4.63732,3.723769 1.53129,1.052756 2.87112,1.748772 4.28931,2.340406 1.41818,0.591634 2.91462,1.078848 4.2545,1.33116 1.33987,0.252311 2.5231,0.269711 2.6536,0.06089 0.13049,-0.208816 -0.79173,-0.643826 -1.70528,-1.357269 -0.91355,-0.713442 -2.47647,-2.426641 -2.66153,-2.694744 -0.18507,-0.268104 -0.96654,-1.951265 -1.21885,-2.716907 -0.25231,-0.765641 -0.30451,-1.322456 -0.35671,-1.879282 0.78304,1.148454 1.56607,2.296906 2.28821,3.219157 0.72214,0.92225 1.38336,1.61827 2.33171,2.1577 0.94836,0.539429 2.1838,0.922241 3.55847,1.104949 1.37468,0.182708 2.88852,0.165308 3.82817,-0.08701 0.93966,-0.252313 1.30507,-0.739531 1.8445,-1.409474 0.53944,-0.669943 1.25285,-1.522567 1.68787,-2.227304 0.43502,-0.704736 0.59162,-1.26155 0.78303,-2.096801 0.19141,-0.835251 0.41762,-1.948882 0.64383,-3.062534 z"
       id="path32"
       transform="matrix(0.64871149,-0.00150211,0.0025161,1.0866327,79.848311,12.019349)" /><path
       style="fill:#ffffff;fill-opacity:1;stroke:none;stroke-width:8.00899;stroke-linecap:round;stroke-linejoin:round;stroke-opacity:0.262976"
       d="m 204.76045,179.60197 c 0,-0.0861 0,-0.17226 0.0123,-0.54755 0.0123,-0.37529 0.0369,-1.0397 -0.25226,-1.70414 -0.28916,-0.66443 -0.89206,-1.32885 -1.53804,-1.64261 -0.64598,-0.31376 -1.335,-0.27684 -2.4547,-0.31376 -1.11971,-0.0369 -2.67001,-0.14764 -3.82046,-0.30145 -1.15045,-0.1538 -2.41504,-0.4855 -2.62829,-0.63284 -0.21326,-0.14734 -1.22908,-1.39121 -1.86276,-2.18484 -0.63367,-0.79363 -1.57458,-1.9959 -1.73981,-2.36588 -0.16524,-0.36999 -0.0258,-0.96241 0.0726,-1.38075 0.566,0.68904 1.132,1.37808 1.84565,2.04251 0.71365,0.66443 1.57493,1.30424 2.52852,1.69798 0.95359,0.39374 1.99943,0.54139 2.98993,0.55369 0.9905,0.0123 2.42524,-0.17648 2.6086,-0.27103 0.18336,-0.0946 -0.0432,-0.52875 -0.38155,-0.98401 -0.33837,-0.45526 -0.86744,-1.08276 -1.42729,-2.08557 -0.55984,-1.00281 -1.15044,-2.38086 -1.80257,-3.45749 -0.65213,-1.07663 -1.36576,-1.85178 -2.4547,-2.71924 -1.08895,-0.86746 -2.55312,-1.82717 -3.77125,-2.54082 -1.21813,-0.71365 -2.19014,-1.1812 -3.35906,-1.66107 -1.16892,-0.47987 -2.53466,-0.97203 -3.94351,-1.34116 -1.40885,-0.36913 -2.86072,-0.61521 -4.31262,-0.86129 0.72595,-0.19687 1.82772,-0.49566 2.3173,-0.50753 0.48959,-0.0119 2.46905,0.21222 3.81638,0.46446 1.34733,0.25224 2.73768,0.60906 4.09731,1.05202 1.35963,0.44296 2.68846,0.97203 3.74048,1.52572 1.05202,0.5537 1.82717,1.13199 2.8915,1.90101 1.06433,0.76903 2.91366,2.08037 3.41651,2.59492 0.50286,0.51455 0.82229,1.42241 1.37599,2.40061 0.5537,0.9782 1.42728,2.27012 2.22707,3.29138 0.79978,1.02126 1.52571,1.7718 2.45469,2.4793 0.92899,0.7075 2.06095,1.37191 3.19294,2.03634 -1.27964,1.82103 -2.55928,3.64206 -3.1991,4.55257 -0.63982,0.91052 -0.63979,0.91052 -0.63979,0.91052 z"
       id="path33"
       transform="matrix(0.56132631,0.23101029,-0.23101029,0.56132631,137.93045,13.101456)" /><path
       style="fill:#ffffff;fill-opacity:1;stroke:none;stroke-width:8.00899;stroke-linecap:round;stroke-linejoin:round;stroke-opacity:0.262976"
       d="m 230.00532,110.54907 c 0.87005,-1.51387 2.20737,-3.84079 2.67055,-4.4087 0.46319,-0.5679 2.20169,-2.01221 3.35016,-2.86486 1.14847,-0.85264 2.3143,-1.61826 4.01961,-2.65363 1.7053,-1.035362 5.61611,-3.30909 5.98162,-3.658907 0.36552,-0.349817 1.3963,-2.805477 1.96183,-4.380269 0.56553,-1.574793 1.10495,-3.314837 1.36596,-4.79392 0.26101,-1.479083 0.24361,-2.697114 0.22621,-3.915172 -0.59163,1.618276 -1.18326,3.236557 -1.9054,4.802646 -0.72214,1.566088 -1.57477,3.079928 -2.2621,4.176184 -0.68734,1.096257 -1.4787,2.125026 -1.85772,2.402971 -0.37901,0.277945 -2.72898,1.335436 -2.82818,1.303146 -0.0992,-0.03229 0.414,-1.270002 0.87513,-2.06175 0.46113,-0.791747 1.35359,-2.031288 1.56381,-2.621912 0.21022,-0.590624 0.35897,-2.276416 0.58518,-3.555392 0.22621,-1.278975 0.57422,-2.65361 1.22677,-4.741737 0.65254,-2.088127 2.35253,-7.064444 2.48293,-7.768982 0.1304,-0.704537 0.50131,-6.917282 0.57961,-9.605728 0.0783,-2.688446 -0.004,-5.634265 -0.0938,-6.480847 -0.0903,-0.846583 -0.85911,-5.130006 -1.06885,-5.989125 -0.20974,-0.859118 -1.03853,-3.425658 -1.57796,-5.096137 0.24361,2.1229 0.48722,4.245801 0.62643,6.011998 0.1392,1.766196 0.174,3.175634 0.0348,5.220258 -0.13921,2.044624 -0.45242,4.724295 -0.76563,6.934217 -0.31322,2.209921 -0.81718,5.009727 -0.99066,5.179807 -0.17349,0.170081 -1.09743,-1.229837 -1.53245,-2.186894 -0.43502,-0.957058 -0.73083,-2.001085 -0.94834,-3.567179 -0.21751,-1.566094 -0.35671,-3.654148 -0.49592,-5.742247 -0.48722,1.879289 -1.37165,5.290697 -1.41505,5.612148 -0.0434,0.321452 -0.0118,3.22747 0.0491,4.402032 0.0609,1.174561 0.16531,1.922782 0.53943,2.523115 0.37412,0.600332 1.01793,1.05274 1.53996,1.600877 0.52204,0.548136 1.17337,1.595945 1.19282,2.069133 0.0195,0.473188 -0.46199,3.560029 -0.95791,5.691651 -0.49593,2.131622 -1.19195,4.498094 -1.9141,6.542707 -0.72214,2.044613 -1.69779,4.290844 -2.35184,5.338536 -0.65405,1.047693 -2.12887,2.726723 -3.12942,3.762079 -1.00055,1.035355 -2.41849,2.311503 -2.77927,2.469343 -0.36077,0.15784 -2.11905,0.27128 -3.19791,0.34088 z"
       id="path34"
       transform="matrix(0.68378965,0.04094823,-0.04094823,0.68378965,74.020507,48.3401)" /></g><g
     id="g44032"
     style="display:inline;fill:#ffffff;fill-opacity:1"
     transform="matrix(1.0042384,0,0,1.0042384,6.959153,-45.601246)"><path
       style="color:#000000;display:none;fill:#ffffff;fill-opacity:1;stroke-linecap:square;stroke-linejoin:round;stroke-miterlimit:2.6;stroke-dasharray:36.5, 14.25;stroke-dashoffset:43.5;-inkscape-stroke:none"
       d="m 108.16918,58.018164 -0.15444,2.420791 a 1.2741028,1.2741028 48.639877 0 0 1.19086,1.352666 l 1.22213,0.07752 c 8.22256,0.525659 16.37828,2.131373 24.17969,4.773437 h 0.002 c 3.42197,1.158129 6.77588,2.512142 10.04102,4.056641 l 1.08489,0.513844 c 0.6488,0.307297 1.42387,0.0303 1.73093,-0.61861 l 1.03717,-2.191778 A 1.2756672,1.2756672 70.333908 0 0 147.8964,66.70414 l -1.10729,-0.524453 c -3.43937,-1.626913 -6.97286,-3.053859 -10.57617,-4.273437 h -0.002 c -8.22089,-2.783949 -16.80468,-4.473833 -25.46289,-5.027344 l -1.1986,-0.07597 c -0.71668,-0.04542 -1.33455,0.498571 -1.38027,1.215226 z m -10.797617,-1.117729 -1.221172,0.09762 c -3.396048,0.272909 -6.777294,0.721962 -10.126954,1.341797 v -0.002 c -8.925617,1.650044 -17.618186,4.537122 -25.757812,8.554687 l -1.074294,0.530123 c -0.64393,0.317754 -0.908346,1.097355 -0.590589,1.741283 l 1.073745,2.175921 a 1.2740583,1.2740583 18.735321 0 0 1.706314,0.578728 l 1.097715,-0.54168 c 7.724789,-3.81281 15.981923,-6.555055 24.453125,-8.121094 h 0.002 c 3.181514,-0.58872 6.392514,-1.014299 9.617187,-1.273437 l 1.196807,-0.09661 c 0.715492,-0.05776 1.248773,-0.68447 1.191267,-1.399983 l -0.194175,-2.415986 a 1.2756191,1.2756191 40.417302 0 0 -1.373164,-1.169369 z m 59.324807,16.168984 -1.34568,2.016153 a 1.2756619,1.2756619 78.724189 0 0 0.35273,1.76914 l 1.01924,0.680449 c 8.01958,5.35066 15.21938,11.937196 21.26562,19.447266 1.38768,1.723407 2.71432,3.493893 3.97656,5.308603 l 0.685,0.98393 c 0.4103,0.58934 1.22051,0.73478 1.81016,0.32493 l 1.99092,-1.38379 a 1.2748123,1.2748123 100.18944 0 0 0.31898,-1.77471 l -0.69959,-1.005838 c -1.33026,-1.912498 -2.72779,-3.776987 -4.1875,-5.589844 C 175.51639,85.937942 167.94198,79.010088 159.49609,73.375 l -0.99691,-0.66523 c -0.59715,-0.398477 -1.40427,-0.237463 -1.80281,0.359649 z m -108.008929,0.528789 -1.007754,0.696719 c -1.674856,1.157321 -3.312687,2.366363 -4.912109,3.623047 -8.21424,6.452873 -15.40746,14.194644 -21.232422,22.867196 l -0.668514,0.99668 c -0.399953,0.59628 -0.241028,1.40386 0.355038,1.80414 l 2.013052,1.35182 a 1.2753955,1.2753955 168.89805 0 0 1.769448,-0.34721 l 0.68332,-1.01637 c 5.530651,-8.234362 12.36694,-15.59635 20.167969,-21.724616 1.520417,-1.194608 3.076683,-2.343181 4.666015,-3.441406 l 0.987425,-0.682664 c 0.590567,-0.408293 0.738452,-1.217966 0.330349,-1.808664 l -1.378111,-1.994708 a 1.2747435,1.2747435 10.350852 0 0 -1.773706,-0.323964 z m 142.547089,36.740482 -2.17113,1.07988 a 1.2749241,1.2749241 108.555 0 0 -0.57375,1.70929 l 0.54551,1.09676 c 3.70575,7.45067 6.41612,15.39977 8.03125,23.5625 0.68567,3.46175 1.17674,6.96375 1.4707,10.48047 l 0.10027,1.19484 c 0.06,0.71551 0.68861,1.24697 1.40414,1.18723 l 2.41594,-0.20172 a 1.2750189,1.2750189 130.21682 0 0 1.16448,-1.37715 l -0.10241,-1.22117 c -0.30955,-3.70319 -0.82681,-7.38793 -1.54883,-11.0332 -1.70183,-8.60094 -4.5547,-16.96854 -8.45898,-24.81836 l -0.53437,-1.07437 c -0.31972,-0.64281 -1.10001,-0.90473 -1.74282,-0.585 z m -176.406425,2.02569 -0.527324,1.10633 c -1.59566,3.34522 -3.001272,6.78089 -4.210937,10.28321 -2.8670812,8.29699 -4.6163695,16.97291 -5.2031253,25.7285 l -0.080627,1.19722 c -0.048232,0.71619 0.4934058,1.3358 1.2096116,1.38376 l 2.4192836,0.16198 a 1.2753883,1.2753883 138.84165 0 0 1.3577086,-1.18684 L 9.875,149.81641 c 0.557147,-8.31378 2.218796,-16.55642 4.939453,-24.42969 1.148863,-3.32656 2.485216,-6.58801 4,-9.76367 l 0.516272,-1.0822 c 0.309241,-0.64823 0.03452,-1.42442 -0.613655,-1.73378 l -2.188919,-1.04472 a 1.2749352,1.2749352 160.49939 0 0 -1.700046,0.60203 z m 183.874175,49.75429 -0.089,1.22117 c -0.60889,8.30337 -2.32283,16.52877 -5.08984,24.37891 -1.1716,3.32564 -2.52853,6.58597 -4.06641,9.75781 l -0.52416,1.0802 c -0.31347,0.646 -0.0438,1.42379 0.60236,1.73703 l 2.18269,1.05819 a 1.2745828,1.2745828 160.85452 0 0 1.70313,-0.59128 l 0.53403,-1.1025 c 1.62038,-3.342 3.05139,-6.77523 4.28515,-10.27734 2.91591,-8.27255 4.7181,-16.93075 5.35938,-25.67578 l 0.0871,-1.19571 c 0.0522,-0.7161 -0.48587,-1.33899 -1.20196,-1.39144 l -2.4189,-0.17718 a 1.273924,1.273924 139.1789 0 0 -1.36362,1.17792 z m -190.2467722,-0.81695 -2.418863,0.18759 a 1.2747986,1.2747986 130.56439 0 0 -1.1724065,1.3696 l 0.094746,1.22117 c 0.2864685,3.70819 0.7807187,7.39989 1.4804687,11.05273 1.647252,8.6082 4.4458779,16.98965 8.2988279,24.86133 l 0.528015,1.07854 c 0.315667,0.64479 1.094317,0.91154 1.739056,0.59577 l 2.17816,-1.06682 a 1.2743068,1.2743068 108.90057 0 0 0.583812,-1.70512 l -0.538808,-1.09963 c -3.656957,-7.47125 -6.315555,-15.43376 -7.878907,-23.60351 v -0.002 c -0.664536,-3.46903 -1.134195,-6.97448 -1.4062496,-10.49611 l -0.091906,-1.19756 c -0.05494,-0.71589 -0.6801082,-1.2515 -1.3959458,-1.19598 z m 174.7413622,47.16816 -0.68906,1.01254 c -5.57687,8.1907 -12.45387,15.50104 -20.2832,21.57617 v 0.002 c -1.53582,1.19188 -3.10624,2.33591 -4.71094,3.42968 l -0.99222,0.67618 c -0.59322,0.40426 -0.74631,1.21292 -0.34192,1.80605 l 1.36572,2.00313 a 1.2755941,1.2755941 10.720257 0 0 1.77229,0.33552 l 1.01254,-0.69002 c 1.69138,-1.15286 3.34548,-2.35764 4.96094,-3.61132 8.24412,-6.39699 15.47607,-14.08649 21.3496,-22.7129 l 0.67483,-0.99163 c 0.40399,-0.59364 0.25039,-1.40235 -0.34311,-1.80654 l -2.00465,-1.36519 a 1.274332,1.274332 169.24591 0 0 -1.77082,0.33633 z m -159.460268,-0.0197 -1.998875,1.3711 a 1.2753799,1.2753799 100.54044 0 0 -0.330012,1.77359 l 0.693847,1.01063 c 1.211535,1.76547 2.479241,3.48984 3.800782,5.17187 6.387894,8.13166 14.041013,15.26091 22.607422,21.05469 l 0.99375,0.67219 c 0.594569,0.40217 1.40259,0.24621 1.804765,-0.34836 l 1.358065,-2.00774 A 1.2761107,1.2761107 79.093626 0 0 52.325,235.3766 l -1.014453,-0.68715 c -8.133957,-5.5013 -15.410069,-12.27943 -21.476563,-20.00195 -1.256372,-1.59909 -2.46184,-3.23705 -3.611328,-4.91211 l -0.678513,-0.98872 c -0.406259,-0.59199 -1.215458,-0.74264 -1.807541,-0.33652 z m 122.876658,32.46118 -1.10154,0.53594 c -7.74642,3.76241 -16.01779,6.45052 -24.49609,7.96289 -3.18781,0.56922 -6.40578,0.97383 -9.63477,1.21289 l -1.19578,0.089 c -0.71608,0.0533 -1.25345,0.67687 -1.20043,1.39297 l 0.17906,2.41882 a 1.2739997,1.2739997 40.754065 0 0 1.36512,1.17643 l 1.22117,-0.0909 c 3.39976,-0.2517 6.78698,-0.67823 10.14258,-1.27734 8.93295,-1.59346 17.64212,-4.42414 25.80469,-8.38867 l 1.07845,-0.52377 c 0.64591,-0.3137 0.91516,-1.09166 0.60135,-1.73752 l -1.06009,-2.18175 a 1.2743363,1.2743363 19.070519 0 0 -1.70372,-0.58899 z m -86.09244,0.77777 -1.05023,2.18475 a 1.275752,1.275752 70.679287 0 0 0.596871,1.70242 l 1.104414,0.53115 c 3.435571,1.65182 6.965559,3.1035 10.568359,4.34766 8.1976,2.8328 16.763501,4.57414 25.41211,5.18164 l 1.197187,0.0844 c 0.716288,0.0505 1.337877,-0.48926 1.388359,-1.20554 l 0.170508,-2.41932 a 1.2751663,1.2751663 49.031397 0 0 -1.182363,-1.36166 l -1.222129,-0.0861 c -8.212469,-0.57687 -16.352007,-2.22988 -24.130859,-4.91797 v -0.002 c -3.420819,-1.18132 -6.773921,-2.55896 -10.035156,-4.12696 l -1.082475,-0.52057 c -0.646933,-0.31112 -1.423584,-0.0388 -1.734596,0.60816 z"
       id="circle4307"
       transform="matrix(0.98669878,0,0,0.98669878,1.8751692,0.57610799)" /><path
       style="display:inline;fill:#ffffff;fill-opacity:1;stroke:none;stroke-width:10.8141;stroke-linecap:round;stroke-linejoin:round;stroke-opacity:0.262976"
       d="m -13.716882,179.84353 c 0.826018,-1.16641 1.652036,-2.33282 2.550062,-3.19016 0.898026,-0.85735 1.8680151,-1.4056 2.8380266,-1.95387 1.3956273,1.69452 3.6915032,4.48209 4.3333897,5.4106 0.6418864,0.9285 5.6162432,8.85031 6.5741525,10.04907 0.9579093,1.19876 6.5932393,6.5456 7.4561832,7.39457 0.862944,0.84897 6.207539,6.29283 7.935171,7.67857 1.727632,1.38575 7.477677,5.19913 11.405012,7.80371 -1.180883,0.67479 -2.361762,1.34958 -3.711359,1.79242 -1.349596,0.44283 -2.867846,0.6537 -4.386124,0.86457 -3.298958,-2.87298 -6.597846,-5.74589 -9.50794,-8.14988 -2.9100931,-2.40399 -5.9353686,-4.72583 -8.2339632,-6.8238 -2.2985946,-2.09797 -8.3026727,-8.25961 -9.1599154,-9.21245 -0.8572428,-0.95284 -3.9140853,-4.80757 -5.7538784,-7.12758 z"
       id="path44"
       transform="matrix(0.73747784,0,0,0.73747784,32.747601,76.576052)" /><path
       style="fill:#ffffff;fill-opacity:1;stroke:none;stroke-width:7.97519;stroke-linecap:round;stroke-linejoin:round;stroke-opacity:0.262976"
       d="m 6.3574533,150.64124 c 0.4976429,-3.01696 1.3197657,-8.00108 1.5091621,-9.28898 0.1893964,-1.28789 1.1656692,-8.53286 1.7566205,-12.91834 1.2752101,-3.11027 2.5504231,-6.22054 3.7478871,-9.22197 1.197463,-3.00144 2.317137,-5.89393 3.436833,-8.78648 0.715361,0.34213 1.430724,0.68426 2.208298,0.97974 0.777574,0.29547 1.617331,0.54429 2.457104,0.79311 -1.461826,3.01696 -2.923653,6.03392 -4.05891,8.97315 -1.135256,2.93924 -1.943908,5.80062 -2.752578,8.66207 -0.497643,3.4524 -0.995286,6.90479 -1.586237,10.43495 -0.590952,3.53016 -1.27521,7.13807 -1.959469,10.74598 -0.793119,-0.29548 -1.8795705,-0.70023 -2.3793568,-0.73943 -0.4997862,-0.0392 -1.5862356,0.19513 -2.3793539,0.3662 z"
       id="path42" /><path
       style="fill:#ffffff;fill-opacity:1;stroke:none;stroke-width:7.97519;stroke-linecap:round;stroke-linejoin:round;stroke-opacity:0.262976"
       d="m 6.7773398,162.08702 c 0.2643729,2.3016 0.7620075,6.34488 1.2596598,10.01506 0.4976524,3.67019 0.9952851,6.96701 1.4929278,10.26389 1.3685186,3.79453 2.7370156,7.589 3.8722816,10.49715 1.135267,2.90815 2.037228,4.92979 2.939205,6.95146 0.435438,-0.15551 0.870877,-0.31103 1.321869,-0.31103 0.450991,1e-5 0.917522,0.15552 1.663998,-0.37324 0.746476,-0.52876 1.772845,-1.74174 2.799234,-2.95475 -1.119697,-2.08388 -2.239391,-4.16775 -3.234686,-6.09614 -0.995296,-1.92838 -1.866156,-3.7012 -2.737031,-5.47405 -0.995286,-3.70122 -1.990552,-7.40237 -2.81479,-11.39914 -0.824237,-3.99678 -1.47738,-8.28886 -2.130536,-12.58103 -0.870875,-0.1283 -1.741748,-0.25659 -2.5348675,-0.58317 -0.7931195,-0.32658 -1.5084803,-0.85144 -2.2238418,-1.3763 0.031102,0.55985 0.062204,1.11969 0.3265771,3.42129 z"
       id="path43" /><path
       style="fill:#ffffff;fill-opacity:1;stroke:none;stroke-width:7.97519;stroke-linecap:round;stroke-linejoin:round;stroke-opacity:0.262976"
       d="m 22.215173,101.81009 c -0.0088,0.25549 1.947344,2.21165 2.082471,2.27824 0.135127,0.0666 2.164344,0.0666 2.400105,-0.20559 0.235761,-0.27217 4.653312,-7.590784 5.476874,-8.657197 0.823562,-1.066413 6.579963,-7.443103 10.000999,-11.232777 3.36313,-2.697092 6.726195,-5.394131 8.827688,-7.022632 2.101492,-1.628502 2.941248,-2.188339 3.781021,-2.748187 0,0 -5.505175,1.492928 -5.505175,1.492928 -1.181902,0.559848 -2.967505,1.40566 -3.747318,1.877352 -0.779813,0.471692 -4.870194,3.262031 -6.000231,4.179269 -1.130037,0.917238 -7.201581,6.412159 -8.078551,7.291829 -0.876971,0.879669 -6.30175,6.973255 -6.71103,7.538225 -0.409281,0.56497 -2.51804,4.95305 -2.526853,5.20854 z"
       id="path45" /><path
       style="fill:#ffffff;fill-opacity:1;stroke:none;stroke-width:7.97519;stroke-linecap:round;stroke-linejoin:round;stroke-opacity:0.262976"
       d="m 58.236729,69.836468 c 2.799241,-1.959469 5.598482,-3.918938 8.397723,-5.878407 2.799242,-1.119696 7.697916,-3.079165 8.514361,-3.335762 0.816444,-0.256597 10.619277,-2.707305 11.105302,-2.786068 0.486026,-0.07876 11.468941,-0.987126 11.975184,-0.976793 0.506243,0.01033 1.552792,1.05688 1.576126,1.354383 0.02333,0.297504 -0.569709,2.491755 -0.882429,2.994342 -0.312721,0.502586 -1.40357,0.987408 -1.776823,1.02888 -0.373253,0.04147 -3.172463,0.04147 -6.609361,0.336954 -3.436897,0.295482 -8.630942,0.886422 -12.518803,1.49293 -3.887862,0.606509 -6.469332,1.22855 -9.548534,2.192747 -3.079202,0.964196 -6.655938,2.270482 -10.232746,3.576794 z"
       id="path46" /><path
       style="fill:#ffffff;fill-opacity:1;stroke:none;stroke-width:7.97519;stroke-linecap:round;stroke-linejoin:round;stroke-opacity:0.262976"
       d="m 108.22066,57.178039 c 0,0 0.26392,2.903065 0.26392,2.903065 0.35189,0.483844 0.9726,1.337323 1.54106,1.446342 0.56846,0.10902 11.36394,1.172614 12.99957,1.480721 1.63563,0.308107 13.1778,3.409747 14.52095,3.891323 1.34314,0.481575 7.7072,3.761514 8.46244,4.013259 0.75524,0.251745 2.12804,-0.410989 2.22859,-0.570953 0.10054,-0.159964 -0.14337,-0.891707 -0.29732,-1.353558 0.35189,-0.74776 1.00944,-2.145068 0.82458,-2.296715 -0.18486,-0.151646 -8.83426,-4.416279 -9.35607,-4.605341 -0.52181,-0.189062 -12.08084,-3.294475 -13.19186,-3.504152 -1.11102,-0.209678 -9.08873,-1.09609 -12.09078,-1.316018 -3.00204,-0.219928 -4.45355,-0.153951 -5.90508,-0.08797 z"
       id="path47" /><path
       style="display:inline;fill:#ffffff;fill-opacity:1;stroke:none;stroke-width:10.8141;stroke-linecap:round;stroke-linejoin:round;stroke-opacity:0.262976"
       d="m -13.716882,179.84353 c 0.826018,-1.16641 1.652036,-2.33282 2.550062,-3.19016 0.898026,-0.85735 1.8680151,-1.4056 2.8380266,-1.95387 1.3956273,1.69452 3.6915032,4.48209 4.3333897,5.4106 0.6418864,0.9285 5.6162432,8.85031 6.5741525,10.04907 0.9579093,1.19876 6.5932393,6.5456 7.4561832,7.39457 0.862944,0.84897 6.207539,6.29283 7.935171,7.67857 1.727632,1.38575 7.477677,5.19913 11.405012,7.80371 -1.180883,0.67479 -2.361762,1.34958 -3.711359,1.79242 -1.349596,0.44283 -2.867846,0.6537 -4.386124,0.86457 -3.298958,-2.87298 -6.597846,-5.74589 -9.50794,-8.14988 -2.9100931,-2.40399 -5.9353686,-4.72583 -8.2339632,-6.8238 -2.2985946,-2.09797 -8.3026727,-8.25961 -9.1599154,-9.21245 -0.8572428,-0.95284 -3.9140853,-4.80757 -5.7538784,-7.12758 z"
       id="path48"
       transform="matrix(-0.73747784,0,0,-0.73747784,176.63206,232.23026)" /><path
       style="fill:#ffffff;fill-opacity:1;stroke:none;stroke-width:7.97519;stroke-linecap:round;stroke-linejoin:round;stroke-opacity:0.262976"
       d="m 6.3574533,150.64124 c 0.4976429,-3.01696 1.3197657,-8.00108 1.5091621,-9.28898 0.1893964,-1.28789 1.1656692,-8.53286 1.7566205,-12.91834 1.2752101,-3.11027 2.5504231,-6.22054 3.7478871,-9.22197 1.197463,-3.00144 2.317137,-5.89393 3.436833,-8.78648 0.715361,0.34213 1.430724,0.68426 2.208298,0.97974 0.777574,0.29547 1.617331,0.54429 2.457104,0.79311 -1.461826,3.01696 -2.923653,6.03392 -4.05891,8.97315 -1.135256,2.93924 -1.943908,5.80062 -2.752578,8.66207 -0.497643,3.4524 -0.995286,6.90479 -1.586237,10.43495 -0.590952,3.53016 -1.27521,7.13807 -1.959469,10.74598 -0.793119,-0.29548 -1.8795705,-0.70023 -2.3793568,-0.73943 -0.4997862,-0.0392 -1.5862356,0.19513 -2.3793539,0.3662 z"
       id="path49"
       transform="rotate(180,104.68983,154.40315)" /><path
       style="fill:#ffffff;fill-opacity:1;stroke:none;stroke-width:7.97519;stroke-linecap:round;stroke-linejoin:round;stroke-opacity:0.262976"
       d="m 6.7773398,162.08702 c 0.2643729,2.3016 0.7620075,6.34488 1.2596598,10.01506 0.4976524,3.67019 0.9952851,6.96701 1.4929278,10.26389 1.3685186,3.79453 2.7370156,7.589 3.8722816,10.49715 1.135267,2.90815 2.037228,4.92979 2.939205,6.95146 0.435438,-0.15551 0.870877,-0.31103 1.321869,-0.31103 0.450991,1e-5 0.917522,0.15552 1.663998,-0.37324 0.746476,-0.52876 1.772845,-1.74174 2.799234,-2.95475 -1.119697,-2.08388 -2.239391,-4.16775 -3.234686,-6.09614 -0.995296,-1.92838 -1.866156,-3.7012 -2.737031,-5.47405 -0.995286,-3.70122 -1.990552,-7.40237 -2.81479,-11.39914 -0.824237,-3.99678 -1.47738,-8.28886 -2.130536,-12.58103 -0.870875,-0.1283 -1.741748,-0.25659 -2.5348675,-0.58317 -0.7931195,-0.32658 -1.5084803,-0.85144 -2.2238418,-1.3763 0.031102,0.55985 0.062204,1.11969 0.3265771,3.42129 z"
       id="path50"
       transform="rotate(-119.5699,104.51611,154.11968)" /><path
       style="fill:#ffffff;fill-opacity:1;stroke:none;stroke-width:7.97519;stroke-linecap:round;stroke-linejoin:round;stroke-opacity:0.262976"
       d="m 22.215173,101.81009 c -0.0088,0.25549 1.947344,2.21165 2.082471,2.27824 0.135127,0.0666 2.164344,0.0666 2.400105,-0.20559 0.235761,-0.27217 4.653312,-7.590784 5.476874,-8.657197 0.823562,-1.066413 6.579963,-7.443103 10.000999,-11.232777 3.36313,-2.697092 6.726195,-5.394131 8.827688,-7.022632 2.101492,-1.628502 2.941248,-2.188339 3.781021,-2.748187 0,0 -5.505175,1.492928 -5.505175,1.492928 -1.181902,0.559848 -2.967505,1.40566 -3.747318,1.877352 -0.779813,0.471692 -4.870194,3.262031 -6.000231,4.179269 -1.130037,0.917238 -7.201581,6.412159 -8.078551,7.291829 -0.876971,0.879669 -6.30175,6.973255 -6.71103,7.538225 -0.409281,0.56497 -2.51804,4.95305 -2.526853,5.20854 z"
       id="path51"
       transform="rotate(118.57906,104.65625,156.12452)" /><path
       style="fill:#ffffff;fill-opacity:1;stroke:none;stroke-width:7.97519;stroke-linecap:round;stroke-linejoin:round;stroke-opacity:0.262976"
       d="m 58.236729,69.836468 c 2.799241,-1.959469 5.598482,-3.918938 8.397723,-5.878407 2.799242,-1.119696 7.697916,-3.079165 8.514361,-3.335762 0.816444,-0.256597 10.619277,-2.707305 11.105302,-2.786068 0.486026,-0.07876 11.468941,-0.987126 11.975184,-0.976793 0.506243,0.01033 1.552792,1.05688 1.576126,1.354383 0.02333,0.297504 -0.569709,2.491755 -0.882429,2.994342 -0.312721,0.502586 -1.40357,0.987408 -1.776823,1.02888 -0.373253,0.04147 -3.172463,0.04147 -6.609361,0.336954 -3.436897,0.295482 -8.630942,0.886422 -12.518803,1.49293 -3.887862,0.606509 -6.469332,1.22855 -9.548534,2.192747 -3.079202,0.964196 -6.655938,2.270482 -10.232746,3.576794 z"
       id="path52"
       transform="rotate(180,104.68983,154.40315)" /><path
       style="fill:#ffffff;fill-opacity:1;stroke:none;stroke-width:7.97519;stroke-linecap:round;stroke-linejoin:round;stroke-opacity:0.262976"
       d="m 108.22066,57.178039 c 0,0 0.26392,2.903065 0.26392,2.903065 0.35189,0.483844 0.9726,1.337323 1.54106,1.446342 0.56846,0.10902 11.36394,1.172614 12.99957,1.480721 1.63563,0.308107 13.1778,3.409747 14.52095,3.891323 1.34314,0.481575 7.7072,3.761514 8.46244,4.013259 0.75524,0.251745 2.12804,-0.410989 2.22859,-0.570953 0.10054,-0.159964 -0.14337,-0.891707 -0.29732,-1.353558 0.35189,-0.74776 1.00944,-2.145068 0.82458,-2.296715 -0.18486,-0.151646 -8.83426,-4.416279 -9.35607,-4.605341 -0.52181,-0.189062 -12.08084,-3.294475 -13.19186,-3.504152 -1.11102,-0.209678 -9.08873,-1.09609 -12.09078,-1.316018 -3.00204,-0.219928 -4.45355,-0.153951 -5.90508,-0.08797 z"
       id="path53"
       transform="rotate(180,104.68983,154.40315)" /></g><g
     id="g44062"
     style="display:inline;fill:#ffffff;fill-opacity:1"
     transform="matrix(1.0042384,0,0,1.0042384,6.959153,-45.601246)"><path
       id="path1"
       style="display:inline;fill:#ffffff;fill-opacity:1;stroke-width:8.00899;stroke-linecap:round;stroke-linejoin:round"
       d="m 98.998244,97.601525 a 6.6276859,7.0146146 0 0 0 -0.855143,0.05863 c -0.09418,0.03534 -0.216118,0.08457 -0.358568,0.148824 -0.172014,0.07759 -0.370677,0.174314 -0.617856,0.322345 -0.542368,0.324814 -1.274948,0.857706 -1.738107,1.254482 -0.463158,0.396775 -0.661404,0.660744 -0.859689,0.924704 0.171281,0.27229 0.342549,0.54455 0.418268,0.77279 0.07572,0.22823 0.05592,0.41216 -0.009,0.56765 -0.06495,0.15549 -0.174806,0.28199 -0.269896,0.42382 -0.09509,0.14184 -0.175198,0.29868 -0.217104,0.46546 -0.04191,0.16679 -0.04555,0.34325 -0.04922,0.5198 0.107083,-0.16443 0.235543,-0.36168 0.308261,-0.41825 0.07272,-0.0566 0.177248,-0.0244 0.202195,0.0243 0.02495,0.0487 0.0076,0.18679 -0.003,0.29836 -0.01059,0.11156 -0.02748,0.32791 0.02964,0.46821 0.05712,0.14031 0.185429,0.24062 0.313717,0.34095 -0.0253,-0.15586 -0.05563,-0.34285 -0.05861,-0.45468 -0.003,-0.11183 0.01842,-0.25999 0.07061,-0.35731 0.05219,-0.0973 0.13871,-0.16843 0.225226,-0.23953 0.05875,0.15192 0.117511,0.30386 0.221044,0.45289 0.103533,0.14903 0.251809,0.29511 0.329414,0.46623 0.07761,0.17112 0.08453,0.36721 0.06273,0.53012 -0.0218,0.16291 -0.07233,0.29262 -0.159222,0.28097 -0.0869,-0.0116 -0.210092,-0.16459 -0.333354,-0.3176 -0.04049,0.0597 -0.081,0.11937 -0.191648,0.13183 -0.110649,0.0125 -0.291447,-0.0223 -0.427299,-0.0826 -0.135852,-0.0602 -0.226733,-0.14591 -0.385418,-0.25114 -0.158684,-0.10524 -0.385147,-0.23004 -0.500697,-0.40799 -0.11555,-0.17794 -0.120153,-0.40903 -0.09449,-0.64468 0.02566,-0.23566 0.08159,-0.4759 0.152191,-0.71641 0.0706,-0.24052 0.15584,-0.48129 0.137887,-0.72751 -0.01795,-0.24621 -0.139092,-0.49788 -0.260258,-0.74951 -0.04379,0.31208 -0.08412,0.59962 -0.228317,0.98943 -0.144201,0.3898 -0.350209,0.76815 -0.462817,1.1172 -0.112608,0.34905 -0.114223,0.63646 -0.04473,0.8916 0.06949,0.25514 0.210112,0.47802 0.381963,0.62384 0.171851,0.14582 0.374893,0.21459 0.484879,0.29758 0.109986,0.083 0.126859,0.18023 0.143766,0.27745 0.238518,-0.0572 0.477036,-0.11451 0.723742,-0.0823 0.246706,0.0322 0.501604,0.15391 0.707255,0.26397 0.205651,0.11007 0.362081,0.20851 0.593794,0.2201 0.231712,0.0116 0.538671,-0.0637 0.845689,-0.13901 -0.132752,-0.0992 -0.265445,-0.1984 -0.261228,-0.36449 0.0042,-0.16609 0.145363,-0.39903 0.173041,-0.69024 0.02768,-0.2912 -0.04452,-0.58515 -0.186254,-0.98557 -0.141732,-0.40042 -0.311862,-0.76654 -0.414571,-1.01727 -0.102709,-0.25072 -0.235745,-0.63201 -0.276926,-0.92777 -0.04118,-0.29576 -0.0011,-0.734 0.1074,-0.92784 0.108498,-0.19384 0.726253,-0.983329 1.509669,-1.582027 0.329057,-0.251469 0.632079,-0.450403 0.933572,-0.625317 -0.118802,0.299602 -0.134744,0.595406 -0.104188,0.805959 0.03731,0.257106 0.159726,0.550563 0.08055,0.717947 -0.07918,0.167383 -0.323762,0.1901 -0.560217,0.195652 -0.236456,0.0056 -0.484786,-0.0075 -0.721802,-0.02001 0.304228,0.248912 0.608486,0.497816 0.919633,0.639556 0.311147,0.14174 0.629167,0.17637 0.826232,-0.007 0.197064,-0.18324 0.273156,-0.584241 0.380327,-0.670672 0.107171,-0.08643 0.245409,0.14173 0.39475,0.354672 0.14935,0.21295 0.30975,0.41067 0.47015,0.60838 0.0895,-0.0943 0.16966,-0.17862 0.36154,-0.0701 0.19188,0.10851 0.46308,0.41444 0.82417,0.56675 0.3611,0.15231 1.05569,0.23462 1.62368,0.32542 0.56799,0.0908 1.10404,0.20135 1.6401,0.31189 -0.18166,-0.31637 -0.36334,-0.6327 -0.54403,-0.92226 -0.1807,-0.28955 -0.3604,-0.5523 -0.62113,-0.78569 -0.26074,-0.23337 -0.60246,-0.437364 -0.95309,-0.622488 -0.35064,-0.185125 -0.70557,-0.349253 -1.06001,-0.472964 -0.35443,-0.123712 -0.69042,-0.200774 -1.03079,-0.278853 0.5647,0.325684 1.1294,0.651334 1.55695,1.015274 0.42755,0.363941 0.71786,0.766151 0.44609,0.813271 -0.27177,0.0471 -1.10566,-0.26085 -1.6258,-0.620185 -0.52015,-0.359335 -0.72649,-0.77 -0.83314,-1.103285 -0.10666,-0.333285 -0.1136,-0.589109 -0.16547,-0.931368 -0.009,-0.05821 -0.019,-0.118909 -0.0308,-0.179679 a 6.6276859,7.0146146 0 0 0 -1.086129,-0.09488 z m -1.622282,2.918745 c -0.114116,0.29518 -0.228244,0.59039 -0.15013,0.98641 0.07811,0.39601 0.34844,0.89283 0.48609,1.34147 0.13765,0.44863 0.14262,0.84899 0.155889,1.15845 0.01327,0.30945 0.03488,0.52792 0.123886,0.72763 0.08901,0.19972 0.245408,0.38064 0.401843,0.56162 -0.03456,-0.26217 -0.06911,-0.5243 -0.02576,-0.65553 0.04335,-0.13124 0.188855,-0.1316 0.340142,0.0409 0.151286,0.17246 0.459609,0.69016 0.543367,0.97544 0.08376,0.28528 -0.02352,0.45221 -0.115886,0.5645 -0.09236,0.1123 -0.262116,0.28229 -0.439179,0.36084 -0.177064,0.0785 -0.389794,0.094 -0.602461,0.10943 l 0.24644,0.30375 c 0.04929,0.0607 0.04926,0.0611 0.09297,0.15863 l 0.218559,0.4876 c 0.04712,0.16594 0.09424,0.33186 0.114189,0.53634 0.01995,0.20448 0.01272,0.44753 0.0055,0.69055 0.120385,0.0403 0.240766,0.0806 0.316323,0.15672 0.07556,0.0761 0.106262,0.18813 0.136978,0.30015 0.620279,0.002 1.240318,0.003 1.770408,-0.0464 0.53009,-0.0497 0.96904,-0.15053 1.32736,-0.2659 0.35832,-0.11536 0.63445,-0.24474 0.91084,-0.37424 0.34221,-0.21833 0.68456,-0.4367 0.95946,-0.68914 0.27491,-0.25244 0.52436,-0.5966 0.66792,-0.87466 0.14357,-0.27806 0.32484,-0.76822 0.41948,-1.18944 0.0947,-0.42122 0.13286,-0.85518 0.17104,-1.28919 -0.37682,0.65261 -0.75361,1.30514 -1.17801,1.79186 -0.42439,0.48672 -1.12927,0.96585 -1.22638,0.94407 -0.0971,-0.0218 0.0346,-0.62952 0.20922,-1.07776 0.17464,-0.44824 0.43572,-0.93786 0.76793,-1.43108 0.33221,-0.49322 0.7355,-0.99001 1.1388,-1.48683 -0.3955,0.27542 -0.78685,0.54797 -1.15886,0.89076 -0.372,0.3428 -0.78316,0.82907 -0.9177,0.90437 -0.13454,0.0753 -0.13776,-0.18124 -0.14043,-0.39208 -0.073,0.11535 -0.13899,0.2196 -0.21371,0.43518 -0.0747,0.21558 -0.15436,0.56517 -0.23135,0.76555 -0.077,0.20037 -0.27219,0.58205 -0.40275,0.95401 -0.13056,0.37196 -0.17466,0.6887 -0.20747,0.74855 -0.0328,0.0598 -0.14394,0.012 -0.21134,-0.0908 -0.0674,-0.10279 -0.0927,-0.21984 -0.12298,-0.35974 -0.10465,0.15547 -0.20928,0.31091 -0.29208,0.46071 -0.0828,0.1498 -0.15594,0.3227 -0.26911,0.40221 -0.11317,0.0795 -0.37953,0.1451 -0.44487,0.10001 -0.0654,-0.0451 0.0259,-0.18991 0.10552,-0.32543 0.0796,-0.13551 0.1475,-0.26152 0.21056,-0.39707 0.063,-0.13555 0.12128,-0.28054 0.18946,-0.45642 0.0682,-0.17588 0.1463,-0.38256 0.15347,-0.59696 0.007,-0.2144 -0.0567,-0.43636 -0.12049,-0.65835 -0.0315,0.23532 -0.0629,0.47034 -0.1085,0.61774 -0.0456,0.1474 -0.11732,0.21844 -0.1497,0.18045 -0.0324,-0.038 -0.0582,-0.22336 -0.0797,-0.37764 -0.0362,0.11031 -0.0715,0.21799 -0.0838,0.35269 -0.0123,0.1347 0.002,0.32026 -0.0569,0.47059 -0.0593,0.15033 -0.26659,0.449 -0.5213,0.64738 -0.254722,0.19839 -0.48094,0.3012 -0.605314,0.0876 -0.124374,-0.21364 -0.02118,-0.52785 0.188375,-0.91598 0.209555,-0.38812 0.472759,-0.6897 0.735929,-0.99128 -0.1615,-0.0921 -0.32304,-0.18422 -0.417364,-0.31413 -0.09432,-0.12992 -0.126862,-0.33117 -0.225287,-0.50074 -0.09842,-0.16957 -0.361137,-0.47699 -0.38566,-0.64219 -0.02452,-0.1652 0.145328,-0.23941 0.371538,-0.24049 0.226209,-0.001 0.508753,0.0709 0.791323,0.14298 -0.0845,-0.13911 -0.1689,-0.27818 -0.33038,-0.4024 -0.16147,-0.12422 -0.399939,-0.23356 -0.673198,-0.26089 -0.273259,-0.0273 -0.581296,0.0273 -0.780291,-0.0473 -0.198995,-0.0747 -0.28892,-0.27857 -0.353173,-0.46463 -0.06425,-0.18606 -0.102859,-0.35425 -0.133644,-0.54757 -0.03078,-0.19331 -0.05379,-0.41183 -0.07679,-0.63032 -0.06281,0.0337 -0.125612,0.0673 -0.231711,-0.009 -0.106099,-0.0761 -0.285272,-0.29886 -0.369356,-0.49426 -0.08408,-0.19541 -0.157064,-0.5587 -0.217893,-0.86145 z m 2.463364,0.30932 c -0.09315,0.18921 -0.186318,0.37842 -0.4433,0.39689 -0.256983,0.0185 -0.67774,-0.13376 -1.098552,-0.28604 0.337255,0.25055 0.741957,0.5512 1.071157,0.72911 0.3292,0.17791 0.911989,0.4109 0.913999,0.57034 0.002,0.15944 -0.479617,0.28408 -0.961336,0.40869 0.232599,0.065 0.465169,0.12991 0.759076,0.13856 0.29391,0.009 0.72016,-0.0485 0.97933,-0.0264 0.25917,0.0221 0.58121,0.1355 0.82793,0.24735 0.24673,0.11185 0.41818,0.22218 0.44433,0.33197 0.0262,0.10979 -0.12232,0.39554 -0.20674,0.4999 -0.0844,0.10435 -0.3576,0.36178 -0.68689,0.54963 -0.32929,0.18785 -0.63543,0.29568 -0.99594,0.42267 0.35909,0.0759 0.70206,0.14833 0.92182,0.31657 0.21973,0.16823 0.27857,0.40335 0.34014,0.6495 0.11233,-0.13079 0.22465,-0.26156 0.3139,-0.46161 0.0892,-0.20004 0.16862,-0.52318 0.37972,-0.75554 0.2111,-0.23236 0.76501,-0.60628 1.01182,-0.88563 0.2468,-0.27934 0.27878,-0.52635 0.515,-0.69389 0.23622,-0.16754 0.67655,-0.25549 1.11692,-0.34345 -0.49391,-0.16206 -0.9878,-0.32415 -1.43052,-0.38405 -0.44271,-0.0599 -0.91242,-0.009 -1.35456,-0.0922 -0.44213,-0.083 -1.29876,-0.38281 -1.72314,-0.62435 -0.42439,-0.24154 -0.55926,-0.47478 -0.694164,-0.70801 z m -7.001158,2.9802 c -0.119112,0.41416 -0.238227,0.82832 -0.250925,1.20695 -0.0127,0.37863 0.08103,0.72172 0.127887,0.89326 0.04686,0.17154 0.04684,0.17154 0.09407,0.3006 0.04722,0.12907 0.141678,0.38716 0.264017,0.6769 0.122339,0.28973 0.272577,0.61111 0.399964,0.98839 0.127387,0.37728 0.23188,0.81042 0.34493,1.08237 0.01199,0.0289 0.0241,0.0559 0.03637,0.0813 a 6.6276859,7.0146146 0 0 0 0.321959,0.38913 c 0.02452,0.0189 0.05031,0.038 0.07758,0.0577 0.201244,0.14552 0.482154,0.32585 0.765077,0.47733 0.282922,0.15148 0.567867,0.27405 0.923936,0.38425 0.356069,0.11019 0.783189,0.20799 1.054125,0.24036 0.270935,0.0324 0.385502,-6.8e-4 0.500092,-0.0337 -0.09474,-0.15555 -0.189517,-0.31112 -0.125463,-0.48849 0.06405,-0.17738 0.286885,-0.37654 0.445482,-0.59722 0.158596,-0.22068 0.252963,-0.46282 0.270259,-0.76632 0.0173,-0.30349 -0.04244,-0.6683 -0.130796,-0.93797 -0.08836,-0.26967 -0.205361,-0.4442 -0.322322,-0.61871 -0.08432,0.50788 -0.168631,1.01574 -0.290988,1.39234 -0.122357,0.37659 -0.282713,0.62193 -0.469847,0.77131 -0.187133,0.14939 -0.401032,0.20282 -0.729681,0.18238 -0.328649,-0.0204 -0.772096,-0.11474 -1.050429,-0.21381 -0.278334,-0.0991 -0.391496,-0.20286 -0.427662,-0.33966 -0.03617,-0.13681 0.0047,-0.30665 0.231468,-0.37046 0.226789,-0.0638 0.639453,-0.0216 1.052126,0.0206 -0.04222,-0.15311 -0.08443,-0.30626 -0.0068,-0.45455 0.07765,-0.1483 0.275206,-0.29181 0.475242,-0.50209 0.200036,-0.21029 0.402576,-0.48732 0.557307,-0.70762 0.154732,-0.2203 0.26165,-0.38386 0.404752,-0.50337 0.143103,-0.11951 0.322326,-0.19502 0.534881,-0.28623 0.212554,-0.0912 0.458445,-0.1981 0.704286,-0.30503 -0.308741,-0.0472 -0.617523,-0.0943 -0.900843,-0.077 -0.28332,0.0173 -0.541162,0.0991 -0.786473,0.27206 -0.245312,0.17297 -0.478087,0.43715 -0.646343,0.64629 -0.168256,0.20914 -0.271992,0.3632 -0.487424,0.5409 -0.215433,0.17769 -0.542533,0.37897 -0.80514,0.47174 -0.262606,0.0928 -0.460713,0.0771 -0.558216,-0.009 -0.0975,-0.0865 -0.09437,-0.24377 -0.04249,-0.3963 0.05188,-0.15253 0.15252,-0.30034 0.309656,-0.48355 0.157137,-0.18321 0.370752,-0.40179 0.598158,-0.5697 0.227407,-0.16792 0.468571,-0.28512 0.70974,-0.40234 -0.277656,-0.11238 -0.555339,-0.22476 -0.796897,-0.17949 -0.241557,0.0453 -0.446963,0.24816 -0.670769,0.38893 -0.223806,0.14077 -0.465958,0.21936 -0.660949,0.20836 -0.194991,-0.011 -0.34281,-0.1116 -0.372932,-0.21471 -0.03012,-0.10311 0.05744,-0.20872 0.157949,-0.2929 0.100511,-0.0842 0.213831,-0.14688 0.366568,-0.20412 0.152737,-0.0572 0.344794,-0.10896 0.536881,-0.16069 -0.177112,-0.0539 -0.354207,-0.10778 -0.558822,-0.1317 -0.204614,-0.0239 -0.436538,-0.0178 -0.498516,-0.0526 -0.06198,-0.0348 0.04617,-0.11028 0.154374,-0.18584 -0.07805,-0.0289 -0.156119,-0.0578 -0.260865,-0.10706 -0.104747,-0.0493 -0.236131,-0.119 -0.335172,-0.30252 -0.09904,-0.18352 -0.165705,-0.4809 -0.232378,-0.77825 z m 10.287962,5.4272 c -0.32419,0.14702 -0.64834,0.294 -0.93587,0.44147 -0.28753,0.14746 -0.5886,0.32494 -0.83357,0.44666 -0.24496,0.12172 -0.67874,0.30934 -1.01382,0.32863 -0.33508,0.0193 -0.643781,-0.0984 -0.719618,-0.28071 -0.07584,-0.18226 0.08117,-0.42905 0.238136,-0.6758 -0.23619,0.0975 -0.472378,0.19507 -0.644282,0.31984 -0.171903,0.12477 -0.300953,0.30712 -0.364325,0.30836 -0.06337,0.001 -0.124405,-0.17742 -0.128796,-0.3328 -0.0044,-0.15538 0.0377,-0.3173 0.07976,-0.47919 -0.282325,0.29581 -0.56467,0.59168 -0.67095,0.80622 -0.106279,0.21454 -0.03649,0.34778 0.03328,0.48105 0.37342,0.0365 0.780232,0.0764 1.116917,0.18115 0.336685,0.1048 0.745868,0.32121 0.923748,0.4153 0.17788,0.0941 0.17782,0.0942 0.27002,0.2063 0.0104,0.0126 0.022,0.0267 0.0345,0.0421 a 6.6276859,7.0146146 0 0 0 0.66179,-0.20316 c -0.008,-0.0707 -0.0101,-0.13786 -0.002,-0.19937 0.0367,-0.27575 0.32336,-0.47039 0.51154,-0.59652 0.18818,-0.12613 0.46598,-0.30978 0.70605,-0.51075 0.24008,-0.20096 0.48872,-0.44985 0.73737,-0.69876 z"
       transform="matrix(8.490102,0,0,8.0217849,-734.55143,-685.33345)" /><circle
       style="display:inline;fill:none;fill-opacity:1;stroke:#ffffff;stroke-width:4;stroke-dasharray:none;stroke-opacity:1"
       id="circle41"
       cy="153.87486"
       cx="105.95371"
       r="54.851467" /><path
       style="fill:#ffffff;fill-opacity:1;stroke:none;stroke-width:7.97519;stroke-linecap:round;stroke-linejoin:round;stroke-opacity:0.262976"
       d="M 41.501606,133.16916 C 70.073164,118.69621 98.644724,104.22327 127.21628,89.750319"
       id="path41" /></g><g
     id="g44030"
     style="display:inline;fill:#ffffff;fill-opacity:1"
     transform="matrix(1.0042384,0,0,1.0042384,6.959153,-45.601246)"><circle
       style="fill:#ffffff;fill-opacity:1;stroke:none;stroke-width:7.2;stroke-linecap:round;stroke-linejoin:round;stroke-miterlimit:2.6;stroke-dasharray:none;stroke-opacity:0.712803"
       id="circle44018"
       cx="36.289314"
       cy="116.99863"
       r="7.265944" /><circle
       style="display:inline;fill:#ffffff;fill-opacity:1;stroke:none;stroke-width:7.2;stroke-linecap:round;stroke-linejoin:round;stroke-miterlimit:2.6;stroke-dasharray:none;stroke-opacity:0.712803"
       id="circle44022"
       cx="37.320095"
       cy="194.24275"
       r="7.265944" /><circle
       style="fill:#ffffff;fill-opacity:1;stroke:none;stroke-width:7.2;stroke-linecap:round;stroke-linejoin:round;stroke-miterlimit:2.6;stroke-dasharray:none;stroke-opacity:0.712803"
       id="circle44020"
       cx="104.43156"
       cy="232.84328"
       r="7.265944" /><circle
       style="fill:#ffffff;fill-opacity:1;stroke:none;stroke-width:7.2;stroke-linecap:round;stroke-linejoin:round;stroke-miterlimit:2.6;stroke-dasharray:none;stroke-opacity:0.712803"
       id="circle44028"
       cx="171.51129"
       cy="195.12146"
       r="7.265944" /><circle
       style="display:inline;fill:#ffffff;fill-opacity:1;stroke:none;stroke-width:7.2;stroke-linecap:round;stroke-linejoin:round;stroke-miterlimit:2.6;stroke-dasharray:none;stroke-opacity:0.712803"
       id="circle44024"
       cx="172.65503"
       cy="116.87912"
       r="7.265944" /><circle
       style="display:inline;fill:#ffffff;fill-opacity:1;stroke:none;stroke-width:7.2;stroke-linecap:round;stroke-linejoin:round;stroke-miterlimit:2.6;stroke-dasharray:none;stroke-opacity:0.712803"
       id="circle44026"
       cx="104.25365"
       cy="76.780426"
       r="7.265944" /></g><metadata
     id="metadata6696"><rdf:RDF><cc:Work
         rdf:about=""><dc:title>Stranger Eye - WIP</dc:title></cc:Work></rdf:RDF></metadata></svg>
