<?xml version="1.0" encoding="UTF-8" standalone="no"?>
<!-- Created with Inkscape (http://www.inkscape.org/) -->

<svg
   width="77.419678mm"
   height="85.429764mm"
   viewBox="0 0 77.419677 85.429764"
   version="1.1"
   id="svg5"
   xml:space="preserve"
   inkscape:export-filename="hourglass_wip.svg"
   inkscape:export-xdpi="96"
   inkscape:export-ydpi="96"
   sodipodi:docname="ember-twin_wip.svg"
   inkscape:version="1.2.2 (732a01da63, 2022-12-09)"
   xmlns:inkscape="http://www.inkscape.org/namespaces/inkscape"
   xmlns:sodipodi="http://sodipodi.sourceforge.net/DTD/sodipodi-0.dtd"
   xmlns="http://www.w3.org/2000/svg"
   xmlns:svg="http://www.w3.org/2000/svg"><sodipodi:namedview
     id="namedview7"
     pagecolor="#505050"
     bordercolor="#ffffff"
     borderopacity="1"
     inkscape:showpageshadow="0"
     inkscape:pageopacity="0"
     inkscape:pagecheckerboard="1"
     inkscape:deskcolor="#505050"
     inkscape:document-units="mm"
     showgrid="false"
     inkscape:zoom="1.413275"
     inkscape:cx="65.097026"
     inkscape:cy="303.55026"
     inkscape:window-width="1920"
     inkscape:window-height="1129"
     inkscape:window-x="1912"
     inkscape:window-y="-8"
     inkscape:window-maximized="1"
     inkscape:current-layer="g3232"
     inkscape:lockguides="true" /><defs
     id="defs2" /><g
     inkscape:groupmode="layer"
     id="layer7"
     inkscape:label="final"
     transform="translate(-121.97808,-39.136274)"
     style="display:inline"><g
       inkscape:groupmode="layer"
       id="g3232"
       inkscape:label="ember twin"><path
         id="path3220"
         style="display:inline;fill:#ffffff;fill-opacity:1;stroke-width:0.314402"
         inkscape:label="planet"
         d="m 157.81466,49.077625 a 38.392899,38.392899 0 0 0 -35.68878,24.292574 l 5.25239,2.113566 a 33.076172,33.076172 0 0 0 -2.27841,10.730094 l -3.07888,0.02015 a 36.143513,36.143513 0 0 0 -0.0429,1.031978 36.143513,36.143513 0 0 0 2.29754,12.605432 l 2.5647,-1.516703 a 33.076172,33.076172 0 0 0 2.15077,4.913404 l 17.12299,-14.269422 2.60294,2.675289 1.44591,-1.301729 4.55476,4.410583 -1.37356,1.301213 2.67477,2.241206 -14.51643,17.89245 a 33.076172,33.076172 0 0 0 13.34234,4.35012 l -0.5395,3.77807 a 37.33643,37.33643 0 0 0 3.8163,0.22014 37.33643,37.33643 0 0 0 0.83458,-0.031 l -0.0971,-3.81113 a 33.076172,33.076172 0 0 0 13.89217,-3.39566 l 2.27015,4.45347 A 38.392899,38.392899 0 0 0 195.96742,91.5138 l -1.94407,-0.233578 a 36.143513,36.143513 0 0 0 0.24184,-4.014225 36.143513,36.143513 0 0 0 -1.7818,-11.196732 l -2.97346,1.18339 a 33.076172,33.076172 0 0 0 -4.43952,-8.722465 l -15.89722,16.256372 -2.59726,-2.090312 -1.47846,1.509469 -4.45141,-4.797123 1.55081,-1.368909 -2.18695,-2.817916 15.45952,-15.695683 a 33.076172,33.076172 0 0 0 -7.31221,-3.367753 l 2.08256,-5.01158 a 38.392899,38.392899 0 0 0 -12.42508,-2.069124 z" /><g
         id="g3230"
         inkscape:label="mountains"><path
           style="fill:#ffffff;fill-opacity:0.985507;stroke-width:0.243185"
           d="m 153.2618,39.202725 2.99028,5.648318 v 6.312828 h 4.718 l 0.13291,-7.575393 1.79417,-4.452204 z"
           id="path3222"
           inkscape:label="top right" /><path
           style="fill:#ffffff;fill-opacity:0.985507;stroke-width:0.264583"
           d="m 142.71616,53.211295 -0.21689,-2.747322 2.96421,-4.410175 10.91699,-1.662854 -1.59055,-2.45813 -13.37512,3.325704 -10.91699,7.80818 6.00073,4.193281 z"
           id="path3224"
           inkscape:label="top left" /><path
           style="fill:#ffffff;fill-opacity:0.985507;stroke-width:0.264583"
           d="m 182.76923,114.73685 3.3257,4.12099 4.55478,-5.78384 -3.6872,-2.81962 z"
           id="path3226"
           inkscape:label="bottom left" /><path
           style="fill:#ffffff;fill-opacity:0.985507;stroke-width:0.264583"
           d="m 190.9389,106.0611 3.75949,2.89192 4.69937,-9.25414 -0.1446,-1.952045 -5.20545,-0.0723 z"
           id="path3228"
           inkscape:label="bottom reight" /></g></g></g></svg>
