<?xml version="1.0" encoding="UTF-8" standalone="no"?>
<!-- Created with Inkscape (http://www.inkscape.org/) -->

<svg
   width="203.52173mm"
   height="173.63388mm"
   viewBox="0 0 203.52173 173.63389"
   version="1.1"
   id="svg5"
   xml:space="preserve"
   xmlns="http://www.w3.org/2000/svg"
   xmlns:svg="http://www.w3.org/2000/svg"
   xmlns:rdf="http://www.w3.org/1999/02/22-rdf-syntax-ns#"
   xmlns:cc="http://creativecommons.org/ns#"
   xmlns:dc="http://purl.org/dc/elements/1.1/"><title
     id="title6698">Stranger Eye - WIP</title><defs
     id="defs2" /><g
     id="layer2"
     style="display:inline;fill:#ffffff;fill-opacity:1;stroke:#ffffff;stroke-opacity:1"
     transform="translate(-4.3904622,-11.215857)"><g
       id="layer3"
       style="display:inline;fill:#ffffff;fill-opacity:1;stroke:#ffffff;stroke-opacity:1"><path
         style="display:inline;fill:#ffffff;fill-opacity:1;stroke:#ffffff;stroke-width:0.2;stroke-linecap:round;stroke-linejoin:round;stroke-miterlimit:2.6;stroke-opacity:1"
         d="m 94.780882,98.717305 c 1.622242,-0.36703 1.794499,-1.677352 3.688932,-2.994814 0.195431,-0.359515 0.471647,-1.087577 0.108445,-1.843598 -0.706617,-0.79217 -1.708471,-0.695622 -3.289557,-2.909992 -0.08843,1.7279 0.953861,2.712877 1.988194,3.271482 0.343144,1.178187 -0.515003,1.536314 -1.265214,1.590556 -1.6768,-1.323669 -2.035164,-1.323605 -3.470301,-2.150864 -2.025321,-2.251178 -1.53099,-2.52995 -1.879749,-3.994462 -0.746399,0.632129 -0.716573,1.295415 -0.614531,1.807448 0.17434,0.728926 0.842228,0.548657 0.831426,2.205088 -1.45676,1.114197 -2.722402,1.166098 -5.801911,1.699001 1.205099,1.763629 1.510741,0.408821 2.620802,0.397639 0.255798,0.814796 -0.0312,1.737408 -0.722982,2.349685 -0.691786,0.612277 -2.4231,-0.225197 -3.036512,0.542235 0.796403,0.731283 3.146193,1.038538 3.560675,0.198819 1.101312,-1.580773 0.747278,-2.013867 1.50018,-3.018441 0.807125,-0.769606 1.605888,-1.18751 2.928067,-0.976022 1.249881,0.392233 2.243965,1.53632 2.854036,3.82624 z"
         id="path368" /><path
         style="display:inline;fill:#ffffff;fill-opacity:1;stroke:#ffffff;stroke-width:0.2;stroke-linecap:round;stroke-linejoin:round;stroke-miterlimit:2.6;stroke-opacity:1"
         d="m 98.289069,90.535113 c 0.995342,-0.432059 1.572611,1.735898 1.626703,2.81962 0.0352,1.800317 -0.567499,3.388194 -1.988193,4.410175 0.687686,0.481767 1.475317,0.305828 2.060491,-0.05422 0.64225,-0.95131 0.37006,-1.572929 1.01217,-1.879746 0.44247,-0.211424 1.28617,-0.192507 1.44596,0.271116 -0.17229,0.903344 -0.69206,1.059077 -1.71197,1.519888 1.65119,0.561759 1.98827,-0.303929 2.72414,-0.851124 0.75631,1.106302 0.39174,1.60469 0.45186,2.494278 0.59394,-0.221109 0.47799,-0.204554 1.33752,-0.180745 0.16831,-1.163104 -0.3399,-2.294138 -0.83143,-3.325704 -0.61266,-1.285769 -3.3925,-1.679548 -2.56658,-3.41608 2.11451,0.981795 3.93903,2.234545 4.48248,4.211357 0.82173,2.162472 0.0164,2.72711 -1.211,4.211352 0.60533,0.88436 0.5326,0.76118 0.65069,1.60863 3.6252,-3.962539 3.45528,-5.442012 3.54051,-7.107356 2.09841,-3.779284 3.16146,-2.309042 4.25593,-2.044896 -0.4646,-0.937995 -0.97437,-1.144221 -1.53367,-1.431427 1.96546,-0.874825 2.11989,-0.807595 3.65525,-1.048008 -0.80729,-0.761315 -3.00317,-0.422312 -3.40602,-0.236441 -1.2686,0.48043 -3.11678,1.328465 -3.89808,3.099293 -0.3814,1.248172 -0.0268,2.134158 -0.74128,2.690315 -1.193,-2.109567 0.31244,-3.496454 0.55595,-5.099455 -0.0296,-1.012341 -0.0787,-1.459666 -0.93937,-1.9107 -0.0541,1.184773 0.48127,1.897104 -0.262,2.530558 -0.46924,0.195035 -0.56256,-0.09257 -1.19828,-1.176348 -0.50211,1.653031 1.34434,2.734647 0.50813,3.323487 -3.8512,-2.805059 -5.06334,-3.903305 -8.001672,-4.776841 -0.871197,-0.654394 -0.820351,-1.53745 -0.262081,-1.70046 1.107826,-0.317735 1.684943,0.08608 3.432683,1.032769 0.71501,0.951011 0.93878,2.468637 3.22071,2.223823 -0.48993,-0.65639 -1.02711,-0.667325 -1.13966,-1.324264 0.70616,-0.550416 1.08219,0.373999 2.07767,-0.197004 -1.67459,-1.439828 -2.96909,-1.369151 -6.847405,-2.782159 -2.701134,0.60114 -5.457209,0.07934 -4.876138,-1.849112 0.610566,-0.656355 2.425174,0.978152 3.193863,-0.148293 -2.237905,-1.44937 -6.033538,-10.782874 -12.719949,-27.633083 0.492278,1.857837 5.930588,18.736887 6.099601,19.415161 -1.31274,0.185883 -0.05981,0.618611 -5.367851,-6.901521 2.882761,6.501588 2.944134,6.506311 4.011822,7.914133 0.597679,0.4324 1.510413,0.246908 2.071743,0.72555 1.026019,3.442427 1.04916,3.507705 1.482547,5.265602 -0.846935,1.436989 -0.07397,3.27887 0.255612,4.422085 1.618005,0.185303 2.058793,-0.137496 3.297393,0.690155 0.655782,0.81848 0.149404,1.579781 0.562346,2.607238 0.455375,0.664842 1.374045,1.811866 2.019334,1.329182 -0.580648,-0.950765 -0.749818,-1.608172 -0.530479,-1.74078 z"
         id="path1887" /><path
         style="display:inline;fill:#ffffff;fill-opacity:1;stroke:#ffffff;stroke-width:0.2;stroke-linecap:round;stroke-linejoin:round;stroke-miterlimit:2.6;stroke-opacity:1"
         d="m 95.598839,93.809557 c -1.478945,-1.347728 -1.887805,-1.619038 -2.300507,-3.092905 0.272294,-0.829709 1.207442,-0.797319 2.504998,-0.766834 -0.582984,-1.175213 -2.151168,-0.301805 -3.016221,-0.894644 -0.701493,-0.480748 -1.204495,-1.246432 -1.559232,-2.019331 -0.370125,-0.806427 -0.360229,-1.268858 -0.464489,-2.480721 -0.981954,-0.09579 -1.335833,0.468863 -2.372805,0.129091 -2.836331,-3.635495 -11.971647,-16.724135 -11.971647,-16.724135 0,0 7.64004,13.954405 12.073761,19.520447 -0.06437,0.627447 -0.671297,1.402794 -1.301364,1.373661 -1.285855,-0.05945 -1.822921,-1.878893 -2.385833,-3.036514 -0.444756,-0.914635 0.07642,-1.322184 -0.994096,-2.982291 0.05004,1.549547 0.130323,1.364955 -0.126522,2.440056 -2.944009,-2.816233 -6.976753,-7.229795 -6.976753,-7.229795 0,0 5.545141,7.946636 8.729979,11.856863 0.07563,0.916961 -0.244252,1.423438 -0.198821,2.783472 0.699039,1.11186 1.494823,-1.695069 2.078568,-1.066394 0.643776,1.202196 -0.361252,1.218142 -1.554406,2.096642 1.772289,0.441173 2.124991,-0.343125 2.421981,-0.668758 0.753339,-0.371501 0.894134,-0.02531 1.536332,0.361491 0.17811,-1.587834 -1.253361,-1.112616 -0.903726,-3.398005 0.248715,-0.931101 0.954855,-1.86152 1.915897,-1.789373 2.331291,2.696865 1.453211,5.092173 4.864906,5.587977 z"
         id="path6643" /><path
         style="display:inline;fill:#ffffff;fill-opacity:1;stroke:#ffffff;stroke-width:0.2;stroke-linecap:round;stroke-linejoin:round;stroke-miterlimit:2.6;stroke-opacity:1"
         d="m 97.490366,83.176101 c 0.796758,1.348823 3.320764,2.122366 4.575454,1.073571 -0.90032,-0.882461 -1.64519,-2.294017 -1.99377,-3.629689 -0.0654,-4.279552 -0.217483,-7.434227 -0.138398,-11.666708 4.467338,-4.045895 2.388418,-15.543809 3.578948,-35.985408 -1.95576,20.245067 -2.18657,31.349483 -4.319807,33.690847 -1.493075,-7.525528 -2.43431,-53.712926 -2.421981,-55.344085 -0.697043,61.46143 1.42112,66.153918 -0.537849,70.434686 1.514816,-0.847695 1.489257,-1.764603 2.561024,-3.225348 0.367878,2.106533 -0.152573,3.590877 -1.303621,4.652134 z"
         id="path6654" /><path
         style="fill:#ffffff;fill-opacity:1;stroke:#ffffff;stroke-width:0.2;stroke-linecap:round;stroke-linejoin:round;stroke-miterlimit:2.6;stroke-opacity:1"
         d="m 110.06648,97.720418 c -0.19701,2.304292 -1.54683,3.663072 -3.22072,5.623462 1.2737,0.3912 2.37849,0.41944 3.11847,0.10224 0.57379,-0.40472 1.57709,-0.95726 2.14714,-2.37719 -1.4024,0.74015 -1.27903,0.80934 -2.30051,0.97133 0.427,-0.8431 1.03059,-1.42386 2.37719,-2.30051 1.36791,0.84666 -0.20294,3.59336 -1.45699,4.60101 -1.18702,0.9538 -3.24604,-0.30162 -4.54989,0.40898 -0.16361,2.29667 -0.70539,3.0092 -1.37437,4.35316 0.86574,-0.35977 0.91992,-0.5121 1.48365,-0.35538 1.61489,0.44894 1.73976,1.00317 2.4724,1.57456 -0.50111,-2.1401 -1.42597,-1.5092 -1.30362,-2.91397 0.19183,-0.69 0.7224,-1.84665 1.76372,-1.22694 0.4763,1.04597 0.15274,1.31982 -0.20914,2.37719 1.88993,-0.31656 1.06911,-2.55239 2.58633,-2.73505 1.37139,4.3453 -0.77716,6.31145 -3.4252,7.41275 2.97085,0.54251 3.26892,-2.02157 4.24316,-1.89153 0.49522,0.58321 -0.0612,1.09536 0.30673,1.45699 1.5124,-2.15324 0.17859,-3.1264 0.94577,-4.54989 1.30933,-0.89223 4.10332,0.28544 4.42209,-1.20137 -2.79425,-0.47245 -5.12146,-1.24626 -5.21449,-3.45077 1.10095,-2.02786 3.96431,-0.30924 3.70638,-2.93953 -0.97119,0.58084 -1.18464,1.15822 -2.40276,0.86907 -0.0671,-1.836246 0.96351,-0.61214 1.25251,-1.687035 -0.29746,-1.339171 -0.84516,-1.889864 -1.76373,-4.31984 1.83978,1.697197 3.4115,3.292593 3.8853,5.776825 -0.11787,1.6828 0.0821,2.7037 -3.18435,2.72938 1.14288,1.91236 3.19558,1.53024 4.64754,0.0581 2.53706,2.29674 1.49596,3.50909 1.24629,5.64774 1.04476,-0.77597 2.78853,-2.16858 -0.1309,-7.37585 -0.65336,-1.51863 -0.2188,-3.259901 0.99998,-4.42465 5.43083,-4.604071 9.42215,-8.474383 15.92462,-13.326151 1.46797,0.153878 3.36161,0.278546 4.58914,-1.23057 -1.18684,0.06128 -1.95731,0.562043 -2.85097,-0.09861 1.16092,-1.283805 1.09139,-0.756426 6.59478,-5.930197 -11.94238,7.836268 -13.98452,10.624365 -21.56086,14.863832 -0.63015,-4.022036 1.67558,-5.145967 4.53711,-7.578893 -5.86974,2.586501 -5.78963,4.408562 -6.03244,8.665243 -1.57827,1.069999 -2.31108,1.589967 -3.32295,1.380304 -1.10167,-1.766025 0.31499,-3.583588 -1.41865,-5.367849 -0.37909,2.087578 0.008,2.157073 -0.57513,3.322954 -0.84472,0.503427 -1.56659,-0.713652 -2.91397,-0.4601 2.40262,1.938766 3.25453,2.864237 3.32295,4.958868 -2.4971,-1.814666 -5.22075,-4.744149 -7.22104,-1.674257 2.15537,-0.227286 2.17468,0.04349 2.56891,0.779616 0.29036,1.763685 -0.23612,1.929607 -0.17893,2.044896 -0.55655,-0.04688 -0.73816,-0.467709 -0.76684,-1.559232 -1.02577,0.992553 -0.0975,2.534584 -1.04801,2.939537 -0.56533,-0.435628 -0.1009,-0.806637 -0.7157,-1.942673 z"
         id="path6663" /><path
         style="display:inline;fill:#ffffff;fill-opacity:1;stroke:#ffffff;stroke-width:0.2;stroke-linecap:round;stroke-linejoin:round;stroke-miterlimit:2.6;stroke-opacity:1"
         d="m 101.14484,79.780793 c -0.30997,1.367743 1.38506,3.276745 2.8901,2.884964 -0.53716,-2.33822 2.38765,-26.34565 2.38765,-26.34565 0,0 -2.50809,14.827508 -3.7595,22.773854 -0.74725,0.338335 -1.17821,0.285696 -1.51825,0.686832 z"
         id="path6656" /><path
         style="display:inline;fill:#ffffff;fill-opacity:1;stroke:#ffffff;stroke-width:0.2;stroke-linecap:round;stroke-linejoin:round;stroke-miterlimit:2.6;stroke-opacity:1"
         d="m 100.72913,85.781522 c 5.16597,2.361762 7.01236,-0.0891 9.38065,-2.855768 2.28001,-1.883787 4.04928,-3.10539 5.74769,-7.772031 -3.24354,4.034319 -4.29565,5.35763 -6.25377,6.398371 5.62976,-14.358259 14.09783,-25.334784 20.89411,-40.486856 -8.2443,13.163261 -11.32271,19.377585 -18.29139,30.075949 -1.32493,-3.963869 2.23073,-7.213643 2.47621,-11.911087 -1.2679,2.917125 -1.42014,3.268952 -2.33161,4.898187 -0.84069,-0.0073 -0.86078,-1.553434 -1.15677,-2.241238 -0.21231,1.557095 0.0236,2.08813 0.43379,3.253409 -1.51551,4.843842 -0.65844,5.911754 -0.32534,7.482837 -1.68576,2.976712 -2.96052,5.675006 -4.48247,8.061222 -0.40305,-2.843557 0.67188,-3.756999 1.44596,-5.097005 -3.24787,1.604776 -3.1925,2.493742 -3.28956,6.651411 -0.94576,2.817254 -1.85469,2.385352 -4.2475,3.542599 z"
         id="path6658" /><path
         style="display:inline;fill:#ffffff;fill-opacity:1;stroke:#ffffff;stroke-width:0.2;stroke-linecap:round;stroke-linejoin:round;stroke-miterlimit:2.6;stroke-opacity:1"
         d="m 105.40156,87.329795 c 0.90909,1.289803 3.15946,0.375176 3.9492,1.341964 0.5669,0.693989 0.29249,1.397839 -0.15337,2.683922 2.53999,-1.533248 1.41405,-2.185997 1.78928,-3.987543 0.0682,-0.491657 1.68465,-2.866351 3.06735,-2.735048 -0.093,1.394104 -1.59395,1.384304 -1.72843,2.364591 1.27083,-0.393975 1.61616,-0.06585 1.42169,0.344896 -0.6948,1.382615 -1.477,0.890615 -2.1727,1.035227 0.62942,1.252934 2.83246,1.026835 5.17614,0.856301 0.32087,-1.536491 -0.10019,-2.197329 0.16615,-3.297392 18.96824,-19.29355 33.08609,-33.026178 62.09287,-63.09056 -30.33653,27.327754 -47.34514,43.992693 -60.1519,55.958615 0.0609,-1.214669 0.20763,-2.167267 0.61515,-3.143655 2.16,-2.673974 2.79919,-3.498959 5.04844,-5.25577 0.53148,-0.189645 1.51362,-0.04944 1.9042,-0.674426 -0.56596,-0.168247 -0.99176,0.0066 -1.10094,-0.297697 0.59333,-1.505642 1.40469,-2.11459 2.31628,-2.826439 -3.05589,-0.22796 -4.96362,4.133589 -9.76438,8.958288 -0.6547,2.425404 -0.0233,2.917346 -0.70411,4.185833 -1.77978,3.316298 -5.94065,5.200766 -8.6908,7.208255 -0.87669,0.528673 -1.62248,0.32613 -3.08012,0.370638 z"
         id="path6660" /><path
         style="display:inline;fill:#ffffff;fill-opacity:1;stroke:#ffffff;stroke-width:0.2;stroke-linecap:round;stroke-linejoin:round;stroke-miterlimit:2.6;stroke-opacity:1"
         d="m 122.85984,98.052712 c -1.36591,0.68294 -1.69993,1.700487 -1.9043,1.993768 1.27847,-0.366297 1.29065,0.21227 1.35474,0.35786 0.24705,0.9821 -0.52564,1.06102 -1.17584,1.43143 1.14578,1.6547 1.38137,2.41802 1.66148,4.62657 2.79663,-0.50356 6.69247,-0.78166 12.14157,-0.63903 0.28941,1.34379 0.2243,2.18363 1.18202,3.31804 1.00511,0.80094 6.67605,2.06311 18.60158,4.00071 -0.82141,-0.3811 -9.03443,-2.59776 -10.27484,-3.10115 0.56616,-0.74817 1.51694,-1.04871 3.29739,-2.07046 -2.6436,0.33624 -3.43211,1.03327 -4.44765,1.61036 -2.28069,-0.15773 -3.21522,-0.3441 -5.24004,-1.50811 -0.49265,-0.49483 -0.72991,-1.30387 -0.48566,-2.27495 18.25923,-0.31703 20.91574,-0.52356 70.24214,-1.96821 -38.58402,-1.70271 -64.86838,-1.9377 -84.45416,-2.505 -0.14962,-1.799507 0.28312,-1.589938 -0.49843,-3.271828 z"
         id="path6665" /><path
         style="fill:#ffffff;fill-opacity:1;stroke:#ffffff;stroke-width:0.2;stroke-linecap:round;stroke-linejoin:round;stroke-miterlimit:2.6;stroke-opacity:1"
         d="m 119.17548,105.23738 c -0.45573,4.46184 -2.60123,3.5158 -3.15595,3.91232 0.52992,1.80362 2.17305,1.48758 2.08019,3.43091 -1.16938,0.0676 -2.16843,-1.59074 -3.03784,-3.0128 -0.43016,2.17214 1.33868,4.6173 2.72746,5.62166 6.39205,0.24288 5.20654,0.81385 7.56007,3.05057 -0.50344,2.24374 1.2731,3.44915 6.96905,7.39 -2.78844,-4.1594 -5.72843,-5.13759 -4.8643,-6.87551 2.38425,1.15808 40.48158,20.11751 44.80773,22.12324 -4.94544,-3.04508 -49.77716,-29.68004 -51.21552,-30.589 -0.78945,0.89324 -1.10434,1.13338 -2.24507,1.02899 -0.84702,-2.29617 1.88895,-2.09473 0.37418,-6.08038 z"
         id="path6671" /><path
         style="display:inline;fill:#ffffff;fill-opacity:1;stroke:#ffffff;stroke-width:0.2;stroke-linecap:round;stroke-linejoin:round;stroke-miterlimit:2.6;stroke-opacity:1"
         d="m 110.99271,108.14844 c -1.84097,3.60844 -2.98766,2.16179 -4.96094,2.08359 -1.32025,0.65601 -1.51896,0.0258 -2.21588,-0.23151 -0.20969,0.19158 -0.88185,0.54877 -1.28985,0.79375 0.69127,1.47663 1.41996,3.04424 1.75654,4.95492 -0.42774,1.33112 -0.77027,2.26074 0.18259,4.24204 0.10873,-2.0836 0.0863,-3.11098 1.16972,-3.70686 1.86943,1.16953 6.41189,2.82198 7.63985,0.16537 -0.72679,0.25917 -2.14501,0.7022 -2.21589,-0.0331 0.47057,-1.87482 1.9969,-2.12066 4.56407,-0.95912 -0.58027,-1.22141 -1.95556,-2.00573 -3.24115,-2.11667 -1.61045,0.49625 -2.58307,2.75967 -5.43364,2.20786 -1.43974,-0.4763 -2.1277,-2.14768 -2.28203,-3.93568 0.71132,-0.13162 1.43471,-0.29363 1.96098,0.10722 -0.30852,1.74489 -0.008,3.12752 1.09576,3.07945 -0.3047,-1.52881 -0.21803,-2.29195 0.22716,-2.84794 0.63856,-0.76921 2.54785,0.18167 3.04271,-3.80332 z"
         id="path6673" /><path
         style="display:inline;fill:#ffffff;fill-opacity:1;stroke:#ffffff;stroke-width:0.2;stroke-linecap:round;stroke-linejoin:round;stroke-miterlimit:2.6;stroke-opacity:1"
         d="m 114.00034,117.33337 c 1.39317,0.66482 2.24989,1.02005 2.25096,1.79527 -2.83722,-1.02551 -4.28995,-0.70211 -7.01146,1.38907 0.35679,0.6384 4.81572,8.694 5.35781,9.65729 -0.28877,-1.0512 -2.87284,-8.20706 -3.07578,-8.83047 0.41458,-0.67787 1.28807,-1.25329 2.09187,-0.99218 1.54869,1.30094 1.50459,2.77869 2.24069,4.66327 1.25583,1.24348 12.25705,12.34039 12.86536,12.73308 -0.97847,-1.87863 -3.92136,-5.16016 -4.49792,-5.78776 0.40494,-0.50516 0.77921,-0.36091 1.32292,-0.52917 -1.19133,-0.67903 -1.68237,-0.36267 -2.05052,-0.56224 -0.3451,-0.31184 -7.19014,-6.34612 -5.78776,-8.6651 2.88232,1.50944 29.42498,21.50623 31.91536,22.12578 -2.19387,-1.65304 -31.66656,-26.56554 -32.34531,-27.05365 -1.0071,-0.46514 -2.10013,-0.68453 -3.27622,0.0568 z"
         id="path6675" /><path
         style="display:inline;fill:#ffffff;fill-opacity:1;stroke:#ffffff;stroke-width:0.2;stroke-linecap:round;stroke-linejoin:round;stroke-miterlimit:2.6;stroke-opacity:1"
         d="m 100.78335,111.25445 c 1.08035,1.16016 1.27654,1.44593 1.24591,2.47646 -0.28408,1.32281 -1.16327,1.88745 -1.17056,4.19175 1.39898,-0.44956 0.72109,-1.5774 1.8327,-2.71316 0.38137,2.45269 -1.11513,2.34304 -0.28111,5.42396 0.66013,0.71125 1.38308,0.97857 2.91041,0.0662 -0.0896,1.244 -0.99889,1.61588 -1.10794,2.53008 0.6826,4.26705 2.33552,8.99176 1.93927,12.37162 -0.55059,-1.19889 -0.78483,-3.19073 -2.22039,-4.40105 -1.4935,0.59209 -2.18049,1.80383 -3.05925,3.30729 -0.004,0.7709 -0.1143,6.18578 -0.12279,7.03471 0.46996,1.244 2.16042,1.75811 2.92091,2.91358 0.27635,2.42061 0.42175,5.2563 -0.30402,7.78756 -0.79783,-4.18417 0.14004,-7.5371 -3.0168,-8.51253 -0.0992,1.01382 -0.470463,17.91306 -0.491113,19.71447 -0.468402,-1.68268 -1.189425,-30.68401 -1.286234,-32.53005 -0.571048,-1.07387 -1.321342,-1.86163 -1.566868,-2.94664 -0.160509,-1.92986 -0.173343,-4.22625 0.958829,-5.94006 -0.01239,2.02455 -0.183129,2.91318 0.280633,3.20389 1.327943,-1.01328 0.816222,-3.49563 0.958828,-6.38441 1.086685,3.25687 0.914295,3.96518 0.865285,5.61267 -0.309163,1.7219 -1.430451,1.38542 -1.099145,5.02233 1.136115,-1.14947 0.599471,-1.90686 1.520095,-2.77727 0.009,1.79836 0.27789,2.83781 1.63702,3.3676 -1.19525,-2.23075 -0.9581,-3.8231 -0.93544,-7.10937 1.43067,2.42767 1.36808,5.53998 2.17491,5.5425 -0.0355,-1.82232 -0.41484,-3.72594 -0.56127,-5.63605 -1.02716,-1.74825 -2.27862,-2.73469 -3.063575,-5.3788 0.102188,-1.47568 0.930205,-1.95719 1.169305,-3.29743 0.10233,-0.41477 0.17717,-0.95801 -0.1276,-2.93985 z"
         id="path6682" /><path
         style="display:inline;fill:#ffffff;fill-opacity:1;stroke:#ffffff;stroke-width:0.2;stroke-linecap:round;stroke-linejoin:round;stroke-miterlimit:2.6;stroke-opacity:1"
         d="m 109.30655,118.28681 c -1.16869,0.44814 -1.37463,0.73686 -2.1293,0.56811 -0.53475,-0.21879 -0.57417,-0.50165 -1.37861,-1.03583 0.48934,1.40853 0.87805,2.14197 0.67148,3.29431 1.45568,1.02595 3.95254,7.75067 4.30976,8.58582 -1.69579,0.87441 -1.21684,-2.81428 -3.01681,-4.86431 -0.41258,0.8718 0.36088,1.74925 -0.28063,2.05798 -2.10865,-1.28102 0.87575,-4.42744 -1.91766,-3.76516 -0.4208,0.94734 -0.12459,2.45076 0.0468,3.83532 2.53714,1.76489 3.92485,3.88743 4.65383,6.43117 -0.68195,3.41452 0.55549,3.17243 -0.30402,7.17953 1.66189,0.82063 1.79069,1.34029 2.26845,2.50231 -0.32532,-4.42861 -1.53112,-3.12623 -1.02898,-7.67064 0.76161,1.23259 24.532,49.34464 24.532,49.34464 0,0 -27.933,-64.38871 -28.15685,-64.82622 0.17562,-0.28186 1.30528,-0.28109 1.73057,-1.63703 z"
         id="path6677" /><path
         style="fill:#ffffff;fill-opacity:1;stroke:#ffffff;stroke-width:0.2;stroke-linecap:round;stroke-linejoin:round;stroke-miterlimit:2.6;stroke-opacity:1"
         d="m 98.572342,111.37622 c 1.059337,1.1516 1.607778,2.12983 1.426552,3.21559 -1.221179,1.19692 -3.335107,1.71831 -3.55827,5.16522 1.116248,0.28571 0.847297,-2.28831 2.349053,-3.10916 -0.478919,1.39352 -0.935229,3.36875 -0.84541,3.63833 -0.589514,1.20856 -1.405346,2.32791 -2.528904,3.77031 -0.79148,-0.46066 -1.520861,0.0931 -2.447395,0.0331 -0.477098,0.99966 -1.382922,2.78108 -1.852084,3.63802 0.595419,0.66389 1.191879,1.09675 1.320566,1.85042 -0.232086,2.13829 -1.978736,5.45849 -3.800061,8.2335 0.778609,-2.83699 2.373997,-6.98508 2.637524,-8.07048 -0.118271,-0.5029 -0.736672,-1.18346 -1.249435,-1.12047 -0.54511,1.02756 -6.233091,12.42088 -7.448458,14.54142 0.745644,-2.35093 5.990345,-15.15446 8.473718,-21.08986 1.502424,0.11831 3.415669,0.44776 4.233334,-0.7276 0.397452,-1.14594 -1.275292,-3.57579 -0.661459,-5.19245 0.60672,0.61621 0.338158,1.70226 1.025261,1.65365 0.254137,-2.22997 3.05917,-2.75106 2.513541,-4.06797 -4.980757,1.8599 -6.027592,3.97649 -10.616406,3.81993 -0.77725,0.53898 -1.44996,1.34871 -1.918229,2.26549 2.059157,0.48864 1.589965,-2.0037 3.803386,-1.25678 -0.269186,0.4139 -0.448597,1.10979 -0.03307,1.55443 0.761034,-0.80805 1.421552,-2.5403 3.949721,-2.39294 -0.568563,0.87022 -0.906843,0.96602 -1.105451,1.76456 0.365292,0.25551 1.523799,0.39608 2.025474,1.40109 -4.71807,-0.73204 -5.597265,1.2187 -9.103078,4.05594 -1.093506,-0.21871 -1.533112,-0.2203 -2.38125,0.26458 -0.68885,0.6262 -41.179019,36.26398 -44.152343,38.49688 2.532157,-2.71007 45.72485,-44.73387 46.963541,-46.50052 -1.311611,-1.45348 -1.362332,-2.58829 -0.929021,-4.03524 0.488356,1.38416 0.526125,2.78066 2.549594,2.96036 -0.13415,-1.63444 0.969332,-2.83309 2.143436,-2.8354 -1.160846,1.49119 -1.323279,2.25707 -0.721301,3.19921 1.119779,-0.28548 1.893115,-0.4367 2.735188,-0.86485 0,0 1.837097,-3.12318 4.427184,-4.45445 0.836131,0.44608 1.698794,0.45343 1.698794,0.45343 0,0 -3.926425,1.73913 -4.092564,3.26235 2.237823,-1.55496 3.229954,-0.82383 5.168322,-3.51964 z"
         id="path6686" /><path
         style="display:inline;fill:#ffffff;fill-opacity:1;stroke:#ffffff;stroke-width:0.2;stroke-linecap:round;stroke-linejoin:round;stroke-miterlimit:2.6;stroke-opacity:1"
         d="m 89.403334,115.29882 c 3.134909,-1.55287 4.122379,-4.76751 2.843096,-8.36102 -0.179286,-0.76377 -0.08644,-1.72811 -0.769163,-2.8334 -0.07787,0.89073 -0.0027,0.89483 -0.363636,1.44627 -0.954073,-1.37383 -3.036604,-1.84099 -4.787573,0.17898 2.271738,-0.72443 1.080295,2.65871 0.484259,4.13627 -0.57567,0.9196 -2.023658,1.97339 -2.947821,1.40507 -0.510715,-0.35642 0.689265,-1.97842 -0.491109,-3.95225 -0.822021,1.46033 -1.188286,2.93065 -1.651175,4.07539 -0.462888,1.14474 -1.022401,1.9639 -2.230916,2.12192 -1.158868,-0.48881 -2.061461,-1.36795 -0.203089,-1.29458 -0.974833,-1.24436 -2.143136,-1.69119 -3.331733,-2.37987 -4.290548,1.4527 -15.185543,1.85854 -16.39012,2.10758 1.056645,0.34325 8.195608,0.22006 8.886712,0.23386 -0.502195,1.2587 -2.187814,2.24287 -3.195869,3.05625 2.682357,-0.28143 3.509576,-1.77637 4.435332,-2.61191 2.004335,-0.5004 4.165192,-0.49725 6.230385,0.22701 0.758209,0.57539 0.960034,1.28932 0.995428,2.24907 -0.472133,1.71928 -15.466983,15.02423 -16.43993,15.99892 1.289004,-0.69619 19.507934,-13.42349 20.378478,-13.95748 1.523365,0.51448 1.812082,0.68619 2.493111,1.35239 0.770022,-1.68209 0.635398,-2.8819 -0.327406,-4.67722 -1.142238,0.82189 -0.906949,1.79938 -1.924508,2.13665 -0.192895,-1.41521 0.656658,-2.69985 1.643875,-3.42289 0.991484,-0.5212 2.268605,-0.0771 3.274052,-0.53788 1.016253,-0.46568 1.637467,-1.64601 2.688225,-2.0275 0.659465,-0.23942 1.564325,0.43444 1.988992,-0.12402 -0.409494,-0.70013 -0.677734,-1.76045 -0.738667,-2.86562 -0.840114,0.0779 -1.044888,1.48861 -1.225764,2.0705 -0.294368,-1.47491 -0.264545,-2.46616 0.02197,-3.25918 2.013345,-0.0855 3.153669,3.46074 2.206802,5.80967 -1.548314,-0.30986 -3.243956,-0.48806 -4.858184,2.82223 1.775389,-1.12707 2.365276,-2.49144 3.984144,-1.62978 0.630346,0.58675 -0.07518,1.31681 -0.678193,2.50657 z"
         id="path6688" /><path
         style="display:inline;fill:#ffffff;fill-opacity:1;stroke:#ffffff;stroke-width:0.2;stroke-linecap:round;stroke-linejoin:round;stroke-miterlimit:2.6;stroke-opacity:1"
         d="m 79.840089,111.85564 c 0.398311,-0.14134 0.629182,-0.14018 0.74953,-0.43749 -0.143017,-0.37327 -0.565218,-0.8664 -0.351967,-1.2697 0.206802,-0.39111 1.078036,0.063 1.286235,-0.3274 0.175205,-0.3285 -0.138769,-0.76394 -0.374177,-1.05237 -1.304486,0.53624 -3.300324,-0.40528 -3.484528,-2.10475 0.202078,-0.43627 1.689069,0.24839 1.777344,-0.70159 -1.599845,-1.43733 -3.617448,-3.76249 -9.700038,-5.01949 2.739857,1.60227 3.782725,2.17028 3.970446,3.40585 -0.649471,0.001 -7.764179,0.14032 -7.764179,0.14032 l -1.683798,-1.94104 c 0,0 -5.397326,-0.45807 -5.653585,-0.46773 -0.68672,-1.01102 -1.114499,-1.87518 -3.414368,-3.513755 1.668416,2.255965 1.70265,2.883335 1.929352,3.396825 -0.126167,-0.0141 -6.331783,-0.46772 -6.331783,-0.46772 l 12.254309,2.10475 0.654809,0.8419 -59.2135629,0.70158 c 0,0 70.1341029,3.00566 71.3138559,3.09361 1.795488,0.80689 3.636952,2.72219 4.036105,3.6182 z"
         id="path6690" /><path
         style="fill:#ffffff;fill-opacity:1;stroke:#ffffff;stroke-width:0.2;stroke-linecap:round;stroke-linejoin:round;stroke-miterlimit:2.6;stroke-opacity:1"
         d="m 92.304871,97.964304 c -0.08171,0.304632 -0.664406,0.298509 -0.724968,0.608039 -0.01073,1.247305 0.853075,1.385207 1.286234,2.432147 0.177745,-1.352489 -0.871741,-1.947968 -0.210476,-2.408764 0.37479,-0.261169 0.91849,0.909694 1.239465,0.584653 -0.510843,-1.714074 -0.346381,-1.730784 -1.333008,-2.73617 -1.228565,-0.332637 -1.50968,0.862677 -3.456641,0.885833 -0.787305,1.385287 2.110922,3.368788 1.141418,4.633278 -0.870152,0.43823 -2.441945,-0.35029 -3.718386,-0.0935 -1.384835,1.52108 -2.656532,2.2962 -3.957923,2.86797 -1.16708,0.0431 -1.924252,-0.70609 -2.403091,-1.60512 -0.568114,-1.06665 -1.03746,-2.9004 -0.07016,-3.624845 0.228913,-0.171441 0.562888,-0.02014 0.818513,0.257246 -0.01519,0.747519 -0.576598,2.214129 0.672326,2.843419 -0.131676,-1.46381 -0.209619,-2.40622 0.707459,-2.39908 0.481091,0.004 0.659004,0.80514 0.654809,1.28623 -0.0074,0.71508 -0.201995,1.44907 -1.192691,2.24507 2.142552,0.10231 2.582122,-1.37344 3.180508,-2.43216 1.641055,-0.64224 2.437058,-0.3901 4.249417,-0.63778 -2.628094,-1.258711 -3.638729,-0.48113 -5.652582,-0.43798 -0.678787,-0.572978 -0.697608,-1.129256 -1.145918,-1.683794 -1.038277,-0.268355 -2.031064,0.634681 -2.525697,-0.04677 -0.172373,-0.237477 0.02977,-0.65653 0.257247,-0.841899 1.529984,-1.127753 3.713076,0.627774 6.501331,-0.608039 -2.611203,-0.266065 -2.539986,-0.385456 -3.835318,-0.865285 0.122918,-1.100797 1.628876,-1.608659 1.894274,-2.666013 -0.326143,-1.386044 0.09853,-2.590164 -0.467723,-3.695002 -0.874361,-0.843735 -25.949453,-24.025018 -26.9558,-25.085711 -0.136347,-1.242329 -0.476544,-2.836445 -1.430403,-4.282943 0.220565,1.430495 0.808802,2.738747 0.429948,3.538802 -0.332212,-0.328101 -4.750776,-4.736043 -5.878711,-5.399154 0.612714,0.961826 25.259346,25.80659 26.152408,26.813867 -1.352221,0.192596 -8.971447,-4.178596 -9.988021,-4.7625 1.525132,2.183314 7.986902,7.189415 11.707813,6.994922 1.983492,0.708232 3.115582,1.70674 3.902604,3.191536 0.794432,3.247577 -1.315563,4.290736 -2.248958,4.7625 -1.908041,-2.001928 -4.082667,-3.250254 -5.225521,-4.150651 0.346084,1.841637 2.922833,3.154386 2.827734,4.349089 -1.445644,0.299287 -17.06175,-1.980296 -19.04117,-1.970736 1.510858,1.291658 18.378575,4.094337 19.503993,4.536901 0.47993,1.283345 0.902498,3.94937 1.309621,5.19171 -0.529859,-0.12113 -1.098933,-0.35526 -1.868051,-0.93593 1.176162,2.64736 3.505277,2.5655 4.346975,3.74226 -0.751603,0.60895 -1.390273,0.74914 -2.899873,0.98221 2.729179,1.54806 4.42877,-1.03263 5.191709,-1.35639 1.154807,0.87709 0.502494,3.45542 0.07016,4.34981 2.689977,-1.01635 1.483004,-4.00808 1.613638,-5.35541 0.441004,-0.79105 0.969249,-1.45203 1.817266,-1.77001 1.420496,-0.53264 3.148913,0.58609 4.496978,0.32007 0.309743,-0.68521 0.438963,-1.03382 0.374176,-1.56687 -0.496884,-1.30094 -1.744,-2.324443 -1.894273,-3.671607 0.328251,-0.555786 1.030527,-1.057422 1.590254,-0.841899 0.170283,0.06557 0.234356,0.338209 0.187085,0.51445 z"
         id="path6694" /></g></g><metadata
     id="metadata6696"><rdf:RDF><cc:Work
         rdf:about=""><dc:title>Stranger Eye - WIP</dc:title></cc:Work></rdf:RDF></metadata></svg>
